<svg width="682" height="712" viewBox="0 0 682 712" fill="none" xmlns="http://www.w3.org/2000/svg">
    <g clip-path="url(#clip0_421_176)">
        <path fill-rule="evenodd" clip-rule="evenodd"
              d="M443.79 215H231.054C226.606 215 223 211.12 223 206.334V0H451.845V206.334C451.845 211.12 448.239 215 443.79 215Z"
              fill="white"/>
        <path fill-rule="evenodd" clip-rule="evenodd"
              d="M418.846 107.455C418.846 152.638 382.23 189.267 337.062 189.267C291.894 189.267 255.277 152.638 255.277 107.455C255.277 62.2713 291.894 25.6438 337.062 25.6438C382.23 25.6438 418.846 62.2713 418.846 107.455Z"
              fill="#ADC6FF"/>
        <mask id="mask0_421_176" style="mask-type:alpha" maskUnits="userSpaceOnUse" x="255" y="25" width="164"
              height="165">
            <path fill-rule="evenodd" clip-rule="evenodd"
                  d="M418.846 107.455C418.846 152.638 382.23 189.267 337.062 189.267C291.894 189.267 255.277 152.638 255.277 107.455C255.277 62.2713 291.894 25.6438 337.062 25.6438C382.23 25.6438 418.846 62.2713 418.846 107.455Z"
                  fill="#ADC6FF"/>
        </mask>
        <g mask="url(#mask0_421_176)">
            <path fill-rule="evenodd" clip-rule="evenodd"
                  d="M328.345 151.318L345.358 151.454C345.358 151.454 364.921 170.147 335.892 196.831C335.892 196.831 307.39 168.332 328.345 151.318Z"
                  fill="#FF7946"/>
            <path fill-rule="evenodd" clip-rule="evenodd"
                  d="M350.823 155.169H320.916C319.605 155.169 318.645 153.932 318.97 152.661L322.88 137.389H348.858L352.769 152.661C353.094 153.932 352.134 155.169 350.823 155.169Z"
                  fill="#253368"/>
            <path fill-rule="evenodd" clip-rule="evenodd"
                  d="M301.051 136.054L335.869 81.9434L370.69 136.054C372.149 138.324 370.521 141.308 367.823 141.308H303.918C301.22 141.308 299.591 138.324 301.051 136.054Z"
                  fill="#597EF7"/>
            <path fill-rule="evenodd" clip-rule="evenodd"
                  d="M335.782 39.5009C335.777 39.4996 335.772 39.4956 335.772 39.4956V39.5061C335.1 39.842 316.06 54.3378 316.06 64.1312C316.06 84.922 316.235 141.309 316.235 141.309H355.68C355.68 141.309 355.505 84.922 355.505 64.1312C355.505 54.3378 335.786 39.4996 335.782 39.5009Z"
                  fill="white"/>
            <path fill-rule="evenodd" clip-rule="evenodd"
                  d="M342.033 67.0476C345.438 70.4539 345.438 75.9756 342.033 79.3819C338.629 82.7869 333.109 82.7869 329.704 79.3819C326.299 75.9756 326.299 70.4539 329.704 67.0476C333.109 63.6413 338.629 63.6413 342.033 67.0476Z"
                  fill="#253368"/>
            <path fill-rule="evenodd" clip-rule="evenodd"
                  d="M328.833 192.223C328.833 203.597 319.615 212.818 308.245 212.818C296.875 212.818 287.657 203.597 287.657 192.223C287.657 180.849 296.875 171.629 308.245 171.629C319.615 171.629 328.833 180.849 328.833 192.223Z"
                  fill="#E4EBF7"/>
            <path fill-rule="evenodd" clip-rule="evenodd"
                  d="M357.009 198.157C357.009 209.531 347.792 218.751 336.422 218.751C325.051 218.751 315.834 209.531 315.834 198.157C315.834 186.783 325.051 177.562 336.422 177.562C347.792 177.562 357.009 186.783 357.009 198.157Z"
                  fill="#E4EBF7"/>
            <path fill-rule="evenodd" clip-rule="evenodd"
                  d="M419.058 160.52C419.058 173.419 408.606 183.875 395.712 183.875C382.817 183.875 372.363 173.419 372.363 160.52C372.363 147.622 382.817 137.165 395.712 137.165C408.606 137.165 419.058 147.622 419.058 160.52Z"
                  fill="#E4EBF7"/>
            <path fill-rule="evenodd" clip-rule="evenodd"
                  d="M393.68 97.8128C393.68 102.926 389.536 107.071 384.423 107.071C379.311 107.071 375.166 102.926 375.166 97.8128C375.166 92.6981 379.311 88.5542 384.423 88.5542C389.536 88.5542 393.68 92.6981 393.68 97.8128Z"
                  fill="white"/>
            <path fill-rule="evenodd" clip-rule="evenodd"
                  d="M284.138 114.475C284.138 117.363 281.797 119.707 278.908 119.707C276.021 119.707 273.681 117.363 273.681 114.475C273.681 111.586 276.021 109.243 278.908 109.243C281.797 109.243 284.138 111.586 284.138 114.475Z"
                  fill="#E4EBF7"/>
            <path fill-rule="evenodd" clip-rule="evenodd"
                  d="M305.404 167.852C305.404 181.01 294.74 191.678 281.585 191.678C268.432 191.678 257.768 181.01 257.768 167.852C257.768 154.695 268.432 144.027 281.585 144.027C294.74 144.027 305.404 154.695 305.404 167.852Z"
                  fill="#E4EBF7"/>
            <path fill-rule="evenodd" clip-rule="evenodd"
                  d="M372.503 209.48C358.28 209.48 346.748 197.945 346.748 183.715C346.748 169.487 358.28 157.951 372.503 157.951C386.728 157.951 398.259 169.487 398.259 183.715C398.259 197.945 386.728 209.48 372.503 209.48Z"
                  fill="#E4EBF7"/>
        </g>
        <path fill-rule="evenodd" clip-rule="evenodd"
              d="M459.141 390.082C454.659 395.444 450.365 402.045 446.705 409.548C444.067 414.958 442.001 420.339 440.504 425.482C443.921 428.975 447.815 432.408 452.117 435.65C458.394 440.38 464.821 444.161 470.951 446.904C475.433 441.543 479.727 434.942 483.386 427.439C483.924 426.337 484.437 425.237 484.927 424.139C486.163 424.833 487.531 425.319 488.984 425.552C488.429 426.805 487.846 428.06 487.234 429.315C483.676 436.611 479.509 443.15 475.086 448.616C478.017 449.728 480.852 450.586 483.538 451.178C493.044 453.273 500.248 451.974 503.59 447.538C506.932 443.103 506.196 435.82 501.561 427.26C500.771 425.801 499.873 424.315 498.872 422.815C499.429 422.346 499.945 421.827 500.411 421.267C501.544 422.943 502.558 424.605 503.444 426.241C508.156 434.945 509.453 443.314 505.3 448.827C501.146 454.339 492.743 455.399 483.077 453.268C480.074 452.606 476.907 451.629 473.641 450.353C470.96 453.488 468.2 456.225 465.438 458.498C457.73 464.839 449.284 468.091 442.475 464.77C435.666 461.449 433.029 452.791 433.281 442.813C433.422 437.195 434.472 430.875 436.405 424.245C432.329 419.726 429.028 415.142 426.648 410.746C421.935 402.041 420.638 393.672 424.792 388.16C428.946 382.648 437.348 381.588 447.014 383.719C450.017 384.381 453.185 385.358 456.45 386.634C459.132 383.499 461.891 380.762 464.653 378.489C472.361 372.148 480.808 368.895 487.617 372.216C494.426 375.537 497.063 384.195 496.811 394.174C496.747 396.716 496.497 399.401 496.063 402.195C494.778 401.606 493.374 401.232 491.897 401.119C492.264 398.652 492.476 396.291 492.532 394.066C492.775 384.414 490.123 378.202 485.74 376.064C481.357 373.926 474.829 375.661 467.373 381.795C465.116 383.652 462.839 385.865 460.597 388.391C466.717 391.186 473.074 394.964 479.263 399.627C480.858 400.829 482.399 402.058 483.883 403.307C483.288 403.725 482.732 404.193 482.221 404.706C480.854 403.565 479.438 402.44 477.974 401.337C471.698 396.607 465.271 392.826 459.141 390.082ZM455.005 388.371C450.583 393.837 446.416 400.375 442.858 407.671C440.534 412.435 438.625 417.205 437.138 421.848C433.56 417.76 430.655 413.651 428.53 409.726C423.896 401.166 423.16 393.883 426.502 389.448C429.844 385.013 437.048 383.713 446.554 385.809C449.24 386.401 452.074 387.259 455.005 388.371ZM439.848 427.86C438.436 433.276 437.675 438.381 437.56 442.921C437.317 452.573 439.969 458.785 444.352 460.923C448.734 463.06 455.263 461.326 462.719 455.192C464.976 453.335 467.253 451.122 469.495 448.595C463.375 445.801 457.017 442.023 450.829 437.36C446.811 434.331 443.131 431.132 439.848 427.86Z"
              fill="#597EF7"/>
        <path d="M491.004 406.952C487.413 406.952 484.501 409.864 484.501 413.455C484.501 417.047 487.413 419.958 491.004 419.958C494.595 419.958 497.507 417.047 497.507 413.455C497.507 409.864 494.595 406.952 491.004 406.952Z"
              fill="#597EF7"/>
        <path fill-rule="evenodd" clip-rule="evenodd"
              d="M105.593 429.136L95.2294 451.293C95.2294 451.293 16.0488 413.315 2.88067 392.855C-8.80984 374.69 18.8586 330.225 18.8586 330.225C18.8586 330.225 46.499 349.49 51.6689 361.622L47.1259 375.284L105.593 429.136Z"
              fill="#FFC999"/>
        <path fill-rule="evenodd" clip-rule="evenodd"
              d="M209.43 393.546L188.747 342.994L227.619 319.98C227.619 319.98 267.433 389.568 259.304 405.14C249.047 424.79 225.931 424.848 209.43 393.546Z"
              fill="#FFC999"/>
        <path fill-rule="evenodd" clip-rule="evenodd"
              d="M87.8101 413.089C87.8101 413.089 76.3808 357.686 71.349 337.222C66.3172 316.76 58.5577 267.739 66.9926 264.011C75.4256 260.283 95.6256 252.348 95.6256 252.348C95.6256 252.348 111.745 251.664 129.915 255.415C144.302 258.385 144.134 249.911 161.569 252.681C168.952 253.852 197.883 262.707 203.512 267.086C209.139 271.462 199.73 415.331 199.73 415.331C199.73 415.331 206.667 422.376 198.374 431.626C194.262 435.957 176.327 434.614 153.384 434.822C127.268 435.055 96.5678 438.537 90.8363 433.604C80.0693 424.334 87.8101 413.089 87.8101 413.089Z"
              fill="#597EF7"/>
        <path fill-rule="evenodd" clip-rule="evenodd"
              d="M153.196 242.762L136.623 257.055L155.497 276.306L164.754 253.11L153.196 242.762Z" fill="#597EF7"/>
        <path fill-rule="evenodd" clip-rule="evenodd"
              d="M203.917 380.948C203.917 380.948 176.266 333.548 174.122 305.944C172.018 278.875 195.803 258.586 208.112 270.376C226.047 287.555 245.245 345.198 245.245 345.198C245.245 345.198 225.097 371.095 203.917 380.948Z"
              fill="#597EF7"/>
        <path d="M237.242 350.195C237.53 349.767 238.11 349.655 238.537 349.944C238.964 350.233 239.076 350.814 238.787 351.241C235.982 355.394 232.866 359.242 229.493 362.795C224.135 368.437 218.395 373.076 212.653 376.78C210.641 378.078 208.771 379.167 207.091 380.055C206.736 380.242 206.406 380.412 206.1 380.566L205.23 380.989C205.105 381.048 205.01 381.091 204.948 381.118C204.476 381.326 203.926 381.112 203.718 380.64C203.51 380.168 203.724 379.617 204.196 379.409L204.568 379.236L204.712 379.167C205.059 379 205.451 378.804 205.886 378.578L206.22 378.403C207.854 377.539 209.677 376.478 211.643 375.21C217.266 371.583 222.891 367.037 228.14 361.508C231.444 358.028 234.496 354.26 237.242 350.195Z"
              fill="#253368"/>
        <path fill-rule="evenodd" clip-rule="evenodd"
              d="M6.99902 352.567C6.99902 352.567 39.0425 283.897 56.3003 270.458C73.56 257.018 81.2597 264.083 88.2337 273.656C92.6237 279.681 102.725 296.782 80.4463 332.852C63.6698 360.013 56.638 370.08 54.6361 374.612C26.505 372.725 6.99902 352.567 6.99902 352.567Z"
              fill="#597EF7"/>
        <path fill-rule="evenodd" clip-rule="evenodd"
              d="M136.846 261.302L153.412 242.998L148.251 188.544L104.749 192.142L104.387 247.448L136.846 261.302Z"
              fill="#FFC999"/>
        <path fill-rule="evenodd" clip-rule="evenodd"
              d="M159.421 183.141C159.421 183.141 165.947 176.103 168.845 180.695C171.742 185.286 167.16 201.998 159.947 202.573C150.313 203.341 159.421 183.141 159.421 183.141Z"
              fill="#FFC999"/>
        <path fill-rule="evenodd" clip-rule="evenodd"
              d="M118.249 226.54C118.249 226.54 132.652 237.873 151.188 225.978C164.534 217.416 165.593 187.377 162.541 165.407C160.813 152.975 154.94 146.387 142.729 142.948C130.516 139.507 97.607 140.058 98.1462 176.734C98.747 217.584 118.249 226.54 118.249 226.54Z"
              fill="#FFC999"/>
        <path d="M141.602 171.632C141.921 171.706 142.134 171.998 142.119 172.315L142.102 172.434L140.333 180.08L144.878 200.752C144.96 201.124 144.716 201.481 144.356 201.552L144.245 201.564L135.471 201.82C135.102 201.831 134.794 201.54 134.783 201.171C134.774 200.839 135.008 200.556 135.324 200.495L135.432 200.483L143.399 200.25L138.997 180.22C138.982 180.155 138.978 180.089 138.983 180.023L138.998 179.925L140.801 172.133C140.874 171.813 141.166 171.6 141.483 171.616L141.602 171.632Z"
              fill="#DD936F"/>
        <path d="M112.821 170.064C118.658 165.539 125.964 165.166 132.152 168.345C133.068 168.817 133.43 169.942 132.959 170.86C132.489 171.778 131.364 172.14 130.448 171.669C125.499 169.126 119.747 169.42 115.106 173.018C114.291 173.649 113.119 173.5 112.488 172.684C111.857 171.869 112.007 170.695 112.821 170.064Z"
              fill="#253368"/>
        <path fill-rule="evenodd" clip-rule="evenodd"
              d="M146.164 205.09C136.934 206.31 127.773 204.422 127.773 204.422C127.773 204.422 129.669 211.034 137.012 211.462C145.158 211.934 146.164 205.09 146.164 205.09Z"
              fill="white"/>
        <path d="M126.877 204.679C127.164 205.679 127.847 207.119 129.072 208.558C130.964 210.781 133.572 212.197 136.958 212.394C140.944 212.625 143.761 211.257 145.521 208.837C146.495 207.498 146.949 206.162 147.087 205.226C147.177 204.613 146.656 204.083 146.042 204.164C141.284 204.793 136.192 204.652 131.326 204.035C130.592 203.942 129.914 203.843 129.3 203.744L128.239 203.561C128.12 203.539 128.028 203.52 127.962 203.507C127.275 203.365 126.684 204.005 126.877 204.679ZM129.455 205.88L129.32 205.638L129.49 205.665C129.99 205.741 130.525 205.816 131.091 205.888L132.034 206.001C136.128 206.467 140.353 206.596 144.421 206.224L144.871 206.178L144.757 206.452C144.559 206.892 144.312 207.326 144.012 207.738C142.623 209.65 140.411 210.723 137.067 210.529C134.213 210.363 132.068 209.198 130.492 207.347C130.092 206.876 129.747 206.382 129.455 205.88Z"
              fill="#FF7946"/>
        <path fill-rule="evenodd" clip-rule="evenodd"
              d="M102.625 192.369L95.2107 178.381C95.2107 178.381 90.2927 158.099 94.8319 149.248C101.879 135.51 118.614 135.551 128.472 131.731C138.333 127.911 138.174 124.568 142.213 125.046C146.251 125.524 162.055 136.111 164.027 147.462C165.76 157.442 163.706 182.994 163.706 182.994C163.706 182.994 160.46 160.466 158.169 154.543C150.24 151.405 121.642 151.795 109.78 155.71C109.78 155.71 108.894 163.419 108.401 168.845C102.101 173.547 102.625 192.369 102.625 192.369Z"
              fill="#253368"/>
        <path d="M151.429 224.699C151.672 224.421 152.094 224.393 152.372 224.637C152.649 224.881 152.677 225.303 152.433 225.581L152.266 225.761C152.068 225.965 151.776 226.239 151.39 226.564C150.543 227.275 149.522 227.984 148.322 228.645C141.736 232.269 132.953 232.976 121.908 228.972C121.562 228.846 121.382 228.463 121.508 228.115C121.633 227.768 122.016 227.589 122.363 227.714C133.045 231.587 141.428 230.912 147.678 227.473C148.799 226.856 149.749 226.196 150.531 225.54C150.992 225.152 151.291 224.856 151.429 224.699Z"
              fill="#DD936F"/>
        <path d="M141.102 176.897C141.839 176.852 142.472 177.414 142.517 178.151C142.558 178.839 142.072 179.437 141.409 179.55L141.264 179.567L134.814 179.957C134.078 180.002 133.444 179.44 133.4 178.703C133.358 178.015 133.844 177.417 134.508 177.304L134.653 177.287L141.102 176.897Z"
              fill="#253368"/>
        <path d="M135.444 181.332C136.781 180.723 138.15 180.398 139.496 180.528C140.673 180.641 141.745 181.107 142.638 181.958C143.173 182.467 143.194 183.314 142.685 183.849C142.176 184.384 141.331 184.405 140.796 183.895C140.35 183.47 139.839 183.248 139.24 183.19C138.435 183.113 137.498 183.335 136.55 183.767C136.046 183.996 135.663 184.223 135.47 184.358C134.865 184.78 134.032 184.632 133.61 184.026C133.188 183.42 133.337 182.586 133.942 182.164C134.259 181.943 134.776 181.636 135.444 181.332Z"
              fill="#253368"/>
        <path d="M145.529 167.64C148.599 166.43 151.711 165.769 154.691 165.963C156.859 166.103 158.862 166.701 160.634 167.82C161.506 168.371 161.767 169.524 161.217 170.397C160.667 171.269 159.515 171.531 158.644 170.98C157.426 170.211 156.024 169.793 154.449 169.69C152.099 169.538 149.498 170.09 146.896 171.116C146.078 171.438 145.323 171.784 144.651 172.128L144.213 172.358C144.049 172.446 143.929 172.515 143.855 172.559C142.972 173.091 141.826 172.804 141.295 171.92C140.764 171.036 141.05 169.888 141.934 169.357C142.673 168.912 143.92 168.274 145.529 167.64Z"
              fill="#253368"/>
        <path d="M140.277 214.376C140.646 214.358 140.959 214.643 140.976 215.012C140.992 215.344 140.763 215.631 140.449 215.698L140.341 215.712L135.081 215.962C134.713 215.98 134.4 215.695 134.383 215.326C134.367 214.994 134.596 214.707 134.91 214.64L135.018 214.626L140.277 214.376Z"
              fill="#DD936F"/>
        <path d="M110.777 180.242C111.514 180.211 112.137 180.784 112.168 181.522C112.197 182.211 111.7 182.8 111.034 182.9L110.889 182.914L100.303 183.359C99.5659 183.39 98.9432 182.816 98.9123 182.078C98.8835 181.39 99.3803 180.801 100.046 180.7L100.191 180.686L110.777 180.242Z"
              fill="#253368"/>
        <path fill-rule="evenodd" clip-rule="evenodd"
              d="M111.513 177.579L131.719 176.617C133.129 176.55 134.327 177.637 134.385 179.049C134.489 181.685 134.544 185.918 134.03 189.566C133.426 193.871 129.719 196.665 125.394 197.072C119.997 197.581 115.138 197.816 112.551 195.122C108.605 191.015 109.187 183.919 109.09 180.181C109.054 178.808 110.146 177.645 111.513 177.579Z"
              fill="white"/>
        <path d="M131.696 176.172L111.491 177.134C109.879 177.211 108.602 178.58 108.644 180.193L108.656 181.156L108.658 181.802C108.664 184.729 108.725 186.226 109.003 188.062C109.47 191.14 110.474 193.605 112.229 195.431C114.577 197.875 118.046 198.211 125.434 197.516C130.155 197.071 133.859 193.981 134.47 189.627C134.874 186.752 134.968 183.382 134.857 179.849L134.828 179.031C134.76 177.373 133.355 176.093 131.696 176.172ZM131.739 177.062C132.844 177.01 133.787 177.813 133.924 178.886L133.939 179.067C134.089 182.847 134.015 186.471 133.589 189.503C133.038 193.422 129.684 196.221 125.351 196.629C118.249 197.297 114.949 196.978 112.87 194.814C111.261 193.139 110.325 190.839 109.883 187.928L109.797 187.311C109.626 185.988 109.568 184.73 109.553 182.762L109.533 180.17C109.504 179.042 110.404 178.078 111.533 178.024L131.739 177.062Z"
              fill="#253368"/>
        <path fill-rule="evenodd" clip-rule="evenodd"
              d="M143.016 175.855L165.892 174.766C166.897 178.074 166.694 191.052 162.901 194.012C157.772 197.021 147.095 196.332 145.309 193.601C142.602 189.458 141.289 181.373 141.167 177.87C141.128 176.802 141.951 175.905 143.016 175.855Z"
              fill="white"/>
        <path d="M165.872 174.321L142.997 175.41C141.688 175.472 140.676 176.574 140.724 177.887C140.896 182.847 142.593 190.256 144.938 193.845C146.97 196.953 158.037 197.384 163.128 194.397C166.564 191.719 167.781 179.444 166.319 174.636C166.26 174.441 166.076 174.311 165.872 174.321ZM165.559 175.227L165.614 175.446C166.74 180.292 165.537 191.391 162.629 193.661C157.948 196.403 147.406 195.992 145.683 193.357C143.444 189.93 141.78 182.668 141.614 177.855C141.583 177.029 142.217 176.339 143.039 176.3L165.559 175.227Z"
              fill="#253368"/>
        <path d="M134.375 175.951C135.112 175.936 135.723 176.521 135.739 177.26C135.753 177.949 135.245 178.528 134.577 178.615L134.432 178.625L109.356 179.16C108.619 179.175 108.008 178.589 107.992 177.851C107.978 177.162 108.487 176.583 109.154 176.496L109.3 176.485L134.375 175.951Z"
              fill="#253368"/>
        <path d="M166.02 173.928C166.756 173.883 167.39 174.443 167.435 175.181C167.477 175.869 166.992 176.467 166.329 176.581L166.184 176.598L141.657 178.111C140.921 178.156 140.287 177.595 140.242 176.858C140.199 176.17 140.685 175.572 141.348 175.458L141.493 175.441L166.02 173.928Z"
              fill="#253368"/>
        <path fill-rule="evenodd" clip-rule="evenodd"
              d="M99.1939 181.016C96.5875 178.371 92.5707 177.665 89.7572 180.762C85.2272 185.752 89.6061 204.14 101.942 204.816C106.619 204.132 103.263 185.144 99.1939 181.016Z"
              fill="#FFC999"/>
        <path fill-rule="evenodd" clip-rule="evenodd"
              d="M127.652 184.203C127.725 186.497 126.458 188.4 124.82 188.451C123.184 188.503 121.797 186.687 121.725 184.394C121.652 182.098 122.921 180.196 124.557 180.144C126.193 180.092 127.579 181.909 127.652 184.203Z"
              fill="#253368"/>
        <path fill-rule="evenodd" clip-rule="evenodd"
              d="M155.314 183.322C155.387 185.616 154.118 187.517 152.482 187.57C150.846 187.622 149.46 185.805 149.387 183.511C149.314 181.217 150.583 179.316 152.219 179.263C153.855 179.211 155.241 181.028 155.314 183.322Z"
              fill="#253368"/>
        <path fill-rule="evenodd" clip-rule="evenodd"
              d="M216.859 391.369C216.859 391.369 224.861 419.979 250.157 414.721C267.429 411.129 284.262 320.948 285.594 310.473C286.545 302.985 263.996 301.754 263.996 301.754L216.859 391.369Z"
              fill="#FFC999"/>
        <path fill-rule="evenodd" clip-rule="evenodd"
              d="M91.6037 877.455L143.034 528.287L146.362 527.544L149.435 875.783C149.435 875.783 178.296 884.146 193.46 874.9C193.611 806.967 214.028 586.398 206.613 485.674C205.419 469.457 200.296 447.437 199.259 441.314C152.961 433.79 89.947 444.861 89.947 444.861L47.2988 872.43C47.2988 872.43 70.2451 884.465 91.6037 877.455Z"
              fill="#ADC6FF"/>
        <path d="M169.857 513.886C170.187 513.722 170.588 513.857 170.752 514.187C170.898 514.481 170.808 514.831 170.554 515.021L170.451 515.084L142.663 528.902C142.333 529.066 141.932 528.931 141.768 528.601C141.622 528.307 141.713 527.957 141.966 527.767L142.069 527.704L169.857 513.886Z"
              fill="#597EF7"/>
        <path fill-rule="evenodd" clip-rule="evenodd"
              d="M90.5526 433.46C90.5526 433.46 149.386 424.362 198.396 432.629C198.827 436.972 199.28 442.318 199.28 442.318C199.28 442.318 159.61 432.836 90.3623 446.453C90.4761 434.661 90.5526 433.46 90.5526 433.46Z"
              fill="#ADC6FF"/>
        <path d="M110.713 445.703C131.936 443.872 153.628 443.1 173.88 443.988C182.472 444.365 190.582 445.039 198.131 446.036C198.497 446.084 198.754 446.42 198.706 446.786C198.658 447.152 198.322 447.41 197.956 447.362C190.448 446.37 182.377 445.699 173.822 445.324C153.635 444.439 131.998 445.209 110.828 447.036C106.38 447.419 102.248 447.826 98.4966 448.237L96.4881 448.461C95.6347 448.558 94.8384 448.651 94.1016 448.74L91.1667 449.108C90.8012 449.157 90.4647 448.901 90.4153 448.535C90.3658 448.169 90.6221 447.832 90.9877 447.782L91.8222 447.674L93.9422 447.412C94.6817 447.323 95.4809 447.23 96.3372 447.132L98.3511 446.907C102.113 446.496 106.254 446.088 110.713 445.703Z"
              fill="#597EF7"/>
        <path d="M110.362 430.716C131.593 428.884 153.292 428.111 173.555 428.999C182.156 429.376 190.276 430.05 197.834 431.048C198.345 431.115 198.704 431.585 198.637 432.096C198.569 432.607 198.101 432.967 197.59 432.9C190.089 431.909 182.023 431.239 173.473 430.865C154.049 430.014 133.279 430.697 112.875 432.378L110.522 432.577C105.671 432.995 101.197 433.441 97.1816 433.889L94.9509 434.144L91.9604 434.507L90.8705 434.648C90.36 434.717 89.8901 434.359 89.821 433.847C89.752 433.336 90.1099 432.866 90.6204 432.797L92.0154 432.617C92.8273 432.515 93.7351 432.405 94.7342 432.289L95.9766 432.146C100.26 431.658 105.089 431.171 110.362 430.716Z"
              fill="#253368"/>
        <path d="M149.568 431.724C149.9 431.724 150.176 431.967 150.228 432.284L150.236 432.393L150.221 437.251C150.202 440.945 150.168 445.044 150.115 449.445C149.963 461.941 149.689 474.422 149.261 486.073L149.13 489.505C148.589 503.049 147.861 514.408 146.921 522.933C146.88 523.3 146.55 523.565 146.184 523.524C145.817 523.484 145.552 523.153 145.593 522.786L145.817 520.661C146.721 511.696 147.416 499.929 147.926 486.024C148.323 475.216 148.587 463.692 148.744 452.103L148.818 445.9C148.842 443.595 148.86 441.389 148.874 439.297L148.901 432.4C148.9 432.024 149.199 431.724 149.568 431.724Z"
              fill="#597EF7"/>
        <path fill-rule="evenodd" clip-rule="evenodd"
              d="M161.031 436.486C161.068 438.149 160.051 439.522 158.758 439.552C157.467 439.58 156.389 438.255 156.35 436.593C156.314 434.929 157.331 433.557 158.622 433.528C159.913 433.498 160.991 434.824 161.031 436.486Z"
              fill="white"/>
        <path d="M243.87 339.362C244.051 339.041 244.458 338.927 244.78 339.109C245.065 339.27 245.187 339.61 245.083 339.91L245.033 340.02L225.259 375.117C225.077 375.438 224.67 375.552 224.349 375.371C224.063 375.209 223.942 374.869 224.045 374.57L224.095 374.46L243.87 339.362Z"
              fill="#DD936F"/>
        <path fill-rule="evenodd" clip-rule="evenodd"
              d="M136.804 259.265L120.737 280.72L96.3389 252.39L105.132 241.233L136.804 259.265Z" fill="#597EF7"/>
        <path d="M137.538 260.415C137.998 260.242 138.512 260.476 138.685 260.937L138.869 261.473L139.051 262.047C139.148 262.36 139.252 262.71 139.363 263.099L139.592 263.92C140.058 265.624 140.565 267.705 141.105 270.192L141.381 271.485C143.083 279.598 144.777 290.227 146.363 303.693L146.657 306.234C148.165 319.494 149.492 334.799 150.592 352.295L150.698 353.995C152.501 383.29 152.29 408.418 151.007 427.252C150.973 427.744 150.548 428.115 150.057 428.081C149.567 428.048 149.196 427.622 149.229 427.131L149.356 425.201C150.519 406.667 150.657 382.329 148.919 354.104L148.707 350.724C147.594 333.399 146.257 318.261 144.741 305.163L144.594 303.902C142.971 290.125 141.237 279.343 139.501 271.207L139.364 270.57C138.742 267.706 138.166 265.395 137.65 263.59L137.445 262.889C137.38 262.672 137.318 262.473 137.26 262.29L137.017 261.564C136.844 261.103 137.077 260.589 137.538 260.415Z"
              fill="#253368"/>
        <path d="M204.272 271.369C204.787 271.348 205.222 271.748 205.243 272.264L205.28 273.461C205.398 278.461 205.267 284.187 204.693 289.633C204.335 293.03 203.823 296.05 203.135 298.604L202.984 299.145L203.037 299.242L203.095 299.366C203.246 299.706 203.384 300.199 203.521 300.859C203.787 302.147 204.05 304.09 204.287 306.556L204.395 307.743C204.872 313.225 205.191 320.536 205.276 328.955C205.508 351.922 204.049 379.645 200.557 409.845L200.377 411.381L200.618 411.995L200.694 412.199C200.999 413.018 201.303 413.924 201.587 414.892C202.269 417.217 202.727 419.525 202.857 421.698C203.074 425.323 202.36 428.282 200.439 430.294C200.083 430.667 199.492 430.68 199.12 430.323C198.747 429.967 198.734 429.376 199.09 429.003C200.588 427.435 201.183 424.966 200.995 421.809C200.875 419.794 200.443 417.619 199.797 415.419C199.58 414.68 199.351 413.979 199.119 413.328L198.945 412.85C198.773 412.386 198.639 412.055 198.566 411.884C198.501 411.733 198.477 411.568 198.497 411.406C202.06 381.186 203.587 353.4 203.422 330.325L203.41 328.974C203.325 320.601 203.009 313.339 202.537 307.91L202.429 306.734C202.199 304.33 201.944 302.448 201.694 301.238C201.63 300.929 201.567 300.672 201.51 300.472L201.451 300.286C201.127 300.095 200.916 299.733 200.994 299.315L201.022 299.2C201.838 296.551 202.436 293.246 202.838 289.437C203.362 284.467 203.51 279.238 203.436 274.572L203.388 272.565C203.385 272.476 203.382 272.402 203.379 272.342C203.358 271.827 203.757 271.392 204.272 271.369Z"
              fill="#253368"/>
        <path d="M158.732 287.971L158.541 287.97C157.999 287.969 157.569 288.429 157.608 288.971L159.979 322.23C160.002 322.546 160.182 322.829 160.459 322.982L178.531 332.95C178.841 333.121 179.221 333.102 179.512 332.9L193.357 323.303C193.584 323.146 193.729 322.897 193.755 322.622L193.843 321.484L193.917 320.344C193.949 319.801 193.981 319.21 194.012 318.57L194.035 318.081C194.324 311.779 194.414 303.624 194.186 293.56C194.178 293.201 193.964 292.878 193.637 292.73C189.175 290.718 182.054 289.412 173.235 288.652C170.062 288.379 166.852 288.194 163.734 288.083L161.798 288.023C160.591 287.991 159.556 287.975 158.732 287.971ZM161.804 321.59L159.54 289.846L161.045 289.873C161.834 289.89 162.713 289.915 163.667 289.95C166.756 290.06 169.935 290.243 173.075 290.513L173.854 290.582L175.384 290.729C182.435 291.442 188.219 292.545 192.074 294.094L192.333 294.201L192.363 295.649C192.528 304.398 192.445 311.615 192.2 317.341L192.102 319.391C192.07 319.975 192.038 320.511 192.006 320.998L191.933 322.018L178.925 331.034L161.804 321.59Z"
              fill="#253368"/>
        <path fill-rule="evenodd" clip-rule="evenodd"
              d="M138.169 275.304C138.209 276.966 137.115 278.341 135.731 278.373C134.347 278.403 133.194 277.08 133.156 275.418C133.119 273.754 134.21 272.381 135.595 272.349C136.979 272.317 138.132 273.64 138.169 275.304Z"
              fill="white"/>
        <path fill-rule="evenodd" clip-rule="evenodd"
              d="M142.369 305.841C142.408 307.504 141.314 308.879 139.93 308.91C138.546 308.94 137.393 307.618 137.355 305.955C137.318 304.291 138.41 302.918 139.794 302.887C141.178 302.855 142.331 304.179 142.369 305.841Z"
              fill="white"/>
        <path fill-rule="evenodd" clip-rule="evenodd"
              d="M145.12 338.923C145.158 340.585 144.066 341.96 142.68 341.991C141.296 342.021 140.145 340.699 140.105 339.037C140.068 337.372 141.161 335.999 142.546 335.968C143.928 335.936 145.081 337.258 145.12 338.923Z"
              fill="white"/>
        <path fill-rule="evenodd" clip-rule="evenodd"
              d="M146.322 370.03C146.36 371.694 145.268 373.067 143.882 373.099C142.498 373.129 141.347 371.806 141.307 370.144C141.272 368.479 142.363 367.107 143.748 367.075C145.132 367.043 146.283 368.367 146.322 370.03Z"
              fill="white"/>
        <path fill-rule="evenodd" clip-rule="evenodd"
              d="M146.75 411.199C146.788 412.861 145.696 414.236 144.31 414.268C142.926 414.297 141.774 412.975 141.735 411.313C141.7 409.648 142.791 408.275 144.176 408.244C145.56 408.212 146.711 409.534 146.75 411.199Z"
              fill="white"/>
        <path d="M96.0739 252.582C96.4132 252.29 96.9089 252.299 97.2371 252.584L97.3302 252.677L120.231 279.357L136.33 260.357C136.62 260.015 137.111 259.946 137.479 260.176L137.586 260.254C137.927 260.543 137.996 261.035 137.767 261.404L137.689 261.511L120.915 281.308C120.59 281.691 120.022 281.725 119.654 281.408L119.56 281.312L95.9789 253.84C95.6582 253.466 95.7008 252.903 96.0739 252.582Z"
              fill="#253368"/>
        <path d="M163.919 253.331C164.074 252.864 164.578 252.61 165.045 252.766C165.474 252.908 165.722 253.344 165.641 253.776L165.61 253.893L157 279.866C156.804 280.458 156.087 280.659 155.614 280.294L155.516 280.207L137.031 261.207C136.688 260.854 136.695 260.29 137.048 259.946C137.365 259.637 137.853 259.612 138.198 259.867L138.307 259.963L155.77 277.911L163.919 253.331Z"
              fill="#253368"/>
        <path d="M164.284 444.516C164.649 444.46 164.991 444.709 165.047 445.074L165.112 445.513C165.163 445.87 165.22 446.285 165.282 446.755L165.431 447.947C165.555 448.975 165.678 450.088 165.794 451.273C166.502 458.476 166.767 465.878 166.331 472.798L166.249 473.98C165.072 489.607 160.389 499.511 151.01 500.853C150.644 500.906 150.306 500.652 150.254 500.286C150.202 499.92 150.455 499.582 150.821 499.529C159.57 498.278 164.007 488.446 164.998 472.714C165.429 465.875 165.166 458.541 164.465 451.404L164.324 450.03C164.228 449.137 164.13 448.295 164.031 447.508L163.87 446.273L163.727 445.28C163.671 444.915 163.92 444.573 164.284 444.516Z"
              fill="#597EF7"/>
        <path d="M56.3133 276.665C56.5725 276.219 57.1436 276.068 57.5889 276.328L57.7612 276.433C57.9298 276.538 58.1599 276.69 58.445 276.89C59.0985 277.347 59.8236 277.907 60.6021 278.573C62.8151 280.467 65.024 282.841 67.0831 285.728C75.1031 296.974 78.6238 312.465 75.1456 332.735C75.0583 333.243 74.576 333.585 74.0682 333.497C73.5605 333.41 73.2196 332.927 73.3068 332.419C76.7009 312.64 73.2948 297.653 65.5647 286.813C63.5969 284.054 61.4912 281.791 59.3897 279.993C58.78 279.471 58.2082 279.021 57.6844 278.64L57.376 278.42C57.0201 278.171 56.7722 278.013 56.6502 277.942C56.2049 277.683 56.0541 277.111 56.3133 276.665Z"
              fill="#253368"/>
        <path d="M6.35045 351.896C6.72063 351.537 7.3112 351.547 7.66953 351.918L8.0236 352.273C8.18043 352.427 8.37574 352.616 8.60847 352.838L9.31011 353.495C9.92168 354.06 10.6001 354.665 11.3423 355.304C14.3146 357.861 17.6884 360.418 21.3967 362.805C32.1081 369.699 43.371 373.788 54.6272 373.678C55.1424 373.673 55.5641 374.087 55.5693 374.603C55.5741 375.118 55.1606 375.541 54.6454 375.546C42.9737 375.659 31.3793 371.45 20.3878 364.376C16.6027 361.94 13.1609 359.331 10.1264 356.72L9.24601 355.953C8.67997 355.452 8.15589 354.975 7.6753 354.524L7.11836 353.996L6.32899 353.217C5.97066 352.846 5.98028 352.255 6.35045 351.896Z"
              fill="#DD936F"/>
        <path d="M93.4183 184.084C93.5543 183.741 93.9426 183.573 94.2855 183.709L94.5215 183.812C94.6617 183.877 94.8336 183.962 95.0301 184.069C95.5709 184.363 96.1115 184.72 96.6185 185.144C98.4725 186.694 99.4087 188.712 98.8549 191.164C98.6443 192.094 98.221 192.592 97.431 193.071L97.0894 193.266C96.4121 193.643 96.2436 193.829 96.185 194.409C96.0718 195.518 96.5792 196.343 97.5491 196.973C97.8736 197.184 98.2256 197.355 98.5778 197.487L98.8022 197.566C98.9004 197.598 98.9764 197.62 99.0241 197.631C99.383 197.717 99.6047 198.077 99.5193 198.437C99.4339 198.796 99.0738 199.018 98.7149 198.932C98.2261 198.816 97.528 198.554 96.8219 198.095C95.4676 197.215 94.6855 195.943 94.856 194.273C94.9607 193.237 95.3614 192.734 96.2441 192.21L96.5732 192.023C97.1982 191.673 97.4234 191.436 97.552 190.868C97.9809 188.969 97.2651 187.427 95.7622 186.171C95.3281 185.808 94.8603 185.498 94.3928 185.244L94.0937 185.089C93.9622 185.024 93.8595 184.979 93.7929 184.952C93.45 184.816 93.2823 184.427 93.4183 184.084Z"
              fill="#DD936F"/>
        <path d="M176.67 525.242C177.038 525.217 177.357 525.494 177.383 525.863C177.406 526.194 177.184 526.486 176.871 526.56L176.763 526.576L154.727 528.127C154.36 528.153 154.04 527.875 154.014 527.507C153.991 527.175 154.213 526.883 154.526 526.809L154.634 526.793L176.67 525.242Z"
              fill="#597EF7"/>
        <path fill-rule="evenodd" clip-rule="evenodd"
              d="M260.346 309.485L273.311 260.235C273.311 260.235 295.276 220.068 303.511 222.364C311.177 225.562 294.188 237.253 290.979 248.548C298.21 247.898 295.117 258.741 295.117 258.741C295.117 258.741 300.878 258.427 299.487 267.241C304.895 270.316 300.789 280.475 300.789 280.475C300.789 280.475 290.512 307.234 278.919 325.166C278.919 325.166 259.428 340.805 260.346 309.485Z"
              fill="#FFC999"/>
        <path fill-rule="evenodd" clip-rule="evenodd"
              d="M263.126 292.873C263.126 292.873 264.889 276.031 266.279 267.442C267.671 258.856 263.781 243.461 270.089 247.443C274.331 250.123 273.768 259.332 273.74 266.116C273.712 272.902 284.942 288.779 276.99 300.053C271.617 307.671 262.947 308.817 263.126 292.873Z"
              fill="#FFC999"/>
        <path d="M291.432 248.054C291.704 248.304 291.722 248.727 291.472 248.999L291.08 249.438L290.312 250.327C290.221 250.435 290.128 250.545 290.033 250.659C288.949 251.953 287.866 253.337 286.855 254.751C285.858 256.148 284.986 257.5 284.277 258.777C281.774 263.289 281.588 266.22 284.144 267.233C284.487 267.369 284.655 267.758 284.519 268.101C284.383 268.445 283.995 268.613 283.652 268.477C280.022 267.037 280.261 263.261 283.11 258.128C283.845 256.802 284.744 255.408 285.769 253.973C286.801 252.528 287.905 251.118 289.01 249.799L289.568 249.141L290.488 248.095C290.737 247.823 291.16 247.804 291.432 248.054Z"
              fill="#DD936F"/>
        <path d="M294.96 258.661C295.19 258.95 295.142 259.371 294.853 259.601L294.437 259.941L293.907 260.388C293.721 260.546 293.527 260.713 293.326 260.89C292.175 261.896 291.025 262.974 289.953 264.079C288.832 265.233 287.864 266.351 287.093 267.402C284.909 270.381 284.563 272.401 286.245 273.392C286.878 273.766 287.579 273.859 288.363 273.698C289.622 273.439 291.033 272.537 292.47 271.192C293.095 270.608 293.682 269.979 294.213 269.351L294.665 268.799C294.754 268.686 294.824 268.593 294.875 268.524C295.093 268.226 295.511 268.162 295.808 268.38C296.106 268.599 296.17 269.017 295.952 269.315L295.616 269.75C295.506 269.886 295.378 270.042 295.233 270.214C294.671 270.88 294.049 271.546 293.383 272.169C291.782 273.668 290.184 274.689 288.632 275.008C287.537 275.233 286.5 275.095 285.567 274.544C282.936 272.994 283.424 270.146 286.016 266.611C286.827 265.504 287.835 264.342 288.994 263.147C290.094 262.013 291.271 260.911 292.447 259.882C292.858 259.522 293.241 259.197 293.585 258.912L294.022 258.554C294.31 258.324 294.73 258.372 294.96 258.661Z"
              fill="#DD936F"/>
        <path d="M297.452 267.257C297.815 267.193 298.162 267.436 298.226 267.8C298.29 268.163 298.047 268.51 297.684 268.574C296.471 268.788 294.973 269.891 293.209 272.047C289.492 276.589 288.739 279.554 290.016 280.271C291.285 280.983 294.087 279.643 295.842 277.031C296.305 276.342 297.359 276.948 296.997 277.696C294.73 282.384 292.011 285.534 288.509 288C287.804 288.497 287.074 288.963 286.253 289.447L285.749 289.741C285.427 289.926 285.099 290.11 284.711 290.324L283.11 291.203C277.533 294.281 275.361 296.737 274.245 302.875C274.179 303.238 273.831 303.479 273.468 303.413C273.105 303.347 272.865 302.999 272.931 302.635C274.076 296.337 276.353 293.539 281.699 290.463L284.6 288.856C284.767 288.762 284.927 288.671 285.085 288.581C286.083 288.007 286.932 287.476 287.741 286.906C289.954 285.348 291.833 283.506 293.482 281.124L293.6 280.947L293.501 281.005C292.076 281.789 290.628 282.026 289.549 281.532L289.363 281.438C287.023 280.124 287.992 276.312 292.176 271.2C294.123 268.819 295.865 267.537 297.452 267.257Z"
              fill="#DD936F"/>
        <path d="M273.707 256.971C274.038 256.937 274.336 257.151 274.419 257.462L274.439 257.569L275.726 270.31L275.838 270.496C275.992 270.754 276.163 271.052 276.347 271.387C276.871 272.342 277.395 273.405 277.884 274.55C279.292 277.85 280.136 281.157 280.13 284.27C280.125 286.573 279.648 288.681 278.631 290.542C278.454 290.866 278.048 290.985 277.724 290.808C277.401 290.63 277.282 290.224 277.459 289.9C278.362 288.248 278.79 286.358 278.794 284.268C278.8 281.363 277.998 278.222 276.655 275.076C276.185 273.973 275.68 272.949 275.176 272.031L274.781 271.332C274.669 271.141 274.579 270.994 274.514 270.893C274.477 270.834 274.448 270.769 274.431 270.702L274.412 270.599L273.11 257.703C273.073 257.336 273.34 257.008 273.707 256.971Z"
              fill="#DD936F"/>
        <path fill-rule="evenodd" clip-rule="evenodd"
              d="M61.861 14.1568C61.861 14.7726 61.7648 15.3659 61.5867 15.9225L77.7944 20.8967C78.3992 19.0925 80.1034 17.7925 82.1112 17.7925C84.625 17.7925 86.6629 19.8304 86.6629 22.3444C86.6629 24.6531 84.9441 26.5605 82.7163 26.8564L82.6428 49.9462C85.6104 50.1936 87.9417 52.6806 87.9417 55.7122C87.9417 58.9079 85.3512 61.4984 82.1556 61.4984C80.008 61.4984 78.1338 60.3285 77.1354 58.5912L63.0993 63.6209C63.1975 64.0433 63.2493 64.4834 63.2493 64.9357C63.2493 68.1314 60.6589 70.7219 57.4632 70.7219C54.2676 70.7219 51.6771 68.1314 51.6771 64.9357C51.6771 64.4682 51.7325 64.0136 51.8372 63.5782L36.461 58.8558C35.7812 61.2954 33.543 63.0853 30.8867 63.0853C27.6911 63.0853 25.1006 60.4947 25.1006 57.299C25.1006 54.1033 27.6911 51.5128 30.8867 51.5128V27.5348C30.8628 27.5351 30.8389 27.5353 30.8149 27.5353C28.1519 27.5353 25.9931 25.3765 25.9931 22.7135C25.9931 20.0504 28.1519 17.8916 30.8149 17.8916C33.0436 17.8916 34.9192 19.4038 35.4716 21.4582L50.6786 16.249C50.4268 15.6002 50.2888 14.8946 50.2888 14.1568C50.2888 10.9611 52.8793 8.37061 56.0749 8.37061C59.2705 8.37061 61.861 10.9611 61.861 14.1568ZM61.3042 16.6368L77.6295 21.5443C77.5834 21.8041 77.5594 22.0714 77.5594 22.3444C77.5594 22.9446 77.6756 23.5177 77.8867 24.0424L61.151 29.6816C60.4918 28.3378 59.1102 27.4127 57.5124 27.4127C55.8079 27.4127 54.3494 28.4654 53.7516 29.9561L35.3415 24.3784C35.5324 23.8595 35.6366 23.2987 35.6366 22.7135C35.6366 22.5483 35.6283 22.385 35.6121 22.2241L51.0157 16.9669C52.0038 18.7421 53.8991 19.9431 56.0749 19.9431C58.3831 19.9431 60.3755 18.5916 61.3042 16.6368ZM53.5314 30.713L35.0032 25.1042C34.3093 26.3173 33.1035 27.1999 31.6802 27.4579V51.5668C34.5004 51.9535 36.6729 54.3725 36.6729 57.299C36.6729 57.5621 36.6553 57.8211 36.6213 58.0749L52.0755 62.8213C52.8871 60.755 54.853 59.2687 57.1794 59.1563L57.2114 35.5021C55.115 35.3481 53.4621 33.5986 53.4621 31.4629C53.4621 31.2067 53.4859 30.956 53.5314 30.713ZM57.9597 35.4887L57.9228 59.1674C60.1302 59.3409 61.9893 60.753 62.8055 62.7092L76.7691 57.8297C76.5111 57.1739 76.3694 56.4596 76.3694 55.7122C76.3694 52.6194 78.7957 50.0935 81.8487 49.9339L81.9221 26.8924C80.3717 26.8291 79.0212 25.9901 78.2483 24.7532L61.4218 30.4002C61.5137 30.7389 61.5627 31.0952 61.5627 31.4629C61.5627 33.5486 59.9861 35.266 57.9597 35.4887Z"
              fill="#597EF7"/>
    </g>
    <defs>
        <clipPath id="clip0_421_176">
            <rect width="682" height="712" fill="white"/>
        </clipPath>
    </defs>
</svg>
