<svg width="240" height="250" viewBox="0 0 240 250" fill="none" xmlns="http://www.w3.org/2000/svg">
    <g clip-path="url(#clip0_428_4)">
        <path fill-rule="evenodd" clip-rule="evenodd"
              d="M157.128 209.66C156.259 193.855 155.204 177.527 154.076 164.557C154.076 164.557 151.708 155.269 143.442 157.46C135.34 159.608 136.059 170.247 136.059 170.247L142.444 211.839C142.444 211.839 143.558 218.601 150.88 217.379C157.558 216.265 157.128 209.66 157.128 209.66Z"
              fill="#4D5DFD"/>
        <path fill-rule="evenodd" clip-rule="evenodd"
              d="M154.364 249.242C151.427 248.965 149.007 251.571 149.421 254.568C149.899 258.017 150.52 262.678 151.122 267.708C151.743 272.885 152.266 277.174 152.685 277.679C154.527 279.909 157.802 280.455 161.32 282.479C164.103 284.08 164.642 284.928 168.006 285.2C172.775 285.586 170.383 283.789 164.524 277.919C159.304 272.69 159.335 269.965 159.335 269.965L158.51 253.67C158.392 251.341 156.626 249.455 154.364 249.242Z"
              fill="#C99382"/>
        <path fill-rule="evenodd" clip-rule="evenodd"
              d="M157.227 211.052C158.577 238.422 159.825 267.048 159.825 267.048L150.196 267.055L142.321 212.917C142.321 212.917 142.157 204.676 149.544 203.983C156.21 203.359 157.227 211.052 157.227 211.052Z"
              fill="#4D5DFD"/>
        <path fill-rule="evenodd" clip-rule="evenodd"
              d="M116.729 211.3C117.239 195.479 117.923 179.129 118.757 166.137C118.757 166.137 120.914 156.794 129.227 158.787C137.376 160.74 136.898 171.395 136.898 171.395L131.458 213.127C131.458 213.127 130.498 219.914 123.15 218.867C116.448 217.914 116.729 211.3 116.729 211.3Z"
              fill="#4D5DFD"/>
        <path fill-rule="evenodd" clip-rule="evenodd"
              d="M116.661 212.693C115.933 240.088 115.333 268.737 115.333 268.737L124.96 268.513L131.605 214.201C131.605 214.201 131.583 205.959 124.182 205.443C117.503 204.977 116.661 212.693 116.661 212.693Z"
              fill="#4D5DFD"/>
        <path fill-rule="evenodd" clip-rule="evenodd"
              d="M142.984 94.8875L142.565 85.853L130.892 85.8603L130.607 94.951C130.48 98.4694 133.203 101.403 136.632 101.442C136.698 101.442 136.763 101.443 136.828 101.444C140.335 101.485 143.151 98.4839 142.984 94.8875Z"
              fill="#C99382"/>
        <path fill-rule="evenodd" clip-rule="evenodd"
              d="M145.038 97.1158L144.293 94.9105L129.811 95.3164L129.229 97.4043C129.229 97.4043 120.836 95.5239 116.712 102.177C114.122 106.358 120.177 131.484 120.279 137.093C117.815 143.793 121.396 145.836 121.396 145.836L150.768 145.474C150.768 145.474 154.131 143.187 151.252 138.583C152.432 130.347 158.467 108.272 156.519 104.207C152.649 96.1287 145.038 97.1158 145.038 97.1158Z"
              fill="#ADC6FF"/>
        <path d="M143.916 97.4048C144.037 97.393 144.145 97.4845 144.157 97.6092C144.168 97.7339 144.079 97.8446 143.958 97.8564C142.99 97.9507 141.955 98.0302 140.862 98.0958C137.525 98.296 134.03 98.3536 130.972 98.3287L129.838 98.3147C129.716 98.3122 129.619 98.2087 129.621 98.0834C129.624 97.9582 129.725 97.8587 129.846 97.8611L130.471 97.8702C133.637 97.9059 137.325 97.8535 140.836 97.6429C141.925 97.5776 142.954 97.4986 143.916 97.4048Z"
              fill="#4D5DFD"/>
        <path fill-rule="evenodd" clip-rule="evenodd"
              d="M154.312 166.961C153.371 156.743 151.91 151.978 150.794 150.059C126.807 150.763 120.832 150.439 120.832 150.439C120.832 150.439 118.779 156.402 118.483 168.397C118.483 168.397 126.867 178.995 136.397 178.995C144.989 178.995 154.312 166.961 154.312 166.961Z"
              fill="#4D5DFD"/>
        <path fill-rule="evenodd" clip-rule="evenodd"
              d="M150.794 150.059L150.34 145.425L120.968 145.787L120.832 150.428C120.832 150.428 136.377 151.043 150.794 150.059Z"
              fill="#4D5DFD"/>
        <path d="M133.858 150.75C133.983 150.753 134.082 150.859 134.08 150.987L134.059 152.266C134.056 152.523 134.052 152.796 134.049 153.084C133.998 157.411 134.003 162.065 134.101 166.433L134.116 167.068C134.24 172 134.477 175.932 134.851 178.507C134.869 178.634 134.784 178.752 134.661 178.77C134.537 178.789 134.422 178.702 134.404 178.575L134.356 178.236C133.991 175.524 133.763 171.478 133.65 166.444C133.559 162.434 133.547 158.185 133.585 154.168L133.613 151.884L133.628 150.977C133.63 150.849 133.734 150.748 133.858 150.75Z"
              fill="#253368"/>
        <path d="M138.051 150.849C138.176 150.85 138.277 150.954 138.276 151.082L138.277 152.548C138.279 153.243 138.284 154.032 138.292 154.893C138.313 156.885 138.349 158.855 138.407 160.718L138.427 161.336C138.525 164.264 138.669 166.694 138.866 168.455L138.887 168.635L138.888 168.681C138.758 170.375 137.834 171.409 136.4 171.896C135.611 172.164 134.791 172.232 134.089 172.191L133.981 172.183C133.972 172.183 133.964 172.182 133.958 172.181C133.834 172.168 133.744 172.054 133.757 171.927C133.769 171.799 133.88 171.707 134.004 171.72L134.115 171.728C134.765 171.766 135.532 171.702 136.258 171.455C137.494 171.036 138.276 170.188 138.425 168.775L138.435 168.666L138.417 168.509C138.246 166.977 138.115 164.953 138.019 162.539L137.975 161.352C137.913 159.509 137.872 157.551 137.848 155.562L137.834 154.142C137.828 153.488 137.825 152.885 137.824 152.343V151.08C137.825 150.952 137.927 150.849 138.051 150.849Z"
              fill="#253368"/>
        <path d="M148.169 150.946C148.293 150.944 148.396 151.047 148.398 151.175L148.406 151.395C148.408 151.435 148.41 151.479 148.413 151.528C148.428 151.812 148.453 152.13 148.49 152.471C148.595 153.448 148.771 154.423 149.036 155.331C149.642 157.413 150.61 158.813 151.998 159.244C152.117 159.282 152.185 159.411 152.149 159.534C152.113 159.656 151.986 159.726 151.867 159.688C150.301 159.201 149.248 157.679 148.603 155.464C148.33 154.526 148.148 153.524 148.041 152.522C148.011 152.242 147.988 151.978 147.972 151.733L147.952 151.355C147.949 151.28 147.947 151.221 147.946 151.182C147.944 151.054 148.044 150.948 148.169 150.946Z"
              fill="#253368"/>
        <path d="M123.458 151.483C123.571 151.483 123.664 151.566 123.683 151.676L123.686 151.721L123.684 151.96C123.68 152.256 123.665 152.644 123.634 153.1C123.57 154.057 123.453 155.009 123.269 155.9C122.787 158.238 121.937 159.785 120.584 160.145C120.463 160.177 120.34 160.103 120.309 159.979C120.277 159.855 120.35 159.728 120.471 159.696C121.602 159.395 122.378 157.984 122.827 155.804C123.006 154.936 123.121 154.005 123.184 153.069L123.2 152.809C123.221 152.432 123.231 152.113 123.233 151.872L123.234 151.717C123.233 151.589 123.333 151.484 123.458 151.483Z"
              fill="#253368"/>
        <path d="M128.62 176.735C128.676 176.62 128.812 176.574 128.923 176.631L129.106 176.721L129.297 176.812C129.398 176.86 129.507 176.91 129.623 176.962C130.178 177.213 130.787 177.463 131.431 177.696C132.669 178.145 133.883 178.476 135.016 178.643C136.032 178.792 136.948 178.802 137.739 178.654C137.861 178.631 137.979 178.715 138.001 178.841C138.024 178.967 137.942 179.088 137.819 179.11C136.976 179.268 136.013 179.257 134.952 179.102C133.786 178.931 132.544 178.591 131.281 178.134C130.719 177.93 130.184 177.714 129.687 177.496L129.441 177.387C129.323 177.334 129.211 177.283 129.108 177.234L128.815 177.093C128.773 177.072 128.742 177.056 128.721 177.046C128.61 176.989 128.564 176.849 128.62 176.735Z"
              fill="#253368"/>
        <path fill-rule="evenodd" clip-rule="evenodd"
              d="M147.372 77.4113C147.372 77.4113 150.353 73.928 152.083 77.2225C153.727 80.352 150.341 84.6246 147.471 83.7663C146.217 80.8341 147.372 77.4113 147.372 77.4113Z"
              fill="#C99382"/>
        <path fill-rule="evenodd" clip-rule="evenodd"
              d="M126.595 77.4113C126.595 77.4113 123.615 73.928 121.884 77.2225C120.241 80.352 123.626 84.6246 126.496 83.7663C127.75 80.8341 126.595 77.4113 126.595 77.4113Z"
              fill="#C99382"/>
        <path fill-rule="evenodd" clip-rule="evenodd"
              d="M148.595 78.1501C148.595 88.9719 143.359 91.8322 136.9 91.8322C130.442 91.8322 125.649 89.085 125.207 78.1501C124.8 68.0903 130.442 64.7129 136.9 64.7129C143.359 64.7129 148.595 68.6492 148.595 78.1501Z"
              fill="#C99382"/>
        <path fill-rule="evenodd" clip-rule="evenodd"
              d="M137.834 79.3419C137.86 81.5271 139.606 83.2776 141.734 83.2515C143.863 83.2249 145.568 81.4322 145.542 79.2469C145.517 77.0616 143.77 75.3112 141.642 75.3372C139.514 75.3638 137.808 77.1566 137.834 79.3419Z"
              fill="white"/>
        <path d="M141.639 75.0584C139.36 75.0869 137.535 77.0062 137.563 79.3453C137.59 81.6844 139.459 83.5582 141.738 83.5304C144.016 83.5019 145.842 81.5826 145.814 79.2435C145.787 76.9046 143.917 75.0306 141.639 75.0584ZM141.646 75.616C143.624 75.5919 145.247 77.2192 145.271 79.2502C145.295 81.2813 143.71 82.948 141.731 82.9728C139.753 82.9969 138.129 81.3698 138.106 79.3386C138.082 77.3431 139.612 75.6994 141.542 75.6188L141.646 75.616Z"
              fill="#7D4556"/>
        <path d="M140.747 79.5332C140.73 79.6695 140.618 79.7757 140.48 79.7774C140.343 79.7791 140.228 79.6756 140.209 79.5398L140.206 79.502C140.204 79.2734 140.245 78.9645 140.373 78.6511C140.599 78.0986 141.03 77.7484 141.68 77.7404C142.325 77.7324 142.78 78.0461 143.053 78.5566C143.209 78.8482 143.276 79.1349 143.294 79.3378C143.307 79.4912 143.197 79.6266 143.047 79.6403C142.898 79.6539 142.766 79.5407 142.753 79.3873L142.746 79.3383C142.742 79.3071 142.734 79.2663 142.722 79.2183C142.691 79.0833 142.643 78.9485 142.577 78.825C142.395 78.4846 142.116 78.2927 141.686 78.298C141.271 78.3031 141.022 78.5058 140.874 78.8666C140.82 79.0002 140.784 79.1465 140.764 79.2939C140.757 79.3484 140.753 79.3958 140.751 79.4337L140.747 79.5332Z"
              fill="#7D4556"/>
        <path d="M129.239 74.1026C130.43 73.3282 132.201 73.3282 134.617 74.568C134.751 74.6369 134.805 74.8044 134.738 74.9421C134.671 75.0799 134.508 75.1357 134.374 75.0668C132.12 73.9101 130.55 73.9101 129.529 74.5737C129.386 74.6667 129.269 74.7655 129.175 74.8631L129.122 74.9214C129.108 74.9381 129.097 74.9518 129.089 74.9621L129.08 74.9749C128.995 75.102 128.826 75.1345 128.702 75.0475C128.578 74.9606 128.547 74.7871 128.631 74.66C128.731 74.5107 128.929 74.3041 129.239 74.1026Z"
              fill="#7D4556"/>
        <path d="M142.165 73.492C142.912 73.4511 143.578 73.574 144.137 73.8928C144.268 73.9676 144.315 74.1373 144.242 74.272C144.17 74.4066 144.004 74.4551 143.873 74.3803C143.413 74.1177 142.846 74.0131 142.194 74.0489C141.52 74.0858 140.79 74.2689 140.054 74.5516C139.82 74.6415 139.599 74.7365 139.394 74.8325L139.243 74.9046C139.097 74.9762 138.993 75.0314 138.939 75.0617C138.808 75.1361 138.642 75.0871 138.57 74.9523C138.498 74.8175 138.545 74.6479 138.677 74.5735L138.785 74.5149C138.844 74.4833 138.92 74.4449 139.009 74.4011C139.269 74.2743 139.556 74.1476 139.864 74.0293C140.648 73.7283 141.428 73.5323 142.165 73.492Z"
              fill="#7D4556"/>
        <path d="M135.28 75.8636C135.388 75.8068 135.521 75.8512 135.577 75.9629L135.626 76.0675C135.646 76.1121 135.669 76.1662 135.696 76.2291C135.784 76.4371 135.871 76.6696 135.953 76.9215C136.22 77.7476 136.364 78.5831 136.319 79.3718C136.291 79.8523 136.206 80.2905 136.049 80.8538L135.819 81.6587C135.661 82.2312 135.659 82.3439 135.715 82.5544C135.802 82.8812 136.188 83.0907 137.09 83.1915C137.211 83.205 137.299 83.317 137.286 83.4415C137.273 83.5661 137.164 83.656 137.042 83.6425C135.979 83.5237 135.436 83.2291 135.289 82.6739L135.262 82.5685C135.197 82.2804 135.229 82.1037 135.48 81.2289L135.577 80.8969C135.756 80.2787 135.85 79.8317 135.878 79.3451C135.919 78.622 135.784 77.8406 135.533 77.0647C135.471 76.8736 135.406 76.6944 135.34 76.5298L135.29 76.4091C135.241 76.2923 135.203 76.2103 135.183 76.1686C135.127 76.0569 135.171 75.9204 135.28 75.8636Z"
              fill="#9B6160"/>
        <path d="M139.488 84.1996C139.612 84.1665 139.739 84.2431 139.771 84.3705C139.803 84.4979 139.728 84.6279 139.604 84.6609C137.91 85.1119 136.154 85.1119 134.531 84.8421C134.341 84.8106 134.167 84.7772 134.01 84.7435L133.794 84.6943C133.734 84.6798 133.689 84.6682 133.66 84.6602C133.537 84.6255 133.464 84.4945 133.497 84.3676C133.531 84.2406 133.659 84.1657 133.782 84.2004L133.996 84.2528C134.173 84.2932 134.377 84.3338 134.605 84.3716C136.169 84.6317 137.864 84.6317 139.488 84.1996Z"
              fill="#7D4556"/>
        <path fill-rule="evenodd" clip-rule="evenodd"
              d="M128.103 79.3419C128.129 81.5271 129.875 83.2776 132.004 83.2515C134.132 83.2249 135.837 81.4322 135.812 79.2469C135.786 77.0616 134.04 75.3112 131.911 75.3372C129.783 75.3638 128.078 77.1566 128.103 79.3419Z"
              fill="white"/>
        <path d="M131.908 75.0584C129.63 75.0869 127.805 77.006 127.832 79.3452C127.859 81.6843 129.729 83.5582 132.007 83.5304C134.286 83.5019 136.111 81.5828 136.084 79.2436C136.056 76.9042 134.187 75.0306 131.908 75.0584ZM131.915 75.616C133.893 75.5919 135.516 77.2189 135.54 79.2503C135.564 81.2815 133.979 82.948 132.001 82.9728C130.022 82.9969 128.399 81.3697 128.375 79.3386C128.352 77.3429 129.881 75.6994 131.811 75.6188L131.915 75.616Z"
              fill="#7D4556"/>
        <path d="M131.016 79.5332C130.999 79.6695 130.887 79.7757 130.749 79.7774C130.612 79.7791 130.497 79.6756 130.478 79.5398L130.475 79.502C130.473 79.2734 130.514 78.9645 130.642 78.6511C130.868 78.0987 131.299 77.7484 131.948 77.7404C132.593 77.7324 133.048 78.0461 133.321 78.5566C133.477 78.8482 133.545 79.1349 133.562 79.3378C133.576 79.4912 133.465 79.6266 133.316 79.6403C133.166 79.6539 133.035 79.5407 133.021 79.3873L133.015 79.3383C133.01 79.3071 133.002 79.2663 132.991 79.2183C132.959 79.0833 132.911 78.9485 132.845 78.825C132.663 78.4846 132.385 78.2927 131.955 78.298C131.54 78.3031 131.29 78.5057 131.143 78.8666C131.089 79.0002 131.053 79.1465 131.033 79.2939L131.023 79.3927C131.02 79.422 131.019 79.4475 131.018 79.4683V79.4961L131.016 79.5332Z"
              fill="#7D4556"/>
        <path d="M136.037 77.646C136.594 77.4631 137.184 77.4392 137.747 77.6825C137.797 77.7043 137.847 77.7282 137.896 77.7541L137.969 77.7947L137.701 78.28C137.647 78.2486 137.592 78.2207 137.536 78.1964C137.111 78.0125 136.647 78.0312 136.203 78.1771C136.097 78.212 136.015 78.2462 135.965 78.2707L135.938 78.2842L135.686 77.7906C135.757 77.752 135.877 77.6985 136.037 77.646Z"
              fill="#7D4556"/>
        <path d="M142.649 90.598C142.762 90.5506 142.891 90.6062 142.937 90.7222C142.983 90.8381 142.929 90.9705 142.816 91.0179C138.949 92.6395 134.991 92.3967 131.501 91.1639C131.386 91.1232 131.324 90.9941 131.364 90.8757C131.404 90.7572 131.53 90.6942 131.645 90.735C135.042 91.9352 138.897 92.1716 142.649 90.598Z"
              fill="#9B6160"/>
        <path d="M137.647 86.4263C137.769 86.4263 137.868 86.5278 137.868 86.6531C137.868 86.7658 137.788 86.8594 137.683 86.8769L137.647 86.8799H135.905C135.783 86.8799 135.684 86.7784 135.684 86.6531C135.684 86.5403 135.764 86.4468 135.869 86.4292L135.905 86.4263H137.647Z"
              fill="#9B6160"/>
        <path d="M136.652 88.8955C136.762 88.8955 136.853 88.9778 136.87 89.0855L136.873 89.1223V91.5919C136.873 91.7172 136.774 91.8187 136.652 91.8187C136.542 91.8187 136.451 91.7365 136.434 91.6287L136.431 91.5919V89.1223C136.431 88.9971 136.53 88.8955 136.652 88.8955Z"
              fill="#9B6160"/>
        <path d="M137.617 89.5788C137.726 89.5635 137.827 89.6324 137.858 89.7368L137.866 89.7729L138.114 91.6461C138.131 91.7702 138.046 91.8845 137.925 91.9014C137.816 91.9167 137.715 91.8478 137.684 91.7434L137.676 91.7073L137.428 89.8341C137.411 89.71 137.496 89.5957 137.617 89.5788Z"
              fill="#9B6160"/>
        <path d="M135.322 90.1729L135.358 90.1755C135.467 90.1926 135.544 90.2881 135.545 90.3973L135.543 90.4341L135.377 91.541C135.359 91.6648 135.246 91.7497 135.125 91.7307C135.017 91.7136 134.939 91.6181 134.938 91.5089L134.941 91.4721L135.106 90.3653C135.123 90.2538 135.216 90.1739 135.322 90.1729Z"
              fill="#9B6160"/>
        <path d="M138.502 90.0097C138.608 89.9806 138.717 90.036 138.76 90.1356L138.772 90.1704L139.104 91.4478C139.135 91.5689 139.065 91.6932 138.947 91.7254C138.841 91.7545 138.733 91.6991 138.689 91.5995L138.677 91.5647L138.345 90.2873C138.314 90.1662 138.384 90.0419 138.502 90.0097Z"
              fill="#9B6160"/>
        <path d="M122.424 78.1812C122.911 77.5875 123.557 77.5875 124.165 78.5581C124.414 79.1421 124.392 79.5315 124.175 80.0753L124.052 80.3708C123.922 80.7043 123.931 80.9162 124.146 81.2481C124.21 81.3464 124.283 81.4255 124.365 81.4881C124.512 81.6017 124.659 81.6477 124.757 81.6565L124.792 81.6582C124.914 81.6582 125.013 81.7597 125.013 81.885C125.013 82.0102 124.914 82.1118 124.792 82.1118C124.608 82.1118 124.353 82.0464 124.1 81.851C123.979 81.7578 123.87 81.6412 123.779 81.4998C123.494 81.0611 123.464 80.7094 123.612 80.2829L123.663 80.1494C123.672 80.1271 123.688 80.0902 123.73 79.9916C123.938 79.5004 123.966 79.2239 123.777 78.7723C123.355 78.1025 123.066 78.1025 122.761 78.4737C122.676 78.5769 122.616 78.6816 122.586 78.7457C122.534 78.8591 122.403 78.9076 122.292 78.8543C122.182 78.8009 122.135 78.6658 122.187 78.5524C122.231 78.4557 122.31 78.3192 122.424 78.1812Z"
              fill="#9B6160"/>
        <path d="M149.413 78.5257C150.004 77.5873 150.65 77.5873 151.137 78.1811C151.251 78.3191 151.33 78.4556 151.374 78.5523C151.426 78.6657 151.378 78.8008 151.268 78.8541C151.158 78.9075 151.026 78.8588 150.974 78.7455C150.945 78.6814 150.884 78.5766 150.799 78.4735C150.495 78.1023 150.206 78.1023 149.801 78.7398C149.607 79.1933 149.62 79.4647 149.794 79.9016L149.918 80.2019C150.099 80.6656 150.085 81.0335 149.782 81.4993C149.69 81.6412 149.582 81.7582 149.46 81.8515C149.207 82.0464 148.953 82.1116 148.769 82.1116C148.647 82.1116 148.548 82.0101 148.548 81.8848C148.548 81.7721 148.628 81.6786 148.733 81.661L148.769 81.658C148.865 81.658 149.03 81.6158 149.196 81.4884C149.277 81.4258 149.35 81.3466 149.414 81.2479C149.616 80.9382 149.636 80.7329 149.532 80.4358L149.469 80.2756C149.46 80.2523 149.446 80.2198 149.426 80.1725C149.173 79.5764 149.132 79.1762 149.413 78.5257Z"
              fill="#9B6160"/>
        <path fill-rule="evenodd" clip-rule="evenodd"
              d="M124.764 79.9265C124.764 79.9265 122.995 77.9964 123.879 75.6121C122.331 72.7736 123.327 70.0488 124.764 69.0272C124.322 66.5298 125.98 62.1018 129.409 61.6476C131.427 62.4708 133.832 62.556 133.832 62.556C133.832 62.556 139.582 59.1502 143.563 63.2371C147.654 62.7828 149.756 67.5514 149.423 69.254C151.635 72.0926 149.866 76.4069 149.866 76.4069C149.866 76.4069 149.619 78.0757 148.871 80.3807C148.097 82.765 147.765 79.6997 147.765 79.0186C147.765 78.3369 146.107 77.7696 146.659 74.7043C144.779 73.3416 145.194 71.2416 145.194 71.2416C145.194 71.2416 143.839 72.6605 139.969 70.7305C137.204 73.1147 133.002 70.7305 133.002 70.7305C133.002 70.7305 129.602 72.4047 127.611 71.1563C127.611 71.1563 128.164 72.8589 126.617 75.2432C127.17 77.5138 125.538 78.5644 125.98 79.9265C126.422 81.2886 125.207 82.6513 124.764 79.9265Z"
              fill="#7D4556"/>
        <path fill-rule="evenodd" clip-rule="evenodd"
              d="M118.597 117.078C118.597 117.078 123.744 123.693 129.567 118.75C135.505 113.709 130.042 107.224 130.042 107.224C130.042 107.224 126.519 102.554 122.08 97.0417C118.611 92.7346 115.965 89.4158 113.49 86.8767C110.819 84.1374 106.643 83.6305 103.916 85.9452C99.7709 89.4642 100.138 93.4979 102.398 96.5784C104.595 99.5747 107.682 103.523 110.175 106.77C114.971 113.013 118.597 117.078 118.597 117.078Z"
              fill="#ADC6FF"/>
        <path fill-rule="evenodd" clip-rule="evenodd"
              d="M89.438 54.4819C89.438 54.4819 90.95 61.679 94.23 62.4737C97.2 63.1935 98.607 59.4265 98.607 59.4265C98.607 59.4265 99.382 56.3533 99.338 52.812C99.31 50.4918 99.897 46.0722 98.735 45.768C97.223 45.3712 97.34 49.9904 96.301 50.4622C94.195 51.4172 93.263 44.17 92.497 43.0783C91.002 40.9438 87.56 45.863 89.438 54.4819Z"
              fill="#C99382"/>
        <path d="M91.346 43.2252C91.468 43.2294 91.563 43.3342 91.559 43.4594C91.51 44.991 91.795 46.6079 92.303 48.1984C92.467 48.713 92.642 49.187 92.818 49.6091L92.907 49.8171L93.042 50.1158C93.045 50.1221 93.047 50.1275 93.05 50.1319C93.105 50.2438 93.061 50.3801 92.952 50.4365C92.843 50.4929 92.71 50.448 92.655 50.3361L92.587 50.1906L92.503 50.0025C92.474 49.9352 92.443 49.8634 92.412 49.7873C92.231 49.3536 92.051 48.8673 91.883 48.3395C91.361 46.7027 91.066 45.0357 91.118 43.4444C91.122 43.3192 91.224 43.2211 91.346 43.2252Z"
              fill="#9B6160"/>
        <path d="M90.0049 44.4182C90.1269 44.4278 90.2179 44.5369 90.2079 44.6618L90.2039 44.7567C90.1829 45.2886 90.2139 46.0371 90.3399 46.965C90.5289 48.3609 90.8959 49.8626 91.4849 51.4333C91.5279 51.5502 91.4709 51.6814 91.3579 51.7264C91.2439 51.7714 91.1159 51.713 91.0719 51.5961C90.4709 49.9921 90.0949 48.4568 89.9019 47.0274C89.7809 46.1355 89.7449 45.4007 89.7579 44.853L89.7649 44.6701C89.7659 44.6515 89.7669 44.637 89.7679 44.6268C89.7769 44.5019 89.8839 44.4085 90.0049 44.4182Z"
              fill="#9B6160"/>
        <path d="M89.051 47.8101C89.172 47.7959 89.282 47.8852 89.295 48.0097C89.41 49.0414 89.566 49.9764 89.754 50.8151C89.899 51.4675 90.055 52.0243 90.211 52.4859L90.273 52.6673C90.294 52.7239 90.313 52.7768 90.332 52.826L90.406 53.012C90.409 53.0179 90.411 53.0228 90.413 53.0268C90.464 53.1405 90.416 53.2753 90.305 53.3279C90.194 53.3806 90.063 53.3311 90.012 53.2175L89.966 53.1083L89.95 53.0669C89.902 52.9463 89.849 52.802 89.793 52.6341C89.632 52.1572 89.472 51.5848 89.323 50.9164C89.132 50.0613 88.973 49.1097 88.856 48.0612C88.843 47.9367 88.93 47.8243 89.051 47.8101Z"
              fill="#9B6160"/>
        <path fill-rule="evenodd" clip-rule="evenodd"
              d="M113.918 87.3679C113.918 87.3679 116.698 95.5756 110.092 98.1849C103.28 100.875 100.259 93.1278 100.259 93.1278C100.259 93.1278 98.2641 87.6225 95.7761 80.8483C94.2581 76.7124 92.67 72.1108 91.984 68.6009C91.24 64.8 93.0431 63.6811 96.3451 62.377C100.267 60.828 102.042 60.5976 103.872 63.966C105.617 67.1777 107.401 71.7805 108.942 75.2837C111.879 81.9618 113.918 87.3679 113.918 87.3679Z"
              fill="#ADC6FF"/>
        <path fill-rule="evenodd" clip-rule="evenodd"
              d="M91.623 61.2018L99.26 58.1854L101.795 63.2661L93.0591 66.7173L91.623 61.2018Z" fill="#ADC6FF"/>
        <path fill-rule="evenodd" clip-rule="evenodd"
              d="M157.171 117.078C157.171 117.078 152.024 123.693 146.202 118.75C140.264 113.709 145.727 107.224 145.727 107.224C145.727 107.224 149.249 102.554 153.688 97.0417C157.157 92.7346 159.803 89.4158 162.278 86.8767C164.95 84.1374 169.126 83.6305 171.853 85.9452C175.998 89.4642 175.63 93.4979 173.37 96.5784C171.173 99.5747 168.086 103.523 165.593 106.77C160.797 113.013 157.171 117.078 157.171 117.078Z"
              fill="#ADC6FF"/>
        <path fill-rule="evenodd" clip-rule="evenodd"
              d="M186.331 54.4819C186.331 54.4819 184.819 61.679 181.539 62.4737C178.569 63.1935 177.161 59.4265 177.161 59.4265C177.161 59.4265 176.387 56.3533 176.43 52.812C176.459 50.4918 175.872 46.0722 177.033 45.768C178.546 45.3712 178.428 49.9904 179.468 50.4622C181.574 51.4172 182.506 44.17 183.272 43.0783C184.767 40.9438 188.209 45.863 186.331 54.4819Z"
              fill="#C99382"/>
        <path d="M184.423 43.2252C184.545 43.2211 184.647 43.3192 184.651 43.4444C184.702 45.0357 184.408 46.7027 183.886 48.3395C183.718 48.8673 183.537 49.3536 183.357 49.7873L183.265 50.0025L183.182 50.1906C183.15 50.261 183.126 50.31 183.114 50.3361C183.059 50.448 182.926 50.4929 182.817 50.4365C182.708 50.3801 182.664 50.2438 182.719 50.1319L182.764 50.0356L182.781 49.9983C182.832 49.8867 182.889 49.7565 182.951 49.6091C183.126 49.187 183.302 48.713 183.466 48.1984C183.973 46.6079 184.259 44.991 184.21 43.4594C184.205 43.3342 184.301 43.2294 184.423 43.2252Z"
              fill="#9B6160"/>
        <path d="M185.764 44.4182C185.885 44.4085 185.992 44.5019 186.001 44.6268L186.007 44.7386C186.028 45.2965 185.996 46.0718 185.867 47.0274C185.673 48.4568 185.298 49.9921 184.697 51.5961C184.653 51.713 184.525 51.7714 184.411 51.7264C184.297 51.6814 184.241 51.5502 184.284 51.4333C184.873 49.8626 185.24 48.3609 185.429 46.965C185.546 46.0989 185.581 45.3892 185.569 44.866L185.565 44.7567C185.563 44.7085 185.562 44.6766 185.56 44.6618C185.551 44.5369 185.642 44.4278 185.764 44.4182Z"
              fill="#9B6160"/>
        <path d="M186.718 47.8098C186.839 47.824 186.926 47.9365 186.912 48.0609C186.796 49.1095 186.637 50.0611 186.446 50.9162C186.313 51.5103 186.172 52.0286 186.029 52.4713L185.976 52.6339C185.931 52.7682 185.888 52.8874 185.848 52.9914L185.788 53.1438C185.775 53.1767 185.764 53.2012 185.757 53.2172C185.706 53.3309 185.574 53.3803 185.464 53.3277C185.353 53.275 185.305 53.1402 185.356 53.0265L185.395 52.9338L185.41 52.8966C185.454 52.7832 185.504 52.6462 185.558 52.4857C185.714 52.0241 185.869 51.4673 186.015 50.8148C186.202 49.9761 186.359 49.0411 186.473 48.0094C186.486 47.8974 186.576 47.8138 186.682 47.8086L186.718 47.8098Z"
              fill="#9B6160"/>
        <path fill-rule="evenodd" clip-rule="evenodd"
              d="M161.85 87.3679C161.85 87.3679 159.071 95.5756 165.676 98.1849C172.488 100.875 175.51 93.1278 175.51 93.1278C175.51 93.1278 177.504 87.6225 179.992 80.8483C181.511 76.7124 183.099 72.1108 183.785 68.6009C184.529 64.8 182.726 63.6811 179.423 62.377C175.501 60.828 173.726 60.5976 171.897 63.966C170.152 67.1777 168.367 71.7805 166.826 75.2837C163.89 81.9618 161.85 87.3679 161.85 87.3679Z"
              fill="#ADC6FF"/>
        <path fill-rule="evenodd" clip-rule="evenodd"
              d="M184.145 61.2018L176.508 58.1854L173.973 63.2661L182.71 66.7173L184.145 61.2018Z" fill="#ADC6FF"/>
        <path d="M150.587 145.796C150.712 145.796 150.813 145.9 150.813 146.028C150.813 146.144 150.731 146.239 150.624 146.257L150.587 146.26H121.131C121.006 146.26 120.905 146.156 120.905 146.028C120.905 145.913 120.987 145.817 121.095 145.799L121.131 145.796H150.587Z"
              fill="#253368"/>
        <path d="M150.587 150.03C150.712 150.03 150.813 150.134 150.813 150.262C150.813 150.378 150.731 150.473 150.623 150.491L150.587 150.494H120.542C120.417 150.494 120.316 150.39 120.316 150.262C120.316 150.147 120.398 150.051 120.505 150.033L120.542 150.03H150.587Z"
              fill="#253368"/>
        <path d="M49.9949 88.208C49.9949 88.3797 50.1239 88.5188 50.2829 88.5188C50.4419 88.5188 50.5709 88.3797 50.5709 88.208V84.0642C50.5709 83.8925 50.4419 83.7534 50.2829 83.7534C50.1239 83.7534 49.9949 83.8925 49.9949 84.0642V88.208Z"
              fill="#4D5DFD"/>
        <path d="M46.9576 89.2167C47.0139 89.3171 47.1169 89.3732 47.2229 89.3732C47.2749 89.3732 47.3279 89.3597 47.3759 89.3312C47.5229 89.2448 47.5729 89.0534 47.4889 88.9037L45.4448 85.2901C45.3602 85.1405 45.1728 85.0892 45.0261 85.1756C44.8795 85.2621 44.8292 85.4534 44.9139 85.6031L46.9576 89.2167Z"
              fill="#4D5DFD"/>
        <path d="M44.9518 91.7066C44.9002 91.7066 44.8477 91.693 44.7997 91.6644L41.2801 89.5662C41.1343 89.4793 41.0844 89.2868 41.1685 89.1363C41.2527 88.9858 41.4391 88.9341 41.5849 89.0211L45.1046 91.1193C45.2503 91.2062 45.3003 91.3987 45.2161 91.5492C45.1597 91.6502 45.0572 91.7066 44.9518 91.7066Z"
              fill="#4D5DFD"/>
        <path d="M40.0859 94.8289H44.122C44.2892 94.8289 44.4247 94.6965 44.4247 94.5331C44.4247 94.3698 44.2892 94.2373 44.122 94.2373H40.0859C39.9187 94.2373 39.7832 94.3698 39.7832 94.5331C39.7832 94.6965 39.9187 94.8289 40.0859 94.8289Z"
              fill="#4D5DFD"/>
        <path d="M41.4328 100.022C41.3274 100.022 41.225 99.965 41.1685 99.864C41.0844 99.7135 41.1343 99.521 41.2801 99.4341L44.7997 97.3359C44.9456 97.249 45.1319 97.3006 45.2161 97.4511C45.3003 97.6016 45.2503 97.7941 45.1045 97.881L41.5849 99.9792C41.5369 100.008 41.4845 100.022 41.4328 100.022Z"
              fill="#4D5DFD"/>
        <path d="M45.0261 103.825C45.0744 103.853 45.1271 103.867 45.1791 103.867C45.285 103.867 45.3881 103.811 45.4449 103.71L47.4889 100.097C47.5729 99.947 47.5229 99.7556 47.3759 99.6692C47.2299 99.5827 47.0419 99.6341 46.9576 99.7837L44.9139 103.397C44.8292 103.547 44.8795 103.738 45.0261 103.825Z"
              fill="#4D5DFD"/>
        <path d="M50.2829 105.247C50.1239 105.247 49.9949 105.108 49.9949 104.936V100.792C49.9949 100.621 50.1239 100.482 50.2829 100.482C50.4419 100.482 50.5709 100.621 50.5709 100.792V104.936C50.5709 105.108 50.4419 105.247 50.2829 105.247Z"
              fill="#4D5DFD"/>
        <path d="M55.0561 103.71C55.1131 103.811 55.2161 103.867 55.3221 103.867C55.3741 103.867 55.4271 103.853 55.4751 103.825C55.6221 103.738 55.6721 103.547 55.5871 103.397L53.5441 99.7837C53.4591 99.6341 53.2721 99.5827 53.1251 99.6692C52.9781 99.7556 52.9281 99.947 53.0131 100.097L55.0561 103.71Z"
              fill="#4D5DFD"/>
        <path d="M59.0679 100.022C59.0169 100.022 58.9639 100.008 58.9159 99.9792L55.3969 97.881C55.2509 97.7941 55.2009 97.6016 55.2849 97.4511C55.3689 97.3006 55.5559 97.249 55.7019 97.3359L59.2209 99.4341C59.3669 99.521 59.4169 99.7135 59.3329 99.864C59.2759 99.965 59.1739 100.022 59.0679 100.022Z"
              fill="#4D5DFD"/>
        <path d="M56.3789 94.8289H60.4149C60.5829 94.8289 60.7179 94.6965 60.7179 94.5331C60.7179 94.3698 60.5829 94.2373 60.4149 94.2373H56.3789C56.2119 94.2373 56.0769 94.3698 56.0769 94.5331C56.0769 94.6965 56.2119 94.8289 56.3789 94.8289Z"
              fill="#4D5DFD"/>
        <path d="M55.5489 91.7067C55.4439 91.7067 55.3419 91.6503 55.2849 91.5493C55.2009 91.3988 55.2509 91.2063 55.3969 91.1194L58.9159 89.0212C59.0619 88.9343 59.2489 88.9858 59.3329 89.1363C59.4169 89.2869 59.3669 89.4794 59.2209 89.5663L55.7019 91.6645C55.6539 91.6931 55.6009 91.7067 55.5489 91.7067Z"
              fill="#4D5DFD"/>
        <path d="M53.1251 89.3313C53.1731 89.3598 53.2261 89.3733 53.2781 89.3733C53.3841 89.3733 53.4871 89.3172 53.5441 89.2168L55.5871 85.6032C55.6721 85.4536 55.6221 85.2622 55.4751 85.1757C55.3281 85.0893 55.1411 85.1407 55.0561 85.2903L53.0131 88.9038C52.9281 89.0535 52.9781 89.2449 53.1251 89.3313Z"
              fill="#4D5DFD"/>
        <path d="M136.984 25.4307C136.984 25.6024 137.113 25.7415 137.272 25.7415C137.431 25.7415 137.56 25.6024 137.56 25.4307V21.2869C137.56 21.1152 137.431 20.9761 137.272 20.9761C137.113 20.9761 136.984 21.1152 136.984 21.2869V25.4307Z"
              fill="#4D5DFD"/>
        <path d="M133.947 26.4394C134.004 26.5399 134.107 26.596 134.213 26.596C134.265 26.596 134.318 26.5824 134.366 26.554C134.513 26.4676 134.563 26.2762 134.478 26.1265L132.435 22.5129C132.35 22.3633 132.163 22.312 132.016 22.3984C131.869 22.4848 131.819 22.6762 131.904 22.8258L133.947 26.4394Z"
              fill="#4D5DFD"/>
        <path d="M131.942 28.9293C131.89 28.9293 131.837 28.9157 131.789 28.887L128.27 26.7888C128.124 26.7019 128.074 26.5095 128.158 26.3589C128.242 26.2084 128.429 26.1568 128.575 26.2437L132.094 28.3419C132.24 28.4288 132.29 28.6213 132.206 28.7719C132.149 28.8728 132.047 28.9293 131.942 28.9293Z"
              fill="#4D5DFD"/>
        <path d="M127.076 32.0516H131.112C131.279 32.0516 131.414 31.9192 131.414 31.7558C131.414 31.5924 131.279 31.46 131.112 31.46H127.076C126.908 31.46 126.773 31.5924 126.773 31.7558C126.773 31.9192 126.908 32.0516 127.076 32.0516Z"
              fill="#4D5DFD"/>
        <path d="M128.423 37.2442C128.317 37.2442 128.215 37.1878 128.158 37.0868C128.074 36.9362 128.124 36.7438 128.27 36.6569L131.789 34.5586C131.935 34.4717 132.122 34.5233 132.206 34.6738C132.29 34.8244 132.24 35.0169 132.094 35.1038L128.575 37.202C128.527 37.2306 128.474 37.2442 128.423 37.2442Z"
              fill="#4D5DFD"/>
        <path d="M132.016 41.0474C132.064 41.0759 132.117 41.0894 132.169 41.0894C132.275 41.0894 132.378 41.0333 132.435 40.9329L134.478 37.3193C134.563 37.1697 134.513 36.9783 134.366 36.8918C134.219 36.8054 134.032 36.8568 133.947 37.0064L131.904 40.6199C131.819 40.7696 131.869 40.961 132.016 41.0474Z"
              fill="#4D5DFD"/>
        <path d="M137.272 42.4697C137.113 42.4697 136.984 42.3305 136.984 42.1589V38.015C136.984 37.8434 137.113 37.7042 137.272 37.7042C137.431 37.7042 137.56 37.8434 137.56 38.015V42.1589C137.56 42.3305 137.431 42.4697 137.272 42.4697Z"
              fill="#4D5DFD"/>
        <path d="M142.046 40.9329C142.103 41.0333 142.206 41.0894 142.312 41.0894C142.364 41.0894 142.417 41.0759 142.465 41.0474C142.611 40.961 142.662 40.7696 142.577 40.6199L140.533 37.0064C140.449 36.8567 140.261 36.8054 140.115 36.8918C139.968 36.9783 139.918 37.1696 140.002 37.3193L142.046 40.9329Z"
              fill="#4D5DFD"/>
        <path d="M146.058 37.2441C146.007 37.2441 145.954 37.2305 145.906 37.2019L142.386 35.1037C142.241 35.0168 142.191 34.8243 142.275 34.6738C142.359 34.5232 142.545 34.4716 142.691 34.5586L146.211 36.6568C146.357 36.7437 146.407 36.9361 146.322 37.0867C146.266 37.1877 146.164 37.2441 146.058 37.2441Z"
              fill="#4D5DFD"/>
        <path d="M143.369 32.0516H147.405C147.572 32.0516 147.708 31.9192 147.708 31.7558C147.708 31.5924 147.572 31.46 147.405 31.46H143.369C143.202 31.46 143.066 31.5924 143.066 31.7558C143.066 31.9192 143.202 32.0516 143.369 32.0516Z"
              fill="#4D5DFD"/>
        <path d="M142.539 28.9293C142.434 28.9293 142.331 28.8729 142.275 28.7719C142.191 28.6213 142.241 28.4288 142.386 28.3419L145.906 26.2437C146.052 26.1568 146.238 26.2084 146.322 26.3589C146.407 26.5095 146.357 26.7019 146.211 26.7888L142.691 28.887C142.643 28.9157 142.591 28.9293 142.539 28.9293Z"
              fill="#4D5DFD"/>
        <path d="M140.115 26.5539C140.163 26.5823 140.216 26.5959 140.268 26.5959C140.373 26.5959 140.477 26.5397 140.533 26.4393L142.577 22.8258C142.662 22.6761 142.611 22.4847 142.465 22.3983C142.318 22.3118 142.131 22.3632 142.046 22.5128L140.002 26.1264C139.918 26.2761 139.968 26.4675 140.115 26.5539Z"
              fill="#4D5DFD"/>
        <path d="M203.172 106.977C203.172 107.148 203.301 107.287 203.46 107.287C203.619 107.287 203.748 107.148 203.748 106.977V102.833C203.748 102.661 203.619 102.522 203.46 102.522C203.301 102.522 203.172 102.661 203.172 102.833V106.977Z"
              fill="#4D5DFD"/>
        <path d="M200.135 107.985C200.192 108.086 200.295 108.142 200.401 108.142C200.453 108.142 200.505 108.128 200.554 108.1C200.7 108.013 200.751 107.822 200.666 107.672L198.622 104.059C198.538 103.909 198.35 103.858 198.203 103.944C198.057 104.031 198.007 104.222 198.091 104.372L200.135 107.985Z"
              fill="#4D5DFD"/>
        <path d="M198.129 110.475C198.077 110.475 198.025 110.462 197.977 110.433L194.457 108.335C194.312 108.248 194.262 108.055 194.346 107.905C194.43 107.754 194.616 107.703 194.762 107.79L198.282 109.888C198.428 109.975 198.478 110.167 198.393 110.318C198.337 110.419 198.234 110.475 198.129 110.475Z"
              fill="#4D5DFD"/>
        <path d="M193.263 113.597H197.299C197.466 113.597 197.602 113.465 197.602 113.302C197.602 113.138 197.466 113.006 197.299 113.006H193.263C193.096 113.006 192.96 113.138 192.96 113.302C192.96 113.465 193.096 113.597 193.263 113.597Z"
              fill="#4D5DFD"/>
        <path d="M194.61 118.79C194.505 118.79 194.402 118.734 194.346 118.633C194.262 118.482 194.312 118.29 194.457 118.203L197.977 116.105C198.123 116.018 198.309 116.069 198.393 116.22C198.478 116.37 198.428 116.563 198.282 116.65L194.762 118.748C194.714 118.776 194.662 118.79 194.61 118.79Z"
              fill="#4D5DFD"/>
        <path d="M198.203 122.593C198.252 122.622 198.304 122.635 198.356 122.635C198.462 122.635 198.565 122.579 198.622 122.479L200.666 118.865C200.751 118.716 200.7 118.524 200.554 118.438C200.407 118.351 200.22 118.403 200.135 118.552L198.091 122.166C198.007 122.316 198.057 122.507 198.203 122.593Z"
              fill="#4D5DFD"/>
        <path d="M203.46 124.016C203.301 124.016 203.172 123.877 203.172 123.705V119.561C203.172 119.389 203.301 119.25 203.46 119.25C203.619 119.25 203.748 119.389 203.748 119.561V123.705C203.748 123.877 203.619 124.016 203.46 124.016Z"
              fill="#4D5DFD"/>
        <path d="M208.234 122.479C208.29 122.579 208.393 122.635 208.499 122.635C208.551 122.635 208.604 122.622 208.652 122.593C208.799 122.507 208.849 122.316 208.764 122.166L206.721 118.552C206.636 118.403 206.449 118.351 206.302 118.438C206.155 118.524 206.105 118.716 206.19 118.865L208.234 122.479Z"
              fill="#4D5DFD"/>
        <path d="M212.246 118.79C212.194 118.79 212.142 118.776 212.094 118.748L208.574 116.65C208.428 116.563 208.378 116.37 208.462 116.22C208.547 116.069 208.733 116.018 208.879 116.105L212.398 118.203C212.544 118.29 212.594 118.482 212.51 118.633C212.454 118.734 212.351 118.79 212.246 118.79Z"
              fill="#4D5DFD"/>
        <path d="M209.556 113.597H213.593C213.76 113.597 213.895 113.465 213.895 113.302C213.895 113.138 213.76 113.006 213.593 113.006H209.556C209.389 113.006 209.254 113.138 209.254 113.302C209.254 113.465 209.389 113.597 209.556 113.597Z"
              fill="#4D5DFD"/>
        <path d="M208.727 110.475C208.621 110.475 208.519 110.419 208.462 110.318C208.378 110.167 208.428 109.975 208.574 109.888L212.094 107.79C212.239 107.703 212.426 107.754 212.51 107.905C212.594 108.055 212.544 108.248 212.398 108.335L208.879 110.433C208.831 110.462 208.778 110.475 208.727 110.475Z"
              fill="#4D5DFD"/>
        <path d="M206.302 108.1C206.35 108.128 206.403 108.142 206.455 108.142C206.561 108.142 206.664 108.086 206.721 107.985L208.765 104.372C208.849 104.222 208.799 104.031 208.652 103.944C208.506 103.858 208.318 103.909 208.234 104.059L206.19 107.672C206.105 107.822 206.155 108.013 206.302 108.1Z"
              fill="#4D5DFD"/>
        <path fill-rule="evenodd" clip-rule="evenodd"
              d="M26.0877 283.607C24.9051 283.607 23.9733 282.573 24.0654 281.363L31.7637 180.095H39.1407L28.2735 281.752C28.1605 282.808 27.2918 283.607 26.2571 283.607"
              fill="#FFC53D"/>
        <path fill-rule="evenodd" clip-rule="evenodd"
              d="M196.048 283.607C197.231 283.607 198.163 282.573 198.07 281.363L190.372 180.095H182.995L193.862 281.752C193.975 282.808 194.844 283.607 195.879 283.607"
              fill="#FFC53D"/>
        <path fill-rule="evenodd" clip-rule="evenodd"
              d="M194.735 180.095H27.4007C26.7932 180.095 26.2247 179.788 25.8809 179.274C25.0396 178.018 25.9157 176.308 27.4007 176.308H194.735C196.22 176.308 197.096 178.018 196.255 179.274C195.911 179.788 195.343 180.095 194.735 180.095Z"
              fill="#FFC53D"/>
        <path fill-rule="evenodd" clip-rule="evenodd"
              d="M190.618 182.62H31.5181L31.7638 180.095H190.372L190.618 182.62Z" fill="#D48806"/>
        <path fill-rule="evenodd" clip-rule="evenodd" d="M74.6699 173.417H84.9739V165.104H74.6699V173.417Z"
              fill="#4D5DFD"/>
        <path fill-rule="evenodd" clip-rule="evenodd"
              d="M91.218 176.263H68.77C67.856 176.263 67.114 175.501 67.114 174.563C67.114 173.623 67.856 172.862 68.77 172.862H91.218C92.133 172.862 92.874 173.623 92.874 174.563C92.874 175.501 92.133 176.263 91.218 176.263Z"
              fill="#4D5DFD"/>
        <path fill-rule="evenodd" clip-rule="evenodd"
              d="M114.442 165.644H44.7108C42.999 165.644 41.6113 164.219 41.6113 162.462V118.828C41.6113 117.071 42.999 115.646 44.7108 115.646H114.442C116.153 115.646 117.541 117.071 117.541 118.828V162.462C117.541 164.219 116.153 165.644 114.442 165.644Z"
              fill="#253368"/>
        <path d="M197.251 139.936C197.251 132.102 191.064 125.685 183.431 125.685C175.798 125.685 169.61 132.102 169.61 139.936C169.61 143.037 171.214 147.042 173.789 149.995C176.342 152.92 177.07 157.846 177.07 161.774V163.314H189.792V161.787C189.792 157.859 190.52 152.943 193.06 150.007C195.644 147.024 197.251 142.663 197.251 139.936Z"
              fill="#FFE58F"/>
        <path d="M194.977 139.897C194.977 133.354 189.809 127.992 183.431 127.992C177.053 127.992 171.887 133.353 171.887 139.897C171.887 142.49 173.226 145.834 175.377 148.301C177.51 150.745 179.094 154.86 179.094 158.141V159.426H187.769V158.152C187.769 154.87 189.353 150.763 191.475 148.311C193.634 145.819 194.977 142.177 194.977 139.898V139.897Z"
              fill="#FAAD14"/>
        <path d="M186.939 170.501H179.924C179.678 170.501 179.455 170.337 179.321 170.068L178.367 167.533H188.496L187.542 170.068C187.408 170.337 187.185 170.501 186.94 170.501H186.939Z"
              fill="#253368"/>
        <path d="M188.643 157.455H178.22C177.446 157.455 176.818 158.1 176.818 158.895V167.185C176.818 167.98 177.446 168.624 178.22 168.624H188.643C189.417 168.624 190.045 167.98 190.045 167.185V158.895C190.045 158.1 189.417 157.455 188.643 157.455Z"
              fill="#4D5DFD"/>
        <path d="M184.286 160.448C184.415 160.448 184.52 160.556 184.52 160.688C184.52 160.817 184.421 160.922 184.297 160.928H184.286H176.835C176.706 160.928 176.601 160.821 176.601 160.688C176.601 160.559 176.7 160.454 176.825 160.448H176.835H184.286Z"
              fill="white"/>
        <path d="M184.286 165.414C184.415 165.414 184.52 165.521 184.52 165.653C184.52 165.782 184.421 165.888 184.297 165.893H184.286H176.835C176.706 165.893 176.601 165.786 176.601 165.653C176.601 165.524 176.7 165.419 176.825 165.414H176.835H184.286Z"
              fill="white"/>
        <path d="M190.002 162.931C190.131 162.931 190.235 163.038 190.235 163.17C190.235 163.299 190.136 163.405 190.012 163.41H190.002H182.55C182.421 163.41 182.316 163.303 182.316 163.17C182.316 163.042 182.416 162.936 182.54 162.931H182.55H190.002Z"
              fill="white"/>
        <path d="M184.374 134.208L179.164 142.355C178.884 142.797 179.186 143.34 179.691 143.34H182.024L179.155 148.905C178.941 149.355 179.493 149.772 179.831 149.416L187.634 141.368C188.033 140.949 187.75 140.233 187.186 140.233H183.658L185.134 134.563C185.249 134.079 184.636 133.796 184.374 134.208Z"
              fill="white"/>
    </g>
    <defs>
        <clipPath id="clip0_428_4">
            <rect width="240" height="250" fill="white"/>
        </clipPath>
    </defs>
</svg>
