<svg width="20" height="20" viewBox="0 0 20 20" fill="none" xmlns="http://www.w3.org/2000/svg">
<path d="M10 10.2778C11.3778 10.2778 12.5 9.15556 12.5 7.77778C12.5 6.4 11.3778 5.27778 10 5.27778C8.62222 5.27778 7.5 6.4 7.5 7.77778C7.5 9.15556 8.62222 10.2778 10 10.2778ZM15 14.7222C15 13.0556 11.6667 12.2222 10 12.2222C8.33333 12.2222 5 13.0556 5 14.7222V15.5556H15V14.7222ZM17.7778 0H2.22222C1 0 0 1 0 2.22222V17.7778C0 19 1 20 2.22222 20H17.7778C19 20 20 19 20 17.7778V2.22222C20 1 19 0 17.7778 0ZM17.7778 17.7778H2.22222V2.22222H17.7778V17.7778Z" fill="#4D5DFD"/>
</svg>
