<svg width="135" height="32" viewBox="0 0 135 32" fill="none" xmlns="http://www.w3.org/2000/svg">
<path d="M2.54854 28.3482C3.43297 29.4704 4.75712 29.8396 6.04915 29.8381C7.34963 29.8367 8.83011 29.4686 10.3687 28.8561C13.4586 27.6263 17.0956 25.2853 20.5954 22.1586C24.0952 19.0319 26.8921 15.6248 28.5662 12.5986C29.3998 11.0916 29.9974 9.60323 30.2246 8.23988C30.4502 6.88539 30.3387 5.43287 29.4543 4.31064C28.5699 3.18842 27.2457 2.81926 25.9537 2.82067C24.6532 2.8221 23.1727 3.19026 21.6341 3.80268C18.5443 5.03251 14.9072 7.37354 11.4074 10.5002C7.90765 13.6269 5.11074 17.034 3.43667 20.0602C2.60303 21.5672 2.00541 23.0556 1.77827 24.4189C1.5526 25.7734 1.66411 27.226 2.54854 28.3482Z" stroke="#4D5DFD" stroke-width="3"/>
<path d="M29.455 27.6864C30.3395 26.5643 30.4511 25.1119 30.2254 23.7575C29.9982 22.3943 29.4006 20.906 28.5669 19.3992C26.8927 16.3733 24.0956 12.9665 20.5956 9.84016C17.0955 6.7138 13.4582 4.37304 10.3681 3.14337C8.82935 2.53103 7.34875 2.16292 6.04815 2.16152C4.756 2.16012 3.43173 2.52927 2.54721 3.65141C1.66268 4.77356 1.55113 6.22596 1.7768 7.58033C2.00395 8.94356 2.6016 10.4318 3.43529 11.9386C5.10946 14.9646 7.90658 18.3713 11.4066 21.4977C14.9067 24.624 18.544 26.9648 21.6341 28.1945C23.1728 28.8068 24.6534 29.1749 25.954 29.1763C27.2462 29.1777 28.5705 28.8086 29.455 27.6864Z" stroke="#4D5DFD" stroke-width="3"/>
<path d="M41.7734 25V23.1953L43.6367 22.8438V10.1055L41.7734 9.75391V7.9375H43.6367H46.5898H48.5938V9.75391L46.5898 10.1055V22.7383H51.9219L52.1211 20.1602H54.3828V25H41.7734ZM55.8828 25V23.1953L57.7461 22.8438V10.1055L55.8828 9.75391V7.9375H57.7461H60.6992H62.7031V9.75391L60.6992 10.1055V22.7383H66.0312L66.2305 20.1602H68.4922V25H55.8828ZM69.9922 25V23.1953L71.8672 22.832V10.1289L69.9922 9.75391V7.9375H71.8672H77.1406C78.6641 7.9375 79.9961 8.29688 81.1367 9.01562C82.2852 9.73438 83.1797 10.7227 83.8203 11.9805C84.4609 13.2383 84.7812 14.6797 84.7812 16.3047V16.6445C84.7812 18.2461 84.4688 19.6797 83.8438 20.9453C83.2188 22.2031 82.3359 23.1953 81.1953 23.9219C80.0625 24.6406 78.7383 25 77.2227 25H69.9922ZM74.8203 22.7266H77.0703C78.0703 22.7266 78.9219 22.4609 79.625 21.9297C80.3359 21.3906 80.8789 20.6641 81.2539 19.75C81.6289 18.8281 81.8164 17.793 81.8164 16.6445V16.293C81.8164 15.1133 81.6289 14.0703 81.2539 13.1641C80.8789 12.25 80.3359 11.5312 79.625 11.0078C78.9219 10.4844 78.0703 10.2227 77.0703 10.2227H74.8203V22.7266ZM86.375 25V23.1953L88.2383 22.8438V10.1055L86.375 9.75391V7.9375H99.3711V12.332H97.0742L96.875 10.2109H91.1914V15.0391H97.1797V17.3242H91.1914V22.75H97.1914L97.3906 20.582H99.6641V25H86.375ZM109.66 25.2461C107.98 25.2461 106.543 24.8906 105.348 24.1797C104.16 23.4609 103.25 22.4609 102.617 21.1797C101.992 19.8906 101.68 18.3945 101.68 16.6914V16.2578C101.68 14.5938 101.992 13.1211 102.617 11.8398C103.242 10.5508 104.137 9.53906 105.301 8.80469C106.465 8.0625 107.855 7.69141 109.473 7.69141C110.605 7.69141 111.656 7.85937 112.625 8.19531C113.594 8.53125 114.438 9.00391 115.156 9.61328V13.5508H112.906L112.602 10.9141C112.344 10.7266 112.059 10.5664 111.746 10.4336C111.434 10.3008 111.09 10.1992 110.715 10.1289C110.348 10.0586 109.945 10.0234 109.508 10.0234C108.484 10.0234 107.605 10.2812 106.871 10.7969C106.145 11.3125 105.59 12.0352 105.207 12.9648C104.824 13.8945 104.633 14.9844 104.633 16.2344V16.6914C104.633 17.9883 104.836 19.1055 105.242 20.043C105.648 20.9727 106.23 21.6875 106.988 22.1875C107.754 22.6875 108.668 22.9375 109.73 22.9375C110.246 22.9375 110.754 22.8789 111.254 22.7617C111.762 22.6367 112.207 22.4766 112.59 22.2812L112.906 19.8906H115.133V23.8047C114.477 24.2344 113.672 24.582 112.719 24.8477C111.773 25.1133 110.754 25.2461 109.66 25.2461ZM121.367 20.5L119.82 18.7188L128.07 9.95312L128.105 9.90625L126.594 9.75391V7.9375H132.957V9.75391L131.352 10.0703L121.367 20.5ZM117.031 25V23.1953L118.895 22.8438V10.1055L117.031 9.75391V7.9375H123.652V9.75391L121.848 10.1055V22.8438L123.652 23.1953V25H117.031ZM126.969 25V23.1953L128.48 23.043V23.0312L123.98 16.8203L125.832 14.7461L131.938 22.9023L133.566 23.1953V25H126.969Z" fill="#4D5DFD"/>
</svg>
