<svg width="20" height="17" viewBox="0 0 20 17" fill="none" xmlns="http://www.w3.org/2000/svg">
<path d="M19.3288 2.59916L17.9269 2.59909V1.14785C17.9269 0.815599 17.6838 0.53331 17.3552 0.484152C17.2978 0.475533 15.932 0.277149 14.2874 0.576408C12.4539 0.910009 10.9917 1.7327 9.99996 2.9764C9.00818 1.7327 7.54597 0.910009 5.71257 0.576408C4.06786 0.277217 2.70208 0.475533 2.64477 0.484152C2.31615 0.533378 2.07306 0.815666 2.07306 1.14785V2.59909H0.671109C0.300538 2.59909 0 2.89963 0 3.27027V15.917C0 16.1343 0.105185 16.3382 0.282356 16.4641C0.459527 16.59 0.686664 16.6223 0.891849 16.5508C0.942219 16.5334 5.97136 14.817 9.72145 16.5276C9.89842 16.6083 10.1016 16.6083 10.2785 16.5276C14.0181 14.8219 19.058 16.5335 19.1081 16.5508C19.1801 16.5759 19.2545 16.5882 19.3288 16.5882C19.4663 16.5882 19.6025 16.5459 19.7176 16.4642C19.8948 16.3382 20 16.1344 20 15.9171V3.27034C19.9999 2.8997 19.6995 2.59916 19.3288 2.59916ZM1.34228 15.019V3.94138H2.07306V12.8791C2.07306 13.0741 2.15838 13.2593 2.30592 13.3868C2.45346 13.5143 2.64969 13.5714 2.84255 13.543C2.87959 13.5376 5.79513 13.1373 7.92522 14.5988C5.30133 14.1501 2.67521 14.6691 1.34228 15.019ZM9.32885 13.9935C8.39068 13.1459 7.16866 12.5727 5.71257 12.3077C5.01183 12.1802 4.36173 12.143 3.84187 12.143C3.68753 12.143 3.54463 12.1463 3.41541 12.1515V1.76415H3.41534C4.70524 1.70597 7.84307 1.84388 9.32885 4.36259V13.9935ZM10.6711 4.36266C12.1515 1.85472 15.2943 1.71055 16.5846 1.76583V12.1515C16.0201 12.1288 15.196 12.1424 14.2874 12.3077C12.8313 12.5727 11.6093 13.1458 10.6711 13.9935V4.36266ZM12.0725 14.5992C14.2028 13.1368 17.1199 13.5375 17.1563 13.5429C17.3496 13.5719 17.5457 13.5151 17.6937 13.3877C17.8418 13.2601 17.9269 13.0745 17.9269 12.8791V3.94145H18.6576V15.019C17.3243 14.6689 14.6971 14.1498 12.0725 14.5992Z" fill="#4D5DFD"/>
</svg>
