<svg width="128" height="128" viewBox="0 0 128 128" fill="none" xmlns="http://www.w3.org/2000/svg">
    <g id="Warning">
        <g id="Danger">
            <path id="Danger_2" fill-rule="evenodd" clip-rule="evenodd"
                  d="M115.997 91.657C116.087 91.8117 116.162 91.977 116.231 92.1423C116.866 93.705 117.229 95.353 117.319 97.0383C117.527 101.065 116.157 104.926 113.453 107.924C110.754 110.921 107.047 112.686 103.021 112.889L45.6501 112.894C43.4421 112.894 41.6501 111.102 41.6501 108.894C41.6501 106.686 43.4421 104.894 45.6501 104.894H102.818C104.503 104.798 106.242 103.977 107.517 102.564C108.786 101.156 109.426 99.3477 109.33 97.4543C109.293 96.7397 109.149 96.0357 108.898 95.3637L70.2368 27.705C68.3221 24.2437 63.9968 22.9957 60.5728 24.889C59.4048 25.5343 58.4501 26.489 57.8048 27.657L19.1115 95.369C18.4875 97.065 18.5301 98.905 19.2341 100.574C19.9701 102.318 21.3408 103.673 23.0955 104.382C23.8368 104.686 24.6048 104.857 25.3995 104.9C27.6021 105.006 29.3035 106.889 29.1915 109.097C29.0848 111.23 27.3141 112.894 25.1968 112.894C25.1275 112.894 25.0635 112.894 24.9941 112.889C23.2981 112.804 21.6448 112.436 20.0768 111.796C16.3541 110.281 13.4368 107.401 11.8688 103.689C10.2955 99.977 10.2688 95.8703 11.7888 92.137C11.8528 91.9717 11.9275 91.8117 12.0181 91.657L50.8288 23.737C52.1728 21.305 54.2155 19.2677 56.6955 17.8863C63.9861 13.8543 73.1861 16.4997 77.2128 23.785L115.997 91.657ZM64.0075 72.5226C66.2155 72.5226 68.0075 70.7306 68.0075 68.5226V53.4453C68.0075 51.2373 66.2155 49.4453 64.0075 49.4453C61.7995 49.4453 60.0075 51.2373 60.0075 53.4453V68.5226C60.0075 70.7306 61.7995 72.5226 64.0075 72.5226ZM64.0075 90.7674C66.2155 90.7674 68.0075 88.9754 68.0075 86.7674V86.7141C68.0075 84.5061 66.2155 82.7407 64.0075 82.7407C61.7995 82.7407 60.0075 84.5594 60.0075 86.7674C60.0075 88.9754 61.7995 90.7674 64.0075 90.7674Z"
                  fill="#ED991B"/>
        </g>
    </g>
</svg>
