<svg xmlns="http://www.w3.org/2000/svg" width="154" height="73" viewBox="0 0 154 73" fill="none">
    <path d="M33.7257 57.6544V55.9611L35.474 55.6313V43.6793L33.7257 43.3494V41.6452H35.474H38.2448H40.125V43.3494L38.2448 43.6793V55.5323H43.2477L43.4346 53.1133H45.5567V57.6544H33.7257ZM46.9641 57.6544V55.9611L48.7124 55.6313V43.6793L46.9641 43.3494V41.6452H48.7124H51.4832H53.3634V43.3494L51.4832 43.6793V55.5323H56.4861L56.673 53.1133H58.7951V57.6544H46.9641ZM60.2025 57.6544V55.9611L61.9618 55.6203V43.7013L60.2025 43.3494V41.6452H61.9618H66.9097C68.3391 41.6452 69.5889 41.9823 70.6591 42.6567C71.7367 43.3311 72.576 44.2584 73.1771 45.4386C73.7782 46.6187 74.0787 47.9712 74.0787 49.4959V49.8147C74.0787 51.3174 73.7855 52.6625 73.1991 53.85C72.6127 55.0302 71.7843 55.9611 70.7141 56.6428C69.6512 57.3172 68.4088 57.6544 66.9867 57.6544H60.2025ZM64.7326 55.5213H66.8438C67.782 55.5213 68.581 55.2721 69.2407 54.7736C69.9078 54.2678 70.4172 53.5861 70.7691 52.7285C71.121 51.8635 71.2969 50.8923 71.2969 49.8147V49.4849C71.2969 48.378 71.121 47.3994 70.7691 46.5491C70.4172 45.6915 69.9078 45.0171 69.2407 44.5259C68.581 44.0348 67.782 43.7893 66.8438 43.7893H64.7326V55.5213ZM75.5741 57.6544V55.9611L77.3223 55.6313V43.6793L75.5741 43.3494V41.6452H87.7679V45.7684H85.6128L85.4259 43.7783H80.0932V48.3084H85.7118V50.4525H80.0932V55.5433H85.7228L85.9097 53.5092H88.0428V57.6544H75.5741ZM97.4219 57.8853C95.8459 57.8853 94.4971 57.5518 93.3756 56.8847C92.2614 56.2104 91.4074 55.2721 90.8137 54.0699C90.2272 52.8604 89.934 51.4567 89.934 49.8587V49.4519C89.934 47.8905 90.2272 46.5088 90.8137 45.3066C91.4001 44.0971 92.2394 43.1479 93.3316 42.4588C94.4238 41.7624 95.7286 41.4143 97.246 41.4143C98.3088 41.4143 99.2948 41.5719 100.204 41.8871C101.113 42.2023 101.904 42.6457 102.579 43.2175V46.9119H100.468L100.182 44.438C99.9398 44.2621 99.6723 44.1118 99.3791 43.9872C99.0858 43.8626 98.7633 43.7673 98.4115 43.7013C98.0669 43.6353 97.6894 43.6023 97.2789 43.6023C96.3187 43.6023 95.494 43.8442 94.805 44.328C94.1233 44.8118 93.6028 45.4899 93.2436 46.3622C92.8845 47.2345 92.7049 48.257 92.7049 49.4299V49.8587C92.7049 51.0755 92.8955 52.1237 93.2766 53.0034C93.6578 53.8757 94.2039 54.5464 94.9149 55.0155C95.6333 55.4847 96.4909 55.7192 97.4879 55.7192C97.9716 55.7192 98.4481 55.6643 98.9172 55.5543C99.3937 55.437 99.8115 55.2867 100.171 55.1035L100.468 52.8604H102.557V56.5329C101.941 56.9361 101.186 57.2623 100.292 57.5115C99.4047 57.7607 98.4481 57.8853 97.4219 57.8853ZM108.406 53.4322L106.955 51.7609L114.696 43.5364L114.729 43.4924L113.31 43.3494V41.6452H119.281V43.3494L117.774 43.6463L108.406 53.4322ZM104.338 57.6544V55.9611L106.086 55.6313V43.6793L104.338 43.3494V41.6452H110.55V43.3494L108.857 43.6793V55.6313L110.55 55.9611V57.6544H104.338ZM113.662 57.6544V55.9611L115.08 55.8182V55.8072L110.858 49.9796L112.595 48.0335L118.324 55.6862L119.852 55.9611V57.6544H113.662Z"
          fill="#4D5DFD"/>
    <line x1="153" y1="16.9507" x2="153" y2="72.3087" stroke="#4D5DFD" stroke-width="2"/>
    <line x1="1" y1="16.9507" x2="1" y2="72.3087" stroke="#4D5DFD" stroke-width="2"/>
    <line x1="8.74228e-08" y1="71.3087" x2="152" y2="71.3087" stroke="#4D5DFD" stroke-width="2"/>
    <line x1="8.74228e-08" y1="15.9507" x2="53" y2="15.9507" stroke="#4D5DFD" stroke-width="2"/>
    <line x1="101" y1="16" x2="154" y2="16" stroke="#4D5DFD" stroke-width="2"/>
    <path d="M62.0357 28.8692C62.8099 29.8515 63.9942 30.2082 65.243 30.2069C66.4974 30.2055 67.9576 29.8486 69.5112 29.2302C72.6266 27.9902 76.325 25.615 79.8999 22.4212C83.4748 19.2274 86.314 15.7619 88.002 12.7106C88.8437 11.189 89.4274 9.71989 89.6465 8.40485C89.8646 7.09571 89.7403 5.79191 88.9662 4.80965C88.192 3.82738 87.0077 3.47065 85.7589 3.47203C84.5045 3.4734 83.0443 3.83031 81.4907 4.44866C78.3753 5.68869 74.6769 8.06391 71.102 11.2577C67.5271 14.4515 64.6879 17.917 62.9999 20.9683C62.1582 22.4899 61.5745 23.959 61.3554 25.274C61.1373 26.5832 61.2616 27.887 62.0357 28.8692Z"
          stroke="#4D5DFD" stroke-width="2"/>
    <path d="M88.967 28.1868C89.7412 27.2046 89.8656 25.9009 89.6475 24.5919C89.4284 23.277 88.8446 21.808 88.0029 20.2866C86.3148 17.2356 83.4754 13.7705 79.9003 10.577C76.3251 7.38352 72.6264 5.00857 69.5107 3.76871C67.957 3.15044 66.4967 2.79358 65.2422 2.79222C63.9933 2.79087 62.8088 3.14759 62.0346 4.12978C61.2604 5.11198 61.1361 6.41566 61.3542 7.72468C61.5733 9.03961 62.157 10.5086 62.9988 12.03C64.6868 15.081 67.5262 18.5461 71.1014 21.7396C74.6765 24.9331 78.3753 27.308 81.491 28.5479C83.0446 29.1662 84.505 29.523 85.7595 29.5244C87.0084 29.5257 88.1928 29.169 88.967 28.1868Z"
          stroke="#4D5DFD" stroke-width="2"/>
</svg>