<svg width="178" height="43" viewBox="0 0 178 43" fill="none" xmlns="http://www.w3.org/2000/svg">
    <path d="M3.80895 37.747C4.8673 39.0899 6.47575 39.5633 8.13299 39.5615C9.79867 39.5597 11.7252 39.0864 13.7614 38.276C17.8462 36.6501 22.684 33.5412 27.3543 29.3688C32.0245 25.1964 35.7402 20.6637 37.9533 16.6629C39.0565 14.6687 39.8288 12.7308 40.1197 10.9846C40.4092 9.24723 40.2506 7.4785 39.1922 6.13558C38.1339 4.79267 36.5254 4.31923 34.8682 4.32105C33.2025 4.32288 31.2759 4.79612 29.2398 5.60656C25.155 7.23243 20.3172 10.3413 15.6469 14.5137C10.9766 18.6861 7.26103 23.2188 5.04785 27.2196C3.94465 29.2138 3.17238 31.1517 2.88145 32.898C2.59199 34.6353 2.75059 36.404 3.80895 37.747Z"
          stroke="#4D5DFD" stroke-width="3"/>
    <path d="M39.193 36.8577C40.2514 35.5149 40.4101 33.7463 40.1206 32.0091C39.8297 30.2631 39.0574 28.3253 37.9541 26.3313C35.7408 22.3309 32.0249 17.7987 27.3543 13.6267C22.6837 9.45471 17.8455 6.34621 13.7604 4.72055C11.724 3.91021 9.7973 3.43704 8.13148 3.43524C6.4741 3.43345 4.86549 3.90687 3.80702 5.24969C2.74855 6.59251 2.58991 8.36109 2.87937 10.0983C3.17031 11.8443 3.94262 13.7821 5.04588 15.7761C7.2592 19.7765 10.9751 24.3087 15.6457 28.4807C20.3163 32.6527 25.1545 35.7612 29.2396 37.3868C31.276 38.1972 33.2027 38.6704 34.8685 38.6722C36.5259 38.6739 38.1345 38.2005 39.193 36.8577Z"
          stroke="#4D5DFD" stroke-width="3"/>
    <path d="M54.0312 33.9985V31.5923L56.5156 31.1235V14.1392L54.0312 13.6704V11.2485H56.5156H60.4531H63.125V13.6704L60.4531 14.1392V30.9829H67.5625L67.8281 27.5454H70.8438V33.9985H54.0312ZM72.8438 33.9985V31.5923L75.3281 31.1235V14.1392L72.8438 13.6704V11.2485H75.3281H79.2656H81.9375V13.6704L79.2656 14.1392V30.9829H86.375L86.6406 27.5454H89.6562V33.9985H72.8438ZM91.6562 33.9985V31.5923L94.1562 31.1079V14.1704L91.6562 13.6704V11.2485H94.1562H101.188C103.219 11.2485 104.995 11.7277 106.516 12.686C108.047 13.6444 109.24 14.9621 110.094 16.6392C110.948 18.3162 111.375 20.2381 111.375 22.4048V22.8579C111.375 24.9933 110.958 26.9048 110.125 28.5923C109.292 30.2694 108.115 31.5923 106.594 32.561C105.083 33.5194 103.318 33.9985 101.297 33.9985H91.6562ZM98.0938 30.9673H101.094C102.427 30.9673 103.562 30.6131 104.5 29.9048C105.448 29.186 106.172 28.2173 106.672 26.9985C107.172 25.7694 107.422 24.3892 107.422 22.8579V22.3892C107.422 20.8162 107.172 19.4256 106.672 18.2173C106.172 16.9985 105.448 16.0402 104.5 15.3423C103.562 14.6444 102.427 14.2954 101.094 14.2954H98.0938V30.9673ZM113.5 33.9985V31.5923L115.984 31.1235V14.1392L113.5 13.6704V11.2485H130.828V17.1079H127.766L127.5 14.2798H119.922V20.7173H127.906V23.7642H119.922V30.9985H127.922L128.188 28.1079H131.219V33.9985H113.5ZM144.547 34.3267C142.307 34.3267 140.391 33.8527 138.797 32.9048C137.214 31.9465 136 30.6131 135.156 28.9048C134.323 27.186 133.906 25.1912 133.906 22.9204V22.3423C133.906 20.1235 134.323 18.16 135.156 16.4517C135.99 14.7329 137.182 13.384 138.734 12.4048C140.286 11.4152 142.141 10.9204 144.297 10.9204C145.807 10.9204 147.208 11.1444 148.5 11.5923C149.792 12.0402 150.917 12.6704 151.875 13.4829V18.7329H148.875L148.469 15.2173C148.125 14.9673 147.745 14.7537 147.328 14.5767C146.911 14.3996 146.453 14.2642 145.953 14.1704C145.464 14.0767 144.927 14.0298 144.344 14.0298C142.979 14.0298 141.807 14.3735 140.828 15.061C139.859 15.7485 139.12 16.7121 138.609 17.9517C138.099 19.1912 137.844 20.6444 137.844 22.311V22.9204C137.844 24.6496 138.115 26.1392 138.656 27.3892C139.198 28.6287 139.974 29.5819 140.984 30.2485C142.005 30.9152 143.224 31.2485 144.641 31.2485C145.328 31.2485 146.005 31.1704 146.672 31.0142C147.349 30.8475 147.943 30.634 148.453 30.3735L148.875 27.186H151.844V32.4048C150.969 32.9777 149.896 33.4412 148.625 33.7954C147.365 34.1496 146.005 34.3267 144.547 34.3267ZM160.156 27.9985L158.094 25.6235L169.094 13.936L169.141 13.8735L167.125 13.6704V11.2485H175.609V13.6704L173.469 14.0923L160.156 27.9985ZM154.375 33.9985V31.5923L156.859 31.1235V14.1392L154.375 13.6704V11.2485H163.203V13.6704L160.797 14.1392V31.1235L163.203 31.5923V33.9985H154.375ZM167.625 33.9985V31.5923L169.641 31.3892V31.3735L163.641 23.0923L166.109 20.3267L174.25 31.2017L176.422 31.5923V33.9985H167.625Z"
          fill="#4D5DFD"/>
</svg>
