<svg width="349" height="250" viewBox="0 0 349 250" fill="none" xmlns="http://www.w3.org/2000/svg">
    <g clip-path="url(#clip0_385_10746)">
        <g clip-path="url(#clip1_385_10746)">
            <path fill-rule="evenodd" clip-rule="evenodd"
                  d="M291.586 115.586H177.217C174.826 115.586 172.887 113.501 172.887 110.928V0H295.917V110.928C295.917 113.501 293.978 115.586 291.586 115.586Z"
                  fill="#E4EBF7"/>
            <path fill-rule="evenodd" clip-rule="evenodd"
                  d="M278.176 57.7688C278.176 82.0595 258.491 101.752 234.208 101.752C209.925 101.752 190.24 82.0595 190.24 57.7688C190.24 33.4774 209.925 13.7861 234.208 13.7861C258.491 13.7861 278.176 33.4774 278.176 57.7688Z"
                  fill="#ADC6FF"/>
            <mask id="mask0_385_10746" style="mask-type:alpha" x="190" y="13" width="89"
                  height="89">
                <path fill-rule="evenodd" clip-rule="evenodd"
                      d="M278.176 57.7688C278.176 82.0595 258.491 101.752 234.208 101.752C209.925 101.752 190.24 82.0595 190.24 57.7688C190.24 33.4774 209.925 13.7861 234.208 13.7861C258.491 13.7861 278.176 33.4774 278.176 57.7688Z"
                      fill="#ADC6FF"/>
            </mask>
            <g mask="url(#mask0_385_10746)">
                <path fill-rule="evenodd" clip-rule="evenodd"
                      d="M229.522 81.3496L238.668 81.4225C238.668 81.4225 249.185 91.4725 233.579 105.818C233.579 105.818 218.256 90.4967 229.522 81.3496Z"
                      fill="#FF7946"/>
                <path fill-rule="evenodd" clip-rule="evenodd"
                      d="M241.606 83.4208H225.528C224.823 83.4208 224.307 82.7559 224.482 82.0725L226.583 73.8623H240.55L242.652 82.0725C242.827 82.7559 242.311 83.4208 241.606 83.4208Z"
                      fill="#253368"/>
                <path fill-rule="evenodd" clip-rule="evenodd"
                      d="M214.847 73.1442L233.566 44.0537L252.286 73.1442C253.07 74.3643 252.195 75.969 250.745 75.969H216.389C214.938 75.969 214.062 74.3643 214.847 73.1442Z"
                      fill="#4D5DFD"/>
                <path fill-rule="evenodd" clip-rule="evenodd"
                      d="M233.52 21.2362C233.517 21.2355 233.514 21.2334 233.514 21.2334V21.2391C233.153 21.4196 222.917 29.2127 222.917 34.4778C222.917 45.6551 223.011 75.9692 223.011 75.9692H244.217C244.217 75.9692 244.123 45.6551 244.123 34.4778C244.123 29.2127 233.522 21.2355 233.52 21.2362Z"
                      fill="white"/>
                <path fill-rule="evenodd" clip-rule="evenodd"
                      d="M236.881 36.0453C238.711 37.8766 238.711 40.8451 236.881 42.6764C235.051 44.5069 232.083 44.5069 230.252 42.6764C228.422 40.8451 228.422 37.8766 230.252 36.0453C232.083 34.2141 235.051 34.2141 236.881 36.0453Z"
                      fill="#253368"/>
                <path fill-rule="evenodd" clip-rule="evenodd"
                      d="M229.784 103.341C229.784 109.456 224.829 114.413 218.716 114.413C212.603 114.413 207.648 109.456 207.648 103.341C207.648 97.2265 212.603 92.2695 218.716 92.2695C224.829 92.2695 229.784 97.2265 229.784 103.341Z"
                      fill="#E4EBF7"/>
                <path fill-rule="evenodd" clip-rule="evenodd"
                      d="M244.932 106.531C244.932 112.646 239.976 117.603 233.864 117.603C227.751 117.603 222.795 112.646 222.795 106.531C222.795 100.416 227.751 95.4595 233.864 95.4595C239.976 95.4595 244.932 100.416 244.932 106.531Z"
                      fill="#E4EBF7"/>
                <path fill-rule="evenodd" clip-rule="evenodd"
                      d="M278.29 86.2973C278.29 93.2321 272.671 98.8534 265.739 98.8534C258.806 98.8534 253.186 93.2321 253.186 86.2973C253.186 79.3632 258.806 73.7412 265.739 73.7412C272.671 73.7412 278.29 79.3632 278.29 86.2973Z"
                      fill="#E4EBF7"/>
                <path fill-rule="evenodd" clip-rule="evenodd"
                      d="M264.646 52.585C264.646 55.334 262.418 57.5625 259.669 57.5625C256.921 57.5625 254.693 55.334 254.693 52.585C254.693 49.8352 256.921 47.6074 259.669 47.6074C262.418 47.6074 264.646 49.8352 264.646 52.585Z"
                      fill="white"/>
                <path fill-rule="evenodd" clip-rule="evenodd"
                      d="M205.756 61.5432C205.756 63.0962 204.497 64.3559 202.944 64.3559C201.391 64.3559 200.133 63.0962 200.133 61.5432C200.133 59.9903 201.391 58.7305 202.944 58.7305C204.497 58.7305 205.756 59.9903 205.756 61.5432Z"
                      fill="#E4EBF7"/>
                <path fill-rule="evenodd" clip-rule="evenodd"
                      d="M217.189 90.2391C217.189 97.3127 211.455 103.048 204.383 103.048C197.312 103.048 191.579 97.3127 191.579 90.2391C191.579 83.1654 197.312 77.4302 204.383 77.4302C211.455 77.4302 217.189 83.1654 217.189 90.2391Z"
                      fill="#E4EBF7"/>
                <path fill-rule="evenodd" clip-rule="evenodd"
                      d="M253.261 112.619C245.615 112.619 239.415 106.417 239.415 98.7673C239.415 91.1179 245.615 84.916 253.261 84.916C260.909 84.916 267.108 91.1179 267.108 98.7673C267.108 106.417 260.909 112.619 253.261 112.619Z"
                      fill="#E4EBF7"/>
            </g>
            <path fill-rule="evenodd" clip-rule="evenodd"
                  d="M239.089 193.046C236.68 195.929 234.371 199.477 232.404 203.511C230.985 206.42 229.875 209.312 229.07 212.077C230.907 213.955 233 215.801 235.313 217.544C238.688 220.087 242.143 222.119 245.439 223.594C247.848 220.712 250.157 217.163 252.124 213.129C252.413 212.537 252.689 211.945 252.952 211.355C253.617 211.728 254.352 211.99 255.133 212.115C254.835 212.789 254.522 213.464 254.193 214.138C252.28 218.061 250.039 221.576 247.662 224.514C249.238 225.112 250.762 225.573 252.206 225.892C257.316 227.018 261.189 226.319 262.986 223.935C264.783 221.551 264.387 217.635 261.895 213.033C261.47 212.249 260.987 211.45 260.449 210.644C260.749 210.391 261.026 210.113 261.277 209.811C261.886 210.712 262.431 211.606 262.907 212.486C265.441 217.165 266.138 221.664 263.905 224.628C261.672 227.591 257.155 228.161 251.958 227.015C250.344 226.66 248.641 226.134 246.885 225.448C245.443 227.134 243.96 228.605 242.475 229.827C238.331 233.236 233.79 234.985 230.13 233.199C226.469 231.414 225.051 226.759 225.187 221.395C225.263 218.374 225.827 214.977 226.866 211.413C224.675 208.983 222.901 206.518 221.621 204.155C219.087 199.475 218.39 194.976 220.623 192.013C222.856 189.049 227.374 188.479 232.57 189.625C234.184 189.981 235.887 190.506 237.643 191.192C239.085 189.507 240.568 188.035 242.053 186.814C246.197 183.404 250.738 181.656 254.398 183.441C258.059 185.227 259.477 189.881 259.341 195.246C259.307 196.612 259.172 198.056 258.939 199.558C258.248 199.241 257.493 199.041 256.699 198.98C256.897 197.653 257.01 196.384 257.041 195.188C257.172 189.999 255.746 186.659 253.389 185.51C251.033 184.361 247.523 185.293 243.515 188.591C242.302 189.589 241.078 190.779 239.872 192.137C243.162 193.639 246.58 195.671 249.907 198.177C250.765 198.824 251.593 199.484 252.391 200.156C252.071 200.38 251.772 200.632 251.497 200.908C250.763 200.294 250.001 199.689 249.215 199.097C245.84 196.554 242.385 194.521 239.089 193.046ZM236.866 192.126C234.489 195.065 232.248 198.58 230.335 202.502C229.086 205.063 228.06 207.627 227.261 210.124C225.337 207.926 223.775 205.717 222.633 203.607C220.141 199.005 219.746 195.09 221.542 192.705C223.339 190.321 227.212 189.622 232.322 190.749C233.766 191.067 235.29 191.528 236.866 192.126ZM228.717 213.356C227.958 216.267 227.549 219.012 227.487 221.453C227.357 226.642 228.782 229.981 231.139 231.131C233.495 232.28 237.005 231.347 241.013 228.05C242.226 227.051 243.45 225.862 244.656 224.503C241.366 223.001 237.948 220.97 234.621 218.463C232.461 216.835 230.482 215.115 228.717 213.356Z"
                  fill="#4D5DFD"/>
            <path d="M256.219 202.116C254.289 202.116 252.723 203.681 252.723 205.612C252.723 207.542 254.289 209.108 256.219 209.108C258.15 209.108 259.715 207.542 259.715 205.612C259.715 203.681 258.15 202.116 256.219 202.116Z"
                  fill="#4D5DFD"/>
            <path fill-rule="evenodd" clip-rule="evenodd"
                  d="M109.768 230.707L104.196 242.619C104.196 242.619 61.628 222.202 54.5487 211.202C48.2637 201.436 63.1386 177.532 63.1386 177.532C63.1386 177.532 77.9984 187.889 80.7777 194.411L78.3354 201.756L109.768 230.707Z"
                  fill="#FFC999"/>
            <path fill-rule="evenodd" clip-rule="evenodd"
                  d="M165.592 211.574L154.472 184.397L175.37 172.024C175.37 172.024 196.775 209.435 192.404 217.807C186.89 228.371 174.462 228.402 165.592 211.574Z"
                  fill="#FFC999"/>
            <path fill-rule="evenodd" clip-rule="evenodd"
                  d="M100.208 222.081C100.208 222.081 94.0632 192.296 91.358 181.294C88.6529 170.293 84.4813 143.939 89.016 141.935C93.5496 139.931 104.409 135.665 104.409 135.665C104.409 135.665 113.075 135.297 122.844 137.314C130.578 138.911 130.488 134.355 139.861 135.844C143.83 136.473 159.384 141.234 162.41 143.588C165.435 145.941 160.377 223.286 160.377 223.286C160.377 223.286 164.106 227.074 159.648 232.047C157.437 234.375 147.795 233.653 135.461 233.765C121.421 233.89 104.916 235.762 101.835 233.11C96.0462 228.126 100.208 222.081 100.208 222.081Z"
                  fill="#4D5DFD"/>
            <path fill-rule="evenodd" clip-rule="evenodd"
                  d="M135.36 130.511L126.45 138.195L136.596 148.544L141.573 136.074L135.36 130.511Z" fill="#4D5DFD"/>
            <path fill-rule="evenodd" clip-rule="evenodd"
                  d="M162.629 204.802C162.629 204.802 147.763 179.319 146.61 164.479C145.479 149.926 158.267 139.019 164.883 145.357C174.526 154.592 184.847 185.582 184.847 185.582C184.847 185.582 174.015 199.505 162.629 204.802Z"
                  fill="#4D5DFD"/>
            <path d="M180.543 188.268C180.699 188.038 181.01 187.978 181.24 188.133C181.469 188.288 181.529 188.601 181.374 188.83C179.866 191.063 178.191 193.132 176.377 195.042C173.497 198.075 170.411 200.569 167.324 202.56C166.243 203.258 165.237 203.844 164.334 204.321C164.143 204.422 163.966 204.513 163.801 204.596L163.333 204.823C163.266 204.855 163.215 204.878 163.182 204.893C162.928 205.004 162.632 204.889 162.521 204.636C162.409 204.382 162.524 204.085 162.777 203.974L162.977 203.881L163.055 203.844C163.241 203.754 163.452 203.648 163.686 203.527L163.866 203.433C164.744 202.969 165.725 202.398 166.781 201.716C169.804 199.766 172.828 197.322 175.65 194.35C177.427 192.479 179.067 190.453 180.543 188.268Z"
                  fill="#253368"/>
            <path fill-rule="evenodd" clip-rule="evenodd"
                  d="M56.7627 189.543C56.7627 189.543 73.9896 152.625 83.2676 145.4C92.5466 138.175 96.686 141.973 100.435 147.12C102.795 150.359 108.226 159.552 96.2487 178.944C87.2295 193.546 83.4491 198.959 82.3729 201.395C67.2493 200.38 56.7627 189.543 56.7627 189.543Z"
                  fill="#4D5DFD"/>
            <path fill-rule="evenodd" clip-rule="evenodd"
                  d="M126.57 140.478L135.476 130.638L132.702 101.363L109.314 103.297L109.12 133.03L126.57 140.478Z"
                  fill="#FFC999"/>
            <path fill-rule="evenodd" clip-rule="evenodd"
                  d="M138.707 98.4581C138.707 98.4581 142.215 94.6743 143.773 97.1426C145.331 99.6109 142.867 108.595 138.99 108.905C133.81 109.317 138.707 98.4581 138.707 98.4581Z"
                  fill="#FFC999"/>
            <path fill-rule="evenodd" clip-rule="evenodd"
                  d="M116.572 121.79C116.572 121.79 124.315 127.882 134.28 121.487C141.455 116.884 142.025 100.735 140.384 88.9237C139.455 82.2399 136.297 78.6981 129.733 76.8494C123.167 74.9997 105.474 75.2959 105.764 95.0131C106.087 116.975 116.572 121.79 116.572 121.79Z"
                  fill="#FFC999"/>
            <path d="M129.127 92.2706C129.299 92.3104 129.413 92.4674 129.405 92.6376L129.396 92.7019L128.445 96.8121L130.888 107.926C130.932 108.126 130.801 108.317 130.608 108.356L130.548 108.362L125.831 108.5C125.633 108.506 125.467 108.349 125.462 108.151C125.456 107.972 125.582 107.82 125.752 107.788L125.81 107.781L130.093 107.656L127.727 96.8875C127.719 96.8527 127.717 96.8171 127.719 96.7818L127.727 96.7292L128.696 92.5397C128.736 92.3678 128.893 92.2535 129.063 92.2616L129.127 92.2706Z"
                  fill="#DD936F"/>
            <path d="M113.654 91.4271C116.792 88.9946 120.72 88.794 124.046 90.5033C124.539 90.7565 124.734 91.3618 124.481 91.8552C124.228 92.3486 123.623 92.5433 123.13 92.2901C120.47 90.923 117.377 91.0809 114.882 93.0151C114.444 93.3546 113.814 93.2744 113.475 92.8359C113.136 92.3974 113.216 91.7666 113.654 91.4271Z"
                  fill="#253368"/>
            <path fill-rule="evenodd" clip-rule="evenodd"
                  d="M131.579 110.258C126.617 110.914 121.692 109.898 121.692 109.898C121.692 109.898 122.711 113.453 126.659 113.683C131.038 113.937 131.579 110.258 131.579 110.258Z"
                  fill="white"/>
            <path d="M121.21 110.037C121.365 110.575 121.732 111.348 122.39 112.122C123.407 113.317 124.809 114.078 126.63 114.184C128.773 114.309 130.288 113.573 131.234 112.272C131.757 111.552 132.001 110.834 132.075 110.331C132.124 110.001 131.844 109.717 131.514 109.76C128.956 110.098 126.218 110.022 123.602 109.69C123.208 109.64 122.843 109.588 122.513 109.534L121.943 109.436C121.879 109.424 121.829 109.414 121.794 109.407C121.424 109.331 121.106 109.674 121.21 110.037ZM122.597 110.683L122.524 110.553L122.615 110.567C122.884 110.608 123.172 110.648 123.476 110.687L123.983 110.748C126.184 110.998 128.455 111.068 130.642 110.868L130.884 110.842L130.823 110.99C130.716 111.227 130.584 111.46 130.423 111.681C129.675 112.709 128.487 113.286 126.688 113.182C125.155 113.093 124.001 112.467 123.154 111.471C122.939 111.218 122.753 110.952 122.597 110.683Z"
                  fill="#FF7946"/>
            <path fill-rule="evenodd" clip-rule="evenodd"
                  d="M108.173 103.419L104.187 95.8987C104.187 95.8987 101.543 84.9953 103.983 80.2365C107.771 72.8507 116.768 72.8728 122.068 70.8192C127.369 68.7657 127.284 66.9682 129.456 67.2253C131.626 67.4823 140.123 73.1741 141.183 79.2765C142.115 84.6418 141.011 98.3791 141.011 98.3791C141.011 98.3791 139.265 86.2676 138.034 83.0833C133.771 81.3963 118.396 81.6062 112.019 83.711C112.019 83.711 111.543 87.8552 111.278 90.7724C107.891 93.2999 108.173 103.419 108.173 103.419Z"
                  fill="#253368"/>
            <path d="M134.41 120.8C134.541 120.65 134.767 120.636 134.917 120.767C135.066 120.897 135.08 121.125 134.95 121.274L134.86 121.371C134.753 121.48 134.596 121.628 134.389 121.802C133.933 122.185 133.384 122.566 132.739 122.921C129.199 124.869 124.477 125.249 118.539 123.097C118.353 123.029 118.256 122.823 118.324 122.637C118.391 122.45 118.597 122.353 118.784 122.421C124.526 124.503 129.033 124.14 132.393 122.291C132.996 121.959 133.507 121.605 133.927 121.252C134.175 121.043 134.335 120.884 134.41 120.8Z"
                  fill="#DD936F"/>
            <path d="M128.858 95.1014C129.254 95.0775 129.594 95.3794 129.618 95.7757C129.641 96.1457 129.379 96.4672 129.023 96.5279L128.945 96.5368L125.477 96.7467C125.081 96.7706 124.741 96.4687 124.717 96.0724C124.695 95.7024 124.956 95.3809 125.313 95.3202L125.391 95.3113L128.858 95.1014Z"
                  fill="#253368"/>
            <path d="M125.816 97.4852C126.535 97.1579 127.271 96.983 127.995 97.0528C128.627 97.1139 129.204 97.364 129.684 97.8217C129.971 98.0955 129.982 98.5506 129.709 98.8382C129.435 99.1258 128.981 99.137 128.694 98.8632C128.454 98.6344 128.179 98.5153 127.857 98.4842C127.424 98.4424 126.92 98.562 126.411 98.7941C126.14 98.9175 125.934 99.0395 125.83 99.112C125.505 99.3391 125.057 99.2591 124.83 98.9333C124.603 98.6076 124.683 98.1594 125.009 97.9323C125.179 97.8135 125.457 97.6486 125.816 97.4852Z"
                  fill="#253368"/>
            <path d="M131.238 90.1243C132.888 89.4738 134.561 89.1184 136.164 89.2225C137.329 89.2982 138.406 89.6196 139.359 90.2213C139.827 90.5171 139.968 91.1373 139.672 91.6064C139.377 92.0755 138.757 92.2159 138.289 91.9201C137.634 91.5067 136.88 91.2817 136.034 91.2267C134.77 91.1446 133.372 91.4416 131.973 91.9931C131.533 92.1663 131.127 92.352 130.766 92.5369L130.53 92.6607C130.442 92.7082 130.378 92.7452 130.338 92.769C129.863 93.0546 129.247 92.9007 128.962 92.4253C128.676 91.9499 128.83 91.3329 129.305 91.0474C129.702 90.8084 130.373 90.4653 131.238 90.1243Z"
                  fill="#253368"/>
            <path d="M128.414 115.25C128.612 115.241 128.78 115.394 128.79 115.592C128.798 115.771 128.675 115.925 128.506 115.961L128.448 115.969L125.621 116.103C125.423 116.113 125.254 115.959 125.245 115.761C125.237 115.583 125.36 115.428 125.529 115.392L125.587 115.385L128.414 115.25Z"
                  fill="#DD936F"/>
            <path d="M112.555 96.8996C112.951 96.8829 113.286 97.1911 113.303 97.5878C113.318 97.9581 113.051 98.2747 112.693 98.3288L112.615 98.3363L106.924 98.5753C106.528 98.5919 106.193 98.2838 106.176 97.8871C106.161 97.5168 106.428 97.2002 106.786 97.1461L106.864 97.1386L112.555 96.8996Z"
                  fill="#253368"/>
            <path fill-rule="evenodd" clip-rule="evenodd"
                  d="M112.951 95.4685L123.814 94.9513C124.572 94.9151 125.216 95.4996 125.247 96.2587C125.303 97.6757 125.332 99.9511 125.056 101.912C124.731 104.227 122.738 105.729 120.413 105.948C117.512 106.221 114.9 106.348 113.509 104.9C111.387 102.692 111.7 98.8767 111.648 96.8673C111.629 96.1292 112.216 95.5036 112.951 95.4685Z"
                  fill="white"/>
            <path d="M123.802 94.7118L112.939 95.229C112.073 95.2704 111.386 96.0061 111.408 96.8732L111.415 97.3912L111.416 97.7382C111.419 99.3119 111.452 100.117 111.602 101.104C111.853 102.758 112.392 104.084 113.336 105.066C114.598 106.38 116.463 106.56 120.435 106.186C122.973 105.947 124.964 104.286 125.293 101.945C125.51 100.4 125.56 98.5878 125.501 96.6885L125.485 96.2487C125.449 95.3575 124.693 94.6693 123.802 94.7118ZM123.824 95.1903C124.419 95.162 124.926 95.5939 124.999 96.1709L125.007 96.268C125.088 98.3003 125.048 100.248 124.819 101.879C124.523 103.985 122.72 105.49 120.39 105.709C116.572 106.069 114.798 105.897 113.68 104.733C112.816 103.833 112.312 102.597 112.075 101.032L112.028 100.7C111.937 99.989 111.905 99.3126 111.897 98.2544L111.887 96.8608C111.871 96.2547 112.355 95.7365 112.962 95.7074L123.824 95.1903Z"
                  fill="#253368"/>
            <path fill-rule="evenodd" clip-rule="evenodd"
                  d="M129.887 94.5405L142.185 93.9551C142.726 95.7335 142.617 102.711 140.578 104.302C137.82 105.92 132.08 105.549 131.12 104.081C129.665 101.854 128.958 97.5069 128.893 95.624C128.872 95.0496 129.315 94.5676 129.887 94.5405Z"
                  fill="white"/>
            <path d="M142.174 93.7156L129.876 94.3011C129.172 94.3344 128.628 94.9271 128.654 95.6326C128.747 98.2994 129.659 102.282 130.92 104.212C132.012 105.883 137.961 106.114 140.698 104.509C142.546 103.069 143.2 96.4699 142.414 93.8851C142.382 93.7802 142.283 93.7104 142.174 93.7156ZM142.005 94.2028L142.035 94.3206C142.641 96.9259 141.994 102.893 140.43 104.113C137.914 105.587 132.246 105.366 131.32 103.95C130.116 102.107 129.222 98.2033 129.132 95.6155C129.116 95.1718 129.457 94.8004 129.899 94.7795L142.005 94.2028Z"
                  fill="#253368"/>
            <path d="M125.242 94.5925C125.638 94.584 125.966 94.899 125.975 95.296C125.983 95.6665 125.709 95.9776 125.35 96.0243L125.272 96.0301L111.792 96.3173C111.395 96.3258 111.067 96.0108 111.058 95.6138C111.05 95.2432 111.324 94.9322 111.683 94.8855L111.761 94.8797L125.242 94.5925Z"
                  fill="#253368"/>
            <path d="M142.254 93.5048C142.65 93.4804 142.99 93.7819 143.015 94.1782C143.038 94.5481 142.777 94.8699 142.42 94.931L142.342 94.9401L129.156 95.7535C128.761 95.7779 128.42 95.4764 128.395 95.08C128.373 94.7101 128.633 94.3883 128.99 94.3272L129.068 94.3182L142.254 93.5048Z"
                  fill="#253368"/>
            <path fill-rule="evenodd" clip-rule="evenodd"
                  d="M106.328 97.3154C104.926 95.8935 102.767 95.5139 101.254 97.1788C98.8189 99.862 101.173 109.747 107.805 110.111C110.32 109.743 108.515 99.5347 106.328 97.3154Z"
                  fill="#FFC999"/>
            <path fill-rule="evenodd" clip-rule="evenodd"
                  d="M121.627 99.0289C121.666 100.262 120.985 101.285 120.105 101.312C119.225 101.341 118.48 100.364 118.441 99.1313C118.401 97.8972 119.084 96.8749 119.963 96.8468C120.843 96.8187 121.588 97.7957 121.627 99.0289Z"
                  fill="#253368"/>
            <path fill-rule="evenodd" clip-rule="evenodd"
                  d="M136.499 98.5552C136.538 99.7884 135.856 100.811 134.976 100.839C134.097 100.867 133.351 99.8898 133.312 98.6567C133.273 97.4235 133.955 96.4013 134.835 96.3732C135.714 96.345 136.46 97.3221 136.499 98.5552Z"
                  fill="#253368"/>
            <path fill-rule="evenodd" clip-rule="evenodd"
                  d="M169.586 210.403C169.586 210.403 173.888 225.784 187.487 222.958C196.773 221.027 205.823 172.545 206.539 166.913C207.05 162.887 194.928 162.226 194.928 162.226L169.586 210.403Z"
                  fill="#FFC999"/>
            <path fill-rule="evenodd" clip-rule="evenodd"
                  d="M102.248 471.728L129.897 284.012L131.686 283.612L133.338 470.829C133.338 470.829 148.854 475.325 157.007 470.354C157.088 433.833 168.064 315.253 164.078 261.102C163.436 252.384 160.682 240.546 160.124 237.254C135.234 233.209 101.357 239.161 101.357 239.161L78.4287 469.027C78.4287 469.027 90.7649 475.497 102.248 471.728Z"
                  fill="#ADC6FF"/>
            <path fill-rule="evenodd" clip-rule="evenodd"
                  d="M101.682 233.032C101.682 233.032 133.311 228.141 159.66 232.585C159.891 234.92 160.135 237.794 160.135 237.794C160.135 237.794 138.808 232.696 101.58 240.017C101.641 233.678 101.682 233.032 101.682 233.032Z"
                  fill="#ADC6FF"/>
            <path d="M112.52 239.614C123.93 238.63 135.592 238.214 146.48 238.692C151.099 238.894 155.459 239.257 159.517 239.793C159.714 239.819 159.852 239.999 159.826 240.196C159.801 240.393 159.62 240.532 159.423 240.506C155.387 239.973 151.048 239.612 146.448 239.41C135.596 238.934 123.963 239.349 112.582 240.33C110.191 240.537 107.97 240.756 105.953 240.976L104.873 241.097C104.414 241.149 103.986 241.199 103.59 241.246L102.012 241.444C101.816 241.471 101.635 241.333 101.608 241.136C101.582 240.94 101.719 240.758 101.916 240.732L102.365 240.673L103.504 240.533C103.902 240.485 104.332 240.435 104.792 240.382L105.875 240.261C107.897 240.04 110.124 239.821 112.52 239.614Z"
                  fill="#4D5DFD"/>
            <path d="M112.331 231.557C123.745 230.572 135.411 230.156 146.304 230.634C150.929 230.836 155.294 231.199 159.357 231.735C159.632 231.772 159.825 232.024 159.789 232.299C159.753 232.574 159.501 232.767 159.226 232.731C155.193 232.198 150.857 231.838 146.261 231.637C135.818 231.179 124.652 231.546 113.682 232.451L112.417 232.557C109.81 232.782 107.404 233.022 105.245 233.263L104.046 233.4L102.438 233.595L101.852 233.671C101.578 233.708 101.325 233.515 101.288 233.24C101.251 232.965 101.444 232.713 101.718 232.675L102.468 232.579C102.904 232.524 103.393 232.465 103.93 232.402L104.598 232.325C106.9 232.063 109.497 231.801 112.331 231.557Z"
                  fill="#253368"/>
            <path d="M133.41 232.099C133.588 232.099 133.736 232.229 133.764 232.4L133.769 232.458L133.761 235.07C133.751 237.056 133.732 239.259 133.704 241.625C133.622 248.343 133.475 255.053 133.245 261.317L133.174 263.162C132.883 270.443 132.492 276.55 131.987 281.133C131.965 281.331 131.787 281.473 131.59 281.451C131.393 281.429 131.251 281.252 131.273 281.054L131.393 279.912C131.879 275.092 132.253 268.766 132.527 261.291C132.74 255.48 132.882 249.285 132.967 243.055L133.007 239.72C133.019 238.481 133.029 237.294 133.036 236.17L133.051 232.462C133.051 232.26 133.212 232.099 133.41 232.099Z"
                  fill="#4D5DFD"/>
            <path fill-rule="evenodd" clip-rule="evenodd"
                  d="M139.571 234.659C139.591 235.553 139.045 236.291 138.35 236.307C137.655 236.322 137.076 235.61 137.055 234.716C137.036 233.821 137.582 233.084 138.276 233.068C138.97 233.052 139.55 233.765 139.571 234.659Z"
                  fill="white"/>
            <path d="M184.107 182.445C184.204 182.272 184.423 182.211 184.596 182.308C184.749 182.395 184.815 182.578 184.759 182.739L184.732 182.798L174.101 201.667C174.004 201.839 173.785 201.901 173.612 201.803C173.458 201.716 173.393 201.533 173.449 201.372L173.476 201.313L184.107 182.445Z"
                  fill="#DD936F"/>
            <path fill-rule="evenodd" clip-rule="evenodd"
                  d="M126.548 139.383L117.91 150.917L104.793 135.686L109.52 129.688L126.548 139.383Z" fill="#4D5DFD"/>
            <path d="M126.942 140.002C127.189 139.909 127.465 140.034 127.558 140.282L127.657 140.57L127.755 140.879C127.807 141.047 127.863 141.235 127.923 141.445L128.046 141.886C128.296 142.802 128.569 143.921 128.859 145.258L129.008 145.953C129.923 150.315 130.833 156.029 131.686 163.269L131.844 164.635C132.655 171.763 133.368 179.992 133.959 189.397L134.016 190.311C134.986 206.061 134.872 219.57 134.183 229.695C134.165 229.959 133.936 230.159 133.672 230.141C133.408 230.123 133.209 229.894 133.227 229.63L133.295 228.593C133.92 218.629 133.994 205.544 133.06 190.37L132.946 188.553C132.348 179.239 131.629 171.1 130.814 164.059L130.735 163.381C129.863 155.974 128.93 150.178 127.997 145.804L127.923 145.461C127.589 143.921 127.279 142.679 127.002 141.709L126.892 141.332C126.857 141.215 126.823 141.108 126.792 141.01L126.662 140.619C126.569 140.371 126.694 140.095 126.942 140.002Z"
                  fill="#253368"/>
            <path d="M162.818 145.89C163.095 145.879 163.329 146.094 163.34 146.371L163.36 147.015C163.424 149.703 163.353 152.781 163.045 155.709C162.852 157.535 162.577 159.159 162.207 160.532L162.126 160.823L162.154 160.875L162.186 160.941C162.267 161.124 162.341 161.389 162.414 161.744C162.558 162.436 162.699 163.481 162.826 164.807L162.884 165.445C163.141 168.392 163.312 172.323 163.358 176.849C163.483 189.196 162.699 204.1 160.821 220.336L160.725 221.162L160.854 221.492L160.895 221.602C161.059 222.042 161.222 222.529 161.375 223.05C161.742 224.299 161.988 225.54 162.058 226.708C162.174 228.657 161.79 230.248 160.757 231.33C160.566 231.53 160.249 231.537 160.048 231.346C159.848 231.154 159.841 230.836 160.033 230.636C160.838 229.793 161.158 228.465 161.056 226.768C160.992 225.685 160.76 224.515 160.413 223.333C160.296 222.935 160.173 222.558 160.048 222.209L159.955 221.952C159.862 221.702 159.79 221.524 159.751 221.432C159.716 221.351 159.703 221.263 159.713 221.175C161.629 204.929 162.45 189.991 162.361 177.586L162.355 176.859C162.309 172.358 162.139 168.454 161.885 165.535L161.828 164.903C161.704 163.61 161.567 162.598 161.432 161.948C161.398 161.782 161.364 161.643 161.333 161.536L161.302 161.436C161.128 161.334 161.014 161.139 161.056 160.914L161.071 160.852C161.51 159.428 161.831 157.651 162.047 155.604C162.329 152.931 162.409 150.121 162.369 147.612L162.343 146.533C162.341 146.485 162.34 146.445 162.338 146.413C162.327 146.136 162.542 145.902 162.818 145.89Z"
                  fill="#253368"/>
            <path d="M138.336 154.816L138.234 154.815C137.942 154.814 137.711 155.062 137.732 155.353L139.007 173.234C139.019 173.404 139.116 173.556 139.265 173.638L148.98 178.997C149.147 179.089 149.351 179.079 149.508 178.97L156.951 173.811C157.073 173.726 157.151 173.592 157.165 173.445L157.212 172.833L157.252 172.22C157.269 171.928 157.286 171.61 157.303 171.266L157.315 171.003C157.47 167.615 157.519 163.231 157.397 157.821C157.392 157.627 157.277 157.454 157.101 157.374C154.703 156.292 150.874 155.59 146.133 155.182C144.427 155.035 142.702 154.936 141.025 154.876L139.984 154.843C139.335 154.826 138.779 154.818 138.336 154.816ZM139.988 172.89L138.771 155.823L139.58 155.838C140.004 155.848 140.476 155.861 140.989 155.879C142.65 155.939 144.359 156.037 146.047 156.182L146.466 156.22L147.289 156.298C151.079 156.682 154.189 157.275 156.261 158.108L156.4 158.165L156.417 158.943C156.505 163.647 156.46 167.527 156.329 170.605L156.276 171.708C156.259 172.022 156.242 172.309 156.225 172.571L156.185 173.12L149.192 177.967L139.988 172.89Z"
                  fill="#253368"/>
            <path fill-rule="evenodd" clip-rule="evenodd"
                  d="M127.281 148.005C127.302 148.899 126.714 149.638 125.97 149.655C125.226 149.671 124.606 148.96 124.586 148.067C124.566 147.172 125.153 146.434 125.897 146.417C126.641 146.4 127.261 147.111 127.281 148.005Z"
                  fill="white"/>
            <path fill-rule="evenodd" clip-rule="evenodd"
                  d="M129.538 164.422C129.559 165.316 128.972 166.055 128.227 166.072C127.483 166.088 126.863 165.377 126.843 164.484C126.823 163.589 127.41 162.851 128.154 162.834C128.898 162.817 129.518 163.529 129.538 164.422Z"
                  fill="white"/>
            <path fill-rule="evenodd" clip-rule="evenodd"
                  d="M131.018 182.208C131.038 183.101 130.451 183.84 129.706 183.857C128.962 183.874 128.343 183.163 128.322 182.269C128.302 181.374 128.889 180.636 129.634 180.619C130.377 180.602 130.997 181.313 131.018 182.208Z"
                  fill="white"/>
            <path fill-rule="evenodd" clip-rule="evenodd"
                  d="M131.665 198.931C131.685 199.826 131.098 200.564 130.353 200.581C129.609 200.597 128.99 199.886 128.969 198.992C128.95 198.098 129.536 197.36 130.281 197.343C131.025 197.326 131.644 198.037 131.665 198.931Z"
                  fill="white"/>
            <path fill-rule="evenodd" clip-rule="evenodd"
                  d="M131.895 221.064C131.915 221.958 131.329 222.697 130.583 222.714C129.839 222.73 129.22 222.019 129.199 221.125C129.18 220.231 129.767 219.492 130.511 219.475C131.255 219.458 131.874 220.169 131.895 221.064Z"
                  fill="white"/>
            <path d="M104.651 135.79C104.833 135.633 105.1 135.638 105.276 135.791L105.326 135.841L117.638 150.184L126.293 139.97C126.449 139.786 126.712 139.749 126.911 139.872L126.968 139.914C127.151 140.07 127.189 140.334 127.065 140.533L127.023 140.59L118.005 151.234C117.831 151.44 117.525 151.458 117.328 151.287L117.277 151.236L104.6 136.466C104.427 136.265 104.45 135.963 104.651 135.79Z"
                  fill="#253368"/>
            <path d="M141.124 136.192C141.208 135.941 141.479 135.805 141.73 135.888C141.96 135.965 142.093 136.199 142.05 136.431L142.034 136.494L137.405 150.458C137.299 150.776 136.914 150.884 136.659 150.688L136.607 150.641L126.669 140.427C126.484 140.237 126.488 139.933 126.678 139.749C126.848 139.582 127.111 139.569 127.297 139.706L127.355 139.757L136.743 149.407L141.124 136.192Z"
                  fill="#253368"/>
            <path d="M141.321 238.977C141.517 238.946 141.701 239.08 141.731 239.276L141.766 239.513C141.794 239.704 141.824 239.927 141.857 240.18L141.938 240.821C142.004 241.374 142.07 241.972 142.133 242.609C142.513 246.481 142.656 250.461 142.421 254.181L142.377 254.817C141.745 263.218 139.227 268.542 134.184 269.264C133.988 269.292 133.806 269.155 133.778 268.959C133.75 268.762 133.886 268.58 134.083 268.552C138.786 267.879 141.172 262.594 141.705 254.136C141.936 250.459 141.795 246.516 141.418 242.679L141.342 241.94C141.291 241.461 141.238 241.008 141.185 240.585L141.098 239.921L141.022 239.387C140.991 239.191 141.125 239.007 141.321 238.977Z"
                  fill="#4D5DFD"/>
            <path d="M83.2742 148.738C83.4136 148.498 83.7206 148.417 83.96 148.557L84.0526 148.613C84.1433 148.67 84.267 148.751 84.4202 148.858C84.7716 149.104 85.1614 149.405 85.5799 149.764C86.7697 150.782 87.9572 152.058 89.0642 153.61C93.3758 159.656 95.2686 167.984 93.3986 178.882C93.3517 179.155 93.0924 179.338 92.8194 179.292C92.5465 179.245 92.3632 178.985 92.4101 178.712C94.2348 168.078 92.4037 160.021 88.2479 154.194C87.1899 152.71 86.0579 151.494 84.9281 150.527C84.6004 150.246 84.2929 150.004 84.0113 149.8L83.8456 149.682C83.6542 149.548 83.5209 149.463 83.4553 149.424C83.216 149.285 83.1349 148.977 83.2742 148.738Z"
                  fill="#253368"/>
            <path d="M56.4144 189.182C56.6134 188.989 56.9309 188.995 57.1236 189.194L57.3139 189.385C57.3982 189.468 57.5032 189.569 57.6284 189.688L58.0056 190.042C58.3344 190.346 58.6991 190.671 59.0981 191.014C60.696 192.389 62.5098 193.764 64.5035 195.047C70.262 198.753 76.317 200.951 82.3685 200.892C82.6455 200.89 82.8722 201.112 82.875 201.39C82.8776 201.667 82.6553 201.894 82.3783 201.897C76.1035 201.958 69.8702 199.695 63.9611 195.892C61.9262 194.582 60.0758 193.179 58.4444 191.776L57.9711 191.363C57.6668 191.094 57.385 190.837 57.1267 190.595L56.8273 190.311L56.4029 189.892C56.2102 189.693 56.2154 189.375 56.4144 189.182Z"
                  fill="#DD936F"/>
            <path d="M103.223 98.9653C103.296 98.7808 103.504 98.6905 103.689 98.7637L103.816 98.8188C103.891 98.8537 103.984 98.8998 104.089 98.9572C104.38 99.1152 104.671 99.3072 104.943 99.5351C105.94 100.369 106.443 101.453 106.145 102.771C106.032 103.271 105.805 103.539 105.38 103.796L105.196 103.901C104.832 104.104 104.742 104.204 104.71 104.516C104.649 105.112 104.922 105.556 105.443 105.895C105.618 106.008 105.807 106.1 105.996 106.171L106.117 106.213C106.17 106.231 106.211 106.242 106.236 106.248C106.429 106.294 106.549 106.488 106.503 106.681C106.457 106.874 106.263 106.994 106.07 106.948C105.807 106.885 105.432 106.744 105.052 106.498C104.324 106.025 103.904 105.341 103.996 104.443C104.052 103.886 104.267 103.615 104.742 103.334L104.919 103.233C105.255 103.045 105.376 102.918 105.445 102.613C105.676 101.592 105.291 100.763 104.483 100.087C104.249 99.8918 103.998 99.7257 103.747 99.5891L103.586 99.5056C103.515 99.4707 103.46 99.4463 103.424 99.432C103.24 99.3588 103.15 99.1499 103.223 98.9653Z"
                  fill="#DD936F"/>
            <path fill-rule="evenodd" clip-rule="evenodd"
                  d="M192.965 166.382L199.935 139.904C199.935 139.904 211.743 118.31 216.171 119.545C220.292 121.264 211.159 127.549 209.433 133.621C213.321 133.272 211.658 139.101 211.658 139.101C211.658 139.101 214.755 138.932 214.007 143.671C216.915 145.324 214.707 150.786 214.707 150.786C214.707 150.786 209.183 165.172 202.95 174.812C202.95 174.812 192.471 183.22 192.965 166.382Z"
                  fill="#FFC999"/>
            <path fill-rule="evenodd" clip-rule="evenodd"
                  d="M194.459 157.451C194.459 157.451 195.407 148.396 196.154 143.779C196.902 139.163 194.811 130.886 198.202 133.027C200.483 134.468 200.18 139.419 200.165 143.066C200.15 146.714 206.187 155.25 201.912 161.311C199.024 165.406 194.363 166.023 194.459 157.451Z"
                  fill="#FFC999"/>
            <path d="M209.677 133.356C209.823 133.491 209.833 133.718 209.699 133.864L209.488 134.1L209.075 134.578C209.026 134.636 208.976 134.696 208.925 134.757C208.342 135.452 207.76 136.196 207.217 136.957C206.68 137.707 206.212 138.434 205.831 139.121C204.485 141.547 204.385 143.122 205.759 143.667C205.943 143.74 206.034 143.949 205.961 144.134C205.888 144.318 205.679 144.409 205.495 144.336C203.543 143.562 203.672 141.532 205.203 138.772C205.599 138.059 206.081 137.31 206.632 136.538C207.187 135.762 207.781 135.004 208.375 134.295L208.675 133.941L209.17 133.378C209.304 133.232 209.531 133.222 209.677 133.356Z"
                  fill="#DD936F"/>
            <path d="M211.573 139.058C211.697 139.213 211.671 139.44 211.516 139.563L211.292 139.746L211.007 139.986C210.907 140.071 210.803 140.161 210.695 140.256C210.076 140.797 209.458 141.376 208.881 141.97C208.279 142.591 207.758 143.192 207.344 143.757C206.17 145.359 205.984 146.445 206.888 146.977C207.229 147.178 207.605 147.229 208.027 147.142C208.704 147.003 209.462 146.518 210.235 145.795C210.571 145.481 210.887 145.143 211.172 144.805L211.415 144.508C211.462 144.447 211.5 144.397 211.527 144.36C211.645 144.2 211.869 144.166 212.029 144.283C212.189 144.4 212.224 144.625 212.107 144.785L211.926 145.019C211.867 145.093 211.798 145.177 211.72 145.269C211.418 145.627 211.084 145.985 210.725 146.32C209.865 147.126 209.006 147.674 208.171 147.846C207.583 147.967 207.025 147.893 206.523 147.597C205.109 146.763 205.372 145.233 206.765 143.332C207.201 142.737 207.743 142.112 208.366 141.469C208.957 140.86 209.59 140.268 210.222 139.714C210.444 139.521 210.649 139.346 210.834 139.193L211.069 139.001C211.224 138.877 211.45 138.903 211.573 139.058Z"
                  fill="#DD936F"/>
            <path d="M212.913 143.679C213.109 143.645 213.295 143.775 213.329 143.971C213.364 144.166 213.233 144.353 213.038 144.387C212.386 144.502 211.581 145.095 210.632 146.255C208.634 148.696 208.229 150.29 208.916 150.676C209.598 151.059 211.104 150.338 212.048 148.934C212.297 148.563 212.863 148.889 212.669 149.291C211.45 151.812 209.988 153.505 208.106 154.831C207.727 155.098 207.334 155.349 206.893 155.609L206.622 155.767C206.449 155.866 206.272 155.965 206.064 156.08L205.203 156.553C202.204 158.207 201.037 159.528 200.437 162.828C200.402 163.023 200.215 163.153 200.019 163.117C199.824 163.082 199.695 162.894 199.73 162.699C200.346 159.313 201.571 157.809 204.444 156.155L206.004 155.291C206.094 155.24 206.18 155.192 206.264 155.143C206.801 154.835 207.258 154.549 207.693 154.243C208.882 153.405 209.892 152.415 210.779 151.134L210.842 151.039L210.789 151.071C210.023 151.492 209.245 151.619 208.665 151.354L208.565 151.303C207.307 150.597 207.828 148.547 210.077 145.799C211.123 144.519 212.06 143.83 212.913 143.679Z"
                  fill="#DD936F"/>
            <path d="M200.148 138.149C200.326 138.131 200.486 138.246 200.531 138.413L200.542 138.471L201.234 145.321L201.294 145.421C201.377 145.559 201.469 145.719 201.567 145.9C201.849 146.413 202.131 146.984 202.393 147.6C203.15 149.374 203.604 151.152 203.601 152.826C203.599 154.064 203.342 155.197 202.795 156.197C202.7 156.372 202.482 156.436 202.308 156.34C202.134 156.245 202.07 156.027 202.165 155.852C202.65 154.964 202.881 153.948 202.883 152.824C202.886 151.263 202.455 149.574 201.733 147.883C201.48 147.29 201.209 146.739 200.938 146.246L200.726 145.87C200.665 145.767 200.617 145.688 200.582 145.634C200.562 145.602 200.547 145.568 200.537 145.531L200.527 145.476L199.827 138.543C199.807 138.346 199.951 138.169 200.148 138.149Z"
                  fill="#DD936F"/>
            <path fill-rule="evenodd" clip-rule="evenodd"
                  d="M86.2569 7.61074C86.2569 7.94178 86.2052 8.26074 86.1095 8.55998L94.8229 11.2342C95.148 10.2642 96.0642 9.56529 97.1436 9.56529C98.4951 9.56529 99.5907 10.6609 99.5907 12.0124C99.5907 13.2537 98.6666 14.2791 97.469 14.4382L97.4294 26.8515C99.0249 26.9845 100.278 28.3215 100.278 29.9513C100.278 31.6694 98.8855 33.0621 97.1675 33.0621C96.013 33.0621 95.0054 32.4331 94.4686 31.4991L86.9227 34.2031C86.9754 34.4302 87.0033 34.6669 87.0033 34.91C87.0033 36.628 85.6106 38.0207 83.8926 38.0207C82.1746 38.0207 80.7819 36.628 80.7819 34.91C80.7819 34.6586 80.8118 34.4143 80.868 34.1802L72.6016 31.6414C72.2362 32.9529 71.0329 33.9152 69.6048 33.9152C67.8868 33.9152 66.4941 32.5225 66.4941 30.8044C66.4941 29.0864 67.8868 27.6937 69.6048 27.6937V14.8029C69.592 14.8031 69.5791 14.8031 69.5662 14.8031C68.1345 14.8031 66.974 13.6426 66.974 12.2109C66.974 10.7792 68.1345 9.61861 69.5662 9.61861C70.7644 9.61861 71.7728 10.4316 72.0697 11.536L80.2451 8.73552C80.1098 8.38669 80.0356 8.00739 80.0356 7.61074C80.0356 5.8927 81.4282 4.5 83.1463 4.5C84.8643 4.5 86.2569 5.8927 86.2569 7.61074ZM85.9576 8.94397L94.7342 11.5823C94.7095 11.722 94.6966 11.8657 94.6966 12.0124C94.6966 12.3351 94.759 12.6432 94.8725 12.9253L85.8752 15.957C85.5208 15.2346 84.778 14.7372 83.9191 14.7372C83.0027 14.7372 82.2186 15.3032 81.8972 16.1046L71.9997 13.106C72.1024 12.827 72.1584 12.5255 72.1584 12.2109C72.1584 12.1221 72.154 12.0343 72.1452 11.9478L80.4264 9.12147C80.9576 10.0758 81.9765 10.7215 83.1463 10.7215C84.3872 10.7215 85.4583 9.99491 85.9576 8.94397ZM81.7788 16.5115L71.8179 13.4962C71.4448 14.1483 70.7966 14.6229 70.0314 14.7615V27.7227C71.5476 27.9306 72.7155 29.2311 72.7155 30.8044C72.7155 30.9459 72.7061 31.0851 72.6878 31.2216L80.9962 33.7733C81.4324 32.6624 82.4893 31.8633 83.74 31.8029L83.7573 19.0862C82.6302 19.0034 81.7416 18.0628 81.7416 16.9147C81.7416 16.7769 81.7544 16.6422 81.7788 16.5115ZM84.1595 19.079L84.1397 31.8089C85.3264 31.9022 86.3259 32.6614 86.7647 33.713L94.2717 31.0897C94.133 30.7372 94.0568 30.3531 94.0568 29.9513C94.0568 28.2886 95.3612 26.9307 97.0025 26.8449L97.042 14.4575C96.2085 14.4235 95.4824 13.9724 95.0669 13.3074L86.0208 16.3434C86.0702 16.5254 86.0965 16.717 86.0965 16.9147C86.0965 18.036 85.249 18.9593 84.1595 19.079Z"
                  fill="#4D5DFD"/>
        </g>
    </g>
    <defs>
        <clipPath id="clip0_385_10746">
            <rect width="350" height="250" fill="white" transform="translate(-1)"/>
        </clipPath>
        <clipPath id="clip1_385_10746">
            <rect width="243" height="382.908" fill="white" transform="translate(53)"/>
        </clipPath>
    </defs>
</svg>
