<svg width="611" height="611" viewBox="0 0 611 611" fill="none" xmlns="http://www.w3.org/2000/svg">
    <g clip-path="url(#clip0_1026_2049)">
        <path d="M52.1882 611C71.3004 611 86.7939 595.201 86.7939 575.711C86.7939 556.221 71.3004 540.422 52.1882 540.422C33.076 540.422 17.5825 556.221 17.5825 575.711C17.5825 595.201 33.076 611 52.1882 611Z"
              fill="#182CFF"/>
        <path d="M52.1882 540.42C45.407 540.42 39.0867 542.416 33.7476 545.854C43.4584 552.104 49.9126 563.135 49.9126 575.71C49.9126 588.286 43.4572 599.317 33.7476 605.567C39.0867 609.004 45.407 611.001 52.1882 611.001C71.3001 611.001 86.7939 595.201 86.7939 575.712C86.7939 556.222 71.3001 540.42 52.1882 540.42Z"
              fill="#6A77FF"/>
        <path d="M46.0107 309.587L74.2519 344.962C82.6904 355.656 83.5657 370.471 76.4476 382.091L42.3496 437.75C45.1821 420.951 40.7834 403.741 30.239 390.359L6.98783 361.231C-1.45061 350.537 -2.32593 335.722 4.79216 324.102L29.8468 283.204L46.0107 309.587Z"
              fill="#FFDFCA"/>
        <path d="M145.428 147.305L199.556 215.907C207.995 226.601 208.87 241.417 201.752 253.037L167.654 308.695C170.486 291.896 166.088 274.686 155.543 261.304L106.406 198.95C97.9678 188.256 97.0925 173.441 104.211 161.821L129.699 120.215L145.428 147.305Z"
              fill="#FFDFCA"/>
        <path d="M288.972 110.663L265.952 148.241C258.834 159.861 245.226 165.826 231.852 163.191L153.893 147.882C137.163 144.597 119.819 148.52 106.131 158.687L140.229 103.028C147.347 91.4077 160.955 85.4428 174.329 88.0773L257.22 104.408"
              fill="#5864E3"/>
        <path d="M235.846 74.7067L254.669 99.4996C265.215 112.881 269.612 130.091 266.78 146.891L300.878 91.232C307.996 79.6119 307.12 64.7967 298.682 54.1024L256.67 0L233.65 37.5771C226.531 49.1972 227.408 64.0124 235.846 74.7067Z"
              fill="#FFDFCA"/>
        <path d="M189.555 272.947L166.535 310.524C159.417 322.144 145.809 328.109 132.435 325.474L54.4773 310.165C37.7468 306.88 20.4027 310.803 6.71484 320.97L40.8128 265.311C47.9309 253.691 61.5389 247.726 74.9133 250.361L158.808 266.889"
              fill="#5864E3"/>
        <path d="M435.216 252.986L390.709 261.446C377.3 263.915 363.774 257.772 356.808 246.053L323.441 189.913C336.995 200.261 354.286 204.406 371.059 201.328L407.704 194.367C421.113 191.897 434.64 198.039 441.605 209.76L444.638 214.862L468.121 254.372L435.216 252.986Z"
              fill="#5864E3"/>
        <path d="M400.647 397.034L378.122 359.132C371.156 347.412 372.225 332.593 380.803 321.996L430.752 260.203C441.473 246.941 446.095 229.771 443.483 212.921L476.849 269.06C483.815 280.78 482.745 295.599 474.168 306.196L420.365 372.671"
              fill="#FFDFCA"/>
        <path d="M532.499 416.667L446.485 432.507C433.076 434.977 419.549 428.835 412.584 417.114L379.217 360.975C392.771 371.322 410.062 375.468 426.834 372.389L504.986 358.046C518.395 355.577 531.922 361.72 538.887 373.439L568.634 423.49L532.499 416.667Z"
              fill="#5864E3"/>
        <path d="M497.93 560.714L475.405 522.812C468.439 511.093 469.508 496.274 478.086 485.677L528.035 423.883C538.756 410.622 543.378 393.451 540.766 376.602L574.132 432.741C581.098 444.461 580.028 459.28 571.451 469.877L518.294 535.555"
              fill="#FFDFCA"/>
        <path d="M554.572 530.519L523.831 535.591C507.059 538.669 489.767 534.523 476.214 524.176L509.58 580.315C516.546 592.035 530.074 598.177 543.481 595.708L611 583.813L588.474 545.911C581.508 534.191 567.98 528.05 554.572 530.519Z"
              fill="#5864E3"/>
        <path d="M34.6155 106.851C53.7277 106.851 69.2212 91.0514 69.2212 71.5617C69.2212 52.072 53.7277 36.2725 34.6155 36.2725C15.5033 36.2725 0.00976562 52.072 0.00976562 71.5617C0.00976562 91.0514 15.5033 106.851 34.6155 106.851Z"
              fill="#182CFF"/>
        <path d="M48.3513 39.1717C37.4738 34.3747 25.5107 35.7221 16.181 41.6993C30.3975 50.8053 36.3674 69.3701 29.4976 85.5696C26.6159 92.3656 21.8853 97.7638 16.1687 101.426C17.6513 102.375 19.2225 103.223 20.8797 103.954C38.4216 111.689 58.7924 103.46 66.3789 85.5696C73.9654 67.6798 65.8933 46.9082 48.3513 39.1717Z"
              fill="#6A77FF"/>
        <path d="M377.527 569.892C396.639 569.892 412.132 554.092 412.132 534.603C412.132 515.113 396.639 499.313 377.527 499.313C358.414 499.313 342.921 515.113 342.921 534.603C342.921 554.092 358.414 569.892 377.527 569.892Z"
              fill="#182CFF"/>
        <path d="M377.527 499.313C370.745 499.313 364.425 501.31 359.086 504.747C368.797 510.997 375.251 522.029 375.251 534.604C375.251 547.179 368.796 558.21 359.086 564.461C364.425 567.898 370.745 569.894 377.527 569.894C396.64 569.894 412.132 554.094 412.132 534.605C412.132 515.116 396.638 499.313 377.527 499.313Z"
              fill="#6A77FF"/>
        <path d="M576.394 254.37C595.507 254.37 611 238.571 611 219.081C611 199.592 595.507 183.792 576.394 183.792C557.282 183.792 541.789 199.592 541.789 219.081C541.789 238.571 557.282 254.37 576.394 254.37Z"
              fill="#182CFF"/>
        <path d="M576.394 183.792C569.613 183.792 563.293 185.788 557.954 189.226C567.664 195.476 574.119 206.507 574.119 219.082C574.119 231.658 567.663 242.689 557.954 248.939C563.293 252.376 569.613 254.373 576.394 254.373C595.507 254.373 611 238.573 611 219.084C611 199.594 595.506 183.792 576.394 183.792Z"
              fill="#6A77FF"/>
        <path d="M279.355 374.392C298.467 374.392 313.96 358.592 313.96 339.103C313.96 319.613 298.467 303.813 279.355 303.813C260.243 303.813 244.749 319.613 244.749 339.103C244.749 358.592 260.243 374.392 279.355 374.392Z"
              fill="#182CFF"/>
        <path d="M279.355 303.813C272.573 303.813 266.253 305.81 260.914 309.247C270.625 315.497 277.079 326.529 277.079 339.104C277.079 351.679 270.624 362.71 260.914 368.961C266.253 372.398 272.573 374.394 279.355 374.394C298.467 374.394 313.96 358.594 313.96 339.105C313.96 319.616 298.467 303.813 279.355 303.813Z"
              fill="#6A77FF"/>
        <path d="M182.683 408.175L215.266 448.977L267.35 445.266L238.614 488.864L258.238 537.251L207.894 523.393L167.939 557.009L165.561 504.848L121.243 477.236L170.117 458.856L182.683 408.175Z"
              fill="#FFE26F"/>
        <path d="M461.343 0L475.511 50.2569L524.943 67.076L481.526 96.0807L480.804 148.291L439.802 115.961L389.923 131.409L408.001 82.4235L377.896 39.7605L430.071 41.8148L461.343 0Z"
              fill="#FFE26F"/>
    </g>
    <defs>
        <clipPath id="clip0_1026_2049">
            <rect width="611" height="611" fill="white"/>
        </clipPath>
    </defs>
</svg>
