<svg width="506" height="500" viewBox="0 0 506 500" fill="none" xmlns="http://www.w3.org/2000/svg">
    <rect x="44" y="55" width="462" height="384" rx="26" fill="white"/>
    <path fill-rule="evenodd" clip-rule="evenodd"
          d="M471 21.3731H259V6.02765C259 2.69888 262.341 0 266.462 0H463.538C467.659 0 471 2.69888 471 6.02765V21.3731Z"
          fill="#4D5DFD"/>
    <path fill-rule="evenodd" clip-rule="evenodd"
          d="M463.538 177.031H266.462C262.341 177.031 259 174.208 259 170.725V20.5695H471V170.725C471 174.208 467.659 177.031 463.538 177.031Z"
          fill="#B2CEFF"/>
    <path opacity="0.44" fill-rule="evenodd" clip-rule="evenodd"
          d="M278 10C278 12.7613 275.761 15 273 15C270.238 15 268 12.7613 268 10C268 7.23875 270.238 5 273 5C275.761 5 278 7.23875 278 10Z"
          fill="white"/>
    <path opacity="0.44" fill-rule="evenodd" clip-rule="evenodd"
          d="M292 10C292 12.7613 289.762 15 287 15C284.238 15 282 12.7613 282 10C282 7.23875 284.238 5 287 5C289.762 5 292 7.23875 292 10Z"
          fill="white"/>
    <path opacity="0.44" fill-rule="evenodd" clip-rule="evenodd"
          d="M306 10C306 12.7613 303.762 15 301 15C298.238 15 296 12.7613 296 10C296 7.23875 298.238 5 301 5C303.762 5 306 7.23875 306 10Z"
          fill="white"/>
    <path fill-rule="evenodd" clip-rule="evenodd"
          d="M271.57 164.33C270.15 164.33 269 163.351 269 162.143V35.3504C269 34.1425 270.15 33.1632 271.57 33.1632H457.559C458.979 33.1632 460.129 34.1425 460.129 35.3504V162.143C460.129 163.351 458.979 164.33 457.559 164.33H271.57Z"
          fill="white"/>
    <g clip-path="url(#clip0_409_140)">
        <path d="M302 53C296.477 53 292 57.4758 292 63C292 68.5242 296.477 73 302 73C307.523 73 312 68.5215 312 63C312 57.4785 307.523 53 302 53Z"
              fill="#4D5DFD"/>
        <path d="M292 63C291.998 64.6529 292.407 66.2804 293.191 67.7356C294.19 68.0288 295.225 68.1773 296.266 68.1766C302.278 68.1766 307.152 63.3031 307.152 57.2914C307.152 56.234 306.999 55.182 306.697 54.1688C305.251 53.3987 303.638 52.9973 302 53C296.477 53 292 57.4758 292 63Z"
              fill="#4D5DFD"/>
        <path d="M307.703 61.343L301.693 67.6551C301.529 67.827 301.332 67.964 301.114 68.0579C300.896 68.1519 300.661 68.2009 300.424 68.202H300.416C300.18 68.2021 299.946 68.1547 299.729 68.0627C299.511 67.9707 299.315 67.8359 299.15 67.6665L295.961 64.3813C295.796 64.2159 295.666 64.0194 295.578 63.8032C295.489 63.587 295.445 63.3555 295.447 63.122C295.449 62.8885 295.497 62.6577 295.589 62.443C295.681 62.2284 295.814 62.0341 295.982 61.8715C296.15 61.7089 296.348 61.5811 296.565 61.4957C296.782 61.4103 297.015 61.3689 297.248 61.3739C297.481 61.379 297.712 61.4303 297.925 61.525C298.138 61.6196 298.331 61.7558 298.491 61.9254L300.403 63.895L305.149 58.9114C305.308 58.7409 305.499 58.6037 305.712 58.5076C305.924 58.4114 306.153 58.3584 306.386 58.3515C306.619 58.3446 306.851 58.3839 307.069 58.4672C307.287 58.5506 307.486 58.6762 307.655 58.837C307.823 58.9977 307.959 59.1903 308.053 59.4036C308.146 59.617 308.197 59.8468 308.202 60.0799C308.206 60.3129 308.164 60.5446 308.079 60.7614C307.993 60.9782 307.866 61.1759 307.703 61.343V61.343Z"
              fill="white"/>
    </g>
    <path d="M333.81 70.18C332.646 70.18 331.635 69.913 330.777 69.379C329.919 68.845 329.259 68.083 328.797 67.093C328.335 66.097 328.104 64.909 328.104 63.529C328.104 62.137 328.344 60.937 328.824 59.929C329.304 58.921 329.979 58.15 330.849 57.616C331.725 57.076 332.751 56.806 333.927 56.806C334.647 56.806 335.31 56.926 335.916 57.166C336.528 57.406 337.062 57.73 337.518 58.138C337.98 58.546 338.343 59.011 338.607 59.533C338.871 60.055 339.018 60.598 339.048 61.162H336.735C336.651 60.718 336.48 60.31 336.222 59.938C335.97 59.56 335.643 59.257 335.241 59.029C334.845 58.801 334.392 58.687 333.882 58.687C333.228 58.687 332.643 58.852 332.127 59.182C331.617 59.512 331.215 60.031 330.921 60.739C330.633 61.441 330.489 62.353 330.489 63.475C330.489 64.363 330.579 65.113 330.759 65.725C330.945 66.331 331.197 66.82 331.515 67.192C331.839 67.558 332.211 67.825 332.631 67.993C333.051 68.155 333.495 68.236 333.963 68.236C334.419 68.236 334.821 68.158 335.169 68.002C335.517 67.846 335.811 67.642 336.051 67.39C336.297 67.138 336.486 66.868 336.618 66.58C336.756 66.286 336.837 66.001 336.861 65.725L336.942 64.771H334.035V63.223L339.228 63.241V70H337.68V68.173C337.458 68.503 337.176 68.821 336.834 69.127C336.498 69.433 336.084 69.685 335.592 69.883C335.106 70.081 334.512 70.18 333.81 70.18ZM343.604 65.851C343.598 66.379 343.682 66.847 343.856 67.255C344.03 67.663 344.288 67.984 344.63 68.218C344.972 68.446 345.395 68.56 345.899 68.56C346.415 68.56 346.862 68.446 347.24 68.218C347.624 67.984 347.879 67.63 348.005 67.156H350.012C349.904 67.804 349.646 68.353 349.238 68.803C348.83 69.253 348.335 69.595 347.753 69.829C347.177 70.063 346.577 70.18 345.953 70.18C345.053 70.18 344.261 69.991 343.577 69.613C342.899 69.229 342.368 68.683 341.984 67.975C341.606 67.267 341.417 66.424 341.417 65.446C341.417 64.492 341.591 63.646 341.939 62.908C342.287 62.164 342.788 61.579 343.442 61.153C344.102 60.727 344.894 60.514 345.818 60.514C346.736 60.514 347.507 60.709 348.131 61.099C348.761 61.489 349.235 62.035 349.553 62.737C349.877 63.433 350.039 64.249 350.039 65.185V65.851H343.604ZM343.604 64.492H347.969C347.969 64.042 347.891 63.637 347.735 63.277C347.579 62.911 347.339 62.623 347.015 62.413C346.697 62.197 346.295 62.089 345.809 62.089C345.329 62.089 344.924 62.206 344.594 62.44C344.264 62.674 344.015 62.977 343.847 63.349C343.679 63.715 343.598 64.096 343.604 64.492ZM357.02 62.242H354.941L354.95 67.579C354.95 67.855 354.98 68.059 355.04 68.191C355.106 68.317 355.208 68.401 355.346 68.443C355.49 68.479 355.682 68.497 355.922 68.497H357.065V69.883C356.945 69.931 356.762 69.973 356.516 70.009C356.276 70.051 355.952 70.072 355.544 70.072C354.806 70.072 354.233 69.976 353.825 69.784C353.423 69.586 353.144 69.307 352.988 68.947C352.832 68.587 352.754 68.158 352.754 67.66V62.242H351.242V60.694H352.817L353.366 57.931H354.941V60.685H357.02V62.242ZM363.137 70V60.694H365.27V62.026C365.54 61.618 365.906 61.264 366.368 60.964C366.836 60.664 367.43 60.514 368.15 60.514C368.48 60.514 368.813 60.571 369.149 60.685C369.491 60.799 369.806 60.967 370.094 61.189C370.388 61.411 370.622 61.687 370.796 62.017C371.09 61.579 371.48 61.219 371.966 60.937C372.458 60.655 373.01 60.514 373.622 60.514C373.958 60.514 374.303 60.568 374.657 60.676C375.017 60.784 375.347 60.964 375.647 61.216C375.947 61.468 376.19 61.813 376.376 62.251C376.562 62.683 376.655 63.226 376.655 63.88V70H374.468V64.141C374.468 63.679 374.387 63.316 374.225 63.052C374.063 62.788 373.853 62.602 373.595 62.494C373.343 62.38 373.073 62.323 372.785 62.323C372.527 62.323 372.257 62.374 371.975 62.476C371.699 62.578 371.462 62.746 371.264 62.98C371.072 63.214 370.976 63.529 370.976 63.925V70H368.789V63.79C368.789 63.466 368.705 63.196 368.537 62.98C368.369 62.764 368.156 62.602 367.898 62.494C367.646 62.38 367.388 62.323 367.124 62.323C366.854 62.323 366.578 62.38 366.296 62.494C366.02 62.608 365.789 62.782 365.603 63.016C365.417 63.25 365.324 63.553 365.324 63.925V70H363.137ZM381.594 70.18C381 70.18 380.466 70.072 379.992 69.856C379.524 69.634 379.155 69.319 378.885 68.911C378.621 68.497 378.489 67.996 378.489 67.408C378.489 66.382 378.858 65.608 379.596 65.086C380.34 64.564 381.525 64.291 383.151 64.267L384.537 64.231V63.601C384.537 63.109 384.39 62.725 384.096 62.449C383.808 62.167 383.358 62.029 382.746 62.035C382.296 62.041 381.882 62.149 381.504 62.359C381.132 62.563 380.886 62.908 380.766 63.394H378.903C378.939 62.758 379.122 62.227 379.452 61.801C379.788 61.369 380.247 61.048 380.829 60.838C381.411 60.622 382.083 60.514 382.845 60.514C383.733 60.514 384.456 60.631 385.014 60.865C385.572 61.099 385.983 61.438 386.247 61.882C386.511 62.32 386.643 62.851 386.643 63.475V70H384.798L384.627 68.326C384.291 69.028 383.865 69.514 383.349 69.784C382.839 70.048 382.254 70.18 381.594 70.18ZM382.305 68.695C382.575 68.695 382.842 68.647 383.106 68.551C383.37 68.449 383.61 68.314 383.826 68.146C384.042 67.972 384.213 67.78 384.339 67.57C384.471 67.36 384.537 67.141 384.537 66.913V65.446L383.394 65.464C382.83 65.47 382.338 65.53 381.918 65.644C381.498 65.758 381.168 65.941 380.928 66.193C380.694 66.439 380.577 66.769 380.577 67.183C380.577 67.657 380.742 68.029 381.072 68.299C381.402 68.563 381.813 68.695 382.305 68.695ZM394.022 62.242H391.943L391.952 67.579C391.952 67.855 391.982 68.059 392.042 68.191C392.108 68.317 392.21 68.401 392.348 68.443C392.492 68.479 392.684 68.497 392.924 68.497H394.067V69.883C393.947 69.931 393.764 69.973 393.518 70.009C393.278 70.051 392.954 70.072 392.546 70.072C391.808 70.072 391.235 69.976 390.827 69.784C390.425 69.586 390.146 69.307 389.99 68.947C389.834 68.587 389.756 68.158 389.756 67.66V62.242H388.244V60.694H389.819L390.368 57.931H391.943V60.685H394.022V62.242ZM397.621 65.851C397.615 66.379 397.699 66.847 397.873 67.255C398.047 67.663 398.305 67.984 398.647 68.218C398.989 68.446 399.412 68.56 399.916 68.56C400.432 68.56 400.879 68.446 401.257 68.218C401.641 67.984 401.896 67.63 402.022 67.156H404.029C403.921 67.804 403.663 68.353 403.255 68.803C402.847 69.253 402.352 69.595 401.77 69.829C401.194 70.063 400.594 70.18 399.97 70.18C399.07 70.18 398.278 69.991 397.594 69.613C396.916 69.229 396.385 68.683 396.001 67.975C395.623 67.267 395.434 66.424 395.434 65.446C395.434 64.492 395.608 63.646 395.956 62.908C396.304 62.164 396.805 61.579 397.459 61.153C398.119 60.727 398.911 60.514 399.835 60.514C400.753 60.514 401.524 60.709 402.148 61.099C402.778 61.489 403.252 62.035 403.57 62.737C403.894 63.433 404.056 64.249 404.056 65.185V65.851H397.621ZM397.621 64.492H401.986C401.986 64.042 401.908 63.637 401.752 63.277C401.596 62.911 401.356 62.623 401.032 62.413C400.714 62.197 400.312 62.089 399.826 62.089C399.346 62.089 398.941 62.206 398.611 62.44C398.281 62.674 398.032 62.977 397.864 63.349C397.696 63.715 397.615 64.096 397.621 64.492ZM406.097 70V60.694H408.194V62.71C408.344 62.248 408.557 61.855 408.833 61.531C409.115 61.201 409.445 60.949 409.823 60.775C410.201 60.601 410.612 60.514 411.056 60.514C411.164 60.514 411.269 60.52 411.371 60.532C411.473 60.544 411.548 60.565 411.596 60.595V62.692C411.53 62.662 411.443 62.641 411.335 62.629C411.233 62.617 411.143 62.611 411.065 62.611C410.615 62.575 410.216 62.593 409.868 62.665C409.526 62.737 409.235 62.86 408.995 63.034C408.761 63.202 408.584 63.418 408.464 63.682C408.344 63.94 408.284 64.243 408.284 64.591V70H406.097ZM415.528 60.694V70H413.422V60.694H415.528ZM415.555 56.995V59.065H413.386V56.995H415.555ZM420.811 70.18C420.217 70.18 419.683 70.072 419.209 69.856C418.741 69.634 418.372 69.319 418.102 68.911C417.838 68.497 417.706 67.996 417.706 67.408C417.706 66.382 418.075 65.608 418.813 65.086C419.557 64.564 420.742 64.291 422.368 64.267L423.754 64.231V63.601C423.754 63.109 423.607 62.725 423.313 62.449C423.025 62.167 422.575 62.029 421.963 62.035C421.513 62.041 421.099 62.149 420.721 62.359C420.349 62.563 420.103 62.908 419.983 63.394H418.12C418.156 62.758 418.339 62.227 418.669 61.801C419.005 61.369 419.464 61.048 420.046 60.838C420.628 60.622 421.3 60.514 422.062 60.514C422.95 60.514 423.673 60.631 424.231 60.865C424.789 61.099 425.2 61.438 425.464 61.882C425.728 62.32 425.86 62.851 425.86 63.475V70H424.015L423.844 68.326C423.508 69.028 423.082 69.514 422.566 69.784C422.056 70.048 421.471 70.18 420.811 70.18ZM421.522 68.695C421.792 68.695 422.059 68.647 422.323 68.551C422.587 68.449 422.827 68.314 423.043 68.146C423.259 67.972 423.43 67.78 423.556 67.57C423.688 67.36 423.754 67.141 423.754 66.913V65.446L422.611 65.464C422.047 65.47 421.555 65.53 421.135 65.644C420.715 65.758 420.385 65.941 420.145 66.193C419.911 66.439 419.794 66.769 419.794 67.183C419.794 67.657 419.959 68.029 420.289 68.299C420.619 68.563 421.03 68.695 421.522 68.695ZM431.104 70.135C430.504 70.135 430.024 70.06 429.664 69.91C429.304 69.76 429.034 69.559 428.854 69.307C428.674 69.055 428.557 68.773 428.503 68.461C428.449 68.143 428.422 67.819 428.422 67.489V56.626H430.564V67.237C430.564 67.639 430.645 67.951 430.807 68.173C430.975 68.395 431.245 68.524 431.617 68.56L432.085 68.578V69.955C431.923 70.003 431.758 70.045 431.59 70.081C431.422 70.117 431.26 70.135 431.104 70.135Z"
          fill="#4D5DFD"/>
    <g clip-path="url(#clip1_409_140)">
        <path d="M302 89C296.477 89 292 93.4758 292 99C292 104.524 296.477 109 302 109C307.523 109 312 104.521 312 99C312 93.4785 307.523 89 302 89Z"
              fill="#4D5DFD"/>
        <path d="M292 99C291.998 100.653 292.407 102.28 293.191 103.736C294.19 104.029 295.225 104.177 296.266 104.177C302.278 104.177 307.152 99.3031 307.152 93.2914C307.152 92.234 306.999 91.182 306.697 90.1688C305.251 89.3987 303.638 88.9973 302 89C296.477 89 292 93.4758 292 99Z"
              fill="#4D5DFD"/>
        <path d="M307.703 97.343L301.693 103.655C301.529 103.827 301.332 103.964 301.114 104.058C300.896 104.152 300.661 104.201 300.424 104.202H300.416C300.18 104.202 299.946 104.155 299.729 104.063C299.511 103.971 299.315 103.836 299.15 103.666L295.961 100.381C295.796 100.216 295.666 100.019 295.578 99.8032C295.489 99.587 295.445 99.3555 295.447 99.122C295.449 98.8885 295.497 98.6577 295.589 98.443C295.681 98.2284 295.814 98.0341 295.982 97.8715C296.15 97.7089 296.348 97.5811 296.565 97.4957C296.782 97.4103 297.015 97.3689 297.248 97.3739C297.481 97.379 297.712 97.4303 297.925 97.525C298.138 97.6196 298.331 97.7558 298.491 97.9254L300.403 99.895L305.149 94.9114C305.308 94.7409 305.499 94.6037 305.712 94.5076C305.924 94.4114 306.153 94.3584 306.386 94.3515C306.619 94.3446 306.851 94.3839 307.069 94.4672C307.287 94.5506 307.486 94.6762 307.655 94.837C307.823 94.9977 307.959 95.1903 308.053 95.4036C308.146 95.617 308.197 95.8468 308.202 96.0799C308.206 96.3129 308.164 96.5446 308.079 96.7614C307.993 96.9782 307.866 97.1759 307.703 97.343V97.343Z"
              fill="white"/>
    </g>
    <path d="M333.495 106.18C332.865 106.18 332.25 106.102 331.65 105.946C331.05 105.784 330.504 105.547 330.012 105.235C329.526 104.917 329.121 104.524 328.797 104.056C328.473 103.582 328.275 103.03 328.203 102.4H330.471C330.567 102.838 330.756 103.207 331.038 103.507C331.32 103.807 331.671 104.035 332.091 104.191C332.517 104.347 332.982 104.425 333.486 104.425C334.026 104.425 334.512 104.353 334.944 104.209C335.382 104.065 335.727 103.855 335.979 103.579C336.237 103.303 336.366 102.964 336.366 102.562C336.366 102.208 336.273 101.908 336.087 101.662C335.901 101.416 335.64 101.215 335.304 101.059C334.974 100.897 334.587 100.768 334.143 100.672L331.749 100.15C330.783 99.952 330.018 99.568 329.454 98.998C328.89 98.428 328.602 97.669 328.59 96.721C328.584 95.935 328.791 95.251 329.211 94.669C329.637 94.081 330.216 93.628 330.948 93.31C331.68 92.986 332.508 92.824 333.432 92.824C334.512 92.824 335.421 93.001 336.159 93.355C336.903 93.703 337.464 94.171 337.842 94.759C338.226 95.347 338.421 95.992 338.427 96.694H336.213C336.159 96.178 336.003 95.767 335.745 95.461C335.493 95.155 335.169 94.936 334.773 94.804C334.377 94.672 333.939 94.606 333.459 94.606C333.099 94.606 332.763 94.648 332.451 94.732C332.139 94.816 331.866 94.939 331.632 95.101C331.398 95.263 331.215 95.461 331.083 95.695C330.957 95.923 330.894 96.184 330.894 96.478C330.894 96.898 331.032 97.24 331.308 97.504C331.59 97.762 332.115 97.981 332.883 98.161L335.223 98.683C335.949 98.827 336.534 99.043 336.978 99.331C337.422 99.619 337.761 99.949 337.995 100.321C338.229 100.687 338.385 101.062 338.463 101.446C338.541 101.83 338.58 102.196 338.58 102.544C338.58 103.222 338.37 103.837 337.95 104.389C337.536 104.941 336.948 105.379 336.186 105.703C335.43 106.021 334.533 106.18 333.495 106.18ZM345.78 98.242H343.701L343.71 103.579C343.71 103.855 343.74 104.059 343.8 104.191C343.866 104.317 343.968 104.401 344.106 104.443C344.25 104.479 344.442 104.497 344.682 104.497H345.825V105.883C345.705 105.931 345.522 105.973 345.276 106.009C345.036 106.051 344.712 106.072 344.304 106.072C343.566 106.072 342.993 105.976 342.585 105.784C342.183 105.586 341.904 105.307 341.748 104.947C341.592 104.587 341.514 104.158 341.514 103.66V98.242H340.002V96.694H341.577L342.126 93.931H343.701V96.685H345.78V98.242ZM351.256 106.18C350.8 106.18 350.359 106.114 349.933 105.982C349.513 105.844 349.135 105.646 348.799 105.388C348.463 105.124 348.196 104.8 347.998 104.416C347.8 104.032 347.701 103.585 347.701 103.075V96.694H349.897V102.823C349.897 103.327 350.056 103.741 350.374 104.065C350.698 104.389 351.184 104.551 351.832 104.551C352.42 104.551 352.891 104.398 353.245 104.092C353.599 103.78 353.776 103.333 353.776 102.751V96.694H355.954V106H354.271L354.028 104.182C353.914 104.692 353.713 105.094 353.425 105.388C353.143 105.676 352.81 105.88 352.426 106C352.048 106.12 351.658 106.18 351.256 106.18ZM361.706 106.18C360.476 106.18 359.51 105.757 358.808 104.911C358.106 104.065 357.755 102.862 357.755 101.302C357.755 100.33 357.896 99.487 358.178 98.773C358.466 98.053 358.886 97.498 359.438 97.108C359.996 96.712 360.686 96.514 361.508 96.514C361.892 96.514 362.24 96.562 362.552 96.658C362.87 96.748 363.152 96.868 363.398 97.018C363.644 97.168 363.851 97.333 364.019 97.513C364.193 97.693 364.328 97.873 364.424 98.053V92.626H366.62V106H365L364.757 104.092C364.685 104.314 364.577 104.548 364.433 104.794C364.295 105.034 364.106 105.259 363.866 105.469C363.632 105.679 363.338 105.85 362.984 105.982C362.63 106.114 362.204 106.18 361.706 106.18ZM362.156 104.569C362.942 104.569 363.515 104.314 363.875 103.804C364.241 103.288 364.424 102.436 364.424 101.248C364.418 100.57 364.334 100 364.172 99.538C364.016 99.076 363.773 98.728 363.443 98.494C363.119 98.26 362.699 98.143 362.183 98.143C361.523 98.143 360.98 98.386 360.554 98.872C360.128 99.358 359.915 100.15 359.915 101.248C359.915 102.34 360.11 103.168 360.5 103.732C360.89 104.29 361.442 104.569 362.156 104.569ZM370.311 108.97C369.717 108.97 369.3 108.922 369.06 108.826C368.826 108.736 368.709 108.691 368.709 108.691V107.287L369.645 107.314C370.023 107.332 370.329 107.311 370.563 107.251C370.803 107.191 370.989 107.107 371.121 106.999C371.253 106.897 371.349 106.786 371.409 106.666C371.475 106.552 371.526 106.453 371.562 106.369L371.805 105.685L368.178 96.694H370.365L372.831 103.273L375.297 96.694H377.439L373.605 106.342C373.317 107.044 373.005 107.584 372.669 107.962C372.339 108.346 371.976 108.61 371.58 108.754C371.19 108.898 370.767 108.97 370.311 108.97Z"
          fill="#4D5DFD"/>
    <g clip-path="url(#clip2_409_140)">
        <path d="M302 125.5C296.477 125.5 292 129.976 292 135.5C292 141.024 296.477 145.5 302 145.5C307.523 145.5 312 141.021 312 135.5C312 129.979 307.523 125.5 302 125.5Z"
              fill="#4D5DFD"/>
        <path d="M292 135.5C291.998 137.153 292.407 138.78 293.191 140.236C294.19 140.529 295.225 140.677 296.266 140.677C302.278 140.677 307.152 135.803 307.152 129.791C307.152 128.734 306.999 127.682 306.697 126.669C305.251 125.899 303.638 125.497 302 125.5C296.477 125.5 292 129.976 292 135.5Z"
              fill="#4D5DFD"/>
        <path d="M307.703 133.843L301.693 140.155C301.529 140.327 301.332 140.464 301.114 140.558C300.896 140.652 300.661 140.701 300.424 140.702H300.416C300.18 140.702 299.946 140.655 299.729 140.563C299.511 140.471 299.315 140.336 299.15 140.166L295.961 136.881C295.796 136.716 295.666 136.519 295.578 136.303C295.489 136.087 295.445 135.855 295.447 135.622C295.449 135.388 295.497 135.158 295.589 134.943C295.681 134.728 295.814 134.534 295.982 134.371C296.15 134.209 296.348 134.081 296.565 133.996C296.782 133.91 297.015 133.869 297.248 133.874C297.481 133.879 297.712 133.93 297.925 134.025C298.138 134.12 298.331 134.256 298.491 134.425L300.403 136.395L305.149 131.411C305.308 131.241 305.499 131.104 305.712 131.008C305.924 130.911 306.153 130.858 306.386 130.851C306.619 130.845 306.851 130.884 307.069 130.967C307.287 131.051 307.486 131.176 307.655 131.337C307.823 131.498 307.959 131.69 308.053 131.904C308.146 132.117 308.197 132.347 308.202 132.58C308.206 132.813 308.164 133.045 308.079 133.261C307.993 133.478 307.866 133.676 307.703 133.843V133.843Z"
              fill="white"/>
    </g>
    <path d="M333.515 142.18C332.885 142.18 332.27 142.102 331.67 141.946C331.07 141.784 330.524 141.547 330.032 141.235C329.546 140.917 329.141 140.524 328.817 140.056C328.493 139.582 328.295 139.03 328.223 138.4H330.491C330.587 138.838 330.776 139.207 331.058 139.507C331.34 139.807 331.691 140.035 332.111 140.191C332.537 140.347 333.002 140.425 333.506 140.425C334.046 140.425 334.532 140.353 334.964 140.209C335.402 140.065 335.747 139.855 335.999 139.579C336.257 139.303 336.386 138.964 336.386 138.562C336.386 138.208 336.293 137.908 336.107 137.662C335.921 137.416 335.66 137.215 335.324 137.059C334.994 136.897 334.607 136.768 334.163 136.672L331.769 136.15C330.803 135.952 330.038 135.568 329.474 134.998C328.91 134.428 328.622 133.669 328.61 132.721C328.604 131.935 328.811 131.251 329.231 130.669C329.657 130.081 330.236 129.628 330.968 129.31C331.7 128.986 332.528 128.824 333.452 128.824C334.532 128.824 335.441 129.001 336.179 129.355C336.923 129.703 337.484 130.171 337.862 130.759C338.246 131.347 338.441 131.992 338.447 132.694H336.233C336.179 132.178 336.023 131.767 335.765 131.461C335.513 131.155 335.189 130.936 334.793 130.804C334.397 130.672 333.959 130.606 333.479 130.606C333.119 130.606 332.783 130.648 332.471 130.732C332.159 130.816 331.886 130.939 331.652 131.101C331.418 131.263 331.235 131.461 331.103 131.695C330.977 131.923 330.914 132.184 330.914 132.478C330.914 132.898 331.052 133.24 331.328 133.504C331.61 133.762 332.135 133.981 332.903 134.161L335.243 134.683C335.969 134.827 336.554 135.043 336.998 135.331C337.442 135.619 337.781 135.949 338.015 136.321C338.249 136.687 338.405 137.062 338.483 137.446C338.561 137.83 338.6 138.196 338.6 138.544C338.6 139.222 338.39 139.837 337.97 140.389C337.556 140.941 336.968 141.379 336.206 141.703C335.45 142.021 334.553 142.18 333.515 142.18ZM342.49 137.851C342.484 138.379 342.568 138.847 342.742 139.255C342.916 139.663 343.174 139.984 343.516 140.218C343.858 140.446 344.281 140.56 344.785 140.56C345.301 140.56 345.748 140.446 346.126 140.218C346.51 139.984 346.765 139.63 346.891 139.156H348.898C348.79 139.804 348.532 140.353 348.124 140.803C347.716 141.253 347.221 141.595 346.639 141.829C346.063 142.063 345.463 142.18 344.839 142.18C343.939 142.18 343.147 141.991 342.463 141.613C341.785 141.229 341.254 140.683 340.87 139.975C340.492 139.267 340.303 138.424 340.303 137.446C340.303 136.492 340.477 135.646 340.825 134.908C341.173 134.164 341.674 133.579 342.328 133.153C342.988 132.727 343.78 132.514 344.704 132.514C345.622 132.514 346.393 132.709 347.017 133.099C347.647 133.489 348.121 134.035 348.439 134.737C348.763 135.433 348.925 136.249 348.925 137.185V137.851H342.49ZM342.49 136.492H346.855C346.855 136.042 346.777 135.637 346.621 135.277C346.465 134.911 346.225 134.623 345.901 134.413C345.583 134.197 345.181 134.089 344.695 134.089C344.215 134.089 343.81 134.206 343.48 134.44C343.15 134.674 342.901 134.977 342.733 135.349C342.565 135.715 342.484 136.096 342.49 136.492ZM352.686 137.851C352.68 138.379 352.764 138.847 352.938 139.255C353.112 139.663 353.37 139.984 353.712 140.218C354.054 140.446 354.477 140.56 354.981 140.56C355.497 140.56 355.944 140.446 356.322 140.218C356.706 139.984 356.961 139.63 357.087 139.156H359.094C358.986 139.804 358.728 140.353 358.32 140.803C357.912 141.253 357.417 141.595 356.835 141.829C356.259 142.063 355.659 142.18 355.035 142.18C354.135 142.18 353.343 141.991 352.659 141.613C351.981 141.229 351.45 140.683 351.066 139.975C350.688 139.267 350.499 138.424 350.499 137.446C350.499 136.492 350.673 135.646 351.021 134.908C351.369 134.164 351.87 133.579 352.524 133.153C353.184 132.727 353.976 132.514 354.9 132.514C355.818 132.514 356.589 132.709 357.213 133.099C357.843 133.489 358.317 134.035 358.635 134.737C358.959 135.433 359.121 136.249 359.121 137.185V137.851H352.686ZM352.686 136.492H357.051C357.051 136.042 356.973 135.637 356.817 135.277C356.661 134.911 356.421 134.623 356.097 134.413C355.779 134.197 355.377 134.089 354.891 134.089C354.411 134.089 354.006 134.206 353.676 134.44C353.346 134.674 353.097 134.977 352.929 135.349C352.761 135.715 352.68 136.096 352.686 136.492ZM365.047 144.898V132.694H367.234L367.252 134.161C367.372 133.957 367.525 133.756 367.711 133.558C367.903 133.36 368.122 133.183 368.368 133.027C368.62 132.871 368.899 132.748 369.205 132.658C369.511 132.562 369.847 132.514 370.213 132.514C370.927 132.514 371.56 132.685 372.112 133.027C372.664 133.363 373.096 133.882 373.408 134.584C373.726 135.286 373.885 136.174 373.885 137.248C373.885 138.346 373.723 139.261 373.399 139.993C373.075 140.725 372.622 141.274 372.04 141.64C371.458 142 370.783 142.18 370.015 142.18C369.661 142.18 369.337 142.132 369.043 142.036C368.755 141.94 368.497 141.808 368.269 141.64C368.041 141.472 367.84 141.289 367.666 141.091C367.498 140.893 367.357 140.686 367.243 140.47V144.898H365.047ZM369.529 140.542C370.189 140.542 370.735 140.281 371.167 139.759C371.599 139.231 371.815 138.406 371.815 137.284C371.815 136.312 371.611 135.547 371.203 134.989C370.801 134.425 370.243 134.143 369.529 134.143C368.761 134.143 368.185 134.44 367.801 135.034C367.417 135.622 367.225 136.372 367.225 137.284C367.225 137.872 367.309 138.415 367.477 138.913C367.651 139.405 367.906 139.801 368.242 140.101C368.584 140.395 369.013 140.542 369.529 140.542ZM375.822 142V132.694H377.919V134.71C378.069 134.248 378.282 133.855 378.558 133.531C378.84 133.201 379.17 132.949 379.548 132.775C379.926 132.601 380.337 132.514 380.781 132.514C380.889 132.514 380.994 132.52 381.096 132.532C381.198 132.544 381.273 132.565 381.321 132.595V134.692C381.255 134.662 381.168 134.641 381.06 134.629C380.958 134.617 380.868 134.611 380.79 134.611C380.34 134.575 379.941 134.593 379.593 134.665C379.251 134.737 378.96 134.86 378.72 135.034C378.486 135.202 378.309 135.418 378.189 135.682C378.069 135.94 378.009 136.243 378.009 136.591V142H375.822ZM386.749 142.18C385.861 142.18 385.087 141.991 384.427 141.613C383.767 141.229 383.254 140.68 382.888 139.966C382.528 139.252 382.348 138.394 382.348 137.392C382.348 136.42 382.522 135.568 382.87 134.836C383.224 134.104 383.731 133.534 384.391 133.126C385.051 132.718 385.84 132.514 386.758 132.514C387.646 132.514 388.417 132.709 389.071 133.099C389.725 133.489 390.229 134.047 390.583 134.773C390.943 135.499 391.123 136.372 391.123 137.392C391.123 138.334 390.952 139.165 390.61 139.885C390.274 140.599 389.779 141.16 389.125 141.568C388.477 141.976 387.685 142.18 386.749 142.18ZM386.758 140.515C387.262 140.515 387.676 140.377 388 140.101C388.33 139.825 388.573 139.447 388.729 138.967C388.891 138.487 388.972 137.941 388.972 137.329C388.972 136.759 388.9 136.234 388.756 135.754C388.618 135.274 388.384 134.89 388.054 134.602C387.73 134.308 387.298 134.161 386.758 134.161C386.248 134.161 385.825 134.296 385.489 134.566C385.159 134.83 384.91 135.202 384.742 135.682C384.58 136.156 384.499 136.705 384.499 137.329C384.499 137.893 384.571 138.418 384.715 138.904C384.865 139.384 385.105 139.774 385.435 140.074C385.765 140.368 386.206 140.515 386.758 140.515ZM397.109 145.078C395.543 145.078 394.34 144.868 393.5 144.448C392.66 144.028 392.24 143.452 392.24 142.72C392.24 142.39 392.321 142.114 392.483 141.892C392.645 141.67 392.837 141.487 393.059 141.343C393.281 141.199 393.485 141.088 393.671 141.01C393.857 140.932 393.977 140.875 394.031 140.839C393.929 140.779 393.794 140.701 393.626 140.605C393.458 140.509 393.305 140.377 393.167 140.209C393.035 140.041 392.969 139.822 392.969 139.552C392.969 139.24 393.116 138.952 393.41 138.688C393.71 138.424 394.157 138.235 394.751 138.121C394.169 137.839 393.722 137.458 393.41 136.978C393.098 136.498 392.942 136 392.942 135.484C392.942 134.872 393.119 134.347 393.473 133.909C393.833 133.471 394.331 133.135 394.967 132.901C395.609 132.667 396.35 132.55 397.19 132.55C397.814 132.55 398.33 132.619 398.738 132.757C399.146 132.895 399.527 133.081 399.881 133.315C400.001 133.267 400.169 133.201 400.385 133.117C400.607 133.027 400.847 132.931 401.105 132.829C401.363 132.721 401.609 132.619 401.843 132.523C402.083 132.421 402.287 132.337 402.455 132.271L402.437 134.08L400.826 134.368C400.904 134.542 400.964 134.731 401.006 134.935C401.054 135.139 401.078 135.319 401.078 135.475C401.078 136.015 400.925 136.516 400.619 136.978C400.319 137.434 399.866 137.8 399.26 138.076C398.66 138.352 397.91 138.49 397.01 138.49C396.92 138.49 396.797 138.487 396.641 138.481C396.485 138.475 396.359 138.469 396.263 138.463C395.777 138.481 395.444 138.538 395.264 138.634C395.084 138.73 394.994 138.835 394.994 138.949C394.994 139.111 395.129 139.219 395.399 139.273C395.669 139.327 396.101 139.375 396.695 139.417C396.905 139.429 397.181 139.444 397.523 139.462C397.865 139.48 398.246 139.504 398.666 139.534C399.728 139.6 400.532 139.867 401.078 140.335C401.624 140.797 401.897 141.397 401.897 142.135C401.897 142.993 401.501 143.698 400.709 144.25C399.917 144.802 398.717 145.078 397.109 145.078ZM397.478 143.791C398.264 143.791 398.846 143.683 399.224 143.467C399.602 143.251 399.791 142.933 399.791 142.513C399.791 142.189 399.662 141.925 399.404 141.721C399.146 141.517 398.762 141.397 398.252 141.361L395.903 141.217C395.645 141.199 395.399 141.247 395.165 141.361C394.937 141.469 394.751 141.622 394.607 141.82C394.463 142.012 394.391 142.225 394.391 142.459C394.391 142.897 394.643 143.227 395.147 143.449C395.651 143.677 396.428 143.791 397.478 143.791ZM397.082 137.203C397.652 137.203 398.114 137.059 398.468 136.771C398.822 136.477 398.999 136.063 398.999 135.529C398.999 134.977 398.822 134.548 398.468 134.242C398.114 133.93 397.652 133.774 397.082 133.774C396.5 133.774 396.029 133.93 395.669 134.242C395.315 134.554 395.138 134.983 395.138 135.529C395.138 136.045 395.309 136.453 395.651 136.753C395.993 137.053 396.47 137.203 397.082 137.203ZM404.211 142V132.694H406.308V134.71C406.458 134.248 406.671 133.855 406.947 133.531C407.229 133.201 407.559 132.949 407.937 132.775C408.315 132.601 408.726 132.514 409.17 132.514C409.278 132.514 409.383 132.52 409.485 132.532C409.587 132.544 409.662 132.565 409.71 132.595V134.692C409.644 134.662 409.557 134.641 409.449 134.629C409.347 134.617 409.257 134.611 409.179 134.611C408.729 134.575 408.33 134.593 407.982 134.665C407.64 134.737 407.349 134.86 407.109 135.034C406.875 135.202 406.698 135.418 406.578 135.682C406.458 135.94 406.398 136.243 406.398 136.591V142H404.211ZM412.996 137.851C412.99 138.379 413.074 138.847 413.248 139.255C413.422 139.663 413.68 139.984 414.022 140.218C414.364 140.446 414.787 140.56 415.291 140.56C415.807 140.56 416.254 140.446 416.632 140.218C417.016 139.984 417.271 139.63 417.397 139.156H419.404C419.296 139.804 419.038 140.353 418.63 140.803C418.222 141.253 417.727 141.595 417.145 141.829C416.569 142.063 415.969 142.18 415.345 142.18C414.445 142.18 413.653 141.991 412.969 141.613C412.291 141.229 411.76 140.683 411.376 139.975C410.998 139.267 410.809 138.424 410.809 137.446C410.809 136.492 410.983 135.646 411.331 134.908C411.679 134.164 412.18 133.579 412.834 133.153C413.494 132.727 414.286 132.514 415.21 132.514C416.128 132.514 416.899 132.709 417.523 133.099C418.153 133.489 418.627 134.035 418.945 134.737C419.269 135.433 419.431 136.249 419.431 137.185V137.851H412.996ZM412.996 136.492H417.361C417.361 136.042 417.283 135.637 417.127 135.277C416.971 134.911 416.731 134.623 416.407 134.413C416.089 134.197 415.687 134.089 415.201 134.089C414.721 134.089 414.316 134.206 413.986 134.44C413.656 134.674 413.407 134.977 413.239 135.349C413.071 135.715 412.99 136.096 412.996 136.492ZM424.938 142.18C424.29 142.18 423.675 142.078 423.093 141.874C422.517 141.664 422.031 141.337 421.635 140.893C421.245 140.449 420.999 139.876 420.897 139.174H422.823C422.907 139.516 423.054 139.795 423.264 140.011C423.48 140.227 423.735 140.386 424.029 140.488C424.323 140.584 424.623 140.632 424.929 140.632C425.487 140.632 425.937 140.536 426.279 140.344C426.627 140.152 426.801 139.855 426.801 139.453C426.801 139.159 426.705 138.925 426.513 138.751C426.321 138.577 426.015 138.445 425.595 138.355L423.822 137.95C423.036 137.776 422.403 137.488 421.923 137.086C421.449 136.684 421.209 136.117 421.203 135.385C421.197 134.833 421.335 134.341 421.617 133.909C421.899 133.477 422.319 133.138 422.877 132.892C423.435 132.64 424.125 132.514 424.947 132.514C426.033 132.514 426.903 132.757 427.557 133.243C428.211 133.723 428.547 134.41 428.565 135.304H426.702C426.636 134.902 426.447 134.59 426.135 134.368C425.823 134.14 425.418 134.026 424.92 134.026C424.404 134.026 423.981 134.125 423.651 134.323C423.321 134.521 423.156 134.824 423.156 135.232C423.156 135.514 423.282 135.736 423.534 135.898C423.786 136.06 424.164 136.198 424.668 136.312L426.342 136.717C426.822 136.837 427.215 136.999 427.521 137.203C427.827 137.407 428.067 137.632 428.241 137.878C428.415 138.118 428.535 138.367 428.601 138.625C428.673 138.877 428.709 139.111 428.709 139.327C428.709 139.927 428.553 140.44 428.241 140.866C427.935 141.286 427.5 141.61 426.936 141.838C426.372 142.066 425.706 142.18 424.938 142.18ZM434.149 142.18C433.501 142.18 432.886 142.078 432.304 141.874C431.728 141.664 431.242 141.337 430.846 140.893C430.456 140.449 430.21 139.876 430.108 139.174H432.034C432.118 139.516 432.265 139.795 432.475 140.011C432.691 140.227 432.946 140.386 433.24 140.488C433.534 140.584 433.834 140.632 434.14 140.632C434.698 140.632 435.148 140.536 435.49 140.344C435.838 140.152 436.012 139.855 436.012 139.453C436.012 139.159 435.916 138.925 435.724 138.751C435.532 138.577 435.226 138.445 434.806 138.355L433.033 137.95C432.247 137.776 431.614 137.488 431.134 137.086C430.66 136.684 430.42 136.117 430.414 135.385C430.408 134.833 430.546 134.341 430.828 133.909C431.11 133.477 431.53 133.138 432.088 132.892C432.646 132.64 433.336 132.514 434.158 132.514C435.244 132.514 436.114 132.757 436.768 133.243C437.422 133.723 437.758 134.41 437.776 135.304H435.913C435.847 134.902 435.658 134.59 435.346 134.368C435.034 134.14 434.629 134.026 434.131 134.026C433.615 134.026 433.192 134.125 432.862 134.323C432.532 134.521 432.367 134.824 432.367 135.232C432.367 135.514 432.493 135.736 432.745 135.898C432.997 136.06 433.375 136.198 433.879 136.312L435.553 136.717C436.033 136.837 436.426 136.999 436.732 137.203C437.038 137.407 437.278 137.632 437.452 137.878C437.626 138.118 437.746 138.367 437.812 138.625C437.884 138.877 437.92 139.111 437.92 139.327C437.92 139.927 437.764 140.44 437.452 140.866C437.146 141.286 436.711 141.61 436.147 141.838C435.583 142.066 434.917 142.18 434.149 142.18Z"
          fill="#4D5DFD"/>
    <path fill-rule="evenodd" clip-rule="evenodd"
          d="M411.704 305.476C440.578 293.862 457.786 324.32 443.265 341.278C425.545 361.973 416.468 385.785 411.413 392.959C407.149 399.011 395.468 413.766 381.402 406.965C368.457 400.706 375.513 376.142 375.513 376.142C375.513 376.142 376.084 319.802 411.704 305.476Z"
          fill="#5B8C00"/>
    <path fill-rule="evenodd" clip-rule="evenodd"
          d="M324.857 402.236C315.041 390.974 311.457 374.813 322.413 370.669C332.918 366.696 350.319 376.479 358.379 395.306C366.438 414.134 371.088 427.67 363.204 430.024C350.269 433.885 337.822 417.109 324.857 402.236Z"
          fill="#5B8C00"/>
    <path fill-rule="evenodd" clip-rule="evenodd"
          d="M428.054 403.09C416.952 414.154 400.931 436.41 390.893 428.615C384.81 423.891 392.943 401.52 415.203 389.348C434.138 378.994 439.157 392.027 428.054 403.09Z"
          fill="#7CB305"/>
    <path fill-rule="evenodd" clip-rule="evenodd"
          d="M321.814 326.315C326.036 323.899 331.347 323.347 336.194 324.667C342.957 326.509 353.221 331.994 363.379 347.738C376.642 368.292 383.546 390.825 382.181 405.098C381.289 414.433 367.765 418.457 360.2 411.651C356.725 408.525 353.049 403.707 349.452 396.397C334.976 366.983 321.443 348.55 319.829 346.699C315.523 341.76 312.444 331.676 321.814 326.315Z"
          fill="#7CB305"/>
    <path fill-rule="evenodd" clip-rule="evenodd"
          d="M331.523 338.047C331.666 339.5 330.397 340.776 328.689 340.897C326.981 341.019 325.481 339.941 325.337 338.488C325.194 337.036 326.463 335.76 328.171 335.638C329.879 335.516 331.379 336.595 331.523 338.047Z"
          fill="white"/>
    <path fill-rule="evenodd" clip-rule="evenodd"
          d="M357.882 349.314C358.025 350.766 356.757 352.042 355.049 352.164C353.341 352.286 351.84 351.207 351.697 349.755C351.554 348.303 352.822 347.027 354.53 346.905C356.238 346.783 357.739 347.862 357.882 349.314Z"
          fill="white"/>
    <path fill-rule="evenodd" clip-rule="evenodd"
          d="M353.464 379.313C353.628 380.976 352.176 382.437 350.22 382.577C348.264 382.716 346.545 381.481 346.381 379.818C346.217 378.155 347.67 376.693 349.626 376.554C351.581 376.414 353.3 377.649 353.464 379.313Z"
          fill="white"/>
    <path fill-rule="evenodd" clip-rule="evenodd"
          d="M434.427 334.481C434.427 336.841 432.177 338.755 429.401 338.755C426.625 338.755 424.375 336.841 424.375 334.481C424.375 332.121 426.625 330.207 429.401 330.207C432.177 330.207 434.427 332.121 434.427 334.481Z"
          fill="white"/>
    <path fill-rule="evenodd" clip-rule="evenodd"
          d="M393.966 347.532C393.966 349.892 391.716 351.806 388.94 351.806C386.164 351.806 383.914 349.892 383.914 347.532C383.914 345.172 386.164 343.258 388.94 343.258C391.716 343.258 393.966 345.172 393.966 347.532Z"
          fill="white"/>
    <path fill-rule="evenodd" clip-rule="evenodd"
          d="M407.07 376.543C407.07 377.529 406.13 378.329 404.97 378.329C403.81 378.329 402.869 377.529 402.869 376.543C402.869 375.556 403.81 374.756 404.97 374.756C406.13 374.756 407.07 375.556 407.07 376.543Z"
          fill="white"/>
    <path fill-rule="evenodd" clip-rule="evenodd"
          d="M422.205 399.388C422.205 400.845 420.815 402.027 419.101 402.027C417.387 402.027 415.998 400.845 415.998 399.388C415.998 397.931 417.387 396.749 419.101 396.749C420.815 396.749 422.205 397.931 422.205 399.388Z"
          fill="white"/>
    <path d="M349.719 405.241C350.008 405.006 350.466 405.016 350.742 405.262L350.874 405.383L350.974 405.478C351.157 405.651 351.368 405.857 351.604 406.097C352.277 406.779 353.025 407.594 353.829 408.541C356.121 411.24 358.411 414.46 360.547 418.195C366.642 428.856 370.298 441.519 370.298 456.136C370.298 456.476 369.974 456.752 369.574 456.752C369.174 456.752 368.85 456.476 368.85 456.136C368.85 441.711 365.248 429.232 359.245 418.733C357.147 415.064 354.9 411.905 352.656 409.262C351.918 408.394 351.232 407.641 350.611 407.006L350.495 406.888C350.319 406.71 350.159 406.551 350.015 406.413L349.834 406.24C349.767 406.177 349.72 406.134 349.694 406.111C349.419 405.865 349.429 405.476 349.719 405.241Z"
          fill="#253368"/>
    <path d="M404.389 409.548C404.628 409.276 405.082 409.22 405.402 409.423C405.722 409.626 405.788 410.012 405.549 410.284C402.913 413.286 400.481 416.513 398.244 419.934C393.516 427.166 389.86 434.92 387.147 442.674C386.197 445.388 385.433 447.908 384.838 450.167L384.718 450.631C384.576 451.183 384.453 451.687 384.349 452.139L384.282 452.435L384.162 452.993C384.095 453.328 383.722 453.554 383.328 453.498C382.934 453.441 382.668 453.124 382.734 452.789L382.776 452.591C382.81 452.431 382.851 452.242 382.9 452.027L383.02 451.514C383.136 451.026 383.271 450.486 383.426 449.899L383.558 449.405C384.139 447.247 384.868 444.869 385.759 442.323C388.501 434.489 392.195 426.654 396.979 419.336C399.246 415.869 401.713 412.595 404.389 409.548Z"
          fill="#253368"/>
    <path d="M417.035 332.777C417.312 333.003 417.332 333.371 417.088 333.617L417.056 333.647C417.042 333.66 417.012 333.687 416.965 333.73L416.787 333.895L416.684 333.993C416.372 334.288 416.01 334.643 415.601 335.059C414.43 336.251 413.122 337.686 411.713 339.363C407.681 344.164 403.645 349.946 399.878 356.716C393.604 367.987 388.719 380.842 385.758 395.293C382.162 412.842 381.567 432.012 384.51 452.818C384.558 453.155 384.275 453.461 383.878 453.502C383.481 453.543 383.121 453.302 383.073 452.965C380.113 432.04 380.712 412.749 384.332 395.082C387.316 380.519 392.242 367.559 398.57 356.189C402.375 349.352 406.454 343.507 410.536 338.648L410.852 338.273C412.11 336.792 413.287 335.503 414.358 334.406L414.491 334.27C414.876 333.879 415.221 333.538 415.525 333.249L415.606 333.171C415.701 333.081 415.786 333.002 415.861 332.933L416.011 332.796C416.288 332.55 416.746 332.542 417.035 332.777Z"
          fill="#253368"/>
    <path d="M354.398 369.267C354.74 369.091 355.185 369.184 355.392 369.475L355.465 369.579C355.522 369.662 355.591 369.761 355.668 369.876L355.782 370.045C355.976 370.335 356.194 370.669 356.434 371.045L356.633 371.358C357.369 372.523 358.176 373.871 359.037 375.398L359.155 375.607C361.964 380.612 364.772 386.464 367.391 393.114C374.727 411.733 379.189 432.867 379.356 456.133C379.359 456.472 379.037 456.75 378.637 456.752C378.237 456.754 377.911 456.48 377.909 456.14C377.743 433.011 373.307 412.005 366.019 393.505C363.466 387.024 360.734 381.309 358.001 376.409L357.849 376.138C356.914 374.473 356.045 373.02 355.26 371.785L355.024 371.416C354.797 371.064 354.593 370.755 354.414 370.49L354.328 370.364L354.154 370.113C353.947 369.822 354.056 369.444 354.398 369.267Z"
          fill="#253368"/>
    <path fill-rule="evenodd" clip-rule="evenodd"
          d="M410.091 486.659H347.541C344.16 486.659 341.394 484.306 341.394 481.431V442.628C341.394 439.752 344.16 437.4 347.541 437.4H410.091C413.472 437.4 416.239 439.752 416.239 442.628V481.431C416.239 484.306 413.472 486.659 410.091 486.659Z"
          fill="#253368"/>
    <path fill-rule="evenodd" clip-rule="evenodd"
          d="M163.766 374.306C163.766 380.87 157.508 386.192 149.789 386.192C142.069 386.192 135.81 380.87 135.81 374.306C135.81 367.742 142.069 362.42 149.789 362.42C157.508 362.42 163.766 367.742 163.766 374.306Z"
          fill="#253368"/>
    <path fill-rule="evenodd" clip-rule="evenodd" d="M147.166 481.277H152.576V377.856H147.166V481.277Z" fill="#253368"/>
    <path fill-rule="evenodd" clip-rule="evenodd"
          d="M147.166 481.277L84.1496 490.203L80.0826 487.705L147.166 470.903L147.166 481.277Z" fill="#253368"/>
    <path fill-rule="evenodd" clip-rule="evenodd"
          d="M152.576 481.277L215.593 490.203L219.659 487.705L152.576 470.903L152.576 481.277Z" fill="#253368"/>
    <path fill-rule="evenodd" clip-rule="evenodd" d="M145.579 493.277H154.164V478.292H145.579V493.277Z" fill="#253368"/>
    <path fill-rule="evenodd" clip-rule="evenodd"
          d="M90.0539 493.476C90.0539 496.898 86.7916 499.671 82.7682 499.671C78.744 499.671 75.4817 496.898 75.4817 493.476C75.4817 490.054 78.744 487.28 82.7682 487.28C86.7916 487.28 90.0539 490.054 90.0539 493.476Z"
          fill="#253368"/>
    <path fill-rule="evenodd" clip-rule="evenodd"
          d="M157.157 493.476C157.157 496.898 153.895 499.671 149.871 499.671C145.847 499.671 142.585 496.898 142.585 493.476C142.585 490.054 145.847 487.28 149.871 487.28C153.895 487.28 157.157 490.054 157.157 493.476Z"
          fill="#253368"/>
    <path fill-rule="evenodd" clip-rule="evenodd"
          d="M224.898 493.476C224.898 496.898 221.636 499.671 217.612 499.671C213.589 499.671 210.326 496.898 210.326 493.476C210.326 490.054 213.589 487.28 217.612 487.28C221.636 487.28 224.898 490.054 224.898 493.476Z"
          fill="#253368"/>
    <path fill-rule="evenodd" clip-rule="evenodd"
          d="M237.404 372.124H62.1729C62.1729 357.478 76.1342 345.606 93.3572 345.606H206.22C223.442 345.606 237.404 357.478 237.404 372.124Z"
          fill="#A3B5D6"/>
    <path fill-rule="evenodd" clip-rule="evenodd"
          d="M201.465 150.018C201.465 150.018 216.738 149.264 219.349 163.115C233.507 168.706 228.145 181.974 228.145 181.974C228.145 181.974 234.406 193.163 219.269 197.55C216.997 208.377 202.613 205.323 202.613 205.323C202.613 205.323 198.259 213.5 187.526 209.214C174.766 216.246 152.39 213.006 145.368 202.749C128.479 211.658 102.116 197.339 106.513 188.399C88.0774 186.086 80.7878 168.713 93.0875 155.312C85.885 143.471 96.0655 137.541 96.0655 137.541C96.0655 137.541 96.0556 111.554 117.409 109.621C129.609 96.5238 151.812 109.397 151.812 109.397C151.812 109.397 167.546 107.801 171.931 119.618C188.975 123.144 187.346 131.158 187.987 138.036C203.37 139.913 201.465 150.018 201.465 150.018Z"
          fill="#253368"/>
    <path fill-rule="evenodd" clip-rule="evenodd"
          d="M154.81 133.908C142.515 134.828 139.624 126.764 139.624 126.764C139.624 126.764 135.741 115.422 133.776 122.067C132.734 125.597 126.705 120.368 123.325 123.967C121.049 126.388 125.749 130.068 118.509 136.438C114.315 140.128 128.953 144.392 118.981 151.029C118.981 151.029 124.637 160.44 113.071 162.526L110.814 172.907C109.502 178.949 114.606 184.636 121.805 185.155C128.669 185.648 134.659 181.224 135.043 175.375L135.88 162.576C153.381 163.859 156.31 143.468 154.81 133.908Z"
          fill="#FFC999"/>
    <path fill-rule="evenodd" clip-rule="evenodd"
          d="M141.901 147.307C136.837 147.352 132.405 144.839 132.405 144.839C132.405 144.839 131.085 150.447 135.307 151.12C139.406 151.774 141.901 147.307 141.901 147.307Z"
          fill="white"/>
    <path d="M131.681 144.716L131.631 144.955C131.613 145.055 131.593 145.174 131.574 145.31C131.442 146.227 131.422 147.191 131.587 148.108C131.937 150.048 133.065 151.402 135.171 151.738C137.374 152.089 139.305 151.24 140.924 149.659C141.389 149.205 141.794 148.722 142.138 148.239C142.347 147.947 142.491 147.716 142.569 147.576C142.804 147.157 142.44 146.673 141.894 146.678C139.775 146.697 137.599 146.251 135.496 145.494C134.772 145.234 134.11 144.955 133.525 144.676L133.253 144.544C133.049 144.443 132.902 144.365 132.815 144.316C132.378 144.068 131.784 144.277 131.681 144.716ZM132.973 146.078L132.993 145.861L132.803 145.773C133.433 146.073 134.144 146.373 134.92 146.652L135.348 146.802C136.907 147.331 138.505 147.701 140.107 147.855L140.641 147.897L140.485 148.096C140.278 148.348 140.052 148.596 139.809 148.833C138.499 150.112 137.035 150.756 135.444 150.502C134.06 150.282 133.313 149.384 133.049 147.917C132.942 147.327 132.926 146.699 132.973 146.078Z"
          fill="#F5222D"/>
    <path d="M138.235 144.291C138.479 144.287 138.883 144.242 139.451 144.123C140.32 143.94 141.339 143.626 142.509 143.153L142.717 143.067L142.543 142.791C141.746 141.488 141.204 140.218 140.878 139.002L140.794 138.671C140.57 137.732 140.499 136.943 140.52 136.337L140.538 136.056C140.54 136.043 140.541 136.031 140.542 136.022C140.576 135.763 140.851 135.577 141.155 135.606C141.429 135.632 141.634 135.824 141.647 136.051L141.636 136.216C141.599 136.763 141.654 137.534 141.881 138.484C142.223 139.921 142.891 141.451 143.964 143.033C144.122 143.267 144.019 143.565 143.737 143.688C142.184 144.367 140.845 144.801 139.716 145.038C139.063 145.175 138.57 145.23 138.235 145.234L138.085 145.232C137.779 145.216 137.547 144.992 137.566 144.732C137.583 144.498 137.798 144.315 138.064 144.292L138.152 144.29L138.235 144.291Z"
          fill="#DD936F"/>
    <path d="M129.802 132.232C132.064 132.399 133.506 134.799 133.231 137.514C133.197 137.847 132.851 138.094 132.459 138.065C132.067 138.037 131.777 137.743 131.811 137.41C132.027 135.277 130.981 133.535 129.68 133.439C128.381 133.345 127 134.908 126.783 137.041C126.749 137.374 126.403 137.621 126.011 137.592C125.619 137.563 125.329 137.269 125.363 136.936C125.633 134.29 127.448 132.176 129.634 132.224L129.802 132.232Z"
          fill="#253368"/>
    <path d="M148.945 135.125C151.205 135.291 152.647 137.691 152.372 140.406C152.338 140.739 151.993 140.986 151.601 140.957C151.209 140.929 150.918 140.635 150.952 140.302C151.168 138.169 150.122 136.428 148.822 136.333C147.522 136.237 146.142 137.8 145.925 139.933C145.892 140.266 145.546 140.513 145.154 140.484C144.762 140.455 144.472 140.162 144.506 139.828C144.774 137.181 146.59 135.068 148.776 135.117L148.945 135.125Z"
          fill="#253368"/>
    <path d="M124.413 126.55C127.789 125.084 131.007 125.03 133.782 125.826C134.444 126.015 134.923 126.208 135.196 126.347C135.552 126.527 135.668 126.918 135.456 127.221C135.244 127.523 134.784 127.622 134.428 127.442L134.358 127.409C134.31 127.387 134.244 127.359 134.16 127.325C133.916 127.227 133.63 127.127 133.304 127.034C130.887 126.341 128.082 126.388 125.095 127.686C124.726 127.846 124.274 127.721 124.086 127.408C123.898 127.094 124.044 126.71 124.413 126.55Z"
          fill="#253368"/>
    <path d="M124.929 159.22C125.098 159.003 125.442 158.944 125.697 159.087C128.933 160.908 132.374 161.956 135.904 162.256C136.209 162.282 136.431 162.513 136.4 162.772C136.37 163.031 136.098 163.22 135.793 163.194C132.084 162.879 128.471 161.778 125.085 159.874C124.83 159.73 124.76 159.438 124.929 159.22Z"
          fill="#DD936F"/>
    <path fill-rule="evenodd" clip-rule="evenodd"
          d="M196.943 261.955L197.86 261.528C204.707 258.327 207.207 251.015 203.445 245.194L168.593 191.27C164.83 185.448 156.23 183.323 149.385 186.522L148.468 186.95C141.623 190.151 139.123 197.462 142.885 203.284L177.736 257.207C181.5 263.028 190.098 265.154 196.943 261.955Z"
          fill="#FFC999"/>
    <path fill-rule="evenodd" clip-rule="evenodd"
          d="M157.623 226.085L142.64 202.904C139.03 197.316 141.857 190.04 148.928 186.736C155.998 183.433 164.737 185.302 168.348 190.89L183.188 213.852L157.623 226.085Z"
          fill="#597EF7"/>
    <path d="M148.349 186.589C148.557 186.491 148.819 186.556 148.934 186.733C149.048 186.911 148.972 187.133 148.764 187.231C141.992 190.396 139.23 197.301 142.504 202.675L142.646 202.901L157.419 225.757L182.605 213.706C182.789 213.618 183.017 213.657 183.148 213.791L183.192 213.845C183.295 214.002 183.249 214.196 183.092 214.307L183.027 214.344L157.463 226.578C157.277 226.667 157.047 226.626 156.918 226.49L156.874 226.435L141.891 203.254C138.162 197.483 141.077 189.988 148.349 186.589Z"
          fill="#4E5C93"/>
    <path fill-rule="evenodd" clip-rule="evenodd"
          d="M171.307 440.574C177.06 442.455 183.552 440.097 186.012 435.232L238.666 331.184C242.459 323.688 238.237 315.037 229.372 312.139C220.508 309.242 210.558 313.26 207.469 320.986L164.596 428.23C162.592 433.245 165.553 438.693 171.307 440.574Z"
          fill="#FFC999"/>
    <path fill-rule="evenodd" clip-rule="evenodd"
          d="M94.0392 308.886C97.7424 299.378 107.996 293.784 116.746 296.498L210.819 325.683C218.065 327.931 221.401 336.009 218.335 343.882C215.271 351.756 206.922 356.545 199.531 354.671L103.565 330.348C94.6393 328.086 90.3375 318.393 94.0392 308.886Z"
          fill="#FFC999"/>
    <path fill-rule="evenodd" clip-rule="evenodd"
          d="M181.763 444.695L160.45 438.368L171.017 409.346L195.487 416.608L181.763 444.695Z" fill="#597EF7"/>
    <path d="M169.586 415.336C169.71 415.035 170.075 414.864 170.433 414.926L170.53 414.949L193.12 421.654C193.507 421.769 193.711 422.128 193.576 422.457C193.452 422.758 193.086 422.929 192.729 422.867L192.631 422.844L170.042 416.139C169.655 416.024 169.451 415.665 169.586 415.336Z"
          fill="#E4EBF7"/>
    <path fill-rule="evenodd" clip-rule="evenodd"
          d="M186.444 438.33L163.011 431.375L146.845 467.523L199.646 483.194L202.074 477.628C202.958 475.58 201.991 473.287 199.773 472.186L187.197 464.521L181.426 458.897C179.688 457.204 179.183 454.841 180.121 452.739C182.135 448.22 185.537 440.552 186.444 438.33Z"
          fill="#4E5C93"/>
    <path fill-rule="evenodd" clip-rule="evenodd"
          d="M146.866 468.864L199.505 484.487C200.005 484.635 200.551 484.412 200.723 483.986L202.785 478.967C202.959 478.543 202.697 478.078 202.196 477.931L149.557 462.308C149.058 462.16 148.513 462.384 148.339 462.808L146.278 467.828C146.104 468.253 146.368 468.716 146.866 468.864Z"
          fill="#E4EBF7"/>
    <path fill-rule="evenodd" clip-rule="evenodd"
          d="M202.195 477.931C203.494 474.767 201.902 471.269 198.436 469.674L187.203 464.505L183.175 472.161L202.195 477.931Z"
          fill="#E4EBF7"/>
    <path d="M149.199 462.201C149.259 462.054 149.432 461.968 149.607 461.988L149.682 462.003L202.321 477.626C202.519 477.685 202.623 477.869 202.554 478.037C202.494 478.184 202.321 478.27 202.146 478.25L202.071 478.235L149.432 462.612C149.234 462.554 149.129 462.37 149.199 462.201Z"
          fill="#A3B5D6"/>
    <path d="M174.948 451.216C176.69 450.752 178.504 450.65 180.1 450.749L180.306 450.763C180.395 450.77 180.465 450.777 180.514 450.782C180.929 450.827 181.223 451.151 181.169 451.505C181.115 451.858 180.735 452.108 180.319 452.062L179.99 452.036C178.686 451.955 177.203 452.026 175.786 452.352L175.402 452.448L175.17 452.513L175.35 452.595C175.607 452.711 175.877 452.839 176.159 452.976L176.446 453.117L176.985 453.39C177.077 453.437 177.169 453.485 177.262 453.533C177.989 453.912 178.729 454.316 179.443 454.721L180.382 455.263C180.929 455.587 180.755 456.309 180.103 456.424L179.929 456.459C179.875 456.471 179.812 456.485 179.74 456.503C179.43 456.576 179.079 456.672 178.697 456.793C178.148 456.966 177.593 457.171 177.039 457.411L176.834 457.502L177.05 457.569L177.461 457.704C178.329 457.998 179.241 458.36 180.18 458.774C181.098 459.179 181.992 459.613 182.828 460.047L183.438 460.369L183.912 460.63C184.57 461.004 184.195 461.857 183.447 461.811L183.173 461.781C182.056 461.684 180.733 461.837 179.484 462.442C179.265 462.548 179.053 462.666 178.847 462.798C178.513 463.013 178.037 462.957 177.784 462.673C177.532 462.388 177.598 461.983 177.932 461.769C178.191 461.603 178.458 461.453 178.734 461.32C179.417 460.989 180.113 460.767 180.798 460.632L180.951 460.603L180.788 460.523C180.574 460.42 180.357 460.318 180.139 460.217L179.48 459.919C178.584 459.524 177.717 459.18 176.899 458.903C176.137 458.644 175.432 458.449 174.798 458.326C174.15 458.2 173.993 457.476 174.545 457.161C175.586 456.567 176.658 456.095 177.716 455.732L178.203 455.572L177.896 455.4C177.659 455.269 177.42 455.139 177.182 455.011L176.47 454.634L175.938 454.361L175.68 454.231C174.596 453.693 173.702 453.307 173.088 453.125C172.478 452.944 172.396 452.238 172.952 451.959C173.565 451.652 174.234 451.406 174.948 451.216Z"
          fill="#E4EBF7"/>
    <path d="M172.969 444.079C168.842 444.213 165.674 445.459 163.963 448.116C162.75 450.001 163.259 451.365 165.26 451.776C166.655 452.063 168.781 451.891 171.537 451.361C173.426 450.998 175.518 450.484 177.689 449.875L179.035 449.489C180.238 449.136 181.22 448.828 181.87 448.613C182.043 448.58 182.404 448.474 182.776 448.309C183.348 448.056 183.766 447.74 183.94 447.296C184.178 446.691 183.861 446.09 183.098 445.56C183.033 445.515 182.958 445.479 182.879 445.454L182.512 445.347C182.393 445.313 182.253 445.275 182.094 445.233C181.48 445.071 180.795 444.909 180.054 444.758C177.658 444.271 175.241 444.005 172.969 444.079ZM173.027 445.368C175.143 445.299 177.428 445.551 179.701 446.014C180.408 446.158 181.061 446.312 181.643 446.466L182.235 446.629L182.301 446.679C182.478 446.816 182.506 446.874 182.501 446.887C182.481 446.938 182.33 447.052 182.076 447.164C181.825 447.275 181.563 447.352 181.406 447.387L180.72 447.606C179.969 447.843 179.026 448.131 177.929 448.447C175.545 449.132 173.242 449.71 171.202 450.102C168.663 450.59 166.717 450.748 165.616 450.522C164.674 450.328 164.526 449.93 165.294 448.736C166.709 446.538 169.383 445.487 173.027 445.368Z"
          fill="#E4EBF7"/>
    <path fill-rule="evenodd" clip-rule="evenodd"
          d="M308.736 441.96C314.471 440.041 317.381 434.572 315.33 429.572L271.442 322.624C268.281 314.919 258.293 310.969 249.456 313.927C240.619 316.885 236.48 325.566 240.344 333.035L293.981 436.72C296.488 441.567 303.002 443.88 308.736 441.96Z"
          fill="#FFC999"/>
    <path fill-rule="evenodd" clip-rule="evenodd"
          d="M144.745 317.565C146.02 307.608 154.666 300.308 163.89 301.402L263.071 313.153C270.711 314.057 275.965 321.361 274.911 329.606C273.856 337.852 266.875 344.023 259.187 343.51L159.355 336.85C150.069 336.23 143.472 327.522 144.745 317.565Z"
          fill="#FFC999"/>
    <path fill-rule="evenodd" clip-rule="evenodd"
          d="M319.718 438.989L298.98 446.575L283.703 419.11L307.509 410.401L319.718 438.989Z" fill="#597EF7"/>
    <path d="M309.776 415.479C310.153 415.341 310.589 415.489 310.75 415.809C310.899 416.102 310.765 416.438 310.452 416.598L310.362 416.637L288.383 424.679C288.007 424.816 287.571 424.669 287.409 424.349C287.26 424.056 287.394 423.72 287.707 423.56L287.797 423.52L309.776 415.479Z"
          fill="#E4EBF7"/>
    <path fill-rule="evenodd" clip-rule="evenodd"
          d="M318.108 431.607L295.311 439.947L312.124 475.881L363.496 457.088L360.864 451.591C359.888 449.572 357.352 448.438 354.844 448.901L339.481 450.479L330.759 449.651C328.131 449.401 325.881 447.949 324.902 445.862C322.794 441.373 319.209 433.767 318.108 431.607Z"
          fill="#4E5C93"/>
    <path fill-rule="evenodd" clip-rule="evenodd"
          d="M313.205 476.858L364.421 458.121C364.905 457.944 365.13 457.465 364.922 457.053L362.45 452.169C362.242 451.755 361.679 451.565 361.192 451.742L309.978 470.479C309.492 470.657 309.269 471.135 309.478 471.548L311.947 476.432C312.158 476.845 312.72 477.035 313.205 476.858Z"
          fill="#E4EBF7"/>
    <path fill-rule="evenodd" clip-rule="evenodd"
          d="M361.193 451.742C359.636 448.664 355.682 447.002 351.859 447.818L339.472 450.463L342.589 458.42L361.193 451.742Z"
          fill="#E4EBF7"/>
    <path d="M361.044 451.446C361.236 451.376 361.46 451.451 361.542 451.615C361.615 451.758 361.556 451.921 361.411 452.007L361.344 452.039L310.13 470.776C309.937 470.846 309.714 470.771 309.631 470.607C309.559 470.464 309.618 470.3 309.762 470.215L309.83 470.183L361.044 451.446Z"
          fill="#A3B5D6"/>
    <path d="M323.636 444.191C323.978 443.986 324.452 444.056 324.693 444.347C324.934 444.639 324.853 445.041 324.51 445.246L324.376 445.33C324.244 445.416 324.061 445.541 323.841 445.702C323.324 446.082 322.806 446.519 322.324 447.003C321.847 447.483 321.435 447.979 321.103 448.488L321.07 448.54L321.304 448.488C321.687 448.405 322.103 448.323 322.55 448.241L322.89 448.18C323.582 448.059 324.309 447.945 325.045 447.84L326.037 447.704L327.1 447.571C327.76 447.496 328.206 448.128 327.817 448.588L327.698 448.738C327.632 448.825 327.548 448.94 327.452 449.081C327.164 449.499 326.875 449.982 326.605 450.521C326.538 450.654 326.474 450.789 326.411 450.925L326.265 451.26L326.484 451.183C326.887 451.045 327.314 450.911 327.761 450.783L328.215 450.656C329.476 450.314 330.821 450.024 332.165 449.785C332.4 449.743 332.627 449.704 332.844 449.668L333.818 449.519C333.879 449.51 333.929 449.503 333.966 449.498C334.747 449.396 335.149 450.236 334.566 450.634L334.397 450.733C334.325 450.778 334.224 450.843 334.103 450.929C333.792 451.151 333.478 451.42 333.186 451.735C332.578 452.387 332.145 453.144 331.958 454.007C331.883 454.358 331.487 454.59 331.075 454.526C330.663 454.461 330.39 454.125 330.466 453.774C330.661 452.871 331.07 452.063 331.637 451.35L331.779 451.177L331.182 451.295C330.539 451.426 329.904 451.57 329.287 451.726L328.677 451.885C327.386 452.237 326.279 452.622 325.419 453.038C324.841 453.318 324.15 452.875 324.306 452.325C324.536 451.517 324.843 450.745 325.208 450.015C325.327 449.779 325.449 449.552 325.573 449.335L325.741 449.05L325.299 449.112C324.819 449.181 324.344 449.253 323.881 449.329L323.197 449.444L322.57 449.559C321.461 449.769 320.583 449.982 320.023 450.186C319.429 450.403 318.809 449.931 318.997 449.405C319.41 448.255 320.167 447.174 321.165 446.17C321.702 445.63 322.275 445.147 322.849 444.726L323.128 444.526C323.344 444.374 323.518 444.262 323.636 444.191Z"
          fill="#E4EBF7"/>
    <path d="M321.39 438.86C321.305 438.864 321.222 438.88 321.143 438.907L320.735 439.06L320.618 439.105C320.21 439.265 319.756 439.453 319.269 439.67C317.876 440.288 316.483 441.01 315.179 441.83C310.632 444.69 308.241 448.017 309.317 451.74C309.856 453.604 311.077 454.404 312.69 453.887C313.836 453.52 315.108 452.481 316.551 450.867C317.335 449.991 318.155 448.959 318.999 447.8C319.954 446.49 320.892 445.088 321.772 443.687L322.128 443.116C322.298 442.84 322.458 442.578 322.605 442.332L322.911 441.814L322.964 441.745C323.02 441.665 323.105 441.53 323.19 441.374C323.323 441.128 323.425 440.883 323.481 440.64C323.733 439.558 322.989 438.781 321.39 438.86ZM321.992 440.389C321.962 440.52 321.898 440.673 321.811 440.833L321.713 441.003C321.666 441.079 321.624 441.139 321.594 441.177L321.252 441.746C321.012 442.148 320.737 442.596 320.434 443.079C319.567 444.458 318.645 445.836 317.709 447.12C316.888 448.246 316.094 449.246 315.343 450.086C314.063 451.517 312.953 452.424 312.154 452.68C311.526 452.881 311.136 452.625 310.791 451.431C309.897 448.339 311.973 445.453 316.082 442.868C317.317 442.091 318.644 441.403 319.971 440.814C320.343 440.649 320.693 440.501 321.015 440.372L321.607 440.142L321.68 440.139C322.058 440.123 322.048 440.152 321.992 440.389Z"
          fill="#E4EBF7"/>
    <path fill-rule="evenodd" clip-rule="evenodd"
          d="M160.765 200.792C163.404 206.391 168.333 216.042 168.655 222.297C169.176 232.435 161.015 239.624 161.015 239.624C161.015 239.624 161.159 241.744 162.478 262.83C126.774 266.634 101.012 263.727 101.012 263.727L101.989 253.117L97.1851 236.491C97.1851 236.491 96.8521 230.085 90.4619 216.172C86.0167 206.5 87.8409 195.162 88.8794 188.917C89.3221 186.241 86.6056 182.791 89.7044 182.188C100.526 180.081 106.012 181.228 106.012 181.228L107.364 175.283C107.596 174.265 108.673 173.545 109.891 173.597L135.913 174.682C137.03 174.728 137.969 175.413 138.194 176.345L139.716 181.553L157.239 184.455C159.743 184.983 161.549 186.839 161.686 189.029L160.765 200.792Z"
          fill="#597EF7"/>
    <path d="M113.305 181.466L136.737 182.444C136.983 182.454 137.173 182.632 137.161 182.842C137.151 183.028 136.984 183.176 136.774 183.2L136.693 183.203L113.261 182.225C113.015 182.215 112.825 182.037 112.837 181.827C112.848 181.641 113.015 181.492 113.225 181.469L113.305 181.466Z"
          fill="#4E5C93"/>
    <path d="M105.471 179.528C105.703 179.387 106.016 179.414 106.211 179.58L106.271 179.64L129.475 207.19L140.501 182.854C140.603 182.628 140.882 182.504 141.152 182.552L141.242 182.574C141.508 182.661 141.654 182.898 141.597 183.128L141.571 183.204L130.164 208.385C130.011 208.723 129.502 208.799 129.219 208.552L129.162 208.494L105.339 180.208C105.154 179.989 105.214 179.685 105.471 179.528Z"
          fill="#CCD7EE"/>
    <path fill-rule="evenodd" clip-rule="evenodd"
          d="M136.601 210.565C138.984 214.4 137.544 219.025 133.384 220.894C129.223 222.764 123.919 221.171 121.534 217.336C119.152 213.502 120.591 208.877 124.751 207.008C128.912 205.138 134.217 206.731 136.601 210.565Z"
          fill="#CCD7EE"/>
    <path fill-rule="evenodd" clip-rule="evenodd"
          d="M137.535 210.586C139.917 214.421 138.478 219.046 134.318 220.915C130.157 222.785 124.853 221.192 122.469 217.357C120.085 213.522 121.526 208.897 125.685 207.028C129.847 205.158 135.152 206.751 137.535 210.586Z"
          fill="#E4EBF7"/>
    <path fill-rule="evenodd" clip-rule="evenodd"
          d="M135.848 211.166C137.699 214.144 136.58 217.734 133.351 219.186C130.121 220.638 126.001 219.401 124.151 216.423C122.3 213.447 123.418 209.855 126.649 208.403C129.879 206.953 133.999 208.19 135.848 211.166Z"
          fill="#FAAD14"/>
    <path d="M85.3044 188.315C85.5505 188.331 85.7345 188.514 85.7155 188.723L85.6066 190.017L85.5251 191.067C85.471 191.787 85.4177 192.545 85.3668 193.33C85.2488 195.15 85.1553 196.939 85.0948 198.64L85.0673 199.484C84.963 203.016 85.02 205.847 85.2753 207.71C85.5324 209.582 86.7818 212.685 88.7828 216.663L88.9787 217.051C89.4019 217.884 89.8524 218.745 90.3266 219.629C91.4485 221.72 92.6509 223.843 93.8533 225.889L94.4607 226.915L95.4554 228.562L95.4928 228.645L102.83 253.162L102.842 253.294L101.661 263.322L103.008 263.425L104.016 263.496C105.231 263.578 106.583 263.659 108.062 263.736C124.372 264.583 142.65 264.375 160.761 262.385L161.773 262.27L161.761 261.492C161.719 259.86 161.569 256.67 161.337 252.343L161.126 248.495L160.664 240.473C160.659 240.396 160.682 240.319 160.73 240.253L161.047 239.805L161.365 239.34C161.531 239.095 161.706 238.832 161.889 238.552C162.76 237.217 163.632 235.771 164.445 234.268C165.551 232.225 166.459 230.239 167.103 228.372C167.695 226.656 168.047 225.083 168.128 223.686C168.335 220.097 167.948 217.299 166.893 214.418C166.337 212.898 165.592 211.33 164.498 209.327L164.037 208.497C163.493 207.535 162.473 205.765 161.636 204.317L160.302 202.014L160.257 201.844L160.34 195.613C160.343 195.403 160.545 195.235 160.792 195.237C161.011 195.239 161.192 195.375 161.228 195.553L161.234 195.621L161.151 201.761L164.577 207.7C164.763 208.026 164.919 208.303 165.033 208.506L165.083 208.597C166.317 210.826 167.139 212.532 167.746 214.192C168.834 217.161 169.233 220.048 169.02 223.724C168.936 225.186 168.571 226.816 167.961 228.586C167.304 230.492 166.38 232.512 165.257 234.586C164.552 235.89 163.803 237.151 163.048 238.335L162.67 238.921C162.485 239.205 162.307 239.471 162.139 239.72L161.676 240.392L161.563 240.551L161.73 243.388C161.828 245.069 161.925 246.777 162.019 248.459L162.481 257.213C162.624 260.204 162.69 262.096 162.66 262.623C162.649 262.806 162.487 262.957 162.273 262.981C143.643 265.125 124.789 265.367 108.008 264.494L106.767 264.427C105.557 264.359 104.443 264.289 103.43 264.218L101.825 264.098L101.124 264.04C100.907 264.02 100.743 263.872 100.726 263.693L100.727 263.624L101.944 253.285L94.6394 228.875L94.2205 228.187C93.8684 227.604 93.4762 226.947 93.0538 226.228C91.847 224.175 90.6401 222.044 89.5134 219.944C89.1559 219.278 88.8118 218.625 88.4825 217.986L88.1582 217.353C86.0087 213.121 84.6663 209.828 84.3875 207.798C84.126 205.89 84.0685 203.03 84.1738 199.465C84.2233 197.786 84.3073 196.012 84.4173 194.198L84.4744 193.288C84.5254 192.501 84.5788 191.741 84.6331 191.019L84.8243 188.665C84.8434 188.456 85.0583 188.299 85.3044 188.315Z"
          fill="#4E5C93"/>
    <path fill-rule="evenodd" clip-rule="evenodd"
          d="M163.701 269.014L161.422 262.381C161.422 262.381 132.322 264.183 104.971 264.175C103.647 266.887 103.387 272.026 103.387 272.026C105.586 270.328 133.47 273.813 163.701 269.014Z"
          fill="#4E5C93"/>
    <path fill-rule="evenodd" clip-rule="evenodd"
          d="M254.519 299.866L172.765 280.102L164.852 269.334L103.674 271.373C103.674 271.373 64.3684 333.42 110.893 347.001C147.838 355.648 158.1 356.535 158.1 356.535L172.626 373.525L238.665 346.493L286.916 320.681L254.519 299.866Z"
          fill="#4E5C93"/>
    <path d="M132.974 273.442C133.196 273.322 133.481 273.357 133.654 273.515L133.713 273.58L143.359 286.39L212.373 323.264C212.439 323.299 212.495 323.346 212.537 323.402L212.575 323.46L224.908 346.473C225.031 346.701 224.912 346.971 224.643 347.075C224.401 347.169 224.12 347.097 223.977 346.915L223.935 346.85L211.668 323.962L142.688 287.106C142.644 287.082 142.603 287.053 142.569 287.02L142.522 286.966L132.812 274.071C132.653 273.859 132.726 273.578 132.974 273.442Z"
          fill="#253368"/>
    <path d="M121.128 275.759C121.393 275.743 121.627 275.895 121.686 276.108L121.699 276.181L123.175 294.226L148.655 330.209L173.107 373.328C173.235 373.554 173.123 373.826 172.857 373.935C172.618 374.033 172.335 373.966 172.188 373.787L172.144 373.723L147.715 330.641L122.193 294.601C122.163 294.56 122.142 294.515 122.13 294.469L122.117 294.398L120.632 276.244C120.611 275.993 120.833 275.776 121.128 275.759Z"
          fill="#253368"/>
    <path d="M110.515 276.894L110.602 276.902C110.863 276.946 111.042 277.144 111.033 277.363L111.024 277.436L105.269 302.37L131.151 348.59C131.266 348.794 131.185 349.034 130.974 349.159L130.898 349.196C130.658 349.293 130.376 349.225 130.229 349.045L130.186 348.981L104.229 302.627C104.192 302.561 104.174 302.488 104.177 302.416L104.187 302.344L109.974 277.261C110.025 277.039 110.258 276.887 110.515 276.894Z"
          fill="#253368"/>
    <path d="M164.301 268.656C164.456 268.65 164.604 268.702 164.71 268.795L164.768 268.856L173.89 280.381L254.662 299.427L254.841 299.503L287.237 320.318C287.511 320.494 287.518 320.833 287.273 321.019L287.2 321.066L238.95 346.877C238.7 347.011 238.369 346.947 238.212 346.734C238.072 346.545 238.116 346.303 238.303 346.157L238.38 346.107L285.975 320.646L254.277 300.28L173.414 281.213C173.322 281.191 173.239 281.149 173.173 281.092L173.114 281.029L164.047 269.575L103.696 271.827C103.431 271.837 103.202 271.68 103.149 271.466L103.138 271.392C103.127 271.167 103.311 270.972 103.563 270.927L103.649 270.918L164.301 268.656Z"
          fill="#253368"/>
    <path d="M133.256 290.036C133.479 289.919 133.764 289.959 133.933 290.12L133.991 290.185L145.828 306.589L171.963 326.875C172.157 327.026 172.19 327.27 172.056 327.452L171.997 327.518C171.82 327.683 171.533 327.711 171.319 327.597L171.242 327.547L145.053 307.218L144.958 307.12L133.08 290.661C132.925 290.447 133.004 290.167 133.256 290.036Z"
          fill="#253368"/>
    <path d="M176.405 296.94C176.491 296.726 176.746 296.602 177 296.639L177.084 296.657L218.522 308.759L252.548 324.507C252.808 324.627 252.903 324.903 252.762 325.124C252.635 325.323 252.359 325.408 252.116 325.336L252.037 325.306L218.092 309.589L176.737 297.517C176.457 297.436 176.309 297.177 176.405 296.94Z"
          fill="#253368"/>
    <path fill-rule="evenodd" clip-rule="evenodd"
          d="M231.012 188.304C235.009 190.096 236.8 193.987 235.079 197.134L203.4 256.549C200.108 262.035 190.737 266.867 182.987 262.071C175.832 258.86 172.892 251.752 176.48 246.339L220.329 190.182C222.514 187.384 227.146 186.57 231.012 188.304Z"
          fill="#FFC999"/>
    <path fill-rule="evenodd" clip-rule="evenodd"
          d="M100.837 331.117C105.26 330.161 108.1 326.693 107.284 323.245L91.5154 256.685C89.805 250.615 81.9912 247.041 74.1409 248.737C66.2217 250.45 61.3605 256.853 63.3829 262.91L91.0375 331.043C92.4078 334.241 96.5592 332.042 100.837 331.117Z"
          fill="#FFC999"/>
    <path fill-rule="evenodd" clip-rule="evenodd"
          d="M73.5089 268.23L75.0843 268.5C82.8503 269.834 90.4182 265.561 91.9852 258.957L106.147 199.319C107.714 192.716 102.69 186.282 94.9224 184.948L93.3484 184.677C85.5823 183.344 78.0145 187.617 76.4475 194.22L62.2871 253.857C60.7173 260.462 65.7429 266.896 73.5089 268.23Z"
          fill="#FFC999"/>
    <path fill-rule="evenodd" clip-rule="evenodd"
          d="M70.5342 219.123L77.0705 191.591C78.6473 184.955 86.6958 180.684 94.9565 182.103C103.217 183.521 108.686 190.112 107.11 196.749L100.636 224.019L70.5342 219.123Z"
          fill="#597EF7"/>
    <path d="M70.393 217.928L100.881 223.885C101.116 223.931 101.263 224.13 101.209 224.33C101.161 224.508 100.97 224.627 100.763 224.619L100.685 224.609L70.1972 218.652C69.9619 218.606 69.815 218.407 69.8691 218.207C69.9172 218.029 70.1078 217.91 70.3148 217.919L70.393 217.928Z"
          fill="#4E5C93"/>
    <path fill-rule="evenodd" clip-rule="evenodd"
          d="M128.661 347.171C131.238 346.336 126.667 336.661 125.244 334.681C123.346 332.038 105.875 323.826 105.875 323.826L102.806 312.154L86.7129 317.733C86.7129 317.733 89.1877 330.608 93.7228 337.245C97.1069 342.197 102.863 341.137 111.048 347.696C114.837 350.731 119.579 353.943 121.51 351.521C121.89 351.043 125.83 351.921 125.324 348.961C125.324 348.961 126.663 349.849 127.925 348.952C129.02 348.171 128.661 347.171 128.661 347.171Z"
          fill="#FFC999"/>
    <path d="M107.575 340.095C107.706 339.86 108.036 339.759 108.313 339.87L108.627 340.002L108.741 340.052C109.074 340.2 109.444 340.373 109.843 340.571C110.98 341.136 112.118 341.789 113.183 342.522C114.148 343.187 115.006 343.888 115.73 344.623L122.061 351.058C122.257 351.258 122.226 351.555 121.991 351.723C121.756 351.89 121.407 351.863 121.21 351.663L114.879 345.228C114.205 344.543 113.397 343.884 112.484 343.255C111.468 342.554 110.375 341.927 109.283 341.385C108.997 341.242 108.726 341.114 108.474 340.999L107.952 340.769C107.905 340.749 107.867 340.733 107.84 340.723C107.563 340.612 107.444 340.331 107.575 340.095Z"
          fill="#DD936F"/>
    <path d="M111.906 335.85C112.095 335.645 112.444 335.609 112.685 335.77L113.05 336.02L113.504 336.34C113.662 336.454 113.828 336.574 114 336.701C114.982 337.423 115.964 338.202 116.882 339.008C117.932 339.93 118.831 340.829 119.534 341.688L120.089 342.36C120.282 342.592 120.484 342.832 120.693 343.08L121.352 343.855C121.882 344.475 122.435 345.113 122.997 345.756L124.607 347.582L125.391 348.458C125.577 348.665 125.531 348.961 125.288 349.119C125.045 349.277 124.697 349.238 124.51 349.032L123.488 347.886L123.243 347.609C122.483 346.75 121.722 345.882 120.995 345.038L120.114 344.009L119.482 343.261C119.177 342.898 118.891 342.553 118.624 342.226C117.959 341.414 117.097 340.552 116.085 339.664C115.192 338.88 114.233 338.119 113.274 337.413L112.79 337.062L112.102 336.58C112.06 336.551 112.026 336.529 112.001 336.512C111.76 336.352 111.718 336.055 111.906 335.85Z"
          fill="#DD936F"/>
    <path d="M115.775 332.936C115.947 332.721 116.291 332.664 116.545 332.81L116.909 333.029C117.194 333.205 117.51 333.407 117.851 333.634C118.824 334.283 119.796 335.002 120.706 335.773C122.469 337.268 123.781 338.776 124.455 340.255C124.782 340.974 125.146 341.68 125.539 342.369C126.171 343.476 126.848 344.489 127.524 345.385C127.76 345.698 127.979 345.974 128.175 346.209L128.414 346.49C128.6 346.697 128.554 346.992 128.311 347.151C128.068 347.309 127.72 347.269 127.534 347.063L127.34 346.838L127.269 346.753C127.064 346.507 126.836 346.219 126.591 345.894C125.892 344.968 125.194 343.923 124.542 342.781C124.135 342.069 123.76 341.34 123.421 340.596C122.812 339.26 121.586 337.851 119.923 336.441C119.047 335.698 118.107 335.003 117.167 334.376L116.692 334.065C116.616 334.017 116.542 333.97 116.47 333.924L115.965 333.615C115.949 333.606 115.934 333.598 115.923 333.591C115.669 333.445 115.603 333.152 115.775 332.936Z"
          fill="#DD936F"/>
    <path fill-rule="evenodd" clip-rule="evenodd"
          d="M218.699 189.702L222.968 170.327C222.968 170.327 234.804 148.018 240.083 148.903C245.048 150.291 234.953 157.22 233.487 163.371C237.993 162.728 236.576 168.633 236.576 168.633C236.576 168.633 240.175 168.228 239.73 172.982C243.271 174.398 241.186 179.981 241.186 179.981C241.186 179.981 239.349 190.886 232.945 200.918C232.945 200.918 219.638 206.429 218.699 189.702Z"
          fill="#FFC999"/>
    <path fill-rule="evenodd" clip-rule="evenodd"
          d="M218.159 188.139C218.159 188.139 218.45 179.092 218.906 174.458C219.362 169.824 216.177 161.781 220.329 163.644C223.118 164.896 223.212 169.827 223.522 173.445C223.834 177.06 231.647 185.058 227.204 191.394C224.202 195.675 218.818 196.643 218.159 188.139Z"
          fill="#FFC999"/>
    <path d="M233.052 163.08C233.241 162.876 233.59 162.84 233.831 163.001C234.072 163.161 234.114 163.458 233.925 163.662L233.712 163.899L233.295 164.379C233.245 164.437 233.195 164.497 233.143 164.558C232.553 165.258 231.963 166.005 231.414 166.77C230.871 167.524 230.398 168.254 230.012 168.943C228.58 171.506 228.559 173.085 230.143 173.502C230.436 173.579 230.6 173.843 230.509 174.092C230.419 174.34 230.108 174.48 229.815 174.403C227.292 173.739 227.321 171.562 229.011 168.538C229.414 167.816 229.906 167.058 230.468 166.278C231.033 165.492 231.637 164.726 232.242 164.009L232.547 163.65L233.023 163.112C233.034 163.1 233.044 163.09 233.052 163.08Z"
          fill="#DD936F"/>
    <path d="M236.573 168.519C236.782 168.71 236.769 169.008 236.545 169.185L236.311 169.375L236.012 169.625C235.907 169.713 235.797 169.807 235.683 169.905C235.034 170.468 234.384 171.068 233.779 171.682C233.186 172.283 232.669 172.863 232.248 173.411C230.905 175.158 230.729 176.267 231.779 176.704C232.001 176.797 232.23 176.841 232.469 176.842C233.321 176.846 234.33 176.295 235.357 175.358C235.732 175.016 236.082 174.647 236.396 174.279L236.635 173.99C236.7 173.908 236.75 173.842 236.784 173.796C236.945 173.575 237.287 173.507 237.547 173.644C237.808 173.781 237.887 174.072 237.726 174.293L237.623 174.429C237.54 174.536 237.43 174.672 237.294 174.832C236.955 175.23 236.577 175.628 236.168 176.001C234.948 177.114 233.71 177.79 232.464 177.785C232.059 177.784 231.665 177.707 231.291 177.551C229.387 176.758 229.656 175.059 231.32 172.895C231.767 172.313 232.31 171.703 232.929 171.076C233.555 170.442 234.224 169.823 234.893 169.244L235.389 168.822L235.79 168.495C236.014 168.318 236.365 168.328 236.573 168.519Z"
          fill="#DD936F"/>
    <path d="M238.422 172.964C238.719 172.9 239.021 173.052 239.097 173.304C239.173 173.556 238.994 173.813 238.698 173.878C237.983 174.033 237.12 174.665 236.133 175.867C234.063 178.389 233.75 179.926 234.476 180.212C235.229 180.509 236.856 179.712 237.8 178.293C238.14 177.783 239.051 178.152 238.799 178.697C237.469 181.581 235.728 183.453 233.274 185.026C232.943 185.238 232.602 185.444 232.214 185.668L230.613 186.563C227.368 188.38 226.147 189.769 225.752 193.021C225.72 193.28 225.448 193.469 225.143 193.442C224.839 193.415 224.617 193.183 224.649 192.924C225.072 189.446 226.431 187.821 229.731 185.93L231.3 185.054L231.862 184.73C232.127 184.574 232.37 184.425 232.606 184.273C234.041 183.353 235.209 182.331 236.189 181.031L236.316 180.858L236.21 180.905C235.481 181.211 234.75 181.303 234.146 181.116L234.009 181.068C232.367 180.421 232.805 178.276 235.224 175.327C236.348 173.958 237.402 173.187 238.422 172.964Z"
          fill="#DD936F"/>
    <path d="M223.036 168.459C223.307 168.417 223.567 168.551 223.656 168.765L223.679 168.84L225.097 175.551L225.175 175.644C225.297 175.791 225.432 175.961 225.578 176.151C225.991 176.694 226.405 177.299 226.791 177.951C227.903 179.826 228.572 181.708 228.573 183.487C228.573 184.492 228.355 185.436 227.896 186.304C227.77 186.541 227.442 186.647 227.163 186.54C226.884 186.433 226.759 186.154 226.885 185.916C227.277 185.177 227.464 184.364 227.464 183.488C227.463 181.879 226.841 180.13 225.801 178.375C225.507 177.88 225.197 177.412 224.883 176.981L224.647 176.664C224.412 176.356 224.232 176.138 224.132 176.026C224.097 175.987 224.069 175.943 224.05 175.897L224.028 175.825L222.588 169.006C222.534 168.75 222.734 168.505 223.036 168.459Z"
          fill="#DD936F"/>
    <path d="M161.403 261.926C161.698 261.917 161.946 262.113 161.957 262.364C161.967 262.59 161.781 262.783 161.529 262.827L161.443 262.835L104.991 264.629C104.695 264.638 104.447 264.443 104.436 264.192C104.426 263.966 104.612 263.772 104.864 263.729L104.951 263.72L161.403 261.926Z"
          fill="#253368"/>
    <path fill-rule="evenodd" clip-rule="evenodd"
          d="M82.145 70.4153L78.9777 74.1559L79.739 78.4877C79.8874 79.3319 80.8126 79.9141 81.8054 79.7879L85.6924 79.2939C86.6852 79.1678 87.3698 78.381 87.2214 77.5368L86.4601 73.205L82.145 70.4153Z"
          fill="#597EF7"/>
    <path fill-rule="evenodd" clip-rule="evenodd"
          d="M82.7685 73.0346C82.1479 73.1135 81.5698 72.7498 81.477 72.222L75.9907 41.0059C75.8979 40.4784 76.3257 39.9866 76.9463 39.9078C77.567 39.8289 78.1451 40.1928 78.2378 40.7204L83.7241 71.9364C83.8169 72.4642 83.3892 72.9558 82.7685 73.0346Z"
          fill="#253368"/>
    <path fill-rule="evenodd" clip-rule="evenodd"
          d="M23.5234 58.5289L26.1173 73.2876C26.4494 75.1768 31.035 75.8564 31.035 75.8564C46.0144 77.5743 61.2597 75.6369 74.9938 70.2699C74.9938 70.2699 79.1454 68.48 78.8134 66.5908L76.2195 51.8321C76.2425 51.9632 50.7274 60.0504 50.7274 60.0504C50.7274 60.0504 23.5465 58.66 23.5234 58.5289Z"
          fill="#597EF7"/>
    <path fill-rule="evenodd" clip-rule="evenodd"
          d="M2.01708 55.6483L51.032 61.0259L95.3307 43.7896L46.294 38.2884L2.01708 55.6483Z" fill="#E4EBF7"/>
    <path fill-rule="evenodd" clip-rule="evenodd"
          d="M2.01709 55.6483L2.20391 56.7113C2.32428 57.3961 2.96571 57.9296 3.77353 58.0164L51.4101 63.1375L51.032 61.0259L2.01709 55.6483Z"
          fill="#253368"/>
    <path fill-rule="evenodd" clip-rule="evenodd"
          d="M51.4007 63.1237L94.4305 46.1826C95.1625 45.8942 95.5839 45.2302 95.4646 44.5515L95.3306 43.7895L51.032 61.0258L51.4007 63.1237Z"
          fill="#253368"/>
    <path fill-rule="evenodd" clip-rule="evenodd"
          d="M48.2016 50.6083C46.2875 50.8515 44.6298 50.4463 44.4992 49.7033C44.3686 48.96 45.8145 48.1603 47.7286 47.9171C49.6429 47.6738 51.3004 48.079 51.4311 48.8223C51.5617 49.5654 50.1159 50.365 48.2016 50.6083Z"
          fill="white"/>
    <path fill-rule="evenodd" clip-rule="evenodd"
          d="M48.1322 50.2115C47.679 50.2691 47.2108 50.0885 46.9734 49.7286C46.6662 49.2632 46.8609 48.6745 47.4082 48.4135L67.1014 39.018C67.3099 38.9184 67.5504 38.8775 67.7881 38.9008L77.2327 39.8326C77.856 39.894 78.3025 40.3735 78.2305 40.9035C78.158 41.4335 77.594 41.8124 76.9711 41.7517L67.8921 40.8559L48.5199 50.0984C48.3962 50.1577 48.2648 50.1947 48.1322 50.2115Z"
          fill="#597EF7"/>
    <path fill-rule="evenodd" clip-rule="evenodd"
          d="M50.8412 48.8903C50.9362 49.4306 49.7252 50.0325 48.136 50.2344C46.5471 50.4364 45.182 50.1619 45.0871 49.6215C44.992 49.081 46.2031 48.4791 47.792 48.2772C49.3812 48.0752 50.7462 48.3497 50.8412 48.8903Z"
          fill="#597EF7"/>
    <defs>
        <clipPath id="clip0_409_140">
            <rect width="20" height="20" fill="white" transform="translate(292 53)"/>
        </clipPath>
        <clipPath id="clip1_409_140">
            <rect width="20" height="20" fill="white" transform="translate(292 89)"/>
        </clipPath>
        <clipPath id="clip2_409_140">
            <rect width="20" height="20" fill="white" transform="translate(292 125.5)"/>
        </clipPath>
    </defs>
</svg>
