<svg width="558" height="418" viewBox="0 0 558 418" fill="none" xmlns="http://www.w3.org/2000/svg">
    <ellipse cx="285.216" cy="182.66" rx="161.919" ry="166.241" fill="#5E6CFF"/>
    <path fill-rule="evenodd" clip-rule="evenodd"
          d="M205.386 311.005C212.06 302.782 211.115 290.769 203.238 283.69L172.016 255.63C162.742 247.295 148.377 248.422 140.516 258.102C132.702 267.724 134.473 281.917 144.41 289.326L178.065 314.417C186.613 320.79 198.667 319.285 205.386 311.005Z"
          fill="#4E5C93"/>
    <path fill-rule="evenodd" clip-rule="evenodd"
          d="M139.448 333.155C149.33 329.343 154.488 318.454 151.179 308.393L138.063 268.517C134.167 256.671 121.148 250.5 109.512 254.985C97.9454 259.442 92.4168 272.633 97.3487 284.004L114.053 322.517C118.295 332.299 129.5 336.992 139.448 333.155Z"
          fill="#4E5C93"/>
    <path fill-rule="evenodd" clip-rule="evenodd"
          d="M136.82 348.223L127.503 360.698C127.503 360.698 132.368 365.769 138.205 368.575C148.192 373.374 144.243 374.201 154.76 382.1C164.022 389.059 173.397 388.242 170.389 383.484C166.242 376.922 163.556 371.518 161.883 367.667C160.267 363.948 159.908 359.818 160.784 355.861C162.155 349.676 163.627 339.811 160.129 336.293C151.884 328.002 136.82 348.223 136.82 348.223Z"
          fill="#E4EBF7"/>
    <path fill-rule="evenodd" clip-rule="evenodd"
          d="M168.953 382.926C168.953 382.926 168.088 384.359 161.061 383.135C152.875 381.71 145.164 371.93 140.319 366.76C132.858 358.795 130.981 360.056 130.09 357.769C127.095 359.22 127.224 362.543 127.224 362.543C127.224 362.543 128.508 364.747 135.352 368.881C142.195 373.015 140.982 374.798 148.874 381.048C159.993 389.852 168.043 390.165 170.006 387.979C172.476 385.23 171.035 382.609 168.953 382.926Z"
          fill="#A3B5D6"/>
    <path fill-rule="evenodd" clip-rule="evenodd"
          d="M201.945 284.154C192.922 277.408 180.087 279.621 173.849 289.002C161.868 307.021 144.817 332.677 144.817 332.677C144.817 332.677 144.817 332.677 144.816 332.677C140.325 333.991 136.539 340.231 141.464 345.423C150.85 355.316 161.11 359.881 166.417 359.87C171.724 359.859 173.414 351.092 173.415 351.089L173.823 350.448C173.823 350.448 191.968 328.496 205.308 312.391C212.467 303.749 210.932 290.874 201.945 284.154Z"
          fill="#4E5C93"/>
    <path fill-rule="evenodd" clip-rule="evenodd"
          d="M166.092 234.296C166.092 234.296 169.887 258.217 168.898 267.668C167.91 277.12 144.905 289.888 130.36 290.343C122.555 290.588 106.479 293.072 97.6094 282.838C88.7398 272.603 89.8943 251.2 91.9084 244.965C93.3601 240.471 95.3354 234.69 95.3354 234.69C95.3354 234.69 159.675 234.497 166.092 234.296Z"
          fill="#4E5C93"/>
    <path d="M159.425 270.188C159.514 269.997 159.74 269.915 159.93 270.004C160.12 270.093 160.202 270.319 160.114 270.509L160.065 270.607C159.972 270.789 159.812 271.063 159.575 271.418C159.107 272.119 158.492 272.896 157.71 273.731C155.489 276.105 152.384 278.473 148.249 280.679C146.948 281.373 145.561 282.041 144.085 282.681C143.892 282.764 143.669 282.675 143.585 282.483C143.502 282.29 143.59 282.067 143.783 281.983C145.24 281.352 146.609 280.692 147.891 280.008C151.953 277.841 154.992 275.524 157.155 273.212C157.908 272.407 158.498 271.662 158.943 270.996C159.066 270.811 159.17 270.644 159.257 270.495L159.377 270.282C159.401 270.237 159.416 270.206 159.425 270.188Z"
          fill="#253368"/>
    <path d="M142.981 251.149C143.184 251.096 143.392 251.217 143.445 251.42L143.533 251.772L143.641 252.234C143.667 252.344 143.693 252.46 143.72 252.58L143.761 252.765C143.996 253.839 144.231 255.053 144.451 256.385C145.442 262.393 145.787 268.585 145.105 274.377C144.803 276.943 144.302 279.353 143.584 281.582L143.476 281.908L152.428 310.895C152.485 311.079 152.395 311.273 152.225 311.352L152.177 311.371C151.993 311.427 151.799 311.338 151.72 311.168L151.702 311.12L142.714 282.016C142.691 281.94 142.692 281.858 142.717 281.782C143.496 279.483 144.034 276.974 144.35 274.288C145.023 268.577 144.681 262.452 143.701 256.508C143.505 255.322 143.297 254.23 143.088 253.25L143.018 252.928C142.964 252.68 142.912 252.453 142.864 252.246L142.729 251.689C142.721 251.658 142.715 251.632 142.71 251.613C142.657 251.41 142.778 251.202 142.981 251.149Z"
          fill="#253368"/>
    <path d="M93.1618 243.126C93.238 242.93 93.4583 242.833 93.6539 242.91C106.341 247.855 118.633 250.316 130.362 250.715C139.347 251.021 147.43 250.11 154.441 248.403C156.568 247.885 158.435 247.33 160.027 246.776L160.43 246.634C160.754 246.517 161.049 246.407 161.314 246.304L161.707 246.147C161.82 246.101 161.901 246.066 161.951 246.044C162.143 245.959 162.367 246.045 162.452 246.237C162.538 246.429 162.451 246.653 162.259 246.739L162.128 246.795L161.749 246.949L161.424 247.076C161.084 247.206 160.701 247.346 160.277 247.494C158.663 248.056 156.772 248.617 154.621 249.141C147.544 250.864 139.393 251.783 130.337 251.475C118.523 251.073 106.146 248.595 93.3778 243.618C93.1823 243.541 93.0856 243.321 93.1618 243.126Z"
          fill="#253368"/>
    <path d="M137.558 235.238C137.751 235.238 137.909 235.382 137.934 235.567L137.937 235.619L137.898 248.038C137.897 248.248 137.726 248.418 137.517 248.417C137.324 248.416 137.166 248.273 137.141 248.087L137.138 248.036L137.177 235.617C137.178 235.407 137.349 235.237 137.558 235.238Z"
          fill="#253368"/>
    <path d="M165.767 233.926C165.977 233.92 166.152 234.086 166.157 234.295C166.162 234.488 166.024 234.651 165.839 234.681L165.788 234.686L92.8358 236.666C92.626 236.671 92.4513 236.506 92.4454 236.296C92.4404 236.104 92.579 235.941 92.7637 235.911L92.8152 235.906L165.767 233.926Z"
          fill="#253368"/>
    <path fill-rule="evenodd" clip-rule="evenodd"
          d="M143.596 391.269L146.703 406.525C146.703 406.525 153.725 406.272 159.704 403.784C169.934 399.527 167.922 403.024 180.818 400.436C192.177 398.155 197.808 390.617 192.255 389.693C184.599 388.419 178.777 386.826 174.79 385.511C170.94 384.241 167.619 381.76 165.249 378.47C161.546 373.33 155.166 365.664 150.211 365.933C138.536 366.567 143.596 391.269 143.596 391.269Z"
          fill="#E4EBF7"/>
    <path fill-rule="evenodd" clip-rule="evenodd"
          d="M190.883 390.394C190.883 390.394 191.376 391.993 185.785 396.422C179.272 401.581 166.841 400.825 159.758 400.997C148.846 401.264 148.538 403.504 146.239 402.646C145.327 405.846 147.893 407.962 147.893 407.962C147.893 407.962 150.393 408.471 158.034 406.116C165.674 403.762 166.197 405.854 176.114 404.126C190.086 401.69 195.68 395.892 195.355 392.972C194.947 389.299 192.034 388.629 190.883 390.394Z"
          fill="#A3B5D6"/>
    <path fill-rule="evenodd" clip-rule="evenodd"
          d="M128.539 299.642C117.72 302.781 111.757 314.361 115.489 324.99C122.657 345.407 132.869 374.47 132.869 374.47V374.471C131.212 378.847 133.914 385.627 141.024 384.823C154.576 383.288 164.399 377.847 167.586 373.604C170.774 369.361 164.793 362.732 164.791 362.729L164.525 362.018C164.525 362.018 157.928 334.312 153.106 313.963C150.519 303.043 139.317 296.514 128.539 299.642Z"
          fill="#4E5C93"/>
    <path fill-rule="evenodd" clip-rule="evenodd"
          d="M107.223 129.229C107.223 129.229 104.883 136.295 108.953 138.428C112.53 140.301 116.018 139.697 116.436 134.775C116.854 129.852 115.115 116.373 111.906 116.808C108.697 117.243 107.223 129.229 107.223 129.229Z"
          fill="#4A3D39"/>
    <path fill-rule="evenodd" clip-rule="evenodd"
          d="M139.222 130.593L138.966 144.045C138.82 151.715 132.723 157.942 125.058 158.251C116.623 158.591 109.683 151.679 109.989 143.243L110.492 129.379L139.222 130.593Z"
          fill="#9E7D6C"/>
    <path fill-rule="evenodd" clip-rule="evenodd"
          d="M125.137 143.502C125.137 143.502 133.259 144.414 138.356 141.156C144.475 137.245 142.863 124.266 142.722 120.035C142.475 112.612 139.219 108.674 139.219 108.674C139.219 108.674 135.959 102.417 122.968 102.442C109.976 102.468 109.536 114.533 109.546 120.101C109.558 125.669 110.99 136.238 114.456 139.115C118.639 142.587 125.137 143.502 125.137 143.502Z"
          fill="#B0927B"/>
    <path fill-rule="evenodd" clip-rule="evenodd"
          d="M142.016 115.396C142.016 115.396 147.574 109.818 145.477 105.414C143.38 101.01 139.203 100.554 134.565 101.723C129.928 102.892 111.789 97.7635 109.753 107.573C101.881 116.172 107.633 123.665 107.633 123.665C107.633 123.665 110.888 120.072 112.054 123.086C113.22 126.1 114.132 128.147 115.058 127.217C115.984 126.288 115.137 122.707 116.758 121.079C118.378 119.452 120.382 114.438 119.04 111.034C118.571 108.947 135.971 108.681 139.687 110.297C141.781 111.209 142.016 115.396 142.016 115.396Z"
          fill="#4A3D39"/>
    <path d="M136.156 117.013C138.201 116.625 139.694 116.837 140.701 117.47C141.136 117.744 141.402 118.043 141.533 118.286C141.732 118.656 141.593 119.117 141.224 119.316C140.876 119.503 140.447 119.391 140.232 119.069L140.194 119.007C140.182 118.984 140.092 118.883 139.891 118.757C139.233 118.343 138.129 118.186 136.439 118.506C136.027 118.585 135.629 118.314 135.551 117.901C135.472 117.489 135.743 117.091 136.156 117.013Z"
          fill="#4A3D39"/>
    <path d="M124.274 117.324C125.55 116.958 126.884 116.939 128.127 117.122L128.327 117.153C128.512 117.184 128.655 117.214 128.749 117.238C129.157 117.339 129.405 117.751 129.304 118.158C129.203 118.566 128.791 118.814 128.383 118.713L128.259 118.686C128.17 118.668 128.051 118.647 127.905 118.626C126.859 118.471 125.73 118.488 124.693 118.785C124.379 118.875 124.083 118.989 123.805 119.129C123.43 119.317 122.973 119.166 122.784 118.791C122.596 118.416 122.747 117.959 123.122 117.771C123.487 117.587 123.872 117.439 124.274 117.324Z"
          fill="#4A3D39"/>
    <path d="M133.556 121.111C133.677 121.011 133.856 121.028 133.957 121.149L134.06 121.278L134.187 121.443C134.232 121.502 134.278 121.564 134.326 121.629C134.6 122.003 134.874 122.41 135.131 122.838C135.552 123.542 135.883 124.232 136.088 124.885C136.861 127.335 135.765 128.888 132.326 128.895C132.168 128.895 132.04 128.768 132.04 128.61C132.04 128.453 132.167 128.325 132.325 128.325C135.375 128.319 136.203 127.144 135.545 125.056C135.354 124.451 135.042 123.8 134.642 123.131C134.395 122.719 134.131 122.327 133.866 121.967L133.733 121.788L133.554 121.557C133.538 121.537 133.526 121.523 133.518 121.513C133.417 121.391 133.434 121.212 133.556 121.111Z"
          fill="#7C5B4D"/>
    <path d="M127.767 123.101C127.976 123.101 128.147 123.271 128.147 123.48C128.149 124.51 127.425 125.369 126.496 125.371C125.565 125.373 124.838 124.517 124.835 123.487C124.834 123.277 125.004 123.106 125.214 123.106C125.424 123.105 125.594 123.275 125.595 123.485C125.597 124.121 126.014 124.612 126.494 124.611C126.973 124.61 127.388 124.117 127.387 123.482C127.387 123.272 127.557 123.102 127.767 123.101Z"
          fill="#4A3D39"/>
    <path d="M139.829 123.077C140.039 123.076 140.209 123.246 140.21 123.456C140.213 124.486 139.488 125.346 138.558 125.347C137.628 125.349 136.9 124.493 136.898 123.463C136.898 123.253 137.068 123.082 137.278 123.082C137.488 123.082 137.658 123.251 137.658 123.461C137.66 124.097 138.077 124.588 138.557 124.587C139.036 124.586 139.452 124.093 139.45 123.458C139.449 123.248 139.619 123.077 139.829 123.077Z"
          fill="#4A3D39"/>
    <path fill-rule="evenodd" clip-rule="evenodd"
          d="M139.179 131.877C139.179 131.877 138.887 128.597 134.321 128.32C130.378 128.082 127.868 128.973 126.482 131.76C125.095 134.547 133.615 131.746 133.615 131.746C133.615 131.746 140.345 134.891 139.179 131.877Z"
          fill="#4A3D39"/>
    <path fill-rule="evenodd" clip-rule="evenodd"
          d="M105.663 126.963C106.149 130.107 108.339 132.378 110.555 132.035C112.771 131.692 114.173 128.866 113.687 125.722C113.202 122.579 111.01 120.308 108.795 120.651C106.579 120.994 105.176 123.82 105.663 126.963Z"
          fill="#9E7D6C"/>
    <path d="M113.93 136.436C114.037 136.32 114.217 136.313 114.333 136.42C118.756 140.501 123.09 142.68 127.258 143.295C130.383 143.757 133.191 143.316 135.604 142.3C136.213 142.044 136.748 141.77 137.204 141.496L137.426 141.359L137.615 141.234C137.682 141.188 137.727 141.156 137.747 141.14C137.873 141.044 138.051 141.068 138.147 141.193C138.243 141.318 138.219 141.497 138.093 141.593L137.979 141.675L137.937 141.704C137.813 141.789 137.666 141.884 137.498 141.985C137.019 142.272 136.46 142.559 135.825 142.826C133.321 143.88 130.409 144.337 127.175 143.859C122.889 143.226 118.451 140.995 113.946 136.838C113.831 136.732 113.823 136.551 113.93 136.436Z"
          fill="#7C5B4D"/>
    <path d="M132.084 139.169C132.24 139.155 132.379 139.27 132.394 139.427L132.401 139.539C132.43 140.088 132.387 140.725 132.215 141.339C131.923 142.381 131.314 143.101 130.318 143.302C130.164 143.333 130.013 143.234 129.982 143.079C129.951 142.925 130.051 142.775 130.205 142.743C130.961 142.591 131.427 142.04 131.666 141.186C131.802 140.702 131.848 140.19 131.838 139.736L131.832 139.569C131.83 139.524 131.828 139.494 131.826 139.479C131.812 139.323 131.927 139.184 132.084 139.169Z"
          fill="#7C5B4D"/>
    <path d="M108.916 123.235L109.001 123.237C109.35 123.253 109.817 123.369 110.287 123.672C111.127 124.215 111.63 125.188 111.632 126.653C111.633 126.786 111.542 126.901 111.413 126.931C110.39 127.174 109.946 127.509 109.918 127.885C109.893 128.214 110.164 128.659 110.692 129.175C110.804 129.285 110.806 129.465 110.696 129.578C110.586 129.69 110.406 129.692 110.293 129.582C109.655 128.958 109.309 128.39 109.35 127.842C109.397 127.208 109.949 126.746 111.007 126.448L111.057 126.434L111.053 126.345C110.993 125.298 110.631 124.615 110.06 124.207L109.977 124.151C109.743 124 109.491 123.902 109.239 123.848C109.114 123.821 109.014 123.809 108.951 123.806L108.917 123.805C108.76 123.806 108.632 123.678 108.632 123.521C108.632 123.379 108.735 123.261 108.87 123.239L108.916 123.235Z"
          fill="#7C5B4D"/>
    <path fill-rule="evenodd" clip-rule="evenodd"
          d="M93.4955 237.776C96.5904 239.957 104.597 243.83 125.071 245.011C134.435 245.551 146.335 245.776 156.607 243.208C183.139 236.576 167.11 206.105 167.11 206.105C167.66 198.865 164.965 185.176 164.965 185.176C168.692 166.972 167.182 154.817 167.182 154.817C158.836 148.468 153.415 147.613 141.627 146.91C136.346 146.595 133.219 155.978 127.558 156.088C120.74 156.22 115.963 143.631 109.032 145.631C99.2019 148.468 91.6585 148.886 83.2235 157.028C74.2429 166.055 77.7512 178.711 81.5112 194.692C83.8095 204.456 88.8243 216.063 90.143 222.868C90.143 222.868 87.6044 233.625 93.4955 237.776Z"
          fill="#E4EBF7"/>
    <path fill-rule="evenodd" clip-rule="evenodd"
          d="M208.059 197.87C203.495 205.752 193.377 208.394 185.542 203.749L151.017 183.278C143.298 178.701 140.702 168.762 145.199 160.995C149.761 153.113 159.88 150.471 167.715 155.116L202.24 175.588C209.959 180.164 212.555 190.103 208.059 197.87Z"
          fill="#E4EBF7"/>
    <path fill-rule="evenodd" clip-rule="evenodd"
          d="M220.433 155.512C220.433 155.512 218.246 150.167 223.189 143.601C227.01 138.523 226.14 137.149 227.594 134.001C229.048 130.854 230.762 134.834 229.289 141.132C227.89 145.625 239.512 139.244 242.904 134.02C246.198 128.95 251.683 147.997 231.498 157.012C221.548 161.455 220.433 155.512 220.433 155.512Z"
          fill="#B0927B"/>
    <path d="M242.417 142.398C243.344 140.547 244.186 139.972 244.856 140.231C244.913 140.253 244.957 140.277 244.987 140.3C245.113 140.394 245.14 140.573 245.046 140.699C244.962 140.811 244.812 140.845 244.691 140.784L244.655 140.764C244.56 140.727 244.419 140.745 244.205 140.891C243.851 141.133 243.447 141.648 243.005 142.5L242.926 142.653C241.268 145.959 237.986 147.881 232.711 148.892L232.431 148.945C230.428 149.312 229.106 150.154 228.327 151.326C227.982 151.845 227.763 152.401 227.647 152.963C227.582 153.281 227.557 153.553 227.556 153.757L227.558 153.856C227.568 154.013 227.448 154.148 227.291 154.158C227.15 154.167 227.026 154.071 226.996 153.937L226.988 153.876L226.988 153.859C226.98 153.605 227.004 153.258 227.089 152.848C227.219 152.218 227.464 151.594 227.852 151.01C228.69 149.75 230.08 148.841 232.115 148.425L232.328 148.384C237.518 147.433 240.712 145.637 242.333 142.561L242.417 142.398Z"
          fill="#7C5B4D"/>
    <path d="M243.823 137.602C244.598 137.085 245.321 137.074 245.642 137.687C245.714 137.826 245.66 137.998 245.521 138.071C245.381 138.144 245.209 138.09 245.136 137.951C245.014 137.716 244.671 137.722 244.139 138.076C243.476 138.519 242.743 139.389 242.109 140.552C241.611 141.464 240.829 142.338 239.839 143.164C239.225 143.675 238.569 144.138 237.913 144.545C237.741 144.652 237.578 144.749 237.426 144.836L237.155 144.988C237.101 145.017 237.06 145.038 237.032 145.053C236.892 145.124 236.72 145.069 236.649 144.929C236.577 144.789 236.632 144.617 236.772 144.545L236.938 144.456L237 144.422C237.185 144.319 237.391 144.198 237.613 144.06C238.248 143.667 238.882 143.219 239.474 142.726C240.35 141.994 241.051 141.229 241.513 140.447L241.608 140.279C242.284 139.04 243.075 138.101 243.823 137.602Z"
          fill="#7C5B4D"/>
    <path d="M241.449 137.333C242.929 135.232 243.99 134.626 244.698 134.986C244.772 135.023 244.826 135.066 244.861 135.103C244.968 135.219 244.961 135.399 244.845 135.506C244.73 135.613 244.549 135.606 244.442 135.491C244.448 135.497 244.45 135.499 244.447 135.498L244.44 135.494C244.324 135.435 244.122 135.452 243.79 135.652C243.242 135.982 242.552 136.717 241.717 137.948C241.255 138.63 240.741 139.259 240.185 139.837C239.305 140.751 238.363 141.495 237.421 142.084C237.156 142.249 236.906 142.393 236.675 142.515L236.505 142.603C236.337 142.689 236.216 142.744 236.148 142.773C236.003 142.833 235.836 142.765 235.775 142.62C235.714 142.474 235.783 142.307 235.928 142.247L236.028 142.202C236.071 142.182 236.123 142.157 236.184 142.127L236.248 142.095C236.51 141.962 236.803 141.798 237.119 141.601C238.024 141.035 238.929 140.32 239.774 139.442C240.232 138.966 240.66 138.454 241.052 137.906L241.449 137.333Z"
          fill="#7C5B4D"/>
    <path fill-rule="evenodd" clip-rule="evenodd"
          d="M141.187 149.825C141.187 149.825 140.557 172.589 132.853 190.779C117.167 163.865 109.141 146.676 108.715 146.63L128.027 154.804L141.187 149.825Z"
          fill="white"/>
    <path fill-rule="evenodd" clip-rule="evenodd"
          d="M136.188 158.173L129.403 153.461L121.94 158.679L125.675 164.939L134.286 164.718L136.188 158.173Z"
          fill="#253368"/>
    <path fill-rule="evenodd" clip-rule="evenodd"
          d="M138.25 174.297L134.132 164.636L125.576 164.905L122.892 173.065L132.435 192.131L138.25 174.297Z"
          fill="#253368"/>
    <path fill-rule="evenodd" clip-rule="evenodd"
          d="M140.337 160.484L128.706 153.712L139.718 145.231L141.628 147.027L140.337 160.484Z" fill="white"/>
    <path fill-rule="evenodd" clip-rule="evenodd"
          d="M128.706 153.712L118.957 161.439L108.502 146.637L110.56 144.003L128.706 153.712Z" fill="white"/>
    <path fill-rule="evenodd" clip-rule="evenodd"
          d="M140.774 161.027L129.128 153.484L139.829 144.228L142.81 147.56L140.774 161.027Z" fill="white"/>
    <path d="M139.58 143.941L128.879 153.197C128.688 153.362 128.709 153.666 128.921 153.803L140.568 161.346C140.799 161.496 141.109 161.357 141.15 161.084L143.186 147.617C143.203 147.504 143.169 147.391 143.094 147.306L140.112 143.975C139.974 143.821 139.737 143.805 139.58 143.941ZM139.794 144.76L142.407 147.68L140.487 160.387L129.759 153.44L139.794 144.76Z"
          fill="#E4EBF7"/>
    <path fill-rule="evenodd" clip-rule="evenodd"
          d="M129.128 153.484L117.017 161.675L107.431 146.109L111.238 142.84L129.128 153.484Z" fill="white"/>
    <path d="M129.837 153.464L111.198 142.374L106.938 146.032L116.902 162.212L129.837 153.464ZM111.278 143.306L128.419 153.505L117.133 161.138L107.925 146.186L111.278 143.306Z"
          fill="#E4EBF7"/>
    <path d="M132.597 193.611C132.788 193.589 132.962 193.713 133.008 193.895L133.017 193.946L134.718 208.827L134.831 208.996L134.873 209.06C135.039 209.318 135.223 209.629 135.42 209.994C135.981 211.03 136.54 212.293 137.061 213.792C139.632 221.186 140.355 231.176 138.115 243.988C138.079 244.195 137.882 244.333 137.675 244.297C137.468 244.261 137.33 244.064 137.366 243.857C139.584 231.17 138.871 221.312 136.344 214.042C135.836 212.582 135.293 211.356 134.752 210.356C134.595 210.066 134.448 209.813 134.313 209.597L134.162 209.362C134.109 209.281 134.07 209.226 134.047 209.196C134.017 209.156 133.995 209.11 133.983 209.061L133.974 209.012L132.262 194.032C132.238 193.823 132.388 193.635 132.597 193.611Z"
          fill="#A3B5D6"/>
    <path d="M164.507 177.764C164.698 177.746 164.87 177.873 164.913 178.056L164.921 178.107L167.617 206.364L167.775 206.699L167.93 207.037C168.037 207.274 168.15 207.533 168.269 207.813C168.779 209.012 169.288 210.353 169.764 211.803C171.276 216.416 172.11 221.059 171.912 225.404C171.573 232.806 168.263 238.495 161.291 241.729L160.973 241.875C160.896 241.909 160.786 241.956 160.643 242.015L160.343 242.135C160.081 242.238 159.784 242.347 159.454 242.463C158.138 242.924 156.555 243.384 154.701 243.813C148.767 245.187 141.487 245.937 132.839 245.739C121.594 245.483 108.931 243.629 94.8239 239.856C94.6212 239.802 94.5008 239.593 94.555 239.391C94.6092 239.188 94.8176 239.067 95.0203 239.122C109.069 242.88 121.673 244.724 132.856 244.98C141.441 245.176 148.657 244.432 154.529 243.073C156.356 242.65 157.913 242.198 159.203 241.746L159.572 241.614C159.866 241.506 160.127 241.405 160.354 241.312L160.661 241.181L160.731 241.149C167.595 238.058 170.822 232.587 171.152 225.37C171.346 221.13 170.527 216.572 169.042 212.04C168.573 210.611 168.071 209.291 167.57 208.11L167.399 207.714C167.288 207.46 167.183 207.228 167.086 207.019L166.905 206.639C166.891 206.611 166.881 206.582 166.874 206.552L166.867 206.506L164.164 178.179C164.144 177.97 164.298 177.784 164.507 177.764Z"
          fill="#A3B5D6"/>
    <path d="M106.979 145.82C107.142 145.688 107.381 145.714 107.513 145.878C110.034 149.009 113.258 154.267 117.029 161.23L117.235 161.612C118.305 163.595 119.41 165.696 120.542 167.902C123.181 173.041 125.863 178.523 128.465 184.027L129.464 186.149C129.9 187.08 130.318 187.979 130.717 188.839L131.792 191.175L132.267 192.218L132.277 192.192C133.801 187.871 135.374 182.174 136.963 175.419L137.193 174.434C138.47 168.933 139.687 163.063 140.809 157.169L141.032 155.99C141.319 154.466 141.585 153.018 141.829 151.662L142.181 149.674L142.537 147.607C142.571 147.4 142.767 147.26 142.974 147.295C143.164 147.326 143.297 147.493 143.292 147.68L143.26 147.887L142.888 150.043L142.657 151.347C142.392 152.833 142.098 154.435 141.779 156.131C140.594 162.429 139.298 168.727 137.934 174.606L137.706 175.582C135.995 182.852 134.303 188.906 132.664 193.36C132.547 193.68 132.1 193.695 131.961 193.384L130.979 191.225L130.224 189.585C129.637 188.315 129.005 186.958 128.334 185.53C125.562 179.639 122.689 173.747 119.866 168.249L119.117 166.797C118.372 165.361 117.64 163.973 116.924 162.636L116.164 161.23C112.498 154.484 109.362 149.386 106.921 146.354C106.789 146.191 106.815 145.952 106.979 145.82Z"
          fill="#A3B5D6"/>
    <path d="M120.184 209.875C128.528 208.914 135.722 208.8 141.461 209.192L141.833 209.218C142.434 209.262 142.967 209.308 143.431 209.355L143.754 209.389L144.247 209.448C144.455 209.477 144.601 209.668 144.572 209.876C144.544 210.084 144.352 210.23 144.144 210.201L143.789 210.158L143.545 210.131C143.046 210.078 142.456 210.026 141.778 209.976L141.035 209.925C135.403 209.566 128.386 209.695 120.271 210.63C120.063 210.654 119.874 210.504 119.85 210.296C119.826 210.087 119.976 209.899 120.184 209.875Z"
          fill="#A3B5D6"/>
    <path d="M126.855 202.778L127.306 202.805C128.423 202.864 130.23 202.913 132.541 202.952L133.786 202.971C134.419 202.98 135.065 202.988 135.716 202.995L139.062 203.025C139.272 203.026 139.441 203.197 139.44 203.407C139.439 203.599 139.295 203.757 139.109 203.782L139.039 203.785L137.017 203.769C136.143 203.761 135.268 203.751 134.413 203.74L132.528 203.712C129.862 203.667 127.865 203.609 126.803 203.536C126.594 203.522 126.436 203.34 126.45 203.131C126.463 202.939 126.617 202.79 126.804 202.778L126.855 202.778Z"
          fill="#A3B5D6"/>
    <path fill-rule="evenodd" clip-rule="evenodd"
          d="M106.025 159.32L127.689 188.28C133.076 195.481 131.644 205.68 124.482 211.121C117.246 216.619 106.915 215.169 101.471 207.891L79.8086 178.931"
          fill="#E4EBF7"/>
    <path fill-rule="evenodd" clip-rule="evenodd"
          d="M172.028 173.309C172.028 173.309 160.147 178.548 155.524 174.566C151.338 170.959 155.199 166.877 155.199 166.877C155.199 166.877 158.781 160.676 163.881 157.07C167.224 154.708 172.908 149.27 174.577 150.656C176.753 152.463 170.034 157.075 170.466 159.087C171.344 163.164 182.679 157.021 185.051 157.011C189.688 156.993 186.326 167.133 172.028 173.309Z"
          fill="#B0927B"/>
    <path d="M185.573 158.873C185.698 158.776 185.877 158.799 185.973 158.923C186.07 159.047 186.048 159.226 185.923 159.323C184.988 160.05 183.955 160.707 182.84 161.299C181.016 162.266 179.065 163.014 177.114 163.57C176.528 163.737 175.979 163.876 175.475 163.99L175.227 164.044C175.077 164.077 174.939 164.105 174.815 164.129L174.504 164.186C174.348 164.211 174.202 164.106 174.177 163.95C174.151 163.795 174.257 163.648 174.412 163.623L174.591 163.591C174.702 163.57 174.827 163.546 174.965 163.517L175.107 163.487C175.665 163.367 176.287 163.213 176.957 163.022C178.873 162.476 180.788 161.742 182.573 160.795C183.66 160.219 184.665 159.579 185.573 158.873Z"
          fill="#7C5B4D"/>
    <path d="M185.299 162.095C185.419 161.993 185.599 162.007 185.701 162.127C185.803 162.247 185.789 162.427 185.669 162.529L185.598 162.588C185.526 162.646 185.424 162.726 185.29 162.826L185.012 163.03C184.767 163.206 184.493 163.394 184.188 163.591C182.973 164.379 181.528 165.167 179.857 165.901C178.171 166.643 176.344 167.289 174.378 167.813C174.226 167.854 174.07 167.763 174.029 167.611C173.989 167.459 174.079 167.303 174.231 167.263C176.168 166.746 177.968 166.109 179.628 165.379C181.27 164.658 182.687 163.885 183.878 163.113C184.234 162.882 184.547 162.665 184.817 162.467L185.085 162.266C185.187 162.187 185.259 162.129 185.299 162.095Z"
          fill="#7C5B4D"/>
    <path d="M181.478 166.921C181.61 166.846 181.778 166.893 181.853 167.025C181.928 167.158 181.881 167.326 181.749 167.4C179.43 168.71 177.335 169.671 175.497 170.338C174.852 170.572 174.285 170.753 173.8 170.886L173.454 170.977L173.198 171.036C173.049 171.065 172.904 170.968 172.874 170.819C172.845 170.669 172.942 170.524 173.092 170.495L173.237 170.463C173.339 170.439 173.479 170.403 173.654 170.355C174.125 170.225 174.678 170.049 175.309 169.82C177.118 169.164 179.186 168.215 181.478 166.921Z"
          fill="#4E5C93"/>
    <path fill-rule="evenodd" clip-rule="evenodd"
          d="M220.978 150.707L231.06 158.126C234.013 160.3 234.692 164.434 232.586 167.437L209.389 200.54C203.841 207.679 193.556 208.969 186.417 203.421C179.409 197.976 178.037 187.965 183.237 180.847C183.431 180.58 183.652 180.331 183.883 180.096L212.17 151.405C214.525 149.016 218.276 148.719 220.978 150.707Z"
          fill="#E4EBF7"/>
    <path fill-rule="evenodd" clip-rule="evenodd"
          d="M107.562 187.008C107.674 186.927 107.792 186.852 107.911 186.781L149.534 162.019C151.396 160.91 153.8 161.441 155.023 163.229L165.713 178.851C166.946 180.653 166.552 183.107 164.816 184.433L126.456 213.747C119.04 218.918 108.836 217.097 103.665 209.679"
          fill="#E4EBF7"/>
    <path d="M148.58 161.692C150.574 160.506 153.136 161.038 154.495 162.898L154.577 163.014L165.267 178.637C166.587 180.566 166.2 183.179 164.4 184.647L164.288 184.735L125.914 214.059C118.325 219.349 107.884 217.486 102.594 209.897C102.474 209.724 102.516 209.488 102.688 209.368C102.86 209.248 103.097 209.29 103.217 209.462C108.217 216.635 118.036 218.45 125.248 213.594L125.466 213.445L163.826 184.131C165.366 182.954 165.742 180.799 164.712 179.176L164.639 179.066L153.949 163.443C152.864 161.857 150.755 161.362 149.082 162.28L148.969 162.345L107.346 187.108C107.226 187.179 107.12 187.248 107.023 187.317C106.853 187.439 106.615 187.4 106.493 187.229C106.371 187.059 106.41 186.821 106.581 186.699C106.658 186.644 106.738 186.59 106.824 186.536L106.957 186.455L148.58 161.692Z"
          fill="#A3B5D6"/>
    <path fill-rule="evenodd" clip-rule="evenodd"
          d="M402.681 188.429L396.681 171.644C396.681 171.644 387.899 158.329 385.16 159.402C382.645 160.77 388.82 164.298 390.276 168.139C387.786 168.151 389.189 171.838 389.189 171.838C389.189 171.838 387.213 171.916 387.969 174.951C386.222 176.203 387.948 179.619 387.948 179.619C387.948 179.619 392.312 188.633 396.843 194.519C396.843 194.519 403.997 199.344 402.681 188.429Z"
          fill="#FFC999"/>
    <path fill-rule="evenodd" clip-rule="evenodd"
          d="M401.202 182.716C401.202 182.716 400.061 176.888 399.312 173.933C398.563 170.978 399.398 165.469 397.371 167.069C396.009 168.144 396.496 171.344 396.723 173.714C396.949 176.084 393.623 182 396.698 185.679C398.776 188.165 401.772 188.282 401.202 182.716Z"
          fill="#FFC999"/>
    <path d="M390.028 167.911C389.905 168.051 389.916 168.266 390.052 168.393L390.206 168.539C390.331 168.66 390.47 168.797 390.62 168.949C391.048 169.385 391.476 169.851 391.875 170.328C392.285 170.818 392.64 171.292 392.924 171.738C393.787 173.093 393.887 173.972 393.159 174.351C392.996 174.436 392.93 174.642 393.014 174.809C393.097 174.977 393.297 175.044 393.461 174.959C394.681 174.323 394.532 173.017 393.481 171.366C393.179 170.892 392.807 170.395 392.38 169.884C391.968 169.392 391.528 168.913 391.088 168.465L390.866 168.242L390.498 167.887C390.362 167.761 390.151 167.772 390.028 167.911Z"
          fill="#DD936F"/>
    <path d="M389.153 171.747C389.053 171.904 389.096 172.116 389.25 172.219L389.407 172.327C389.534 172.416 389.676 172.518 389.83 172.632C390.267 172.956 390.705 173.305 391.112 173.664C391.596 174.091 392.003 174.504 392.308 174.889C392.961 175.712 393.062 176.258 392.626 176.581C392.383 176.76 392.086 176.791 391.721 176.683C391.347 176.572 390.931 176.323 390.503 175.978C390.286 175.802 390.081 175.613 389.894 175.424L389.729 175.253C389.701 175.222 389.678 175.197 389.662 175.178C389.54 175.037 389.33 175.025 389.192 175.15C389.055 175.275 389.043 175.49 389.165 175.631L389.243 175.718C389.292 175.771 389.353 175.836 389.427 175.91C389.63 176.115 389.854 176.32 390.091 176.513C390.58 176.908 391.066 177.198 391.536 177.337C392.084 177.499 392.59 177.448 393.015 177.134C393.864 176.505 393.685 175.545 392.824 174.459C392.491 174.039 392.057 173.599 391.546 173.148C391.123 172.774 390.671 172.414 390.219 172.079L389.991 171.912L389.613 171.648C389.46 171.545 389.253 171.589 389.153 171.747Z"
          fill="#DD936F"/>
    <path d="M388.672 174.785C388.489 174.769 388.329 174.909 388.314 175.097C388.299 175.284 388.435 175.449 388.618 175.464C389.01 175.497 389.536 175.82 390.192 176.499C391.566 177.923 391.895 178.869 391.559 179.107C391.203 179.359 390.259 179.004 389.607 178.186C389.345 177.858 388.851 178.216 389.065 178.578C389.771 179.774 390.553 180.663 391.446 181.347L391.627 181.483C392.184 181.894 392.604 182.125 393.555 182.558L394.232 182.861C396.261 183.762 397.053 184.512 397.625 186.603C397.675 186.785 397.859 186.89 398.036 186.839C398.212 186.789 398.315 186.6 398.266 186.419C397.648 184.163 396.742 183.26 394.672 182.315L393.701 181.878C392.792 181.46 392.423 181.243 391.844 180.8C391.491 180.53 391.156 180.225 390.837 179.875L390.759 179.788L390.834 179.808C391.219 179.902 391.581 179.879 391.863 179.716L391.938 179.668C392.772 179.077 392.297 177.711 390.665 176.02C389.907 175.236 389.252 174.833 388.672 174.785Z"
          fill="#DD936F"/>
    <path d="M396.441 170.411C396.276 170.41 396.138 170.532 396.111 170.694L396.106 170.749L396.075 175.22L395.971 175.447L395.933 175.534C395.802 175.838 395.672 176.177 395.55 176.543C395.176 177.668 394.962 178.8 394.993 179.866C395.022 180.852 395.261 181.731 395.747 182.469C395.85 182.625 396.057 182.666 396.209 182.561C396.361 182.455 396.401 182.243 396.298 182.087C395.888 181.465 395.683 180.71 395.658 179.846C395.63 178.872 395.829 177.817 396.179 176.763C396.272 176.486 396.369 176.225 396.468 175.985L396.542 175.809C396.591 175.695 396.632 175.604 396.663 175.538L396.702 175.457C396.718 175.425 396.729 175.391 396.735 175.356L396.739 175.303L396.771 170.754C396.773 170.566 396.625 170.412 396.441 170.411Z"
          fill="#DD936F"/>
    <path fill-rule="evenodd" clip-rule="evenodd"
          d="M461.467 125.368C461.467 125.368 439.543 129.922 439.854 142.876C440.015 149.54 446.606 156.541 443.609 158.687C431.895 167.075 444.014 171.314 435.233 175.855C422.856 182.256 428.999 202.719 440.924 201.208C453.277 199.644 453.2 217.563 474.359 211.632C486.285 208.29 483.077 201.021 491.46 196.348C499.843 191.675 510.898 173.05 500 162.205C493.221 155.336 487.004 156.261 482.96 144.565C478.916 132.868 475.168 125.747 469.484 126.928C467.294 123.948 461.467 125.368 461.467 125.368Z"
          fill="#253368"/>
    <path fill-rule="evenodd" clip-rule="evenodd"
          d="M449.563 153.886C449.494 153.639 449.154 153.637 449.083 153.883C448.446 156.059 446.944 161.926 449.176 162.126C451.694 162.351 450.19 156.143 449.563 153.886Z"
          fill="white"/>
    <path fill-rule="evenodd" clip-rule="evenodd"
          d="M470.239 172.539C469.047 162.243 469.125 158.191 469.125 158.191L456.609 162.227L456.324 173.207C456.219 177.249 459.4 180.578 463.345 180.556C467.518 180.531 470.731 176.786 470.239 172.539Z"
          fill="#F4B784"/>
    <path fill-rule="evenodd" clip-rule="evenodd"
          d="M462.653 139.059C462.653 139.059 461.133 135.048 458.457 137.023C456.544 138.436 457.047 137.286 456.604 136.205C454.959 132.191 454.255 141.647 448.036 143.782C447.975 148.837 448.097 165.468 458.758 165.999C462.906 166.206 467.889 163.533 469.966 157.357C471.22 153.625 470.1 149.822 468.64 149.082C463.829 146.646 463.896 144.088 462.653 139.059Z"
          fill="#FFC999"/>
    <path d="M454.305 143.846C454.252 143.666 454.066 143.564 453.891 143.619C453.732 143.668 453.636 143.827 453.658 143.99L453.669 144.044L454.42 146.574L454.405 147.031L454.377 147.613C454.362 147.889 454.344 148.189 454.321 148.51C454.208 150.119 454.016 151.951 453.729 153.971C453.707 154.131 453.797 154.285 453.945 154.341L454.7 154.625L455.979 155.115L457.178 155.583C457.349 155.65 457.542 155.563 457.608 155.387C457.667 155.229 457.604 155.053 457.465 154.97L457.379 154.931L456.649 154.646C456.215 154.477 455.778 154.308 455.352 154.146L454.426 153.794L454.453 153.603C454.685 151.904 454.849 150.342 454.957 148.938L454.985 148.559L455.016 148.088C455.035 147.785 455.05 147.504 455.061 147.248L455.085 146.576L455.086 146.531L455.071 146.428L454.305 143.846Z"
          fill="#DD936F"/>
    <path d="M463.173 148.676C462.735 147.542 461.897 146.921 460.66 147.224C459.838 147.425 459.392 148.032 459.269 148.856C459.21 149.251 459.229 149.661 459.295 150.057L459.322 150.206C459.335 150.272 459.348 150.325 459.358 150.364C459.422 150.601 459.66 150.74 459.891 150.675C460.103 150.615 460.235 150.404 460.206 150.188L460.17 150.02C460.163 149.988 460.156 149.95 460.149 149.907C460.098 149.598 460.083 149.277 460.126 148.99C460.2 148.496 460.42 148.197 460.861 148.089C461.618 147.903 462.072 148.24 462.367 149.003C462.46 149.244 462.526 149.506 462.568 149.769L462.59 149.913C462.601 150 462.607 150.067 462.609 150.108C462.621 150.353 462.825 150.542 463.064 150.529C463.304 150.516 463.487 150.307 463.475 150.062L463.467 149.95C463.458 149.862 463.445 149.752 463.424 149.623C463.372 149.302 463.291 148.981 463.173 148.676Z"
          fill="#253368"/>
    <path d="M452.99 149.366C452.698 148.294 451.979 147.65 450.81 147.802C449.961 147.911 449.487 148.511 449.331 149.363C449.261 149.75 449.26 150.152 449.301 150.529C449.312 150.625 449.323 150.697 449.33 150.741C449.374 150.983 449.602 151.143 449.838 151.098C450.074 151.053 450.23 150.82 450.186 150.578L450.173 150.481C450.171 150.466 450.169 150.449 450.167 150.431C450.134 150.133 450.135 149.815 450.187 149.527C450.28 149.019 450.5 148.741 450.919 148.687C451.604 148.598 451.965 148.921 452.151 149.606C452.235 149.914 452.267 150.242 452.266 150.53L452.261 150.712C452.242 150.957 452.421 151.172 452.661 151.191C452.901 151.21 453.11 151.026 453.129 150.781L453.133 150.708C453.149 150.304 453.116 149.83 452.99 149.366Z"
          fill="#253368"/>
    <path d="M461.371 156.285C461.288 156.055 461.039 155.937 460.814 156.022C458.881 156.755 457.068 156.939 455.629 156.821L455.446 156.803C455.416 156.8 455.392 156.797 455.376 156.794C455.139 156.758 454.919 156.926 454.884 157.168C454.849 157.411 455.012 157.637 455.249 157.673L455.341 157.685C455.398 157.692 455.472 157.699 455.56 157.707C457.115 157.835 459.051 157.638 461.115 156.856C461.34 156.771 461.454 156.515 461.371 156.285Z"
          fill="#C44343"/>
    <path d="M452.553 143.186C451.343 142.914 450.066 142.892 448.885 143.017L448.612 143.049L448.342 143.089C448.106 143.132 447.949 143.362 447.99 143.604C448.031 143.845 448.256 144.007 448.491 143.965L448.645 143.941C448.731 143.929 448.842 143.915 448.974 143.901C450.071 143.785 451.26 143.806 452.367 144.054C452.707 144.131 453.03 144.228 453.332 144.347C453.556 144.434 453.807 144.319 453.892 144.09C453.978 143.861 453.866 143.604 453.642 143.516C453.298 143.382 452.934 143.272 452.553 143.186Z"
          fill="#253368"/>
    <path d="M464.173 142.584C463.958 142.584 463.739 142.589 463.515 142.599C462.321 142.651 461.049 142.833 459.767 143.103C459.337 143.194 458.93 143.29 458.551 143.387L458.156 143.491L457.692 143.624C457.462 143.694 457.332 143.942 457.401 144.177C457.47 144.412 457.712 144.545 457.942 144.475L458.284 144.376C458.347 144.359 458.416 144.34 458.491 144.32C458.932 144.202 459.42 144.084 459.942 143.974C461.182 143.712 462.41 143.537 463.552 143.487C463.764 143.477 463.971 143.473 464.174 143.472C464.414 143.472 464.608 143.273 464.607 143.028C464.607 142.782 464.413 142.584 464.173 142.584Z"
          fill="#253368"/>
    <path d="M458.481 159.115L457.323 159.162C457.139 159.169 456.997 159.328 457.004 159.516C457.01 159.685 457.136 159.82 457.295 159.84L457.349 159.843L458.508 159.796C458.691 159.788 458.834 159.63 458.827 159.442C458.82 159.272 458.694 159.137 458.535 159.117L458.481 159.115Z"
          fill="#DD936F"/>
    <path fill-rule="evenodd" clip-rule="evenodd"
          d="M476.018 151.454C476.796 147.165 472.803 147.532 472.803 147.532C472.803 147.532 472.833 151.785 471.844 155.615C475.849 155.383 476.018 151.454 476.018 151.454Z"
          fill="#FFC999"/>
    <path fill-rule="evenodd" clip-rule="evenodd"
          d="M473.835 154.505C473.766 154.258 473.427 154.256 473.355 154.502C472.718 156.679 471.216 162.545 473.449 162.745C475.966 162.97 474.463 156.762 473.835 154.505Z"
          fill="white"/>
    <path fill-rule="evenodd" clip-rule="evenodd"
          d="M411.315 223.787C411.315 223.787 427.824 196.352 431.557 191.433C440.571 179.552 449.811 182.382 451.82 190.717C454.241 200.767 422.902 233.651 422.902 233.651C422.902 233.651 419.057 238.512 413.191 235.03C406.256 230.915 411.315 223.787 411.315 223.787Z"
          fill="#FFC999"/>
    <path fill-rule="evenodd" clip-rule="evenodd"
          d="M422.068 205.275C423.813 202.719 436.095 177.881 446.025 184.183C454.437 189.522 452.583 198.258 438.867 215.752L422.068 205.275Z"
          fill="#597EF7"/>
    <path fill-rule="evenodd" clip-rule="evenodd"
          d="M392.217 186.085C402.374 215.542 402.562 219.866 406.988 229.135C413.426 242.62 427.677 234.893 424.495 225.939C422.498 220.32 417.332 212.593 411.148 202.585C403.536 190.267 400.46 183.861 400.46 183.861L392.217 186.085Z"
          fill="#FFC999"/>
    <path d="M401.336 185.72C401.238 185.561 401.032 185.514 400.877 185.615C400.74 185.705 400.688 185.881 400.748 186.031L400.775 186.086L422.912 221.784C423.011 221.943 423.216 221.99 423.371 221.889C423.509 221.799 423.56 221.623 423.501 221.473L423.473 221.419L401.336 185.72Z"
          fill="#DD936F"/>
    <path fill-rule="evenodd" clip-rule="evenodd"
          d="M406.502 318.537C406.511 318.309 404.292 381.302 404.623 385.36C405.525 396.437 406.891 397.85 401.365 401.287C399.949 402.168 397.649 401.51 395.53 404.41C389.73 412.348 380.711 417.337 379.18 413.196C378.089 409.289 392.153 395.319 392.985 386.977C393.85 378.309 382.436 308.723 384.474 301.396C387.468 290.635 400.688 272.139 406.502 318.537Z"
          fill="#FFC999"/>
    <path fill-rule="evenodd" clip-rule="evenodd"
          d="M405.202 402.39C405.202 402.39 406.583 396.211 404.77 388.95C404.77 388.95 400.28 393.928 396.448 399.284C392.023 405.47 390.857 405.866 390.857 405.866C384.85 408.371 383.157 404.872 383.157 404.872C383.157 404.872 380.163 409.603 374.219 414.935C368.895 419.71 391.035 418.651 393.579 412.674C396.122 406.699 399.825 403.012 399.825 403.012L402.276 411.517L404.373 411.272L405.202 402.39Z"
          fill="#253368"/>
    <path fill-rule="evenodd" clip-rule="evenodd"
          d="M474.356 234.036C467.698 236.345 450.479 236.729 448.383 236.023C446.286 235.316 447.81 231.218 447.81 231.218C447.81 231.218 438.936 215.786 438.27 211.375C437.603 206.962 440.609 196.583 440.609 196.583C440.609 196.583 440.627 189.218 441.073 186.609C441.768 182.545 451.196 181.167 453.332 179.784C455.468 178.4 455.353 172.622 455.353 172.622L470.394 170.31C470.394 170.31 471.609 174.63 472.63 176.073C474.613 178.877 480.992 177.566 483.997 177.973C496.977 179.729 480.098 213.719 475.356 227.612C475.356 227.612 477.696 230.677 474.356 234.036Z"
          fill="#597EF7"/>
    <path d="M470.796 177.699L456.513 180.775C456.279 180.826 456.129 181.061 456.178 181.301C456.223 181.522 456.42 181.669 456.633 181.653L456.692 181.645L470.974 178.569C471.208 178.519 471.358 178.283 471.309 178.043C471.264 177.823 471.067 177.675 470.854 177.691L470.796 177.699Z"
          fill="#253368"/>
    <path d="M471.07 180.213C470.997 180.001 470.782 179.882 470.573 179.927L470.517 179.944L463.058 182.666C462.833 182.748 462.715 183.002 462.795 183.234C462.869 183.446 463.083 183.565 463.292 183.52L463.349 183.503L470.807 180.781C471.033 180.699 471.151 180.445 471.07 180.213Z"
          fill="#253368"/>
    <path d="M472.86 202.517C472.683 202.352 472.409 202.365 472.248 202.547L472.181 202.618C472.087 202.715 471.937 202.856 471.733 203.029C471.288 203.406 470.752 203.785 470.127 204.14C467.716 205.507 464.737 206.123 461.184 205.568L460.869 205.516C459.578 205.291 456.678 205.544 452.58 206.149L452.292 206.192C451.62 206.292 450.926 206.401 450.214 206.516L449.677 206.604C448.441 206.808 447.203 207.024 446.002 207.242L444.607 207.499L443.186 207.77C442.951 207.816 442.797 208.049 442.842 208.29C442.887 208.531 443.114 208.689 443.35 208.643L444.525 208.418C444.759 208.374 445.005 208.328 445.262 208.28C446.733 208.008 448.276 207.736 449.815 207.482C450.532 207.363 451.233 207.252 451.912 207.148L452.975 206.989C456.733 206.442 459.454 206.205 460.64 206.379L460.724 206.392C464.617 207.07 467.898 206.419 470.547 204.917C471.221 204.535 471.8 204.125 472.286 203.714C472.581 203.463 472.782 203.265 472.889 203.145C473.05 202.963 473.037 202.682 472.86 202.517Z"
          fill="#253368"/>
    <path d="M440.717 190.003C440.498 189.998 440.313 190.161 440.28 190.377L440.274 190.438L440.164 195.495L440.074 195.804C440.007 196.04 439.933 196.303 439.854 196.589L439.794 196.808C439.505 197.872 439.216 199.01 438.946 200.176C438.674 201.349 438.437 202.488 438.244 203.569L438.136 204.193C437.762 206.445 437.618 208.297 437.759 209.64C437.876 210.747 438.208 212.04 438.723 213.485C439.075 214.474 439.506 215.515 439.998 216.588C440.41 217.487 440.847 218.369 441.288 219.208L441.553 219.706C441.701 219.982 441.841 220.237 441.971 220.468L442.262 220.98C442.386 221.19 442.653 221.258 442.858 221.131C443.063 221.004 443.129 220.731 443.005 220.521L442.816 220.192C442.664 219.923 442.495 219.617 442.312 219.277C441.791 218.307 441.269 217.27 440.783 216.21C440.301 215.16 439.88 214.142 439.538 213.18C439.045 211.797 438.729 210.57 438.621 209.544C438.478 208.186 438.658 206.186 439.097 203.729C439.287 202.665 439.521 201.54 439.79 200.381C440.012 199.419 440.248 198.477 440.487 197.58L440.63 197.047C440.69 196.826 440.747 196.618 440.802 196.423L441.011 195.695L441.029 195.575L441.141 190.457C441.147 190.212 440.957 190.009 440.717 190.003Z"
          fill="#253368"/>
    <path fill-rule="evenodd" clip-rule="evenodd"
          d="M445.434 277.128L435.492 262.979C435.492 262.979 439.742 245.809 447.853 238.432L476.378 237.88C476.378 237.88 482.116 249.46 483.581 274.482L459.653 277.485L445.434 277.128Z"
          fill="#E4EBF7"/>
    <path fill-rule="evenodd" clip-rule="evenodd"
          d="M477.039 238.232L447.853 238.432L448.65 233.868L476.149 233.473L477.039 238.232Z" fill="#597EF7"/>
    <path d="M455.79 239.62C455.612 239.596 455.448 239.725 455.425 239.907C455.096 242.455 454.875 245.174 454.754 248.041C454.448 255.252 454.773 262.974 455.502 270.551L455.606 271.603C455.747 272.983 455.893 274.273 456.039 275.46L456.154 276.362L456.364 277.896C456.391 278.078 456.557 278.203 456.735 278.175C456.913 278.147 457.034 277.976 457.007 277.794L456.882 276.904C456.837 276.575 456.79 276.211 456.739 275.814L456.63 274.928C456.466 273.57 456.303 272.082 456.15 270.486C455.423 262.938 455.099 255.245 455.403 248.07C455.524 245.222 455.744 242.522 456.07 239.995C456.093 239.812 455.968 239.645 455.79 239.62Z"
          fill="#A3B5D6"/>
    <path d="M476.957 238.127L448.357 238.166C448.173 238.166 448.025 238.319 448.025 238.507C448.025 238.677 448.146 238.817 448.304 238.843L448.358 238.848L476.958 238.808C477.142 238.808 477.29 238.655 477.29 238.467C477.29 238.298 477.169 238.157 477.011 238.131L476.957 238.127Z"
          fill="#DD936F"/>
    <path fill-rule="evenodd" clip-rule="evenodd"
          d="M473.913 344.784C473.713 344.735 528.976 358.248 532.623 358.68C542.575 359.857 544.073 358.847 546.104 364.601C546.626 366.074 545.627 368.09 547.804 370.584C553.764 377.41 556.532 386.689 552.594 387.357C548.943 387.658 539.156 372.065 531.935 369.776C524.433 367.397 460.864 365.336 454.76 362.112C445.794 357.376 431.855 341.743 473.913 344.784Z"
          fill="#FFC999"/>
    <path fill-rule="evenodd" clip-rule="evenodd"
          d="M547.778 361.239C547.778 361.239 542.569 358.834 535.823 359.196C535.823 359.196 539.405 364.269 543.442 368.799C548.103 374.031 548.241 375.185 548.241 375.185C549.362 381.217 545.963 382.151 545.963 382.151C545.963 382.151 549.599 385.791 553.23 392.277C556.482 398.087 559.572 377.345 554.753 373.897C549.935 370.45 547.351 366.343 547.351 366.343L555.312 365.614L555.477 363.624L547.778 361.239Z"
          fill="#253368"/>
    <path fill-rule="evenodd" clip-rule="evenodd"
          d="M449.65 333.842L518.365 340.232L516.959 372.942C516.959 372.942 481.574 369.612 445.671 365.032C445.671 365.032 427.611 363.855 429.195 347.5C430.778 331.144 449.65 333.842 449.65 333.842Z"
          fill="#A3B5D6"/>
    <path fill-rule="evenodd" clip-rule="evenodd"
          d="M429.366 343.161C431.07 307.349 433.036 269.215 436.394 261.462C436.394 261.462 442.582 257.597 454.131 265.377C467.596 274.449 466.073 287.182 466.073 287.182L463.338 345.188C462.953 349.919 462.141 364.624 444.287 364.204C426.712 363.791 429.329 343.941 429.366 343.161Z"
          fill="#A3B5D6"/>
    <path fill-rule="evenodd" clip-rule="evenodd"
          d="M491.486 230.689C491.486 230.689 478.7 201.374 476.829 195.673C472.31 181.904 478.818 176.394 486.433 179.184C495.612 182.547 506.16 226.939 506.16 226.939C506.16 226.939 506.876 232.132 501.014 235.113C494.086 238.635 491.486 230.689 491.486 230.689Z"
          fill="#FFC999"/>
    <path fill-rule="evenodd" clip-rule="evenodd"
          d="M482.096 209.436C481.02 206.635 468.373 183.66 479.891 178.651C488.682 174.827 492.759 182.575 499.175 203.214L482.096 209.436Z"
          fill="#597EF7"/>
    <path d="M477.124 199.379C477.022 199.156 476.764 199.06 476.547 199.164C476.348 199.259 476.253 199.49 476.317 199.699L476.338 199.755L480.836 209.624C480.922 209.813 481.122 209.912 481.316 209.871L481.374 209.855L498.453 203.632C498.678 203.55 498.796 203.296 498.716 203.064C498.643 202.852 498.428 202.733 498.219 202.778L498.162 202.795L481.455 208.882L477.124 199.379Z"
          fill="#253368"/>
    <path fill-rule="evenodd" clip-rule="evenodd"
          d="M439.217 246.087C439.217 246.087 448.672 246.636 452.961 243.815C456.466 241.508 452.726 238.472 452.726 238.472C452.726 238.472 446.12 233.842 441.666 232.278C438.747 231.253 433.481 228.457 432.568 229.847C431.377 231.66 437.216 233.618 437.33 235.204C437.56 238.417 428.057 236.327 426.339 236.836C422.98 237.829 427.563 244.616 439.217 246.087Z"
          fill="#FFC999"/>
    <path d="M426.398 238.217C426.227 238.148 426.034 238.234 425.966 238.41C425.899 238.585 425.983 238.783 426.154 238.852C426.619 239.04 427.102 239.205 427.602 239.349C430.048 240.054 432.621 240.203 434.892 240.039L435.132 240.02L435.441 239.989C435.469 239.986 435.49 239.984 435.505 239.982C435.687 239.958 435.816 239.788 435.793 239.601C435.771 239.415 435.604 239.282 435.422 239.305L435.2 239.329C435.103 239.339 434.985 239.349 434.845 239.359C432.644 239.518 430.143 239.374 427.782 238.693C427.304 238.555 426.842 238.397 426.398 238.217Z"
          fill="#DD936F"/>
    <path d="M427.285 240.548C427.118 240.471 426.921 240.549 426.846 240.72C426.771 240.892 426.847 241.094 427.014 241.171L427.173 241.238L427.379 241.32C427.454 241.348 427.534 241.378 427.619 241.408C428.105 241.582 428.673 241.756 429.32 241.917C431.368 242.429 433.727 242.711 436.353 242.644C436.537 242.64 436.682 242.483 436.678 242.295C436.673 242.107 436.521 241.958 436.337 241.963C433.771 242.028 431.47 241.753 429.478 241.255C428.941 241.121 428.462 240.979 428.043 240.836L427.839 240.765C427.562 240.666 427.376 240.59 427.285 240.548Z"
          fill="#DD936F"/>
    <path d="M431.054 243.281C430.875 243.238 430.696 243.352 430.654 243.535C430.612 243.719 430.724 243.902 430.903 243.945C433.801 244.637 436.04 244.853 437.558 244.802L437.869 244.787C437.881 244.786 437.891 244.785 437.899 244.784C438.082 244.767 438.216 244.601 438.2 244.414C438.183 244.226 438.021 244.088 437.838 244.105L437.688 244.115C437.175 244.139 436.461 244.125 435.552 244.043C434.226 243.924 432.724 243.68 431.054 243.281Z"
          fill="#DD936F"/>
    <path fill-rule="evenodd" clip-rule="evenodd"
          d="M445.132 237.289C445.132 237.289 486.821 221.212 492.614 220.254C506.982 217.878 509.324 231.864 499.911 235.893C487.389 241.253 447.052 245.708 447.052 245.708L445.132 237.289Z"
          fill="#FFC999"/>
    <path fill-rule="evenodd" clip-rule="evenodd"
          d="M412.256 283.76L412.484 368.586L376.86 370.554C376.86 370.554 376.786 326.87 378.013 282.409C378.013 282.409 377.407 260.173 395.312 260.265C413.216 260.359 412.256 283.76 412.256 283.76Z"
          fill="#E4EBF7"/>
    <path fill-rule="evenodd" clip-rule="evenodd"
          d="M480.584 255.1C480.584 255.1 487.976 271.479 479.674 284.49C469.257 300.819 401.544 295 401.544 295C397.216 294.908 381.522 291.497 380.058 277.985C379.376 271.695 380.146 267.154 385.43 263.972C394.863 258.292 410.334 257.925 427.913 256.466C449.915 254.639 474.303 249.459 480.584 255.1Z"
          fill="#E4EBF7"/>
    <path d="M463.74 252.384L453.481 253.452L444.825 254.365C440.525 254.821 436.285 255.275 432.198 255.719L421.801 256.86C409.928 258.181 401.929 259.148 399.05 259.64C398.872 259.67 398.753 259.842 398.782 260.023C398.812 260.205 398.979 260.328 399.157 260.297L399.589 260.226C402.811 259.712 410.759 258.758 422.292 257.475L429.92 256.636L436.4 255.935C439.186 255.635 442.026 255.332 444.892 255.028L463.837 253.044C464.016 253.026 464.146 252.862 464.128 252.679C464.112 252.514 463.981 252.39 463.825 252.38L463.74 252.384Z"
          fill="#A3B5D6"/>
    <path fill-rule="evenodd" clip-rule="evenodd"
          d="M43.3101 269.786C30.0484 263.346 22.1445 280.237 28.814 289.641C36.9531 301.117 41.1223 314.322 43.444 318.301C45.4026 321.657 50.7676 329.839 57.228 326.068C63.1735 322.597 59.933 308.975 59.933 308.975C59.933 308.975 59.6704 277.731 43.3101 269.786Z"
          fill="#5B8C00"/>
    <path fill-rule="evenodd" clip-rule="evenodd"
          d="M83.1992 323.445C87.7077 317.2 89.3539 308.238 84.3216 305.94C79.4968 303.737 71.5046 309.162 67.8027 319.603C64.1009 330.043 61.9652 337.55 65.5863 338.855C71.5273 340.997 77.2442 331.694 83.1992 323.445Z"
          fill="#5B8C00"/>
    <path fill-rule="evenodd" clip-rule="evenodd"
          d="M35.8005 323.919C40.8998 330.055 48.2585 342.397 52.8685 338.074C55.6625 335.455 51.9273 323.049 41.703 316.298C33.0061 310.557 30.701 317.784 35.8005 323.919Z"
          fill="#7CB305"/>
    <path fill-rule="evenodd" clip-rule="evenodd"
          d="M84.5969 281.343C82.6577 280.003 80.2181 279.697 77.9923 280.429C74.8858 281.451 70.1716 284.493 65.5059 293.223C59.4145 304.622 56.2434 317.118 56.8703 325.033C57.2801 330.209 63.4915 332.441 66.9663 328.667C68.5621 326.933 70.2507 324.261 71.9027 320.208C78.5513 303.896 84.7673 293.674 85.5087 292.647C87.4865 289.908 88.9007 284.316 84.5969 281.343Z"
          fill="#7CB305"/>
    <path fill-rule="evenodd" clip-rule="evenodd"
          d="M80.1375 287.849C80.0718 288.655 80.6544 289.362 81.4387 289.43C82.2232 289.497 82.9125 288.899 82.9783 288.094C83.0441 287.288 82.4615 286.581 81.677 286.513C80.8926 286.446 80.2034 287.044 80.1375 287.849Z"
          fill="white"/>
    <path fill-rule="evenodd" clip-rule="evenodd"
          d="M68.0306 294.097C67.9647 294.903 68.5473 295.61 69.3318 295.678C70.1163 295.745 70.8055 295.147 70.8714 294.342C70.9372 293.537 70.3546 292.829 69.5701 292.761C68.7857 292.694 68.0964 293.292 68.0306 294.097Z"
          fill="white"/>
    <path fill-rule="evenodd" clip-rule="evenodd"
          d="M70.0598 310.733C69.9843 311.656 70.6515 312.466 71.5499 312.543C72.4483 312.621 73.2376 311.936 73.3129 311.013C73.3884 310.091 72.7212 309.281 71.8228 309.203C70.9245 309.126 70.1352 309.811 70.0598 310.733Z"
          fill="white"/>
    <path fill-rule="evenodd" clip-rule="evenodd"
          d="M32.8733 285.872C32.8733 287.181 33.9068 288.242 35.1818 288.242C36.4567 288.242 37.4902 287.181 37.4902 285.872C37.4902 284.563 36.4567 283.501 35.1818 283.501C33.9068 283.501 32.8733 284.563 32.8733 285.872Z"
          fill="white"/>
    <path fill-rule="evenodd" clip-rule="evenodd"
          d="M51.457 293.109C51.457 294.418 52.4905 295.479 53.7654 295.479C55.0404 295.479 56.0739 294.418 56.0739 293.109C56.0739 291.8 55.0404 290.739 53.7654 290.739C52.4905 290.739 51.457 291.8 51.457 293.109Z"
          fill="white"/>
    <path fill-rule="evenodd" clip-rule="evenodd"
          d="M45.4383 309.197C45.4383 309.744 45.8703 310.188 46.4031 310.188C46.936 310.188 47.368 309.744 47.368 309.197C47.368 308.65 46.936 308.207 46.4031 308.207C45.8703 308.207 45.4383 308.65 45.4383 309.197Z"
          fill="white"/>
    <path fill-rule="evenodd" clip-rule="evenodd"
          d="M38.487 321.866C38.487 322.674 39.1253 323.33 39.9124 323.33C40.6997 323.33 41.3377 322.674 41.3377 321.866C41.3377 321.058 40.6997 320.403 39.9124 320.403C39.1253 320.403 38.487 321.058 38.487 321.866Z"
          fill="white"/>
    <path d="M71.7798 325.112C71.6469 324.982 71.4366 324.987 71.3099 325.123L71.2491 325.191L71.203 325.243C71.1192 325.339 71.0224 325.454 70.9137 325.587C70.6048 325.965 70.2613 326.417 69.8918 326.942C68.8391 328.439 67.7874 330.224 66.8064 332.296C64.0068 338.208 62.3278 345.23 62.3278 353.336C62.3278 353.525 62.4766 353.678 62.6602 353.678C62.8437 353.678 62.9925 353.525 62.9925 353.336C62.9925 345.337 64.6473 338.416 67.4042 332.594C68.3679 330.559 69.3998 328.807 70.4307 327.342C70.7694 326.86 71.0849 326.443 71.37 326.091L71.4231 326.025C71.5039 325.926 71.5776 325.838 71.6435 325.762L71.7268 325.666C71.7577 325.631 71.7792 325.607 71.7909 325.594C71.9176 325.458 71.9126 325.242 71.7798 325.112Z"
          fill="#253368"/>
    <path d="M46.6696 327.5C46.5598 327.349 46.3515 327.318 46.2044 327.431C46.0573 327.544 46.0271 327.758 46.137 327.909C47.3475 329.573 48.4646 331.363 49.492 333.26C51.6638 337.271 53.3428 341.571 54.5891 345.871C55.0253 347.376 55.3761 348.773 55.6492 350.026L55.7045 350.283C55.7697 350.59 55.8261 350.869 55.874 351.12L55.9049 351.284L55.9601 351.593C55.9906 351.779 56.162 351.904 56.3431 351.873C56.5241 351.842 56.6461 351.666 56.6156 351.48L56.5967 351.37C56.5811 351.281 56.5621 351.177 56.5394 351.057L56.4845 350.773C56.431 350.502 56.369 350.203 56.2979 349.877L56.2375 349.603C55.9705 348.407 55.6355 347.088 55.2262 345.676C53.967 341.331 52.2703 336.986 50.073 332.929C49.0316 331.006 47.8985 329.19 46.6696 327.5Z"
          fill="#253368"/>
    <path d="M40.8615 284.927C40.7343 285.052 40.7251 285.256 40.8369 285.392L40.8515 285.409C40.858 285.416 40.8721 285.431 40.8934 285.455L40.9751 285.547L41.0226 285.601C41.1657 285.764 41.332 285.962 41.5197 286.192C42.0579 286.853 42.6584 287.649 43.3056 288.579C45.1578 291.241 47.0112 294.448 48.7417 298.202C51.623 304.452 53.867 311.581 55.227 319.595C56.8785 329.327 57.152 339.958 55.8002 351.496C55.7782 351.683 55.9082 351.853 56.0905 351.875C56.2727 351.898 56.4382 351.765 56.4601 351.577C57.8197 339.973 57.5445 329.275 55.8819 319.478C54.5114 311.402 52.2489 304.215 49.3425 297.91C47.5946 294.118 45.7211 290.877 43.8465 288.182L43.7012 287.975C43.1233 287.153 42.5829 286.438 42.091 285.83L42.0297 285.754C41.8531 285.537 41.6943 285.349 41.555 285.188L41.5175 285.145C41.474 285.095 41.435 285.051 41.4008 285.013L41.3315 284.937C41.2045 284.801 40.9941 284.796 40.8615 284.927Z"
          fill="#253368"/>
    <path d="M69.6305 305.163C69.4736 305.065 69.2692 305.116 69.174 305.278L69.1407 305.335C69.1141 305.381 69.0828 305.436 69.0471 305.5L68.9949 305.594C68.9057 305.755 68.8056 305.94 68.6953 306.148L68.6039 306.322C68.2658 306.968 67.8954 307.716 67.4998 308.562L67.4457 308.679C66.1555 311.454 64.866 314.699 63.6627 318.387C60.2936 328.712 58.244 340.432 58.1673 353.334C58.1662 353.523 58.3141 353.676 58.4976 353.678C58.6812 353.679 58.8309 353.527 58.832 353.338C58.9082 340.512 60.9454 328.863 64.293 318.604C65.4657 315.009 66.7203 311.84 67.9759 309.123L68.0456 308.972C68.4748 308.049 68.8742 307.244 69.2345 306.559L69.3431 306.354C69.4471 306.159 69.5408 305.988 69.6233 305.84L69.6625 305.771L69.7425 305.631C69.8377 305.47 69.7875 305.26 69.6305 305.163Z"
          fill="#253368"/>
    <path fill-rule="evenodd" clip-rule="evenodd"
          d="M44.0506 370.263H72.7799C74.3329 370.263 75.6035 368.958 75.6035 367.364V345.845C75.6035 344.25 74.3329 342.946 72.7799 342.946H44.0506C42.4977 342.946 41.2269 344.25 41.2269 345.845V367.364C41.2269 368.958 42.4977 370.263 44.0506 370.263Z"
          fill="#253368"/>
    <path fill-rule="evenodd" clip-rule="evenodd"
          d="M418.212 136.769H246.815C243.625 136.769 241.038 134.111 241.038 130.833V0.067749H423.989V130.833C423.989 134.111 421.403 136.769 418.212 136.769Z"
          fill="#E4EBF7"/>
    <path fill-rule="evenodd" clip-rule="evenodd"
          d="M295.317 116.378L287.652 106.189C286.915 105.209 285.484 105.193 284.726 106.156L276.467 116.659C275.281 118.166 272.918 117.198 273.061 115.263L275.549 81.6366C275.55 81.6267 275.557 81.619 275.567 81.619H296.261C296.27 81.619 296.279 81.6267 296.279 81.6366L298.749 115.015C298.894 116.971 296.484 117.928 295.317 116.378Z"
          fill="#FF7946"/>
    <path fill-rule="evenodd" clip-rule="evenodd"
          d="M312.912 57.6924C312.912 73.0062 300.82 85.4204 285.904 85.4204C270.989 85.4204 258.897 73.0062 258.897 57.6924C258.897 42.3787 270.989 29.9644 285.904 29.9644C300.82 29.9644 312.912 42.3787 312.912 57.6924Z"
          fill="#FAAD14"/>
    <path fill-rule="evenodd" clip-rule="evenodd"
          d="M305.071 57.6923C305.071 68.5601 296.49 77.3703 285.905 77.3703C275.319 77.3703 266.738 68.5601 266.738 57.6923C266.738 46.8246 275.319 38.0144 285.905 38.0144C296.49 38.0144 305.071 46.8246 305.071 57.6923Z"
          fill="#FAAD14"/>
    <path fill-rule="evenodd" clip-rule="evenodd"
          d="M287.504 50.815L288.673 53.2401C288.915 53.7426 289.383 54.091 289.924 54.1715L292.538 54.5605C293.901 54.7633 294.446 56.4794 293.459 57.4644L291.568 59.352C291.176 59.7433 290.998 60.3068 291.09 60.8593L291.536 63.5247C291.769 64.9155 290.344 65.9761 289.124 65.3195L286.787 64.0611C286.302 63.8002 285.724 63.8002 285.24 64.0611L282.902 65.3195C281.683 65.9761 280.257 64.9155 280.49 63.5247L280.936 60.8593C281.029 60.3068 280.85 59.7433 280.458 59.352L278.567 57.4644C277.581 56.4794 278.125 54.7633 279.489 54.5605L282.102 54.1715C282.643 54.091 283.112 53.7426 283.354 53.2401L284.522 50.815C285.132 49.5495 286.894 49.5495 287.504 50.815Z"
          fill="white"/>
    <path fill-rule="evenodd" clip-rule="evenodd"
          d="M330.304 76.4759C329.239 76.4759 328.376 75.5897 328.376 74.4967V70.6286C328.376 69.5356 329.239 68.6494 330.304 68.6494H403.549C404.614 68.6494 405.477 69.5356 405.477 70.6286V74.4967C405.477 75.5897 404.614 76.4759 403.549 76.4759H330.304Z"
          fill="#597EF7"/>
    <path fill-rule="evenodd" clip-rule="evenodd"
          d="M403.549 52.5492H330.304C329.239 52.5492 328.376 51.6631 328.376 50.57V46.702C328.376 45.609 329.239 44.7228 330.304 44.7228H403.549C404.614 44.7228 405.477 45.609 405.477 46.702V50.57C405.477 51.6631 404.614 52.5492 403.549 52.5492Z"
          fill="#597EF7"/>
    <path fill-rule="evenodd" clip-rule="evenodd"
          d="M403.549 100.179H330.304C329.239 100.179 328.376 99.2927 328.376 98.1997V94.3316C328.376 93.2386 329.239 92.3524 330.304 92.3524H403.549C404.614 92.3524 405.477 93.2386 405.477 94.3316V98.1997C405.477 99.2927 404.614 100.179 403.549 100.179Z"
          fill="#597EF7"/>
</svg>
