<svg width="349" height="250" viewBox="0 0 349 250" fill="none" xmlns="http://www.w3.org/2000/svg">
    <g clip-path="url(#clip0_385_10921)">
        <path fill-rule="evenodd" clip-rule="evenodd"
              d="M210.128 209.66C209.259 193.855 208.204 177.527 207.076 164.557C207.076 164.557 204.708 155.269 196.442 157.46C188.34 159.608 189.059 170.247 189.059 170.247L195.444 211.839C195.444 211.839 196.558 218.601 203.88 217.379C210.558 216.265 210.128 209.66 210.128 209.66Z"
              fill="#4D5DFD"/>
        <path fill-rule="evenodd" clip-rule="evenodd"
              d="M207.364 249.242C204.427 248.965 202.007 251.571 202.421 254.568C202.899 258.017 203.52 262.678 204.122 267.708C204.743 272.885 205.266 277.174 205.685 277.679C207.527 279.909 210.802 280.455 214.32 282.479C217.103 284.08 217.642 284.928 221.006 285.2C225.775 285.586 223.383 283.789 217.524 277.919C212.304 272.69 212.335 269.965 212.335 269.965L211.51 253.67C211.392 251.341 209.626 249.455 207.364 249.242Z"
              fill="#C99382"/>
        <path fill-rule="evenodd" clip-rule="evenodd"
              d="M210.227 211.052C211.577 238.422 212.825 267.048 212.825 267.048L203.196 267.055L195.321 212.917C195.321 212.917 195.157 204.676 202.544 203.983C209.21 203.359 210.227 211.052 210.227 211.052Z"
              fill="#4D5DFD"/>
        <path fill-rule="evenodd" clip-rule="evenodd"
              d="M169.729 211.3C170.239 195.479 170.923 179.129 171.757 166.137C171.757 166.137 173.914 156.794 182.227 158.787C190.376 160.74 189.898 171.395 189.898 171.395L184.458 213.127C184.458 213.127 183.498 219.914 176.15 218.867C169.448 217.914 169.729 211.3 169.729 211.3Z"
              fill="#4D5DFD"/>
        <path fill-rule="evenodd" clip-rule="evenodd"
              d="M169.661 212.693C168.933 240.088 168.333 268.737 168.333 268.737L177.96 268.513L184.605 214.201C184.605 214.201 184.583 205.959 177.182 205.443C170.503 204.977 169.661 212.693 169.661 212.693Z"
              fill="#4D5DFD"/>
        <path fill-rule="evenodd" clip-rule="evenodd"
              d="M195.984 94.8875L195.565 85.853L183.892 85.8603L183.607 94.951C183.48 98.4694 186.203 101.403 189.632 101.442C189.698 101.442 189.763 101.443 189.828 101.444C193.335 101.485 196.151 98.4839 195.984 94.8875Z"
              fill="#C99382"/>
        <path fill-rule="evenodd" clip-rule="evenodd"
              d="M198.038 97.1159L197.293 94.9106L182.811 95.3165L182.229 97.4044C182.229 97.4044 173.836 95.524 169.712 102.177C167.122 106.358 173.177 131.484 173.279 137.093C170.815 143.793 174.396 145.836 174.396 145.836L203.768 145.474C203.768 145.474 207.131 143.187 204.252 138.583C205.432 130.347 211.467 108.272 209.519 104.207C205.649 96.1288 198.038 97.1159 198.038 97.1159Z"
              fill="#ADC6FF"/>
        <path d="M196.916 97.4048C197.037 97.393 197.145 97.4845 197.157 97.6092C197.168 97.7339 197.079 97.8446 196.958 97.8564C195.99 97.9507 194.955 98.0302 193.862 98.0958C190.525 98.296 187.03 98.3536 183.972 98.3287L182.838 98.3147C182.716 98.3122 182.619 98.2087 182.621 98.0834C182.624 97.9582 182.725 97.8587 182.846 97.8611L183.471 97.8702C186.637 97.9059 190.325 97.8535 193.836 97.6429C194.925 97.5776 195.954 97.4986 196.916 97.4048Z"
              fill="#4D5DFD"/>
        <path fill-rule="evenodd" clip-rule="evenodd"
              d="M207.312 166.961C206.371 156.743 204.91 151.978 203.794 150.059C179.807 150.763 173.832 150.439 173.832 150.439C173.832 150.439 171.779 156.402 171.483 168.397C171.483 168.397 179.867 178.995 189.397 178.995C197.989 178.995 207.312 166.961 207.312 166.961Z"
              fill="#4D5DFD"/>
        <path fill-rule="evenodd" clip-rule="evenodd"
              d="M203.794 150.059L203.34 145.425L173.968 145.787L173.832 150.428C173.832 150.428 189.377 151.043 203.794 150.059Z"
              fill="#4D5DFD"/>
        <path d="M186.858 150.75C186.983 150.753 187.082 150.859 187.08 150.987L187.059 152.266C187.056 152.523 187.052 152.796 187.049 153.084C186.998 157.411 187.003 162.065 187.101 166.433L187.116 167.068C187.24 172 187.477 175.932 187.851 178.507C187.869 178.634 187.784 178.752 187.661 178.77C187.537 178.789 187.422 178.702 187.404 178.575L187.356 178.236C186.991 175.524 186.763 171.478 186.65 166.444C186.559 162.434 186.547 158.185 186.585 154.168L186.613 151.884L186.628 150.977C186.63 150.849 186.734 150.748 186.858 150.75Z"
              fill="#253368"/>
        <path d="M191.051 150.849C191.176 150.85 191.277 150.954 191.276 151.082L191.277 152.548C191.279 153.243 191.284 154.032 191.292 154.893C191.313 156.885 191.349 158.855 191.407 160.718L191.427 161.336C191.525 164.264 191.669 166.694 191.866 168.455L191.887 168.635L191.888 168.681C191.758 170.375 190.834 171.409 189.4 171.896C188.611 172.164 187.791 172.232 187.089 172.191L186.981 172.183C186.972 172.183 186.964 172.182 186.958 172.181C186.834 172.168 186.744 172.054 186.757 171.927C186.769 171.799 186.88 171.707 187.004 171.72L187.115 171.728C187.765 171.766 188.532 171.702 189.258 171.455C190.494 171.036 191.276 170.188 191.425 168.775L191.435 168.666L191.417 168.509C191.246 166.977 191.115 164.953 191.019 162.539L190.975 161.352C190.913 159.509 190.872 157.551 190.848 155.562L190.834 154.142C190.828 153.488 190.825 152.885 190.824 152.343L190.824 151.08C190.825 150.952 190.927 150.849 191.051 150.849Z"
              fill="#253368"/>
        <path d="M201.169 150.946C201.293 150.944 201.396 151.047 201.398 151.175L201.406 151.395C201.408 151.435 201.41 151.479 201.413 151.528C201.428 151.812 201.453 152.13 201.49 152.471C201.595 153.448 201.771 154.423 202.036 155.331C202.642 157.413 203.61 158.813 204.998 159.244C205.117 159.282 205.185 159.411 205.149 159.534C205.113 159.656 204.986 159.726 204.867 159.688C203.301 159.201 202.248 157.679 201.603 155.464C201.33 154.526 201.148 153.524 201.041 152.522C201.011 152.242 200.988 151.978 200.972 151.733L200.952 151.355C200.949 151.28 200.947 151.221 200.946 151.182C200.944 151.054 201.044 150.948 201.169 150.946Z"
              fill="#253368"/>
        <path d="M176.458 151.483C176.571 151.483 176.664 151.566 176.683 151.676L176.686 151.721L176.684 151.96C176.68 152.256 176.665 152.644 176.634 153.1C176.57 154.057 176.453 155.009 176.269 155.9C175.787 158.238 174.937 159.785 173.584 160.145C173.463 160.177 173.34 160.103 173.309 159.979C173.277 159.855 173.35 159.728 173.471 159.696C174.602 159.395 175.378 157.984 175.827 155.804C176.006 154.936 176.121 154.005 176.184 153.069L176.2 152.809C176.221 152.432 176.231 152.113 176.233 151.872L176.234 151.717C176.233 151.589 176.333 151.484 176.458 151.483Z"
              fill="#253368"/>
        <path d="M181.62 176.735C181.676 176.62 181.812 176.574 181.923 176.631L182.106 176.721L182.297 176.812C182.398 176.86 182.507 176.91 182.623 176.962C183.178 177.213 183.787 177.463 184.431 177.696C185.669 178.145 186.883 178.476 188.016 178.643C189.032 178.792 189.948 178.802 190.739 178.654C190.861 178.631 190.979 178.715 191.001 178.841C191.024 178.967 190.942 179.088 190.819 179.11C189.976 179.268 189.013 179.257 187.952 179.102C186.786 178.931 185.544 178.591 184.281 178.134C183.719 177.93 183.184 177.714 182.687 177.496L182.441 177.387C182.323 177.334 182.211 177.283 182.108 177.234L181.815 177.093C181.773 177.072 181.742 177.056 181.721 177.046C181.61 176.989 181.564 176.849 181.62 176.735Z"
              fill="#253368"/>
        <path fill-rule="evenodd" clip-rule="evenodd"
              d="M200.372 77.4113C200.372 77.4113 203.353 73.928 205.083 77.2225C206.727 80.352 203.341 84.6246 200.471 83.7663C199.217 80.8341 200.372 77.4113 200.372 77.4113Z"
              fill="#C99382"/>
        <path fill-rule="evenodd" clip-rule="evenodd"
              d="M179.595 77.4113C179.595 77.4113 176.615 73.928 174.884 77.2225C173.241 80.352 176.626 84.6246 179.496 83.7663C180.75 80.8341 179.595 77.4113 179.595 77.4113Z"
              fill="#C99382"/>
        <path fill-rule="evenodd" clip-rule="evenodd"
              d="M201.595 78.1501C201.595 88.9719 196.359 91.8322 189.9 91.8322C183.442 91.8322 178.649 89.085 178.207 78.1501C177.8 68.0903 183.442 64.7129 189.9 64.7129C196.359 64.7129 201.595 68.6492 201.595 78.1501Z"
              fill="#C99382"/>
        <path fill-rule="evenodd" clip-rule="evenodd"
              d="M190.834 79.3419C190.86 81.5271 192.606 83.2776 194.734 83.2515C196.863 83.2249 198.568 81.4322 198.542 79.2469C198.517 77.0616 196.77 75.3112 194.642 75.3372C192.514 75.3638 190.808 77.1566 190.834 79.3419Z"
              fill="white"/>
        <path d="M194.639 75.0584C192.36 75.0869 190.535 77.0062 190.563 79.3453C190.59 81.6844 192.459 83.5582 194.738 83.5304C197.016 83.5019 198.842 81.5826 198.814 79.2435C198.787 76.9046 196.917 75.0306 194.639 75.0584ZM194.646 75.616C196.624 75.5919 198.247 77.2192 198.271 79.2502C198.295 81.2813 196.71 82.948 194.731 82.9728C192.753 82.9969 191.129 81.3698 191.106 79.3386C191.082 77.3431 192.612 75.6994 194.542 75.6188L194.646 75.616Z"
              fill="#7D4556"/>
        <path d="M193.747 79.5332C193.73 79.6695 193.618 79.7757 193.48 79.7774C193.343 79.7791 193.228 79.6756 193.209 79.5398L193.206 79.502C193.204 79.2734 193.245 78.9645 193.373 78.6511C193.599 78.0986 194.03 77.7484 194.68 77.7404C195.325 77.7324 195.78 78.0461 196.053 78.5566C196.209 78.8482 196.276 79.1349 196.294 79.3378C196.307 79.4912 196.197 79.6266 196.047 79.6403C195.898 79.6539 195.766 79.5407 195.753 79.3873L195.746 79.3383C195.742 79.3071 195.734 79.2663 195.722 79.2183C195.691 79.0833 195.643 78.9485 195.577 78.825C195.395 78.4846 195.116 78.2927 194.686 78.298C194.271 78.3031 194.022 78.5058 193.874 78.8666C193.82 79.0002 193.784 79.1465 193.764 79.2939C193.757 79.3484 193.753 79.3958 193.751 79.4337L193.747 79.5332Z"
              fill="#7D4556"/>
        <path d="M182.239 74.1026C183.43 73.3282 185.201 73.3282 187.617 74.568C187.751 74.6369 187.805 74.8044 187.738 74.9421C187.671 75.0799 187.508 75.1357 187.374 75.0668C185.12 73.9101 183.55 73.9101 182.529 74.5737C182.386 74.6667 182.269 74.7655 182.175 74.8631L182.122 74.9214C182.108 74.9381 182.097 74.9518 182.089 74.9621L182.08 74.9749C181.995 75.102 181.826 75.1345 181.702 75.0475C181.578 74.9606 181.547 74.7871 181.631 74.66C181.731 74.5107 181.929 74.3041 182.239 74.1026Z"
              fill="#7D4556"/>
        <path d="M195.165 73.492C195.912 73.4511 196.578 73.574 197.137 73.8928C197.268 73.9676 197.315 74.1373 197.242 74.272C197.17 74.4066 197.004 74.4551 196.873 74.3803C196.413 74.1177 195.846 74.0131 195.194 74.0489C194.52 74.0858 193.79 74.2689 193.054 74.5516C192.82 74.6415 192.599 74.7365 192.394 74.8325L192.243 74.9046C192.097 74.9762 191.993 75.0314 191.939 75.0617C191.808 75.1361 191.642 75.0871 191.57 74.9523C191.498 74.8175 191.545 74.6479 191.677 74.5735L191.785 74.5149C191.844 74.4833 191.92 74.4449 192.009 74.4011C192.269 74.2743 192.556 74.1476 192.864 74.0293C193.648 73.7283 194.428 73.5323 195.165 73.492Z"
              fill="#7D4556"/>
        <path d="M188.28 75.8636C188.388 75.8068 188.521 75.8512 188.577 75.9629L188.626 76.0675C188.646 76.1121 188.669 76.1662 188.696 76.2291C188.784 76.4371 188.871 76.6696 188.953 76.9215C189.22 77.7476 189.364 78.5831 189.319 79.3718C189.291 79.8523 189.206 80.2905 189.049 80.8538L188.819 81.6587C188.661 82.2312 188.659 82.3439 188.715 82.5544C188.802 82.8812 189.188 83.0907 190.09 83.1915C190.211 83.205 190.299 83.317 190.286 83.4415C190.273 83.5661 190.164 83.656 190.042 83.6425C188.979 83.5237 188.436 83.2291 188.289 82.6739L188.262 82.5685C188.197 82.2804 188.229 82.1037 188.48 81.2289L188.577 80.8969C188.756 80.2787 188.85 79.8317 188.878 79.3451C188.919 78.622 188.784 77.8406 188.533 77.0647C188.471 76.8736 188.406 76.6944 188.34 76.5298L188.29 76.4091C188.241 76.2923 188.203 76.2103 188.183 76.1686C188.127 76.0569 188.171 75.9204 188.28 75.8636Z"
              fill="#9B6160"/>
        <path d="M192.488 84.1996C192.612 84.1665 192.739 84.2431 192.771 84.3705C192.803 84.4979 192.728 84.6279 192.604 84.6609C190.91 85.1119 189.154 85.1119 187.531 84.8421C187.341 84.8106 187.167 84.7772 187.01 84.7435L186.794 84.6943C186.734 84.6798 186.689 84.6682 186.66 84.6602C186.537 84.6255 186.464 84.4945 186.497 84.3676C186.531 84.2406 186.659 84.1657 186.782 84.2004L186.996 84.2528C187.173 84.2932 187.377 84.3338 187.605 84.3716C189.169 84.6317 190.864 84.6317 192.488 84.1996Z"
              fill="#7D4556"/>
        <path fill-rule="evenodd" clip-rule="evenodd"
              d="M181.103 79.3419C181.129 81.5271 182.875 83.2776 185.004 83.2515C187.132 83.2249 188.837 81.4322 188.812 79.2469C188.786 77.0616 187.04 75.3112 184.911 75.3372C182.783 75.3638 181.078 77.1566 181.103 79.3419Z"
              fill="white"/>
        <path d="M184.908 75.0584C182.63 75.0869 180.805 77.006 180.832 79.3452C180.859 81.6843 182.729 83.5582 185.007 83.5304C187.286 83.5019 189.111 81.5828 189.084 79.2436C189.056 76.9042 187.187 75.0306 184.908 75.0584ZM184.915 75.616C186.893 75.5919 188.516 77.2189 188.54 79.2503C188.564 81.2815 186.979 82.948 185.001 82.9728C183.022 82.9969 181.399 81.3697 181.375 79.3386C181.352 77.3429 182.881 75.6994 184.811 75.6188L184.915 75.616Z"
              fill="#7D4556"/>
        <path d="M184.016 79.5332C183.999 79.6695 183.887 79.7757 183.749 79.7774C183.612 79.7791 183.497 79.6756 183.478 79.5398L183.475 79.502C183.473 79.2734 183.514 78.9645 183.642 78.6511C183.868 78.0987 184.299 77.7484 184.948 77.7404C185.593 77.7324 186.048 78.0461 186.321 78.5566C186.477 78.8482 186.545 79.1349 186.562 79.3378C186.576 79.4912 186.465 79.6266 186.316 79.6403C186.166 79.6539 186.035 79.5407 186.021 79.3873L186.015 79.3383C186.01 79.3071 186.002 79.2663 185.991 79.2183C185.959 79.0833 185.911 78.9485 185.845 78.825C185.663 78.4846 185.385 78.2927 184.955 78.298C184.54 78.3031 184.29 78.5057 184.143 78.8666C184.089 79.0002 184.053 79.1465 184.033 79.2939L184.023 79.3927C184.02 79.422 184.019 79.4475 184.018 79.4683L184.018 79.4961L184.016 79.5332Z"
              fill="#7D4556"/>
        <path d="M189.037 77.646C189.594 77.4631 190.184 77.4392 190.747 77.6825C190.797 77.7043 190.847 77.7282 190.896 77.7541L190.969 77.7947L190.701 78.28C190.647 78.2486 190.592 78.2207 190.536 78.1964C190.111 78.0125 189.647 78.0312 189.203 78.1771C189.097 78.212 189.015 78.2462 188.965 78.2707L188.938 78.2842L188.686 77.7906C188.757 77.752 188.877 77.6985 189.037 77.646Z"
              fill="#7D4556"/>
        <path d="M195.649 90.598C195.762 90.5506 195.891 90.6062 195.937 90.7222C195.983 90.8381 195.929 90.9705 195.816 91.0179C191.949 92.6395 187.991 92.3967 184.501 91.1639C184.386 91.1232 184.324 90.9941 184.364 90.8757C184.404 90.7572 184.53 90.6942 184.645 90.735C188.042 91.9352 191.897 92.1716 195.649 90.598Z"
              fill="#9B6160"/>
        <path d="M190.647 86.4263C190.769 86.4263 190.868 86.5278 190.868 86.6531C190.868 86.7658 190.788 86.8594 190.683 86.8769L190.647 86.8799H188.905C188.783 86.8799 188.684 86.7784 188.684 86.6531C188.684 86.5403 188.764 86.4468 188.869 86.4292L188.905 86.4263H190.647Z"
              fill="#9B6160"/>
        <path d="M189.652 88.8955C189.762 88.8955 189.853 88.9778 189.87 89.0855L189.873 89.1223V91.5919C189.873 91.7172 189.774 91.8187 189.652 91.8187C189.542 91.8187 189.451 91.7365 189.434 91.6287L189.431 91.5919V89.1223C189.431 88.9971 189.53 88.8955 189.652 88.8955Z"
              fill="#9B6160"/>
        <path d="M190.617 89.5788C190.726 89.5635 190.827 89.6324 190.858 89.7368L190.866 89.7729L191.114 91.6461C191.131 91.7702 191.046 91.8845 190.925 91.9014C190.816 91.9167 190.715 91.8478 190.684 91.7434L190.676 91.7073L190.428 89.8341C190.411 89.71 190.496 89.5957 190.617 89.5788Z"
              fill="#9B6160"/>
        <path d="M188.322 90.1729L188.358 90.1755C188.467 90.1926 188.544 90.2881 188.545 90.3973L188.543 90.4341L188.377 91.541C188.359 91.6648 188.246 91.7497 188.125 91.7307C188.017 91.7136 187.939 91.6181 187.938 91.5089L187.941 91.4721L188.106 90.3653C188.123 90.2538 188.216 90.1739 188.322 90.1729Z"
              fill="#9B6160"/>
        <path d="M191.502 90.0097C191.608 89.9806 191.717 90.036 191.76 90.1356L191.772 90.1704L192.104 91.4478C192.135 91.5689 192.065 91.6932 191.947 91.7254C191.841 91.7545 191.733 91.6991 191.689 91.5995L191.677 91.5647L191.345 90.2873C191.314 90.1662 191.384 90.0419 191.502 90.0097Z"
              fill="#9B6160"/>
        <path d="M175.424 78.1812C175.911 77.5875 176.557 77.5875 177.165 78.5581C177.414 79.1421 177.392 79.5315 177.175 80.0753L177.052 80.3708C176.922 80.7043 176.931 80.9162 177.146 81.2481C177.21 81.3464 177.283 81.4255 177.365 81.4881C177.512 81.6017 177.659 81.6477 177.757 81.6565L177.792 81.6582C177.914 81.6582 178.013 81.7597 178.013 81.885C178.013 82.0102 177.914 82.1118 177.792 82.1118C177.608 82.1118 177.353 82.0464 177.1 81.851C176.979 81.7578 176.87 81.6412 176.779 81.4998C176.494 81.0611 176.464 80.7094 176.612 80.2829L176.663 80.1494C176.672 80.1271 176.688 80.0902 176.73 79.9916C176.938 79.5004 176.966 79.2239 176.777 78.7723C176.355 78.1025 176.066 78.1025 175.761 78.4737C175.676 78.5769 175.616 78.6816 175.586 78.7457C175.534 78.8591 175.403 78.9076 175.292 78.8543C175.182 78.8009 175.135 78.6658 175.187 78.5524C175.231 78.4557 175.31 78.3192 175.424 78.1812Z"
              fill="#9B6160"/>
        <path d="M202.413 78.5257C203.004 77.5873 203.65 77.5873 204.137 78.1811C204.251 78.3191 204.33 78.4556 204.374 78.5523C204.426 78.6657 204.378 78.8008 204.268 78.8541C204.158 78.9075 204.026 78.8588 203.974 78.7455C203.945 78.6814 203.884 78.5766 203.799 78.4735C203.495 78.1023 203.206 78.1023 202.801 78.7398C202.607 79.1933 202.62 79.4647 202.794 79.9016L202.918 80.2019C203.099 80.6656 203.085 81.0335 202.782 81.4993C202.69 81.6412 202.582 81.7582 202.46 81.8515C202.207 82.0464 201.953 82.1116 201.769 82.1116C201.647 82.1116 201.548 82.0101 201.548 81.8848C201.548 81.7721 201.628 81.6786 201.733 81.661L201.769 81.658C201.865 81.658 202.03 81.6158 202.196 81.4884C202.277 81.4258 202.35 81.3466 202.414 81.2479C202.616 80.9382 202.636 80.7329 202.532 80.4358L202.469 80.2756C202.46 80.2523 202.446 80.2198 202.426 80.1725C202.173 79.5764 202.132 79.1762 202.413 78.5257Z"
              fill="#9B6160"/>
        <path fill-rule="evenodd" clip-rule="evenodd"
              d="M177.764 79.9265C177.764 79.9265 175.995 77.9964 176.879 75.6121C175.331 72.7736 176.327 70.0488 177.764 69.0272C177.322 66.5298 178.98 62.1018 182.409 61.6476C184.427 62.4708 186.832 62.556 186.832 62.556C186.832 62.556 192.582 59.1502 196.563 63.2371C200.654 62.7828 202.756 67.5514 202.423 69.254C204.635 72.0926 202.866 76.4069 202.866 76.4069C202.866 76.4069 202.619 78.0757 201.871 80.3807C201.097 82.765 200.765 79.6997 200.765 79.0186C200.765 78.3369 199.107 77.7696 199.659 74.7043C197.779 73.3416 198.194 71.2416 198.194 71.2416C198.194 71.2416 196.839 72.6605 192.969 70.7305C190.204 73.1147 186.002 70.7305 186.002 70.7305C186.002 70.7305 182.602 72.4047 180.611 71.1563C180.611 71.1563 181.164 72.8589 179.617 75.2432C180.17 77.5138 178.538 78.5644 178.98 79.9265C179.422 81.2886 178.207 82.6513 177.764 79.9265Z"
              fill="#7D4556"/>
        <path fill-rule="evenodd" clip-rule="evenodd"
              d="M171.597 117.078C171.597 117.078 176.744 123.693 182.567 118.75C188.505 113.709 183.042 107.224 183.042 107.224C183.042 107.224 179.519 102.554 175.08 97.0417C171.611 92.7346 168.965 89.4158 166.49 86.8767C163.819 84.1374 159.643 83.6305 156.916 85.9452C152.771 89.4642 153.138 93.4979 155.398 96.5784C157.595 99.5747 160.682 103.523 163.175 106.77C167.971 113.013 171.597 117.078 171.597 117.078Z"
              fill="#ADC6FF"/>
        <path fill-rule="evenodd" clip-rule="evenodd"
              d="M142.438 54.4819C142.438 54.4819 143.95 61.679 147.23 62.4737C150.2 63.1935 151.607 59.4265 151.607 59.4265C151.607 59.4265 152.382 56.3533 152.338 52.812C152.31 50.4918 152.897 46.0722 151.735 45.768C150.223 45.3712 150.34 49.9904 149.301 50.4622C147.195 51.4172 146.263 44.17 145.497 43.0783C144.002 40.9438 140.56 45.863 142.438 54.4819Z"
              fill="#C99382"/>
        <path d="M144.346 43.2252C144.468 43.2294 144.563 43.3342 144.559 43.4594C144.51 44.991 144.795 46.6079 145.303 48.1984C145.467 48.713 145.642 49.187 145.818 49.6091L145.907 49.8171L146.042 50.1158C146.045 50.1221 146.047 50.1275 146.05 50.1319C146.105 50.2438 146.061 50.3801 145.952 50.4365C145.843 50.4929 145.71 50.448 145.655 50.3361L145.587 50.1906L145.503 50.0025C145.474 49.9352 145.443 49.8634 145.412 49.7873C145.231 49.3536 145.051 48.8673 144.883 48.3395C144.361 46.7027 144.066 45.0357 144.118 43.4444C144.122 43.3192 144.224 43.2211 144.346 43.2252Z"
              fill="#9B6160"/>
        <path d="M143.005 44.4182C143.127 44.4278 143.218 44.5369 143.208 44.6618L143.204 44.7567C143.183 45.2886 143.214 46.0371 143.34 46.965C143.529 48.3609 143.896 49.8626 144.485 51.4333C144.528 51.5502 144.471 51.6814 144.358 51.7264C144.244 51.7714 144.116 51.713 144.072 51.5961C143.471 49.9921 143.095 48.4568 142.902 47.0274C142.781 46.1355 142.745 45.4007 142.758 44.853L142.765 44.6701C142.766 44.6515 142.767 44.637 142.768 44.6268C142.777 44.5019 142.884 44.4085 143.005 44.4182Z"
              fill="#9B6160"/>
        <path d="M142.051 47.8101C142.172 47.7959 142.282 47.8852 142.295 48.0097C142.41 49.0414 142.566 49.9764 142.754 50.8151C142.899 51.4675 143.055 52.0243 143.211 52.4859L143.273 52.6673C143.294 52.7239 143.313 52.7768 143.332 52.826L143.406 53.012C143.409 53.0179 143.411 53.0228 143.413 53.0268C143.464 53.1405 143.416 53.2753 143.305 53.3279C143.194 53.3806 143.063 53.3311 143.012 53.2175L142.966 53.1083L142.95 53.0669C142.902 52.9463 142.849 52.802 142.793 52.6341C142.632 52.1572 142.472 51.5848 142.323 50.9164C142.132 50.0613 141.973 49.1097 141.856 48.0612C141.843 47.9367 141.93 47.8243 142.051 47.8101Z"
              fill="#9B6160"/>
        <path fill-rule="evenodd" clip-rule="evenodd"
              d="M166.918 87.3679C166.918 87.3679 169.698 95.5756 163.092 98.1849C156.28 100.875 153.259 93.1278 153.259 93.1278C153.259 93.1278 151.264 87.6225 148.776 80.8483C147.258 76.7124 145.67 72.1108 144.984 68.6009C144.24 64.8 146.043 63.6811 149.345 62.377C153.267 60.828 155.042 60.5976 156.872 63.966C158.617 67.1777 160.401 71.7805 161.942 75.2837C164.879 81.9618 166.918 87.3679 166.918 87.3679Z"
              fill="#ADC6FF"/>
        <path fill-rule="evenodd" clip-rule="evenodd"
              d="M144.623 61.2019L152.26 58.1855L154.795 63.2662L146.059 66.7174L144.623 61.2019Z" fill="#ADC6FF"/>
        <path fill-rule="evenodd" clip-rule="evenodd"
              d="M210.171 117.078C210.171 117.078 205.024 123.693 199.202 118.75C193.264 113.709 198.727 107.224 198.727 107.224C198.727 107.224 202.249 102.554 206.688 97.0417C210.157 92.7346 212.803 89.4158 215.278 86.8767C217.95 84.1374 222.126 83.6305 224.853 85.9452C228.998 89.4642 228.63 93.4979 226.37 96.5784C224.173 99.5747 221.086 103.523 218.593 106.77C213.797 113.013 210.171 117.078 210.171 117.078Z"
              fill="#ADC6FF"/>
        <path fill-rule="evenodd" clip-rule="evenodd"
              d="M239.331 54.4819C239.331 54.4819 237.819 61.679 234.539 62.4737C231.569 63.1935 230.161 59.4265 230.161 59.4265C230.161 59.4265 229.387 56.3533 229.43 52.812C229.459 50.4918 228.872 46.0722 230.033 45.768C231.546 45.3712 231.428 49.9904 232.468 50.4622C234.574 51.4172 235.506 44.17 236.272 43.0783C237.767 40.9438 241.209 45.863 239.331 54.4819Z"
              fill="#C99382"/>
        <path d="M237.423 43.2252C237.545 43.2211 237.647 43.3192 237.651 43.4444C237.702 45.0357 237.408 46.7027 236.886 48.3395C236.718 48.8673 236.537 49.3536 236.357 49.7873L236.265 50.0025L236.182 50.1906C236.15 50.261 236.126 50.31 236.114 50.3361C236.059 50.448 235.926 50.4929 235.817 50.4365C235.708 50.3801 235.664 50.2438 235.719 50.1319L235.764 50.0356L235.781 49.9983C235.832 49.8867 235.889 49.7565 235.951 49.6091C236.126 49.187 236.302 48.713 236.466 48.1984C236.973 46.6079 237.259 44.991 237.21 43.4594C237.205 43.3342 237.301 43.2294 237.423 43.2252Z"
              fill="#9B6160"/>
        <path d="M238.764 44.4182C238.885 44.4085 238.992 44.5019 239.001 44.6268L239.007 44.7386C239.028 45.2965 238.996 46.0718 238.867 47.0274C238.673 48.4568 238.298 49.9921 237.697 51.5961C237.653 51.713 237.525 51.7714 237.411 51.7264C237.297 51.6814 237.241 51.5502 237.284 51.4333C237.873 49.8626 238.24 48.3609 238.429 46.965C238.546 46.0989 238.581 45.3892 238.569 44.866L238.565 44.7567C238.563 44.7085 238.562 44.6766 238.56 44.6618C238.551 44.5369 238.642 44.4278 238.764 44.4182Z"
              fill="#9B6160"/>
        <path d="M239.718 47.8098C239.839 47.824 239.926 47.9365 239.912 48.0609C239.796 49.1095 239.637 50.0611 239.446 50.9162C239.313 51.5103 239.172 52.0286 239.029 52.4713L238.976 52.6339C238.931 52.7682 238.888 52.8874 238.848 52.9914L238.788 53.1438C238.775 53.1767 238.764 53.2012 238.757 53.2172C238.706 53.3309 238.574 53.3803 238.464 53.3277C238.353 53.275 238.305 53.1402 238.356 53.0265L238.395 52.9338L238.41 52.8966C238.454 52.7832 238.504 52.6462 238.558 52.4857C238.714 52.0241 238.869 51.4673 239.015 50.8148C239.202 49.9761 239.359 49.0411 239.473 48.0094C239.486 47.8974 239.576 47.8138 239.682 47.8086L239.718 47.8098Z"
              fill="#9B6160"/>
        <path fill-rule="evenodd" clip-rule="evenodd"
              d="M214.85 87.3679C214.85 87.3679 212.071 95.5756 218.676 98.1849C225.488 100.875 228.51 93.1278 228.51 93.1278C228.51 93.1278 230.504 87.6225 232.992 80.8483C234.511 76.7124 236.099 72.1108 236.785 68.6009C237.529 64.8 235.726 63.6811 232.423 62.377C228.501 60.828 226.726 60.5976 224.897 63.966C223.152 67.1777 221.367 71.7805 219.826 75.2837C216.89 81.9618 214.85 87.3679 214.85 87.3679Z"
              fill="#ADC6FF"/>
        <path fill-rule="evenodd" clip-rule="evenodd"
              d="M237.145 61.2019L229.508 58.1855L226.973 63.2662L235.71 66.7174L237.145 61.2019Z" fill="#ADC6FF"/>
        <path d="M203.587 145.796C203.712 145.796 203.813 145.9 203.813 146.028C203.813 146.144 203.731 146.239 203.624 146.257L203.587 146.26H174.131C174.006 146.26 173.905 146.156 173.905 146.028C173.905 145.913 173.987 145.817 174.095 145.799L174.131 145.796H203.587Z"
              fill="#253368"/>
        <path d="M203.587 150.03C203.712 150.03 203.813 150.134 203.813 150.262C203.813 150.378 203.731 150.473 203.623 150.491L203.587 150.494H173.542C173.417 150.494 173.316 150.39 173.316 150.262C173.316 150.147 173.398 150.051 173.505 150.033L173.542 150.03H203.587Z"
              fill="#253368"/>
        <path d="M102.995 88.208C102.995 88.3797 103.124 88.5188 103.283 88.5188C103.442 88.5188 103.571 88.3797 103.571 88.208V84.0642C103.571 83.8925 103.442 83.7534 103.283 83.7534C103.124 83.7534 102.995 83.8925 102.995 84.0642V88.208Z"
              fill="#4D5DFD"/>
        <path d="M99.9577 89.2168C100.014 89.3172 100.117 89.3733 100.223 89.3733C100.275 89.3733 100.328 89.3598 100.376 89.3313C100.523 89.2449 100.573 89.0535 100.489 88.9038L98.4449 85.2902C98.3603 85.1406 98.1729 85.0893 98.0262 85.1757C97.8796 85.2622 97.8293 85.4535 97.914 85.6032L99.9577 89.2168Z"
              fill="#4D5DFD"/>
        <path d="M97.9518 91.7067C97.9002 91.7067 97.8477 91.6931 97.7997 91.6645L94.2801 89.5663C94.1343 89.4794 94.0844 89.2869 94.1685 89.1364C94.2527 88.9859 94.4391 88.9342 94.5849 89.0212L98.1046 91.1194C98.2503 91.2063 98.3003 91.3988 98.2161 91.5493C98.1597 91.6503 98.0572 91.7067 97.9518 91.7067Z"
              fill="#4D5DFD"/>
        <path d="M93.0859 94.8289H97.122C97.2892 94.8289 97.4247 94.6965 97.4247 94.5331C97.4247 94.3698 97.2892 94.2373 97.122 94.2373H93.0859C92.9187 94.2373 92.7832 94.3698 92.7832 94.5331C92.7832 94.6965 92.9187 94.8289 93.0859 94.8289Z"
              fill="#4D5DFD"/>
        <path d="M94.4328 100.022C94.3274 100.022 94.225 99.9651 94.1685 99.8641C94.0844 99.7136 94.1343 99.5211 94.2801 99.4342L97.7997 97.336C97.9456 97.2491 98.1319 97.3007 98.2161 97.4512C98.3003 97.6017 98.2503 97.7942 98.1045 97.8811L94.5849 99.9793C94.5369 100.008 94.4845 100.022 94.4328 100.022Z"
              fill="#4D5DFD"/>
        <path d="M98.0262 103.825C98.0745 103.853 98.1272 103.867 98.1792 103.867C98.2851 103.867 98.3882 103.811 98.445 103.71L100.489 100.097C100.573 99.947 100.523 99.7556 100.376 99.6692C100.23 99.5827 100.042 99.6341 99.9577 99.7837L97.914 103.397C97.8293 103.547 97.8796 103.738 98.0262 103.825Z"
              fill="#4D5DFD"/>
        <path d="M103.283 105.247C103.124 105.247 102.995 105.108 102.995 104.936V100.792C102.995 100.621 103.124 100.482 103.283 100.482C103.442 100.482 103.571 100.621 103.571 100.792V104.936C103.571 105.108 103.442 105.247 103.283 105.247Z"
              fill="#4D5DFD"/>
        <path d="M108.056 103.71C108.113 103.811 108.216 103.867 108.322 103.867C108.374 103.867 108.427 103.853 108.475 103.825C108.622 103.738 108.672 103.547 108.587 103.397L106.544 99.7837C106.459 99.6341 106.272 99.5827 106.125 99.6692C105.978 99.7556 105.928 99.947 106.013 100.097L108.056 103.71Z"
              fill="#4D5DFD"/>
        <path d="M112.068 100.022C112.017 100.022 111.964 100.008 111.916 99.9793L108.397 97.8811C108.251 97.7942 108.201 97.6017 108.285 97.4512C108.369 97.3007 108.556 97.2491 108.702 97.336L112.221 99.4342C112.367 99.5211 112.417 99.7136 112.333 99.8641C112.276 99.9651 112.174 100.022 112.068 100.022Z"
              fill="#4D5DFD"/>
        <path d="M109.379 94.8289H113.415C113.583 94.8289 113.718 94.6965 113.718 94.5331C113.718 94.3698 113.583 94.2373 113.415 94.2373H109.379C109.212 94.2373 109.077 94.3698 109.077 94.5331C109.077 94.6965 109.212 94.8289 109.379 94.8289Z"
              fill="#4D5DFD"/>
        <path d="M108.549 91.7067C108.444 91.7067 108.342 91.6503 108.285 91.5493C108.201 91.3988 108.251 91.2063 108.397 91.1194L111.916 89.0212C112.062 88.9343 112.249 88.9858 112.333 89.1363C112.417 89.2869 112.367 89.4794 112.221 89.5663L108.702 91.6645C108.654 91.6931 108.601 91.7067 108.549 91.7067Z"
              fill="#4D5DFD"/>
        <path d="M106.125 89.3313C106.173 89.3598 106.226 89.3733 106.278 89.3733C106.384 89.3733 106.487 89.3172 106.544 89.2168L108.587 85.6032C108.672 85.4536 108.622 85.2622 108.475 85.1757C108.328 85.0893 108.141 85.1407 108.056 85.2903L106.013 88.9038C105.928 89.0535 105.978 89.2449 106.125 89.3313Z"
              fill="#4D5DFD"/>
        <path d="M189.984 25.4307C189.984 25.6024 190.113 25.7415 190.272 25.7415C190.431 25.7415 190.56 25.6024 190.56 25.4307V21.2869C190.56 21.1152 190.431 20.9761 190.272 20.9761C190.113 20.9761 189.984 21.1152 189.984 21.2869V25.4307Z"
              fill="#4D5DFD"/>
        <path d="M186.947 26.4394C187.004 26.5399 187.107 26.596 187.213 26.596C187.265 26.596 187.318 26.5824 187.366 26.554C187.513 26.4676 187.563 26.2762 187.478 26.1265L185.435 22.5129C185.35 22.3633 185.163 22.312 185.016 22.3984C184.869 22.4848 184.819 22.6762 184.904 22.8258L186.947 26.4394Z"
              fill="#4D5DFD"/>
        <path d="M184.942 28.9294C184.89 28.9294 184.837 28.9158 184.789 28.8871L181.27 26.7889C181.124 26.702 181.074 26.5096 181.158 26.359C181.242 26.2085 181.429 26.1569 181.575 26.2438L185.094 28.342C185.24 28.4289 185.29 28.6214 185.206 28.772C185.149 28.8729 185.047 28.9294 184.942 28.9294Z"
              fill="#4D5DFD"/>
        <path d="M180.076 32.0516H184.112C184.279 32.0516 184.414 31.9192 184.414 31.7558C184.414 31.5924 184.279 31.46 184.112 31.46H180.076C179.908 31.46 179.773 31.5924 179.773 31.7558C179.773 31.9192 179.908 32.0516 180.076 32.0516Z"
              fill="#4D5DFD"/>
        <path d="M181.423 37.2442C181.317 37.2442 181.215 37.1878 181.158 37.0868C181.074 36.9362 181.124 36.7438 181.27 36.6569L184.789 34.5586C184.935 34.4717 185.122 34.5233 185.206 34.6738C185.29 34.8244 185.24 35.0169 185.094 35.1038L181.575 37.202C181.527 37.2306 181.474 37.2442 181.423 37.2442Z"
              fill="#4D5DFD"/>
        <path d="M185.016 41.0474C185.064 41.0759 185.117 41.0894 185.169 41.0894C185.275 41.0894 185.378 41.0333 185.435 40.9329L187.478 37.3193C187.563 37.1697 187.513 36.9783 187.366 36.8918C187.219 36.8054 187.032 36.8568 186.947 37.0064L184.904 40.6199C184.819 40.7696 184.869 40.961 185.016 41.0474Z"
              fill="#4D5DFD"/>
        <path d="M190.272 42.4698C190.113 42.4698 189.984 42.3306 189.984 42.159V38.0151C189.984 37.8435 190.113 37.7043 190.272 37.7043C190.431 37.7043 190.56 37.8435 190.56 38.0151V42.159C190.56 42.3306 190.431 42.4698 190.272 42.4698Z"
              fill="#4D5DFD"/>
        <path d="M195.046 40.9329C195.103 41.0333 195.206 41.0894 195.312 41.0894C195.364 41.0894 195.417 41.0759 195.465 41.0474C195.611 40.961 195.662 40.7696 195.577 40.6199L193.533 37.0064C193.449 36.8567 193.261 36.8054 193.115 36.8918C192.968 36.9783 192.918 37.1696 193.002 37.3193L195.046 40.9329Z"
              fill="#4D5DFD"/>
        <path d="M199.058 37.2442C199.007 37.2442 198.954 37.2306 198.906 37.202L195.386 35.1038C195.241 35.0169 195.191 34.8244 195.275 34.6739C195.359 34.5233 195.545 34.4717 195.691 34.5587L199.211 36.6569C199.357 36.7438 199.407 36.9362 199.322 37.0868C199.266 37.1878 199.164 37.2442 199.058 37.2442Z"
              fill="#4D5DFD"/>
        <path d="M196.369 32.0516H200.405C200.572 32.0516 200.708 31.9192 200.708 31.7558C200.708 31.5924 200.572 31.46 200.405 31.46H196.369C196.202 31.46 196.066 31.5924 196.066 31.7558C196.066 31.9192 196.202 32.0516 196.369 32.0516Z"
              fill="#4D5DFD"/>
        <path d="M195.539 28.9294C195.434 28.9294 195.331 28.873 195.275 28.772C195.191 28.6214 195.241 28.4289 195.386 28.342L198.906 26.2438C199.052 26.1569 199.238 26.2085 199.322 26.359C199.407 26.5096 199.357 26.702 199.211 26.7889L195.691 28.8871C195.643 28.9158 195.591 28.9294 195.539 28.9294Z"
              fill="#4D5DFD"/>
        <path d="M193.115 26.554C193.163 26.5824 193.216 26.596 193.268 26.596C193.373 26.596 193.477 26.5398 193.533 26.4394L195.577 22.8259C195.662 22.6762 195.611 22.4848 195.465 22.3984C195.318 22.3119 195.131 22.3633 195.046 22.5129L193.002 26.1265C192.918 26.2762 192.968 26.4676 193.115 26.554Z"
              fill="#4D5DFD"/>
        <path d="M256.172 106.977C256.172 107.148 256.301 107.287 256.46 107.287C256.619 107.287 256.748 107.148 256.748 106.977V102.833C256.748 102.661 256.619 102.522 256.46 102.522C256.301 102.522 256.172 102.661 256.172 102.833V106.977Z"
              fill="#4D5DFD"/>
        <path d="M253.135 107.985C253.192 108.086 253.295 108.142 253.401 108.142C253.453 108.142 253.505 108.128 253.554 108.1C253.7 108.013 253.751 107.822 253.666 107.672L251.622 104.059C251.538 103.909 251.35 103.858 251.203 103.944C251.057 104.031 251.007 104.222 251.091 104.372L253.135 107.985Z"
              fill="#4D5DFD"/>
        <path d="M251.129 110.475C251.077 110.475 251.025 110.462 250.977 110.433L247.457 108.335C247.312 108.248 247.262 108.055 247.346 107.905C247.43 107.754 247.616 107.703 247.762 107.79L251.282 109.888C251.428 109.975 251.478 110.167 251.393 110.318C251.337 110.419 251.234 110.475 251.129 110.475Z"
              fill="#4D5DFD"/>
        <path d="M246.263 113.597H250.299C250.466 113.597 250.602 113.465 250.602 113.302C250.602 113.138 250.466 113.006 250.299 113.006H246.263C246.096 113.006 245.96 113.138 245.96 113.302C245.96 113.465 246.096 113.597 246.263 113.597Z"
              fill="#4D5DFD"/>
        <path d="M247.61 118.79C247.505 118.79 247.402 118.734 247.346 118.633C247.262 118.482 247.312 118.29 247.457 118.203L250.977 116.105C251.123 116.018 251.309 116.069 251.393 116.22C251.478 116.37 251.428 116.563 251.282 116.65L247.762 118.748C247.714 118.776 247.662 118.79 247.61 118.79Z"
              fill="#4D5DFD"/>
        <path d="M251.203 122.593C251.252 122.622 251.304 122.635 251.356 122.635C251.462 122.635 251.565 122.579 251.622 122.479L253.666 118.865C253.751 118.716 253.7 118.524 253.554 118.438C253.407 118.351 253.22 118.403 253.135 118.552L251.091 122.166C251.007 122.316 251.057 122.507 251.203 122.593Z"
              fill="#4D5DFD"/>
        <path d="M256.46 124.016C256.301 124.016 256.172 123.877 256.172 123.705V119.561C256.172 119.389 256.301 119.25 256.46 119.25C256.619 119.25 256.748 119.389 256.748 119.561V123.705C256.748 123.877 256.619 124.016 256.46 124.016Z"
              fill="#4D5DFD"/>
        <path d="M261.234 122.479C261.29 122.579 261.393 122.635 261.499 122.635C261.551 122.635 261.604 122.622 261.652 122.593C261.799 122.507 261.849 122.316 261.764 122.166L259.721 118.552C259.636 118.403 259.449 118.351 259.302 118.438C259.155 118.524 259.105 118.716 259.19 118.865L261.234 122.479Z"
              fill="#4D5DFD"/>
        <path d="M265.246 118.79C265.194 118.79 265.142 118.776 265.094 118.748L261.574 116.65C261.428 116.563 261.378 116.37 261.462 116.22C261.547 116.069 261.733 116.018 261.879 116.105L265.398 118.203C265.544 118.29 265.594 118.482 265.51 118.633C265.454 118.734 265.351 118.79 265.246 118.79Z"
              fill="#4D5DFD"/>
        <path d="M262.556 113.597H266.593C266.76 113.597 266.895 113.465 266.895 113.302C266.895 113.138 266.76 113.006 266.593 113.006H262.556C262.389 113.006 262.254 113.138 262.254 113.302C262.254 113.465 262.389 113.597 262.556 113.597Z"
              fill="#4D5DFD"/>
        <path d="M261.727 110.475C261.621 110.475 261.519 110.419 261.462 110.318C261.378 110.167 261.428 109.975 261.574 109.888L265.094 107.79C265.239 107.703 265.426 107.754 265.51 107.905C265.594 108.055 265.544 108.248 265.398 108.335L261.879 110.433C261.831 110.462 261.778 110.475 261.727 110.475Z"
              fill="#4D5DFD"/>
        <path d="M259.302 108.1C259.35 108.128 259.403 108.142 259.455 108.142C259.561 108.142 259.664 108.086 259.721 107.985L261.765 104.372C261.849 104.222 261.799 104.031 261.652 103.944C261.506 103.858 261.318 103.909 261.234 104.059L259.19 107.672C259.105 107.822 259.155 108.013 259.302 108.1Z"
              fill="#4D5DFD"/>
        <path fill-rule="evenodd" clip-rule="evenodd"
              d="M79.0877 283.607C77.9051 283.607 76.9733 282.573 77.0654 281.363L84.7637 180.095H92.1407L81.2735 281.752C81.1605 282.808 80.2918 283.607 79.2571 283.607"
              fill="#FFC53D"/>
        <path fill-rule="evenodd" clip-rule="evenodd"
              d="M249.048 283.607C250.231 283.607 251.163 282.573 251.07 281.363L243.372 180.095H235.995L246.862 281.752C246.975 282.808 247.844 283.607 248.879 283.607"
              fill="#FFC53D"/>
        <path fill-rule="evenodd" clip-rule="evenodd"
              d="M247.735 180.095H80.4007C79.7932 180.095 79.2247 179.788 78.8809 179.274C78.0396 178.018 78.9157 176.308 80.4007 176.308H247.735C249.22 176.308 250.096 178.018 249.255 179.274C248.911 179.788 248.343 180.095 247.735 180.095Z"
              fill="#FFC53D"/>
        <path fill-rule="evenodd" clip-rule="evenodd"
              d="M243.618 182.62H84.5181L84.7638 180.095H243.372L243.618 182.62Z" fill="#D48806"/>
        <path fill-rule="evenodd" clip-rule="evenodd" d="M127.67 173.417H137.974V165.104H127.67V173.417Z"
              fill="#4D5DFD"/>
        <path fill-rule="evenodd" clip-rule="evenodd"
              d="M144.218 176.263H121.77C120.856 176.263 120.114 175.501 120.114 174.563C120.114 173.623 120.856 172.862 121.77 172.862H144.218C145.133 172.862 145.874 173.623 145.874 174.563C145.874 175.501 145.133 176.263 144.218 176.263Z"
              fill="#4D5DFD"/>
        <path fill-rule="evenodd" clip-rule="evenodd"
              d="M167.442 165.644H97.7108C95.999 165.644 94.6113 164.219 94.6113 162.462V118.828C94.6113 117.071 95.999 115.646 97.7108 115.646H167.442C169.153 115.646 170.541 117.071 170.541 118.828V162.462C170.541 164.219 169.153 165.644 167.442 165.644Z"
              fill="#253368"/>
        <path d="M250.251 139.936C250.251 132.102 244.064 125.685 236.431 125.685C228.798 125.685 222.61 132.102 222.61 139.936C222.61 143.037 224.214 147.042 226.789 149.995C229.342 152.92 230.07 157.846 230.07 161.774V163.314H242.792V161.787C242.792 157.859 243.52 152.943 246.06 150.007C248.644 147.024 250.251 142.663 250.251 139.936Z"
              fill="#FFE58F"/>
        <path d="M247.977 139.897C247.977 133.354 242.809 127.992 236.431 127.992C230.053 127.992 224.887 133.353 224.887 139.897C224.887 142.49 226.226 145.834 228.377 148.301C230.51 150.745 232.094 154.86 232.094 158.141V159.426H240.769V158.152C240.769 154.87 242.353 150.763 244.475 148.311C246.634 145.819 247.977 142.177 247.977 139.898V139.897Z"
              fill="#FAAD14"/>
        <path d="M239.939 170.501H232.924C232.678 170.501 232.455 170.337 232.321 170.068L231.367 167.533H241.496L240.542 170.068C240.408 170.337 240.185 170.501 239.94 170.501H239.939Z"
              fill="#253368"/>
        <path d="M241.643 157.455H231.22C230.446 157.455 229.818 158.1 229.818 158.895V167.185C229.818 167.98 230.446 168.624 231.22 168.624H241.643C242.417 168.624 243.045 167.98 243.045 167.185V158.895C243.045 158.1 242.417 157.455 241.643 157.455Z"
              fill="#4D5DFD"/>
        <path d="M237.286 160.448C237.415 160.448 237.52 160.556 237.52 160.688C237.52 160.817 237.421 160.922 237.297 160.928L237.286 160.928H229.835C229.706 160.928 229.601 160.821 229.601 160.688C229.601 160.559 229.7 160.454 229.825 160.448L229.835 160.448H237.286Z"
              fill="white"/>
        <path d="M237.286 165.414C237.415 165.414 237.52 165.521 237.52 165.653C237.52 165.782 237.421 165.888 237.297 165.893L237.286 165.893H229.835C229.706 165.893 229.601 165.786 229.601 165.653C229.601 165.524 229.7 165.419 229.825 165.414L229.835 165.414H237.286Z"
              fill="white"/>
        <path d="M243.002 162.931C243.131 162.931 243.235 163.038 243.235 163.17C243.235 163.299 243.136 163.405 243.012 163.41L243.002 163.41H235.55C235.421 163.41 235.316 163.303 235.316 163.17C235.316 163.042 235.416 162.936 235.54 162.931L235.55 162.931H243.002Z"
              fill="white"/>
        <path d="M237.374 134.208L232.164 142.355C231.884 142.797 232.186 143.34 232.691 143.34H235.024L232.155 148.905C231.941 149.355 232.493 149.772 232.831 149.416L240.634 141.368C241.033 140.949 240.75 140.233 240.186 140.233H236.658L238.134 134.563C238.249 134.079 237.636 133.796 237.374 134.208Z"
              fill="white"/>
    </g>
    <defs>
        <clipPath id="clip0_385_10921">
            <rect width="350" height="250" fill="white" transform="translate(-1)"/>
        </clipPath>
    </defs>
</svg>
