<svg width="497" height="500" viewBox="0 0 497 500" fill="none" xmlns="http://www.w3.org/2000/svg">
    <path d="M167.955 313.932C248.576 313.932 313.932 248.576 313.932 167.955C313.932 87.3345 248.576 21.9785 167.955 21.9785C87.3345 21.9785 21.9785 87.3345 21.9785 167.955C21.9785 248.576 87.3345 313.932 167.955 313.932Z"
          fill="#597EF7"/>
    <path d="M167.955 303.505C242.817 303.505 303.505 242.817 303.505 167.955C303.505 93.0931 242.817 32.4054 167.955 32.4054C93.0929 32.4054 32.4053 93.0931 32.4053 167.955C32.4053 242.817 93.0929 303.505 167.955 303.505Z"
          fill="#A3B5D6"/>
    <path d="M167.955 298.617C240.118 298.617 298.617 240.118 298.617 167.955C298.617 95.7924 240.118 37.293 167.955 37.293C95.7924 37.293 37.293 95.7924 37.293 167.955C37.293 240.118 95.7924 298.617 167.955 298.617Z"
          fill="white"/>
    <path d="M167.956 84.8397C170.835 84.8397 173.169 87.1739 173.169 90.0532V164.133H162.742V90.0532C162.742 87.1739 165.076 84.8397 167.956 84.8397Z"
          fill="#253368"/>
    <path d="M221.041 167.955C221.041 170.834 218.707 173.168 215.828 173.168H167.955V162.742H215.828C218.707 162.742 221.041 165.076 221.041 167.955Z"
          fill="#253368"/>
    <path d="M167.955 180.011C174.613 180.011 180.011 174.613 180.011 167.955C180.011 161.297 174.613 155.899 167.955 155.899C161.296 155.899 155.898 161.297 155.898 167.955C155.898 174.613 161.296 180.011 167.955 180.011Z"
          fill="#FF7946"/>
    <path d="M173.155 58.4726C173.155 55.5933 170.821 53.2592 167.942 53.2592C165.063 53.2592 162.729 55.5933 162.729 58.4726V68.8995C162.729 71.7788 165.063 74.113 167.942 74.113C170.821 74.113 173.155 71.7788 173.155 68.8995V58.4726Z"
          fill="#E4EBF7"/>
    <path d="M86.8437 86.8592C88.8797 84.8232 92.1806 84.8232 94.2166 86.8592L101.59 94.2321C103.626 96.2681 103.626 99.5691 101.59 101.605C99.5536 103.641 96.2526 103.641 94.2166 101.605L86.8437 94.2321C84.8077 92.1961 84.8077 88.8952 86.8437 86.8592Z"
          fill="#E4EBF7"/>
    <path d="M53.2588 167.968C53.2588 165.089 55.5929 162.755 58.4722 162.755H68.8991C71.7784 162.755 74.1126 165.089 74.1126 167.968C74.1126 170.847 71.7784 173.182 68.8991 173.182H58.4722C55.5929 173.182 53.2588 170.847 53.2588 167.968Z"
          fill="#E4EBF7"/>
    <path d="M86.8614 249.068C84.8254 247.032 84.8254 243.731 86.8614 241.695L94.2343 234.322C96.2703 232.286 99.5713 232.286 101.607 234.322C103.643 236.358 103.643 239.659 101.607 241.695L94.2343 249.068C92.1983 251.104 88.8974 251.104 86.8614 249.068Z"
          fill="#E4EBF7"/>
    <path d="M162.755 277.437C162.755 280.317 165.089 282.651 167.968 282.651C170.848 282.651 173.182 280.317 173.182 277.437V267.011C173.182 264.131 170.848 261.797 167.968 261.797C165.089 261.797 162.755 264.131 162.755 267.011V277.437Z"
          fill="#E4EBF7"/>
    <path d="M249.066 249.048C247.03 251.084 243.73 251.084 241.694 249.048L234.321 241.675C232.285 239.639 232.285 236.338 234.321 234.302C236.357 232.266 239.658 232.266 241.694 234.302L249.066 241.675C251.102 243.711 251.102 247.012 249.066 249.048Z"
          fill="#E4EBF7"/>
    <path d="M282.651 167.942C282.651 170.821 280.317 173.155 277.438 173.155H267.011C264.132 173.155 261.798 170.821 261.798 167.942C261.798 165.063 264.132 162.729 267.011 162.729H277.438C280.317 162.729 282.651 165.063 282.651 167.942Z"
          fill="#E4EBF7"/>
    <path d="M249.05 86.8452C251.086 88.8811 251.086 92.1821 249.05 94.2181L241.677 101.591C239.641 103.627 236.34 103.627 234.304 101.591C232.268 99.555 232.268 96.2541 234.304 94.2181L241.677 86.8452C243.713 84.8092 247.014 84.8092 249.05 86.8452Z"
          fill="#E4EBF7"/>
    <path fill-rule="evenodd" clip-rule="evenodd"
          d="M270.649 601.763C249.636 600.002 233.696 582.079 234.396 561.005L237.174 477.48C237.999 452.668 259.428 433.601 284.168 435.668C308.76 437.721 326.693 459.837 323.624 484.322L313.229 567.245C310.589 588.307 291.801 603.537 270.649 601.763Z"
          fill="#4E5C93"/>
    <path fill-rule="evenodd" clip-rule="evenodd"
          d="M387.215 601.714C408.234 600.043 424.253 582.189 423.642 561.113L421.225 477.575C420.506 452.76 399.161 433.601 374.411 435.561C349.811 437.51 331.781 459.547 334.745 484.045L344.784 567.012C347.334 588.085 366.054 603.396 387.215 601.714Z"
          fill="#4E5C93"/>
    <path fill-rule="evenodd" clip-rule="evenodd"
          d="M249.082 408.174C249.082 408.174 249.034 412.762 247.298 419.891C243.971 433.57 234.388 465.22 239.599 483.16C244.879 501.327 287.128 517.668 331.766 517.668C353.588 517.668 412.638 514.267 419.668 484.864C425.917 458.734 413.708 432.213 409.901 418.967C407.822 411.73 404.872 407.322 404.872 407.322C404.872 407.322 261.862 408.174 249.082 408.174Z"
          fill="#4E5C93"/>
    <path d="M328.7 409.591C329.083 409.584 329.405 409.863 329.461 410.232L329.47 410.334L331.259 509.844C331.266 510.262 330.933 510.606 330.516 510.614C330.133 510.621 329.811 510.342 329.754 509.973L329.746 509.871L327.957 410.361C327.95 409.944 328.282 409.599 328.7 409.591Z"
          fill="#253368"/>
    <path d="M401.182 407.417C401.6 407.417 401.938 407.756 401.938 408.174C401.938 408.557 401.654 408.874 401.284 408.924L401.182 408.931H254.247C253.829 408.931 253.49 408.592 253.49 408.174C253.49 407.791 253.775 407.474 254.144 407.424L254.247 407.417H401.182Z"
          fill="#253368"/>
    <path d="M398.42 421.934C398.834 421.881 399.214 422.173 399.268 422.587C399.321 423.002 399.029 423.381 398.615 423.435C358.739 428.613 317.256 428.881 278.987 426.188L277.011 426.046C272.031 425.681 267.536 425.292 263.582 424.901L261.746 424.716C261.236 424.663 260.752 424.612 260.295 424.562L258.472 424.359L257.684 424.266C257.269 424.215 256.975 423.837 257.026 423.422C257.078 423.008 257.456 422.713 257.87 422.764L259.171 422.916L260.922 423.108C261.552 423.175 262.229 423.245 262.95 423.318L264.527 423.473C268.272 423.837 272.486 424.197 277.121 424.537C315.843 427.373 357.972 427.187 398.42 421.934Z"
          fill="#253368"/>
    <path d="M279.519 489.91C279.87 489.683 280.339 489.783 280.566 490.134C283.664 494.923 288.494 499.354 294.585 503.386C298.518 505.988 302.736 508.267 306.955 510.204C308.247 510.798 309.458 511.321 310.563 511.773L311.522 512.158L312.563 512.554C312.956 512.694 313.161 513.127 313.02 513.521C312.879 513.914 312.446 514.119 312.053 513.978L311.633 513.822L310.725 513.47L310.467 513.367C309.216 512.865 307.823 512.268 306.323 511.58C302.039 509.612 297.754 507.297 293.75 504.647C287.499 500.511 282.523 495.944 279.295 490.956C279.068 490.605 279.169 490.137 279.519 489.91Z"
          fill="#253368"/>
    <path d="M378.391 490.463C378.593 490.097 379.053 489.964 379.419 490.165C379.785 490.367 379.918 490.827 379.716 491.193C376.88 496.341 371.835 501.23 365.213 505.803C361.532 508.345 357.592 510.631 353.652 512.627C352.47 513.226 351.361 513.761 350.343 514.231L349.272 514.717L348.385 515.101C347.999 515.261 347.557 515.078 347.397 514.692C347.237 514.306 347.42 513.863 347.806 513.703L348.17 513.548C348.396 513.45 348.65 513.338 348.929 513.213L349.217 513.083C350.348 512.569 351.609 511.966 352.968 511.277C356.851 509.31 360.733 507.058 364.353 504.558C370.8 500.106 375.688 495.368 378.391 490.463Z"
          fill="#253368"/>
    <path d="M392.34 423.898C392.757 423.863 393.122 424.173 393.157 424.589L393.241 425.455C393.265 425.69 393.293 425.945 393.324 426.218C393.471 427.523 393.662 428.977 393.9 430.543C394.582 435.017 395.511 439.49 396.722 443.658C399.666 453.788 403.776 460.434 409.088 461.983C409.489 462.1 409.72 462.52 409.603 462.921C409.486 463.322 409.066 463.553 408.664 463.436C402.688 461.693 398.348 454.674 395.269 444.08C394.038 439.841 393.096 435.306 392.405 430.771C392.197 429.411 392.026 428.135 391.887 426.964L391.736 425.61L391.649 424.715C391.614 424.298 391.924 423.932 392.34 423.898Z"
          fill="#253368"/>
    <path d="M270.904 423.898C271.321 423.933 271.63 424.298 271.595 424.715L271.554 425.157C271.52 425.512 271.477 425.924 271.424 426.388C271.275 427.711 271.082 429.185 270.84 430.771C270.149 435.306 269.207 439.841 267.975 444.08C264.897 454.674 260.556 461.693 254.58 463.436C254.179 463.553 253.759 463.323 253.642 462.921C253.525 462.52 253.755 462.1 254.156 461.983C259.469 460.434 263.579 453.788 266.522 443.658C267.733 439.49 268.662 435.017 269.344 430.543C269.549 429.201 269.718 427.94 269.855 426.786L269.951 425.951L270.087 424.589C270.119 424.207 270.429 423.915 270.801 423.896L270.904 423.898Z"
          fill="#253368"/>
    <path fill-rule="evenodd" clip-rule="evenodd"
          d="M305.412 183.904L302.924 222.774C301.8 240.332 315.655 255.232 333.248 255.384C350.769 255.536 364.85 240.998 364.141 223.493L362.551 184.194L305.412 183.904Z"
          fill="#9E7D6C"/>
    <path fill-rule="evenodd" clip-rule="evenodd"
          d="M380.482 187.85C378.94 193.992 374.183 198.091 369.853 197.004C365.522 195.918 363.262 190.058 364.804 183.916C366.344 177.774 371.104 173.675 375.433 174.762C379.764 175.848 382.024 181.707 380.482 187.85Z"
          fill="#9E7D6C"/>
    <path fill-rule="evenodd" clip-rule="evenodd"
          d="M290.072 188.397C292.042 194.416 297.079 198.169 301.322 196.78C305.563 195.392 307.406 189.387 305.436 183.369C303.467 177.35 298.429 173.597 294.187 174.985C289.945 176.374 288.102 182.378 290.072 188.397Z"
          fill="#9E7D6C"/>
    <path fill-rule="evenodd" clip-rule="evenodd"
          d="M298.234 183.139C298.234 211.164 305.618 219.401 333.312 220.109C357.023 220.714 370.943 213.721 370.943 183.139C370.943 158.621 354.667 142.715 334.588 142.715C314.51 142.715 298.234 161.177 298.234 183.139Z"
          fill="#B0927B"/>
    <path fill-rule="evenodd" clip-rule="evenodd"
          d="M302.211 173.39C298.974 176.038 301.642 187.023 299.086 188.159C297.382 187.875 297.382 177.649 296.246 164.87C295.495 156.422 298.03 149.418 300.79 146.408C303.914 142.999 306.85 143.486 314.138 137.319C325.216 127.947 347.938 129.935 355.322 141.295C367.534 139.876 380.031 149.816 374.351 172.822C371.738 183.404 371.59 188.506 370.375 188.159C368.386 187.59 371.511 176.797 367.25 173.39C361.918 169.124 364.906 160.102 361.57 156.065C361.57 156.065 336.292 141.011 308.458 156.065C305.618 160.324 308.458 168.277 302.211 173.39Z"
          fill="#4A3D39"/>
    <path d="M353.023 166.893C349.937 165.467 346.23 164.895 341.991 165.653C341.168 165.8 340.621 166.586 340.768 167.408C340.915 168.231 341.701 168.779 342.523 168.632C346.124 167.989 349.208 168.464 351.754 169.64C352.356 169.918 352.875 170.214 353.307 170.505L353.52 170.654C353.581 170.697 353.632 170.735 353.671 170.766L353.759 170.837C354.388 171.387 355.344 171.323 355.894 170.694C356.444 170.065 356.381 169.109 355.752 168.559C355.24 168.111 354.325 167.495 353.023 166.893Z"
          fill="#4A3D39"/>
    <path d="M326.611 165.651C323.098 165.039 319.78 165.483 316.816 166.594C315.588 167.055 314.688 167.524 314.169 167.859C313.468 168.313 313.267 169.25 313.721 169.952C314.175 170.653 315.112 170.854 315.814 170.4L315.915 170.338C316.005 170.285 316.137 170.212 316.309 170.122C316.76 169.887 317.285 169.65 317.879 169.428C320.37 168.494 323.156 168.121 326.093 168.632C326.916 168.775 327.699 168.224 327.843 167.401C327.986 166.577 327.435 165.794 326.611 165.651Z"
          fill="#4A3D39"/>
    <path d="M340.225 169.184C339.969 169.065 339.67 169.152 339.517 169.378L339.471 169.458L337.056 174.641C336.986 174.791 336.985 174.964 337.054 175.115L337.183 175.411C337.236 175.535 337.299 175.685 337.369 175.858L337.442 176.038C337.736 176.771 338.03 177.571 338.304 178.412C338.765 179.822 339.122 181.2 339.334 182.487C340.117 187.223 338.912 189.697 334.929 189.299C334.617 189.267 334.339 189.495 334.308 189.807C334.277 190.119 334.504 190.397 334.816 190.428C339.754 190.922 341.34 187.665 340.454 182.302C340.231 180.952 339.86 179.521 339.383 178.059C339.101 177.194 338.798 176.37 338.495 175.615L338.293 175.123L338.194 174.888L340.5 169.938C340.619 169.682 340.531 169.383 340.305 169.229L340.225 169.184Z"
          fill="#7C5B4D"/>
    <path fill-rule="evenodd" clip-rule="evenodd"
          d="M345.928 176.873C345.928 178.918 347.21 180.576 348.79 180.576C350.371 180.576 351.649 178.918 351.649 176.873C351.649 174.828 350.371 173.171 348.79 173.171C347.21 173.171 345.928 174.828 345.928 176.873Z"
          fill="#4A3D39"/>
    <path fill-rule="evenodd" clip-rule="evenodd"
          d="M318.095 176.873C318.095 178.918 319.376 180.576 320.956 180.576C322.537 180.576 323.817 178.918 323.817 176.873C323.817 174.828 322.537 173.171 320.956 173.171C319.376 173.171 318.095 174.828 318.095 176.873Z"
          fill="#4A3D39"/>
    <path fill-rule="evenodd" clip-rule="evenodd"
          d="M321.808 196.679C321.808 196.679 322.124 189.693 335.441 189.863C342.457 189.952 347.653 192.419 348.222 197.247C348.947 203.402 334.873 196.112 334.873 196.112C334.873 196.112 319.821 202.929 321.808 196.679Z"
          fill="#4A3D39"/>
    <path d="M337.91 200.663L337.574 200.709C337.389 200.733 337.157 200.759 336.889 200.785C335.815 200.891 334.72 200.937 333.704 200.891C333.019 200.86 332.402 200.788 331.871 200.67C331.565 200.602 331.262 200.795 331.194 201.101C331.127 201.407 331.319 201.71 331.625 201.778C332.227 201.911 332.907 201.991 333.653 202.025C334.73 202.074 335.876 202.025 337 201.915L337.54 201.856L338.082 201.785C338.392 201.737 338.604 201.448 338.557 201.138C338.514 200.859 338.275 200.659 338.002 200.657L337.91 200.663Z"
          fill="#7C5B4D"/>
    <path d="M354.094 216.534C353.922 216.272 353.571 216.198 353.309 216.37L353.079 216.51C352.916 216.605 352.693 216.728 352.413 216.872C351.657 217.259 350.769 217.648 349.755 218.012C345.579 219.51 340.705 220.124 335.264 219.354L334.679 219.267L334.505 219.266C328.314 220.21 323.23 219.662 319.233 218.179C318.328 217.843 317.556 217.485 316.917 217.128L316.627 216.961C316.412 216.833 316.264 216.735 316.184 216.675C315.933 216.487 315.577 216.539 315.39 216.79C315.202 217.041 315.254 217.396 315.505 217.584L315.668 217.698C315.831 217.808 316.063 217.951 316.364 218.119C317.053 218.504 317.877 218.887 318.838 219.243C322.88 220.742 327.954 221.324 334.061 220.477L334.587 220.401L335.107 220.478C340.538 221.246 345.435 220.681 349.67 219.244L350.138 219.08C351.199 218.7 352.133 218.291 352.931 217.881C353.142 217.773 353.333 217.67 353.502 217.574L353.886 217.348C353.903 217.337 353.917 217.328 353.93 217.32C354.192 217.148 354.265 216.797 354.094 216.534Z"
          fill="#7C5B4D"/>
    <path d="M334.609 212.87C334.327 212.861 334.086 213.058 334.033 213.326L334.023 213.418L333.808 219.808C333.797 220.121 334.043 220.384 334.356 220.394C334.638 220.404 334.879 220.206 334.932 219.938L334.942 219.846L335.157 213.456C335.167 213.143 334.922 212.881 334.609 212.87Z"
          fill="#7C5B4D"/>
    <path d="M377.8 181.062C377.037 179.605 376.25 178.792 375.264 179.09C374.135 179.43 373.424 181.354 372.937 185.248C372.922 185.365 372.944 185.484 373 185.588C373.958 187.367 373.858 188.513 373.176 189.255C372.986 189.462 372.801 189.584 372.701 189.629C372.414 189.756 372.285 190.091 372.412 190.378C372.54 190.664 372.875 190.793 373.161 190.666C373.393 190.563 373.704 190.357 374.012 190.023C374.994 188.953 375.167 187.363 374.125 185.291L374.086 185.215L374.106 185.054C374.516 181.976 375.076 180.428 375.541 180.196L375.591 180.176C375.797 180.114 376.288 180.622 376.795 181.589C376.982 181.947 377.157 182.334 377.313 182.721L377.451 183.075C377.475 183.139 377.494 183.191 377.507 183.231C377.609 183.527 377.932 183.685 378.228 183.583C378.525 183.481 378.682 183.158 378.58 182.862L378.474 182.57C378.443 182.489 378.406 182.397 378.366 182.296C378.196 181.877 378.007 181.457 377.8 181.062Z"
          fill="#7C5B4D"/>
    <path d="M295.052 179.09C294.064 178.791 293.276 179.604 292.513 181.062C292.306 181.457 292.116 181.877 291.947 182.296L291.796 182.685C291.77 182.756 291.748 182.815 291.732 182.862C291.63 183.158 291.788 183.481 292.084 183.583C292.381 183.685 292.704 183.527 292.805 183.231L292.9 182.972C292.929 182.898 292.962 182.814 292.999 182.721C293.156 182.334 293.33 181.947 293.518 181.589C294.025 180.622 294.516 180.114 294.722 180.176C295.165 180.311 295.703 181.661 296.118 184.418L296.23 185.214L296.189 185.291C295.186 187.284 295.307 188.83 296.191 189.898L296.301 190.023C296.608 190.358 296.92 190.563 297.151 190.666C297.438 190.793 297.773 190.664 297.9 190.378C298.027 190.091 297.898 189.756 297.612 189.629C297.512 189.584 297.327 189.462 297.137 189.256C296.455 188.514 296.355 187.367 297.314 185.588C297.37 185.484 297.392 185.366 297.377 185.249L297.283 184.542C296.8 181.122 296.109 179.411 295.052 179.09Z"
          fill="#7C5B4D"/>
    <path fill-rule="evenodd" clip-rule="evenodd"
          d="M392.827 160.25L379.561 151.799C379.561 151.799 366.131 134.249 360.923 132.197C355.716 130.147 347.89 134.486 342.494 133.645C337.1 132.804 337.975 138.345 344.775 139.678C351.576 141.011 357.948 140.458 360.771 145.73C363.596 151 366.079 171.556 375.958 173.037C379.808 174.945 382.817 176.386 385.166 177.472C390.288 179.843 396.87 177.781 399.3 172.869C399.359 172.75 399.416 172.63 399.475 172.509C401.949 167.309 398.764 161.522 392.827 160.25Z"
          fill="#B0927B"/>
    <path d="M339.678 136.08C338.434 133.98 339.601 132.45 342.474 132.898C342.724 132.937 342.896 133.171 342.857 133.421C342.818 133.672 342.583 133.843 342.333 133.804C340.196 133.47 339.634 134.208 340.467 135.612C341.471 137.308 343.998 138.939 346.974 139.522L347.394 139.602C348.212 139.751 348.918 139.842 349.991 139.939L351.557 140.069C355.97 140.413 357.801 141.017 360.041 143.497C360.918 144.469 361.767 145.707 362.617 147.265C363.019 148.002 363.398 148.992 363.817 150.347L363.982 150.897C364.369 152.249 365.814 157.62 366.346 159.344C368.748 167.129 371.61 171.458 376.024 172.262L376.276 172.303L376.412 172.346L377.737 173C380.769 174.493 383.383 175.746 385.609 176.777C390.547 179.061 396.839 177.037 399.14 172.385C399.252 172.158 399.527 172.065 399.754 172.178C399.981 172.29 400.074 172.565 399.962 172.792C397.436 177.899 390.603 180.098 385.224 177.609L383.735 176.913C382.02 176.106 380.104 175.184 377.977 174.14L376.064 173.198L375.867 173.165C371.086 172.303 368.081 167.879 365.609 160.06L365.363 159.258C364.74 157.164 363.372 152.08 363.07 151.042L363.045 150.957C362.6 149.479 362.21 148.434 361.812 147.704C360.995 146.205 360.186 145.026 359.361 144.112C357.379 141.917 355.785 141.345 351.861 141.013L350.175 140.876C348.728 140.75 347.919 140.642 346.797 140.422C343.578 139.791 340.823 138.013 339.678 136.08Z"
          fill="#7C5B4D"/>
    <path d="M481.914 259.273C482.254 259.03 482.726 259.108 482.969 259.448C483.19 259.757 483.145 260.176 482.88 260.432L482.793 260.504L410.335 312.296C409.995 312.539 409.523 312.46 409.28 312.12C409.059 311.811 409.104 311.393 409.369 311.136L409.455 311.065L481.914 259.273Z"
          fill="#A3B5D6"/>
    <path fill-rule="evenodd" clip-rule="evenodd"
          d="M490.113 214.456C500.517 229.145 497.043 249.486 482.354 259.888L417.493 305.826C402.804 316.229 382.462 312.755 372.059 298.065C361.656 283.378 365.129 263.035 379.818 252.633L444.681 206.696C459.37 196.292 479.711 199.766 490.113 214.456Z"
          fill="#E4EBF7"/>
    <path fill-rule="evenodd" clip-rule="evenodd"
          d="M372.291 180.875L389.938 157.818C394.538 151.81 403.057 150.487 409.262 154.821L483.327 206.54C497.62 217.482 500.338 237.937 489.398 252.232C478.456 266.523 458.001 269.242 443.706 258.301L374.441 200.311C368.638 195.452 367.689 186.885 372.291 180.875Z"
          fill="#E4EBF7"/>
    <path fill-rule="evenodd" clip-rule="evenodd"
          d="M411.655 231.262C389.702 223.824 375.87 226.15 364.359 230.27C361.227 231.393 344.951 245.794 329.941 245.212C314.077 244.595 299.45 227.678 296.62 227.791C275.855 228.627 259.678 233.755 246.782 237.652C246.782 237.652 239.069 262.523 246.602 298.743C246.602 298.743 242.734 322.078 243.873 336.487C243.873 336.487 214.778 406.998 249.271 415.689C254.347 416.969 279.575 419.589 301.428 420.002C328.482 420.512 358.157 420.433 376.062 420.029C415.489 419.142 426.926 396.264 409.955 339.811C409.955 339.811 411.691 308.507 410.376 294.645C415.912 259.57 411.655 231.262 411.655 231.262Z"
          fill="#E4EBF7"/>
    <path fill-rule="evenodd" clip-rule="evenodd"
          d="M298.164 236.472C298.164 236.472 315.706 296.663 325.644 322.09C355.761 266.681 361.942 230.005 362.789 229.911L324.395 246.303L298.164 236.472Z"
          fill="white"/>
    <path fill-rule="evenodd" clip-rule="evenodd"
          d="M315.809 252.627L329.287 243.205L341.665 252.645L335.844 268.976L320.212 268.631L315.809 252.627Z"
          fill="#253368"/>
    <path fill-rule="evenodd" clip-rule="evenodd"
          d="M314.001 288.284L320.32 267.294L335.843 267.731L341.649 290.243L327.086 322.984L314.001 288.284Z"
          fill="#253368"/>
    <path fill-rule="evenodd" clip-rule="evenodd"
          d="M330.005 242.94L351.93 261.459L365.301 230.378L361.313 224.218L330.005 242.94Z" fill="white"/>
    <path d="M360.924 223.569L329.616 242.291C329.171 242.557 329.12 243.183 329.516 243.518L351.441 262.037C351.829 262.365 352.424 262.225 352.625 261.758L365.996 230.677C366.096 230.445 366.073 230.179 365.936 229.967L361.947 223.807C361.726 223.465 361.274 223.36 360.924 223.569ZM361.073 225.242L364.446 230.45L351.637 260.222L331.302 243.045L361.073 225.242Z"
          fill="#E4EBF7"/>
    <path fill-rule="evenodd" clip-rule="evenodd"
          d="M328.739 242.478L305.101 260.991L295.017 229.249L300.63 223.358L328.739 242.478Z" fill="white"/>
    <path d="M300.083 222.836L294.47 228.727C294.279 228.927 294.213 229.215 294.296 229.478L304.381 261.22C304.541 261.723 305.153 261.912 305.569 261.587L329.206 243.074C329.61 242.758 329.589 242.141 329.165 241.852L301.056 222.733C300.75 222.525 300.339 222.568 300.083 222.836ZM300.736 224.345L327.458 242.52L305.493 259.722L295.873 229.446L300.736 224.345Z"
          fill="#E4EBF7"/>
    <path d="M294.347 228.504C294.751 228.398 295.165 228.639 295.271 229.043L296.031 231.86C296.28 232.772 296.556 233.769 296.858 234.847L297.385 236.723C298.552 240.847 299.868 245.355 301.321 250.161C306.112 266.004 311.408 281.846 317.054 296.629C320.232 304.948 323.435 312.697 326.649 319.771L327.078 320.709L330.774 312.191C331.822 309.767 332.926 307.207 334.077 304.531C339.421 292.107 344.765 279.536 349.801 267.485L352.223 261.671L354.281 256.704C358.367 246.809 361.98 237.875 365.022 230.114C365.174 229.725 365.613 229.533 366.002 229.686C366.391 229.838 366.583 230.277 366.431 230.666L365.354 233.402C362.177 241.44 358.442 250.625 354.245 260.747L352.354 265.296C347.749 276.347 342.861 287.885 337.933 299.385L332.96 310.947L328.694 320.79L327.791 322.861C327.53 323.458 326.687 323.468 326.412 322.877C322.801 315.116 319.204 306.498 315.641 297.169C309.98 282.349 304.674 266.474 299.873 250.599L298.887 247.315C297.709 243.361 296.632 239.634 295.662 236.187L294.831 233.202L294.021 230.231L293.807 229.428C293.701 229.024 293.943 228.61 294.347 228.504Z"
          fill="#A3B5D6"/>
    <path d="M307.053 355.072L308.736 354.961C321.201 354.203 336.216 354.634 352.731 357.051C353.145 357.111 353.431 357.495 353.37 357.909C353.31 358.322 352.926 358.608 352.512 358.548C335.735 356.093 320.519 355.7 307.991 356.525L307.16 356.581C306.174 356.651 305.28 356.725 304.481 356.799L303.465 356.899L302.53 357.005C302.116 357.058 301.737 356.766 301.683 356.351C301.629 355.937 301.922 355.558 302.336 355.504L303.071 355.419L303.561 355.368C304.557 355.267 305.724 355.166 307.053 355.072Z"
          fill="#A3B5D6"/>
    <path d="M309.987 344.915L313.349 345.15L316.507 345.361C317.575 345.431 318.655 345.5 319.739 345.568L323.317 345.784C323.958 345.821 324.59 345.857 325.213 345.892L328.598 346.073C334.768 346.385 339.167 346.501 341.092 346.363C341.509 346.333 341.871 346.647 341.901 347.063C341.931 347.48 341.617 347.842 341.2 347.872L340.695 347.901C338.259 348.008 333.329 347.846 326.567 347.482L324.185 347.35C323.552 347.313 322.909 347.276 322.258 347.237L321.276 347.178C319.644 347.079 318.012 346.976 316.409 346.871L309.877 346.424C309.461 346.394 309.147 346.031 309.178 345.615C309.206 345.233 309.512 344.937 309.884 344.914L309.987 344.915Z"
          fill="#A3B5D6"/>
    <path d="M327.117 321.801C327.5 321.81 327.81 322.103 327.851 322.473L327.855 322.576L325.515 418.973C325.504 419.391 325.158 419.721 324.74 419.711C324.357 419.701 324.047 419.409 324.006 419.039L324.002 418.936L326.343 322.539C326.353 322.121 326.7 321.791 327.117 321.801Z"
          fill="#A3B5D6"/>
    <path d="M410.384 293.889C410.767 293.893 411.08 294.18 411.127 294.55L411.133 294.653L410.713 339.694L410.968 340.503L411.281 341.533C411.425 342.019 411.578 342.542 411.737 343.101C412.531 345.892 413.324 348.994 414.065 352.328C416.068 361.342 417.317 370.331 417.443 378.735C417.583 388.011 416.333 396.031 413.434 402.426C407.887 414.664 401.611 418.056 376.894 420.147L376.139 420.21C336.946 423.438 300.819 422.505 269.539 418.992L267.506 418.759C262.489 418.172 257.972 417.554 253.987 416.935L251.624 416.557C250.957 416.447 250.332 416.341 249.75 416.239L248.662 416.046L247.616 415.851L247.435 415.816L247.336 415.789C246.884 415.633 246.134 415.283 245.184 414.688C243.622 413.709 242.064 412.383 240.614 410.659C237.654 407.14 235.526 402.432 234.58 396.377C234.516 395.964 234.798 395.577 235.211 395.512C235.624 395.448 236.011 395.73 236.075 396.143C236.978 401.927 238.99 406.379 241.772 409.685C243.117 411.284 244.554 412.508 245.987 413.406C246.385 413.655 246.759 413.864 247.102 414.035L247.353 414.156C247.512 414.23 247.637 414.284 247.725 414.319L247.785 414.342L249.177 414.601L250.011 414.749C251.021 414.925 252.163 415.115 253.434 415.316C258.108 416.057 263.551 416.797 269.708 417.489C300.416 420.937 335.818 421.892 374.213 418.848L376.015 418.702C400.866 416.656 406.717 413.581 412.055 401.802C414.85 395.637 416.067 387.829 415.93 378.758C415.806 370.469 414.57 361.577 412.588 352.656C411.854 349.353 411.068 346.278 410.281 343.515L409.939 342.332C409.793 341.834 409.653 341.373 409.523 340.95L409.238 340.049C409.22 339.997 409.209 339.943 409.203 339.888L409.199 339.805L409.62 294.638C409.624 294.221 409.966 293.885 410.384 293.889Z"
          fill="#A3B5D6"/>
    <path fill-rule="evenodd" clip-rule="evenodd"
          d="M224.955 378.649C242.472 382.786 260.027 371.937 264.163 354.419L282.429 277.066C286.567 259.549 275.72 241.994 258.201 237.857C240.684 233.72 223.129 244.568 218.993 262.087L200.725 339.44C196.589 356.958 207.436 374.512 224.955 378.649Z"
          fill="#E4EBF7"/>
    <path fill-rule="evenodd" clip-rule="evenodd"
          d="M310.8 571.232L205.442 562.333C202.649 562.097 200.577 559.642 200.813 556.85L207.058 482.907C207.295 480.114 209.75 478.043 212.541 478.277L317.899 487.177C320.691 487.413 322.764 489.869 322.528 492.661L316.282 566.603C316.047 569.395 313.591 571.468 310.8 571.232Z"
          fill="#B78376"/>
    <path fill-rule="evenodd" clip-rule="evenodd"
          d="M307.211 570.929L201.855 562.03C199.062 561.794 196.99 559.339 197.226 556.547L203.471 482.604C203.708 479.811 206.163 477.74 208.954 477.974L314.311 486.874C317.104 487.11 319.177 489.566 318.941 492.358L312.695 566.3C312.46 569.092 310.004 571.165 307.211 570.929Z"
          fill="#FAAD14"/>
    <path fill-rule="evenodd" clip-rule="evenodd"
          d="M224.286 479.511C224.286 479.511 221.571 451.107 233.076 444.22C243.492 437.981 253.253 450.197 253.253 450.197C253.253 450.197 256.728 458.782 262.398 470.624C265.318 476.721 278.319 485.311 273.613 484.553C264.223 483.043 261.448 482.778 256.951 482.288C247.84 481.3 250.897 512.989 249.276 517.944C246.108 527.63 227.283 513.608 224.286 479.511Z"
          fill="#B0927B"/>
    <path d="M242.311 490.526C242.62 490.576 242.831 490.867 242.781 491.176L242.693 491.802L242.613 492.459C242.574 492.807 242.534 493.183 242.497 493.585C241.886 500.136 242.138 507.355 243.874 514.142C244.192 515.389 244.558 516.6 244.974 517.771C245.078 518.066 244.924 518.39 244.628 518.495C244.333 518.6 244.009 518.445 243.904 518.15C243.477 516.946 243.101 515.703 242.774 514.423C241.001 507.491 240.745 500.149 241.367 493.479L241.445 492.695C241.459 492.57 241.472 492.448 241.486 492.33L241.606 491.369C241.629 491.2 241.648 491.075 241.66 490.996C241.705 490.718 241.945 490.519 242.219 490.519L242.311 490.526Z"
          fill="#7C5B4D"/>
    <path d="M234.781 487.687C235.094 487.706 235.333 487.975 235.314 488.288C234.844 496.172 235.474 503.216 236.811 509.256C237.131 510.701 237.471 511.987 237.812 513.106L237.94 513.518C238.048 513.855 238.149 514.157 238.241 514.421L238.445 514.971C238.563 515.261 238.423 515.592 238.132 515.71C237.842 515.828 237.511 515.688 237.393 515.397L237.243 514.998L237.097 514.585C237.047 514.438 236.995 514.282 236.941 514.116L236.859 513.861C236.464 512.617 236.07 511.16 235.703 509.501C234.344 503.362 233.705 496.214 234.181 488.22C234.2 487.907 234.468 487.669 234.781 487.687Z"
          fill="#7C5B4D"/>
    <path d="M228.888 483.039C229.199 483.078 229.419 483.362 229.38 483.673L229.342 484.058C229.33 484.19 229.318 484.35 229.306 484.536C229.02 488.978 229.416 495.397 231.04 503.648C231.1 503.956 230.9 504.254 230.592 504.315C230.285 504.375 229.987 504.175 229.926 503.868C228.329 495.751 227.904 489.365 228.151 484.846L228.174 484.463C228.203 484.005 228.233 483.693 228.254 483.53C228.29 483.251 228.523 483.044 228.796 483.035L228.888 483.039Z"
          fill="#7C5B4D"/>
    <path fill-rule="evenodd" clip-rule="evenodd"
          d="M224.714 462.629L253.668 460.441C261.214 459.872 266.974 453.459 266.735 445.894L263.872 355.603C262.515 337.655 246.866 324.203 228.916 325.559C210.969 326.916 197.518 342.565 198.873 360.514L209.61 450.209C210.509 457.725 217.167 463.199 224.714 462.629Z"
          fill="#E4EBF7"/>
    <path d="M275.924 301.309L276.026 301.323C276.402 301.4 276.654 301.743 276.629 302.115L276.615 302.217L265.729 355.172L268.591 445.376C268.839 453.238 262.937 459.919 255.146 460.675L254.825 460.702L225.871 462.889C218.029 463.482 211.097 457.879 210.002 450.13L209.959 449.806L199.222 360.109C199.173 359.694 199.469 359.318 199.884 359.268C200.264 359.223 200.612 359.468 200.706 359.828L200.725 359.929L211.462 449.627C212.298 456.632 218.427 461.765 225.438 461.4L225.757 461.38L254.711 459.194C261.746 458.662 267.142 452.764 267.085 445.743L267.079 445.424L264.214 355.132L264.229 354.955L275.133 301.912C275.21 301.537 275.553 301.284 275.924 301.309Z"
          fill="#A3B5D6"/>
    <path d="M379.721 204.282C379.968 203.993 380.385 203.937 380.697 204.134L380.788 204.201L430.832 247.18C431.149 247.453 431.185 247.93 430.913 248.247C430.666 248.535 430.248 248.592 429.936 248.395L429.846 248.328L379.802 205.348C379.485 205.076 379.448 204.599 379.721 204.282Z"
          fill="#A3B5D6"/>
</svg>
